<?xml version="1.0" encoding="UTF-8"?><svg id="Layer_2" xmlns="http://www.w3.org/2000/svg" viewBox="0 0 222.4 374.69"><defs><style>.cls-1,.cls-2,.cls-3,.cls-4,.cls-5,.cls-6,.cls-7,.cls-8{stroke-miterlimit:10;}.cls-1,.cls-2,.cls-4,.cls-5,.cls-6,.cls-7,.cls-8{stroke:#231f20;}.cls-1,.cls-3,.cls-4{fill:none;}.cls-2{fill:#00aeef;}.cls-9{fill:#231f20;}.cls-3{stroke:#ed1c24;}.cls-4,.cls-5,.cls-7{stroke-width:1.01px;}.cls-5,.cls-6{fill:#8e68ad;}.cls-6{stroke-width:.97px;}.cls-7{fill:#ec008c;}.cls-8{fill:#55a4db;}</style></defs><g id="Layer_1-2"><rect class="cls-2" x=".5" y="1.53" width="14.86" height="14.86"/><rect class="cls-2" x=".5" y="58.03" width="14.86" height="14.86"/><rect class="cls-2" x=".5" y="29.78" width="14.86" height="14.86"/><rect class="cls-2" x=".5" y="86.28" width="14.86" height="14.86"/><rect class="cls-2" x=".5" y="114.53" width="14.86" height="14.86"/><rect class="cls-8" x="80.12" y="1.97" width="14.86" height="14.86"/><rect class="cls-8" x="80.12" y="58.47" width="14.86" height="14.86"/><rect class="cls-8" x="80.12" y="30.22" width="14.86" height="14.86"/><rect class="cls-8" x="80.12" y="86.72" width="14.86" height="14.86"/><rect class="cls-8" x="80.12" y="114.97" width="14.86" height="14.86"/><rect class="cls-2" x="24.04" y="1.24" width="14.86" height="14.86"/><rect class="cls-2" x="24.04" y="57.74" width="14.86" height="14.86"/><rect class="cls-2" x="24.04" y="29.49" width="14.86" height="14.86"/><line class="cls-1" x1="119.42" y1="158.12" x2="119.42" y2="202.2"/><path class="cls-9" d="M119.42,208.24c-1.05-2.84-2.85-6.36-4.76-8.55l4.76,1.72,4.75-1.72c-1.9,2.18-3.7,5.71-4.75,8.55Z"/><rect class="cls-7" x="169.01" y="119.69" width="14.99" height="14.9"/><rect class="cls-5" x="169.01" y=".5" width="14.99" height="119.19"/><rect class="cls-7" x="169.01" y="134.59" width="14.99" height="14.9"/><line class="cls-4" x1="169.01" y1="104.8" x2="184" y2="104.8"/><line class="cls-4" x1="169.01" y1="89.9" x2="184" y2="89.9"/><line class="cls-4" x1="169.01" y1="75" x2="184" y2="75"/><line class="cls-4" x1="169.01" y1="60.1" x2="184" y2="60.1"/><line class="cls-4" x1="169.01" y1="45.2" x2="184" y2="45.2"/><line class="cls-4" x1="169.01" y1="30.3" x2="184" y2="30.3"/><line class="cls-4" x1="169.01" y1="15.4" x2="184" y2="15.4"/><rect class="cls-8" x="204.31" y=".5" width="14.86" height="14.86"/><rect class="cls-8" x="204.31" y="57" width="14.86" height="14.86"/><rect class="cls-8" x="204.31" y="28.75" width="14.86" height="14.86"/><rect class="cls-8" x="204.31" y="85.25" width="14.86" height="14.86"/><rect class="cls-8" x="204.31" y="113.5" width="14.86" height="14.86"/><line class="cls-3" x1="200.55" y1="110.2" x2="222.05" y2="131.7"/><line class="cls-3" x1="200.55" y1="81.4" x2="222.05" y2="102.9"/><rect class="cls-8" x="121.92" y="226.2" width="14.86" height="14.86"/><rect class="cls-8" x="121.92" y="282.7" width="14.86" height="14.86"/><rect class="cls-8" x="121.92" y="254.45" width="14.86" height="14.86"/><rect class="cls-6" x="90.04" y="226.2" width="14.05" height="148"/><line class="cls-6" x1="90.04" y1="359.41" x2="104.1" y2="359.41"/><line class="cls-6" x1="90.04" y1="344.61" x2="104.1" y2="344.61"/><line class="cls-6" x1="90.04" y1="329.81" x2="104.1" y2="329.81"/><line class="cls-6" x1="90.04" y1="315.01" x2="104.1" y2="315.01"/><line class="cls-6" x1="90.04" y1="300.2" x2="104.1" y2="300.2"/><line class="cls-6" x1="90.04" y1="285.4" x2="104.1" y2="285.4"/><line class="cls-6" x1="90.04" y1="270.6" x2="104.1" y2="270.6"/><line class="cls-6" x1="90.04" y1="255.8" x2="104.1" y2="255.8"/><line class="cls-6" x1="90.04" y1="241" x2="104.1" y2="241"/><line class="cls-1" x1="108.29" y1="60.81" x2="152.37" y2="60.81"/><path class="cls-9" d="M158.4,60.81c-2.84,1.05-6.36,2.85-8.55,4.76l1.72-4.76-1.72-4.75c2.18,1.9,5.71,3.7,8.55,4.75Z"/></g></svg>