<?xml version="1.0" encoding="UTF-8"?><svg id="Layer_2" xmlns="http://www.w3.org/2000/svg" viewBox="0 0 592.79 219.21"><defs><style>.cls-1,.cls-2,.cls-3,.cls-4,.cls-5,.cls-6{stroke:#231f20;stroke-miterlimit:10;}.cls-1,.cls-5{fill:none;}.cls-2{fill:#00aeef;}.cls-7{fill:#231f20;}.cls-3{fill:#fff;}.cls-4{fill:#f15a29;}.cls-5{stroke-dasharray:11.22 11.22;}.cls-6{fill:#8e68ad;}</style></defs><g id="Layer_1-2"><rect class="cls-3" x="1.96" y="146.71" width="114" height="72"/><rect class="cls-3" x="359.21" y="146.71" width="114" height="72"/><rect class="cls-3" x="240.12" y="146.71" width="114" height="72"/><rect class="cls-3" x="121.04" y="146.71" width="114" height="72"/><rect class="cls-3" x="478.29" y="146.71" width="114" height="72"/><rect class="cls-3" x=".5" y=".5" width="114" height="72"/><rect class="cls-3" x="357.75" y=".5" width="114" height="72"/><rect class="cls-3" x="238.67" y=".5" width="114" height="72"/><rect class="cls-3" x="119.58" y=".5" width="114" height="72"/><rect class="cls-3" x="476.84" y=".5" width="114" height="72"/><line class="cls-1" x1="2.5" y1="187.84" x2="8.5" y2="187.84"/><line class="cls-5" x1="19.71" y1="187.84" x2="103.83" y2="187.84"/><line class="cls-1" x1="109.44" y1="187.84" x2="115.44" y2="187.84"/><line class="cls-1" x1="121.37" y1="187.84" x2="127.37" y2="187.84"/><line class="cls-5" x1="138.58" y1="187.84" x2="222.7" y2="187.84"/><line class="cls-1" x1="228.31" y1="187.84" x2="234.31" y2="187.84"/><line class="cls-1" x1="241.21" y1="187.84" x2="247.21" y2="187.84"/><line class="cls-5" x1="258.43" y1="187.84" x2="342.55" y2="187.84"/><line class="cls-1" x1="348.16" y1="187.84" x2="354.16" y2="187.84"/><line class="cls-1" x1="359.67" y1="187.84" x2="365.67" y2="187.84"/><line class="cls-5" x1="376.89" y1="187.84" x2="461.01" y2="187.84"/><line class="cls-1" x1="466.61" y1="187.84" x2="472.61" y2="187.84"/><line class="cls-1" x1="478.83" y1="187.84" x2="484.83" y2="187.84"/><line class="cls-5" x1="496.04" y1="187.84" x2="580.16" y2="187.84"/><line class="cls-1" x1="585.77" y1="187.84" x2="591.77" y2="187.84"/><line class="cls-1" x1="301.79" y1="90.71" x2="301.79" y2="128.72"/><path class="cls-7" d="M301.79,134.76c-1.05-2.84-2.85-6.36-4.76-8.55l4.76,1.72,4.75-1.72c-1.9,2.18-3.7,5.71-4.75,8.55Z"/><rect class="cls-6" x="17.98" y="15.71" width="14.86" height="14.86"/><rect class="cls-6" x="40.24" y="15.71" width="14.86" height="14.86"/><rect class="cls-6" x="62.51" y="15.71" width="14.86" height="14.86"/><rect class="cls-6" x="84.77" y="15.71" width="14.86" height="14.86"/><rect class="cls-6" x="29.05" y="42.45" width="14.86" height="14.86"/><rect class="cls-6" x="51.37" y="42.45" width="14.86" height="14.86"/><rect class="cls-6" x="73.7" y="42.45" width="14.86" height="14.86"/><rect class="cls-4" x="8.22" y="160.66" width="14.86" height="14.86"/><rect class="cls-4" x="29.94" y="160.66" width="14.86" height="14.86"/><rect class="cls-4" x="51.65" y="160.66" width="14.86" height="14.86"/><rect class="cls-4" x="73.37" y="160.66" width="14.86" height="14.86"/><rect class="cls-4" x="95.08" y="160.66" width="14.86" height="14.86"/><rect class="cls-2" x="40.6" y="196.78" width="14.86" height="14.86"/><rect class="cls-2" x="62.71" y="196.78" width="14.86" height="14.86"/><rect class="cls-4" x="127.36" y="160.66" width="14.86" height="14.86"/><rect class="cls-4" x="149.08" y="160.66" width="14.86" height="14.86"/><rect class="cls-4" x="170.79" y="160.66" width="14.86" height="14.86"/><rect class="cls-4" x="192.51" y="160.66" width="14.86" height="14.86"/><rect class="cls-4" x="214.22" y="160.66" width="14.86" height="14.86"/><rect class="cls-2" x="159.74" y="196.78" width="14.86" height="14.86"/><rect class="cls-2" x="181.85" y="196.78" width="14.86" height="14.86"/><rect class="cls-4" x="246.5" y="160.66" width="14.86" height="14.86"/><rect class="cls-4" x="268.21" y="160.66" width="14.86" height="14.86"/><rect class="cls-4" x="289.93" y="160.66" width="14.86" height="14.86"/><rect class="cls-4" x="311.64" y="160.66" width="14.86" height="14.86"/><rect class="cls-4" x="333.36" y="160.66" width="14.86" height="14.86"/><rect class="cls-2" x="278.87" y="196.78" width="14.86" height="14.86"/><rect class="cls-2" x="300.98" y="196.78" width="14.86" height="14.86"/><rect class="cls-4" x="365.64" y="160.66" width="14.86" height="14.86"/><rect class="cls-4" x="387.35" y="160.66" width="14.86" height="14.86"/><rect class="cls-4" x="409.07" y="160.66" width="14.86" height="14.86"/><rect class="cls-4" x="430.78" y="160.66" width="14.86" height="14.86"/><rect class="cls-4" x="452.5" y="160.66" width="14.86" height="14.86"/><rect class="cls-2" x="398.01" y="196.78" width="14.86" height="14.86"/><rect class="cls-2" x="420.12" y="196.78" width="14.86" height="14.86"/><rect class="cls-4" x="484.78" y="160.66" width="14.86" height="14.86"/><rect class="cls-4" x="506.49" y="160.66" width="14.86" height="14.86"/><rect class="cls-4" x="528.21" y="160.66" width="14.86" height="14.86"/><rect class="cls-4" x="549.92" y="160.66" width="14.86" height="14.86"/><rect class="cls-4" x="571.64" y="160.66" width="14.86" height="14.86"/><rect class="cls-2" x="517.15" y="196.78" width="14.86" height="14.86"/><rect class="cls-2" x="539.26" y="196.78" width="14.86" height="14.86"/><rect class="cls-6" x="136.37" y="15.71" width="14.86" height="14.86"/><rect class="cls-6" x="158.63" y="15.71" width="14.86" height="14.86"/><rect class="cls-6" x="180.89" y="15.71" width="14.86" height="14.86"/><rect class="cls-6" x="203.15" y="15.71" width="14.86" height="14.86"/><rect class="cls-6" x="147.43" y="42.45" width="14.86" height="14.86"/><rect class="cls-6" x="169.76" y="42.45" width="14.86" height="14.86"/><rect class="cls-6" x="192.09" y="42.45" width="14.86" height="14.86"/><rect class="cls-6" x="254.75" y="15.71" width="14.86" height="14.86"/><rect class="cls-6" x="277.02" y="15.71" width="14.86" height="14.86"/><rect class="cls-6" x="299.28" y="15.71" width="14.86" height="14.86"/><rect class="cls-6" x="321.54" y="15.71" width="14.86" height="14.86"/><rect class="cls-6" x="265.82" y="42.45" width="14.86" height="14.86"/><rect class="cls-6" x="288.15" y="42.45" width="14.86" height="14.86"/><rect class="cls-6" x="310.48" y="42.45" width="14.86" height="14.86"/><rect class="cls-6" x="373.14" y="15.71" width="14.86" height="14.86"/><rect class="cls-6" x="395.4" y="15.71" width="14.86" height="14.86"/><rect class="cls-6" x="417.66" y="15.71" width="14.86" height="14.86"/><rect class="cls-6" x="439.93" y="15.71" width="14.86" height="14.86"/><rect class="cls-6" x="384.2" y="42.45" width="14.86" height="14.86"/><rect class="cls-6" x="406.53" y="42.45" width="14.86" height="14.86"/><rect class="cls-6" x="428.86" y="42.45" width="14.86" height="14.86"/><rect class="cls-6" x="491.52" y="15.71" width="14.86" height="14.86"/><rect class="cls-6" x="513.79" y="15.71" width="14.86" height="14.86"/><rect class="cls-6" x="536.05" y="15.71" width="14.86" height="14.86"/><rect class="cls-6" x="558.31" y="15.71" width="14.86" height="14.86"/><rect class="cls-6" x="502.59" y="42.45" width="14.86" height="14.86"/><rect class="cls-6" x="524.92" y="42.45" width="14.86" height="14.86"/><rect class="cls-6" x="547.25" y="42.45" width="14.86" height="14.86"/></g></svg>