
<svg xmlns="http://www.w3.org/2000/svg" version="1.1" xmlns:xlink="http://www.w3.org/1999/xlink" preserveAspectRatio="none" x="0px" y="0px" width="792px" height="612px" viewBox="0 0 792 612">
<defs>
<g id="Layer0_0_FILL">
<path fill="#00A259" stroke="none" d="
M 38.5 116.5
L 28.5 116.5 28.5 216.5 38.5 216.5 38.5 116.5 Z"/>
</g>

<g id="Layer0_10_FILL">
<path fill="#00A259" stroke="none" d="
M 68.5 116.5
L 68.5 126.5 78.5 126.5 78.5 116.5 68.5 116.5 Z"/>
</g>

<g id="Layer0_11_FILL">
<path fill="#00A259" stroke="none" d="
M 48.5 116.5
L 38.5 116.5 38.5 216.5 48.5 216.5 48.5 116.5 Z"/>
</g>

<g id="Layer0_21_FILL">
<path fill="#00A259" stroke="none" d="
M 58.5 116.5
L 48.5 116.5 48.5 216.5 58.5 216.5 58.5 116.5 Z"/>
</g>

<g id="Layer0_31_FILL">
<path fill="#00A259" stroke="none" d="
M 28.5 116.5
L 18.5 116.5 18.5 216.5 28.5 216.5 28.5 116.5 Z"/>
</g>

<g id="Layer0_41_FILL">
<path fill="#00A259" stroke="none" d="
M 68.5 126.5
L 68.5 136.5 78.5 136.5 78.5 126.5 68.5 126.5 Z"/>
</g>

<g id="Layer0_42_FILL">
<path fill="#00A259" stroke="none" d="
M 68.5 136.45
L 68.5 146.45 78.5 146.45 78.5 136.45 68.5 136.45 Z"/>
</g>

<g id="Layer0_43_FILL">
<path fill="#00A259" stroke="none" d="
M 78.5 146.45
L 68.5 146.45 68.5 156.45 78.5 156.45 78.5 146.45 Z"/>
</g>

<g id="Layer0_44_FILL">
<path fill="#00A259" stroke="none" d="
M 68.5 156.5
L 68.5 166.5 78.5 166.5 78.5 156.5 68.5 156.5 Z"/>
</g>

<g id="Layer0_45_FILL">
<path fill="#00A259" stroke="none" d="
M 68.5 166.5
L 68.5 176.5 78.5 176.5 78.5 166.5 68.5 166.5 Z"/>
</g>

<g id="Layer0_46_FILL">
<path fill="#FFF34A" stroke="none" d="
M 113.5 116.5
L 103.5 116.5 103.5 216.5 113.5 216.5 113.5 116.5 Z"/>
</g>

<g id="Layer0_56_FILL">
<path fill="#FFF34A" stroke="none" d="
M 153.5 146.5
L 143.5 146.5 143.5 156.5 153.5 156.5 153.5 146.5 Z"/>
</g>

<g id="Layer0_57_FILL">
<path fill="#FFF34A" stroke="none" d="
M 123.5 116.5
L 113.5 116.5 113.5 216.5 123.5 216.5 123.5 116.5 Z"/>
</g>

<g id="Layer0_67_FILL">
<path fill="#FFF34A" stroke="none" d="
M 133.5 116.5
L 123.5 116.5 123.5 216.5 133.5 216.5 133.5 116.5 Z"/>
</g>

<g id="Layer0_77_FILL">
<path fill="#FFF34A" stroke="none" d="
M 143.5 136.5
L 143.5 146.5 153.5 146.5 153.5 136.5 143.5 136.5 Z"/>
</g>

<g id="Layer0_78_FILL">
<path fill="#FFF34A" stroke="none" d="
M 143.5 156.5
L 143.5 166.5 153.5 166.5 153.5 156.5 143.5 156.5 Z"/>
</g>

<g id="Layer0_79_FILL">
<path fill="#FFF34A" stroke="none" d="
M 143.5 126.5
L 143.5 136.5 153.5 136.5 153.5 126.5 143.5 126.5 Z"/>
</g>

<g id="Layer0_80_FILL">
<path fill="#FFF34A" stroke="none" d="
M 143.5 116.5
L 143.5 126.5 153.5 126.5 153.5 116.5 143.5 116.5 Z"/>
</g>

<g id="Layer0_81_FILL">
<path fill="#FFF34A" stroke="none" d="
M 143.5 176.5
L 143.5 186.5 153.5 186.5 153.5 176.5 143.5 176.5 Z"/>
</g>

<g id="Layer0_82_FILL">
<path fill="#FFF34A" stroke="none" d="
M 143.5 166.5
L 143.5 176.5 153.5 176.5 153.5 166.5 143.5 166.5 Z"/>
</g>

<path id="Layer0_0_1_STROKES" stroke="#221F20" stroke-width="1" stroke-linejoin="miter" stroke-linecap="butt" stroke-miterlimit="10" fill="none" d="
M 28.5 116.5
L 38.5 116.5 38.5 216.5 28.5 216.5 28.5 116.5 Z"/>

<path id="Layer0_1_MEMBER_0_1_STROKES" stroke="#221F20" stroke-width="1" stroke-linejoin="miter" stroke-linecap="butt" stroke-miterlimit="10" fill="none" d="
M 29 206.5
L 39 206.5"/>

<path id="Layer0_2_MEMBER_0_1_STROKES" stroke="#221F20" stroke-width="1" stroke-linejoin="miter" stroke-linecap="butt" stroke-miterlimit="10" fill="none" d="
M 29 196.5
L 39 196.5"/>

<path id="Layer0_3_MEMBER_0_1_STROKES" stroke="#221F20" stroke-width="1" stroke-linejoin="miter" stroke-linecap="butt" stroke-miterlimit="10" fill="none" d="
M 29 186.45
L 39 186.45"/>

<path id="Layer0_4_MEMBER_0_1_STROKES" stroke="#221F20" stroke-width="1" stroke-linejoin="miter" stroke-linecap="butt" stroke-miterlimit="10" fill="none" d="
M 29 176.45
L 39 176.45"/>

<path id="Layer0_5_MEMBER_0_1_STROKES" stroke="#221F20" stroke-width="1" stroke-linejoin="miter" stroke-linecap="butt" stroke-miterlimit="10" fill="none" d="
M 29 166.5
L 39 166.5"/>

<path id="Layer0_6_MEMBER_0_1_STROKES" stroke="#221F20" stroke-width="1" stroke-linejoin="miter" stroke-linecap="butt" stroke-miterlimit="10" fill="none" d="
M 29 156.5
L 39 156.5"/>

<path id="Layer0_7_MEMBER_0_1_STROKES" stroke="#221F20" stroke-width="1" stroke-linejoin="miter" stroke-linecap="butt" stroke-miterlimit="10" fill="none" d="
M 29 146.5
L 39 146.5"/>

<path id="Layer0_8_MEMBER_0_1_STROKES" stroke="#221F20" stroke-width="1" stroke-linejoin="miter" stroke-linecap="butt" stroke-miterlimit="10" fill="none" d="
M 29 136.45
L 39 136.45"/>

<path id="Layer0_9_MEMBER_0_1_STROKES" stroke="#221F20" stroke-width="1" stroke-linejoin="miter" stroke-linecap="butt" stroke-miterlimit="10" fill="none" d="
M 29 126.45
L 39 126.45"/>

<path id="Layer0_10_1_STROKES" stroke="#221F20" stroke-width="1" stroke-linejoin="miter" stroke-linecap="butt" stroke-miterlimit="10" fill="none" d="
M 68.5 116.5
L 78.5 116.5 78.5 126.5 68.5 126.5 68.5 116.5 Z"/>

<path id="Layer0_11_1_STROKES" stroke="#221F20" stroke-width="1" stroke-linejoin="miter" stroke-linecap="butt" stroke-miterlimit="10" fill="none" d="
M 38.5 116.5
L 48.5 116.5 48.5 216.5 38.5 216.5 38.5 116.5 Z"/>

<path id="Layer0_12_MEMBER_0_1_STROKES" stroke="#221F20" stroke-width="1" stroke-linejoin="miter" stroke-linecap="butt" stroke-miterlimit="10" fill="none" d="
M 39 206.5
L 49 206.5"/>

<path id="Layer0_13_MEMBER_0_1_STROKES" stroke="#221F20" stroke-width="1" stroke-linejoin="miter" stroke-linecap="butt" stroke-miterlimit="10" fill="none" d="
M 39 196.5
L 49 196.5"/>

<path id="Layer0_14_MEMBER_0_1_STROKES" stroke="#221F20" stroke-width="1" stroke-linejoin="miter" stroke-linecap="butt" stroke-miterlimit="10" fill="none" d="
M 39 186.45
L 49 186.45"/>

<path id="Layer0_15_MEMBER_0_1_STROKES" stroke="#221F20" stroke-width="1" stroke-linejoin="miter" stroke-linecap="butt" stroke-miterlimit="10" fill="none" d="
M 39 176.45
L 49 176.45"/>

<path id="Layer0_16_MEMBER_0_1_STROKES" stroke="#221F20" stroke-width="1" stroke-linejoin="miter" stroke-linecap="butt" stroke-miterlimit="10" fill="none" d="
M 39 166.5
L 49 166.5"/>

<path id="Layer0_17_MEMBER_0_1_STROKES" stroke="#221F20" stroke-width="1" stroke-linejoin="miter" stroke-linecap="butt" stroke-miterlimit="10" fill="none" d="
M 39 156.5
L 49 156.5"/>

<path id="Layer0_18_MEMBER_0_1_STROKES" stroke="#221F20" stroke-width="1" stroke-linejoin="miter" stroke-linecap="butt" stroke-miterlimit="10" fill="none" d="
M 39 146.5
L 49 146.5"/>

<path id="Layer0_19_MEMBER_0_1_STROKES" stroke="#221F20" stroke-width="1" stroke-linejoin="miter" stroke-linecap="butt" stroke-miterlimit="10" fill="none" d="
M 39 136.45
L 49 136.45"/>

<path id="Layer0_20_MEMBER_0_1_STROKES" stroke="#221F20" stroke-width="1" stroke-linejoin="miter" stroke-linecap="butt" stroke-miterlimit="10" fill="none" d="
M 39 126.45
L 49 126.45"/>

<path id="Layer0_21_1_STROKES" stroke="#221F20" stroke-width="1" stroke-linejoin="miter" stroke-linecap="butt" stroke-miterlimit="10" fill="none" d="
M 48.5 116.5
L 58.5 116.5 58.5 216.5 48.5 216.5 48.5 116.5 Z"/>

<path id="Layer0_22_MEMBER_0_1_STROKES" stroke="#221F20" stroke-width="1" stroke-linejoin="miter" stroke-linecap="butt" stroke-miterlimit="10" fill="none" d="
M 49 206.5
L 59 206.5"/>

<path id="Layer0_23_MEMBER_0_1_STROKES" stroke="#221F20" stroke-width="1" stroke-linejoin="miter" stroke-linecap="butt" stroke-miterlimit="10" fill="none" d="
M 49 196.5
L 59 196.5"/>

<path id="Layer0_24_MEMBER_0_1_STROKES" stroke="#221F20" stroke-width="1" stroke-linejoin="miter" stroke-linecap="butt" stroke-miterlimit="10" fill="none" d="
M 49 186.45
L 59 186.45"/>

<path id="Layer0_25_MEMBER_0_1_STROKES" stroke="#221F20" stroke-width="1" stroke-linejoin="miter" stroke-linecap="butt" stroke-miterlimit="10" fill="none" d="
M 49 176.45
L 59 176.45"/>

<path id="Layer0_26_MEMBER_0_1_STROKES" stroke="#221F20" stroke-width="1" stroke-linejoin="miter" stroke-linecap="butt" stroke-miterlimit="10" fill="none" d="
M 49 166.5
L 59 166.5"/>

<path id="Layer0_27_MEMBER_0_1_STROKES" stroke="#221F20" stroke-width="1" stroke-linejoin="miter" stroke-linecap="butt" stroke-miterlimit="10" fill="none" d="
M 49 156.5
L 59 156.5"/>

<path id="Layer0_28_MEMBER_0_1_STROKES" stroke="#221F20" stroke-width="1" stroke-linejoin="miter" stroke-linecap="butt" stroke-miterlimit="10" fill="none" d="
M 49 146.5
L 59 146.5"/>

<path id="Layer0_29_MEMBER_0_1_STROKES" stroke="#221F20" stroke-width="1" stroke-linejoin="miter" stroke-linecap="butt" stroke-miterlimit="10" fill="none" d="
M 49 136.45
L 59 136.45"/>

<path id="Layer0_30_MEMBER_0_1_STROKES" stroke="#221F20" stroke-width="1" stroke-linejoin="miter" stroke-linecap="butt" stroke-miterlimit="10" fill="none" d="
M 49 126.45
L 59 126.45"/>

<path id="Layer0_31_1_STROKES" stroke="#221F20" stroke-width="1" stroke-linejoin="miter" stroke-linecap="butt" stroke-miterlimit="10" fill="none" d="
M 18.5 116.5
L 28.5 116.5 28.5 216.5 18.5 216.5 18.5 116.5 Z"/>

<path id="Layer0_32_MEMBER_0_1_STROKES" stroke="#221F20" stroke-width="1" stroke-linejoin="miter" stroke-linecap="butt" stroke-miterlimit="10" fill="none" d="
M 19 206.5
L 29 206.5"/>

<path id="Layer0_33_MEMBER_0_1_STROKES" stroke="#221F20" stroke-width="1" stroke-linejoin="miter" stroke-linecap="butt" stroke-miterlimit="10" fill="none" d="
M 19 196.5
L 29 196.5"/>

<path id="Layer0_34_MEMBER_0_1_STROKES" stroke="#221F20" stroke-width="1" stroke-linejoin="miter" stroke-linecap="butt" stroke-miterlimit="10" fill="none" d="
M 19 186.45
L 29 186.45"/>

<path id="Layer0_35_MEMBER_0_1_STROKES" stroke="#221F20" stroke-width="1" stroke-linejoin="miter" stroke-linecap="butt" stroke-miterlimit="10" fill="none" d="
M 19 176.45
L 29 176.45"/>

<path id="Layer0_36_MEMBER_0_1_STROKES" stroke="#221F20" stroke-width="1" stroke-linejoin="miter" stroke-linecap="butt" stroke-miterlimit="10" fill="none" d="
M 19 166.5
L 29 166.5"/>

<path id="Layer0_37_MEMBER_0_1_STROKES" stroke="#221F20" stroke-width="1" stroke-linejoin="miter" stroke-linecap="butt" stroke-miterlimit="10" fill="none" d="
M 19 156.5
L 29 156.5"/>

<path id="Layer0_38_MEMBER_0_1_STROKES" stroke="#221F20" stroke-width="1" stroke-linejoin="miter" stroke-linecap="butt" stroke-miterlimit="10" fill="none" d="
M 19 146.5
L 29 146.5"/>

<path id="Layer0_39_MEMBER_0_1_STROKES" stroke="#221F20" stroke-width="1" stroke-linejoin="miter" stroke-linecap="butt" stroke-miterlimit="10" fill="none" d="
M 19 136.45
L 29 136.45"/>

<path id="Layer0_40_MEMBER_0_1_STROKES" stroke="#221F20" stroke-width="1" stroke-linejoin="miter" stroke-linecap="butt" stroke-miterlimit="10" fill="none" d="
M 19 126.45
L 29 126.45"/>

<path id="Layer0_41_1_STROKES" stroke="#221F20" stroke-width="1" stroke-linejoin="miter" stroke-linecap="butt" stroke-miterlimit="10" fill="none" d="
M 68.5 126.5
L 78.5 126.5 78.5 136.5 68.5 136.5 68.5 126.5 Z"/>

<path id="Layer0_42_1_STROKES" stroke="#221F20" stroke-width="1" stroke-linejoin="miter" stroke-linecap="butt" stroke-miterlimit="10" fill="none" d="
M 68.5 136.45
L 78.5 136.45 78.5 146.45 68.5 146.45 68.5 136.45 Z"/>

<path id="Layer0_43_1_STROKES" stroke="#221F20" stroke-width="1" stroke-linejoin="miter" stroke-linecap="butt" stroke-miterlimit="10" fill="none" d="
M 68.5 146.45
L 78.5 146.45 78.5 156.45 68.5 156.45 68.5 146.45 Z"/>

<path id="Layer0_44_1_STROKES" stroke="#221F20" stroke-width="1" stroke-linejoin="miter" stroke-linecap="butt" stroke-miterlimit="10" fill="none" d="
M 68.5 156.5
L 78.5 156.5 78.5 166.5 68.5 166.5 68.5 156.5 Z"/>

<path id="Layer0_45_1_STROKES" stroke="#221F20" stroke-width="1" stroke-linejoin="miter" stroke-linecap="butt" stroke-miterlimit="10" fill="none" d="
M 68.5 166.5
L 78.5 166.5 78.5 176.5 68.5 176.5 68.5 166.5 Z"/>

<path id="Layer0_46_1_STROKES" stroke="#221F20" stroke-width="1" stroke-linejoin="miter" stroke-linecap="butt" stroke-miterlimit="10" fill="none" d="
M 103.5 116.5
L 113.5 116.5 113.5 216.5 103.5 216.5 103.5 116.5 Z"/>

<path id="Layer0_47_MEMBER_0_1_STROKES" stroke="#221F20" stroke-width="1" stroke-linejoin="miter" stroke-linecap="butt" stroke-miterlimit="10" fill="none" d="
M 104 206.5
L 114 206.5"/>

<path id="Layer0_48_MEMBER_0_1_STROKES" stroke="#221F20" stroke-width="1" stroke-linejoin="miter" stroke-linecap="butt" stroke-miterlimit="10" fill="none" d="
M 104 196.5
L 114 196.5"/>

<path id="Layer0_49_MEMBER_0_1_STROKES" stroke="#221F20" stroke-width="1" stroke-linejoin="miter" stroke-linecap="butt" stroke-miterlimit="10" fill="none" d="
M 104 186.5
L 114 186.5"/>

<path id="Layer0_50_MEMBER_0_1_STROKES" stroke="#221F20" stroke-width="1" stroke-linejoin="miter" stroke-linecap="butt" stroke-miterlimit="10" fill="none" d="
M 104 176.5
L 114 176.5"/>

<path id="Layer0_51_MEMBER_0_1_STROKES" stroke="#221F20" stroke-width="1" stroke-linejoin="miter" stroke-linecap="butt" stroke-miterlimit="10" fill="none" d="
M 104 166.5
L 114 166.5"/>

<path id="Layer0_52_MEMBER_0_1_STROKES" stroke="#221F20" stroke-width="1" stroke-linejoin="miter" stroke-linecap="butt" stroke-miterlimit="10" fill="none" d="
M 104 156.5
L 114 156.5"/>

<path id="Layer0_53_MEMBER_0_1_STROKES" stroke="#221F20" stroke-width="1" stroke-linejoin="miter" stroke-linecap="butt" stroke-miterlimit="10" fill="none" d="
M 104 146.5
L 114 146.5"/>

<path id="Layer0_54_MEMBER_0_1_STROKES" stroke="#221F20" stroke-width="1" stroke-linejoin="miter" stroke-linecap="butt" stroke-miterlimit="10" fill="none" d="
M 104 136.5
L 114 136.5"/>

<path id="Layer0_55_MEMBER_0_1_STROKES" stroke="#221F20" stroke-width="1" stroke-linejoin="miter" stroke-linecap="butt" stroke-miterlimit="10" fill="none" d="
M 104 126.5
L 114 126.5"/>

<path id="Layer0_56_1_STROKES" stroke="#221F20" stroke-width="1" stroke-linejoin="miter" stroke-linecap="butt" stroke-miterlimit="10" fill="none" d="
M 143.5 146.5
L 153.5 146.5 153.5 156.5 143.5 156.5 143.5 146.5 Z"/>

<path id="Layer0_57_1_STROKES" stroke="#221F20" stroke-width="1" stroke-linejoin="miter" stroke-linecap="butt" stroke-miterlimit="10" fill="none" d="
M 113.5 116.5
L 123.5 116.5 123.5 216.5 113.5 216.5 113.5 116.5 Z"/>

<path id="Layer0_58_MEMBER_0_1_STROKES" stroke="#221F20" stroke-width="1" stroke-linejoin="miter" stroke-linecap="butt" stroke-miterlimit="10" fill="none" d="
M 114 206.5
L 124 206.5"/>

<path id="Layer0_59_MEMBER_0_1_STROKES" stroke="#221F20" stroke-width="1" stroke-linejoin="miter" stroke-linecap="butt" stroke-miterlimit="10" fill="none" d="
M 114 196.5
L 124 196.5"/>

<path id="Layer0_60_MEMBER_0_1_STROKES" stroke="#221F20" stroke-width="1" stroke-linejoin="miter" stroke-linecap="butt" stroke-miterlimit="10" fill="none" d="
M 114 186.5
L 124 186.5"/>

<path id="Layer0_61_MEMBER_0_1_STROKES" stroke="#221F20" stroke-width="1" stroke-linejoin="miter" stroke-linecap="butt" stroke-miterlimit="10" fill="none" d="
M 114 176.5
L 124 176.5"/>

<path id="Layer0_62_MEMBER_0_1_STROKES" stroke="#221F20" stroke-width="1" stroke-linejoin="miter" stroke-linecap="butt" stroke-miterlimit="10" fill="none" d="
M 114 166.5
L 124 166.5"/>

<path id="Layer0_63_MEMBER_0_1_STROKES" stroke="#221F20" stroke-width="1" stroke-linejoin="miter" stroke-linecap="butt" stroke-miterlimit="10" fill="none" d="
M 114 156.5
L 124 156.5"/>

<path id="Layer0_64_MEMBER_0_1_STROKES" stroke="#221F20" stroke-width="1" stroke-linejoin="miter" stroke-linecap="butt" stroke-miterlimit="10" fill="none" d="
M 114 146.5
L 124 146.5"/>

<path id="Layer0_65_MEMBER_0_1_STROKES" stroke="#221F20" stroke-width="1" stroke-linejoin="miter" stroke-linecap="butt" stroke-miterlimit="10" fill="none" d="
M 114 136.5
L 124 136.5"/>

<path id="Layer0_66_MEMBER_0_1_STROKES" stroke="#221F20" stroke-width="1" stroke-linejoin="miter" stroke-linecap="butt" stroke-miterlimit="10" fill="none" d="
M 114 126.5
L 124 126.5"/>

<path id="Layer0_67_1_STROKES" stroke="#221F20" stroke-width="1" stroke-linejoin="miter" stroke-linecap="butt" stroke-miterlimit="10" fill="none" d="
M 123.5 116.5
L 133.5 116.5 133.5 216.5 123.5 216.5 123.5 116.5 Z"/>

<path id="Layer0_68_MEMBER_0_1_STROKES" stroke="#221F20" stroke-width="1" stroke-linejoin="miter" stroke-linecap="butt" stroke-miterlimit="10" fill="none" d="
M 124 206.5
L 134 206.5"/>

<path id="Layer0_69_MEMBER_0_1_STROKES" stroke="#221F20" stroke-width="1" stroke-linejoin="miter" stroke-linecap="butt" stroke-miterlimit="10" fill="none" d="
M 124 196.5
L 134 196.5"/>

<path id="Layer0_70_MEMBER_0_1_STROKES" stroke="#221F20" stroke-width="1" stroke-linejoin="miter" stroke-linecap="butt" stroke-miterlimit="10" fill="none" d="
M 124 186.5
L 134 186.5"/>

<path id="Layer0_71_MEMBER_0_1_STROKES" stroke="#221F20" stroke-width="1" stroke-linejoin="miter" stroke-linecap="butt" stroke-miterlimit="10" fill="none" d="
M 124 176.5
L 134 176.5"/>

<path id="Layer0_72_MEMBER_0_1_STROKES" stroke="#221F20" stroke-width="1" stroke-linejoin="miter" stroke-linecap="butt" stroke-miterlimit="10" fill="none" d="
M 124 166.5
L 134 166.5"/>

<path id="Layer0_73_MEMBER_0_1_STROKES" stroke="#221F20" stroke-width="1" stroke-linejoin="miter" stroke-linecap="butt" stroke-miterlimit="10" fill="none" d="
M 124 156.5
L 134 156.5"/>

<path id="Layer0_74_MEMBER_0_1_STROKES" stroke="#221F20" stroke-width="1" stroke-linejoin="miter" stroke-linecap="butt" stroke-miterlimit="10" fill="none" d="
M 124 146.5
L 134 146.5"/>

<path id="Layer0_75_MEMBER_0_1_STROKES" stroke="#221F20" stroke-width="1" stroke-linejoin="miter" stroke-linecap="butt" stroke-miterlimit="10" fill="none" d="
M 124 136.5
L 134 136.5"/>

<path id="Layer0_76_MEMBER_0_1_STROKES" stroke="#221F20" stroke-width="1" stroke-linejoin="miter" stroke-linecap="butt" stroke-miterlimit="10" fill="none" d="
M 124 126.5
L 134 126.5"/>

<path id="Layer0_77_1_STROKES" stroke="#221F20" stroke-width="1" stroke-linejoin="miter" stroke-linecap="butt" stroke-miterlimit="10" fill="none" d="
M 143.5 136.5
L 153.5 136.5 153.5 146.5 143.5 146.5 143.5 136.5 Z"/>

<path id="Layer0_78_1_STROKES" stroke="#221F20" stroke-width="1" stroke-linejoin="miter" stroke-linecap="butt" stroke-miterlimit="10" fill="none" d="
M 143.5 156.5
L 153.5 156.5 153.5 166.5 143.5 166.5 143.5 156.5 Z"/>

<path id="Layer0_79_1_STROKES" stroke="#221F20" stroke-width="1" stroke-linejoin="miter" stroke-linecap="butt" stroke-miterlimit="10" fill="none" d="
M 143.5 126.5
L 153.5 126.5 153.5 136.5 143.5 136.5 143.5 126.5 Z"/>

<path id="Layer0_80_1_STROKES" stroke="#221F20" stroke-width="1" stroke-linejoin="miter" stroke-linecap="butt" stroke-miterlimit="10" fill="none" d="
M 143.5 116.5
L 153.5 116.5 153.5 126.5 143.5 126.5 143.5 116.5 Z"/>

<path id="Layer0_81_1_STROKES" stroke="#221F20" stroke-width="1" stroke-linejoin="miter" stroke-linecap="butt" stroke-miterlimit="10" fill="none" d="
M 143.5 176.5
L 153.5 176.5 153.5 186.5 143.5 186.5 143.5 176.5 Z"/>

<path id="Layer0_82_1_STROKES" stroke="#221F20" stroke-width="1" stroke-linejoin="miter" stroke-linecap="butt" stroke-miterlimit="10" fill="none" d="
M 143.5 166.5
L 153.5 166.5 153.5 176.5 143.5 176.5 143.5 166.5 Z"/>
</defs>

<g transform="matrix( 1, 0, 0, 1, 0,0) ">
<use xlink:href="#Layer0_0_FILL"/>

<use xlink:href="#Layer0_0_1_STROKES"/>
</g>

<g transform="matrix( 1, 0, 0, 1, 0,0) ">
<use xlink:href="#Layer0_1_MEMBER_0_1_STROKES"/>
</g>

<g transform="matrix( 1, 0, 0, 1, 0,0) ">
<use xlink:href="#Layer0_2_MEMBER_0_1_STROKES"/>
</g>

<g transform="matrix( 1, 0, 0, 1, 0,0) ">
<use xlink:href="#Layer0_3_MEMBER_0_1_STROKES"/>
</g>

<g transform="matrix( 1, 0, 0, 1, 0,0) ">
<use xlink:href="#Layer0_4_MEMBER_0_1_STROKES"/>
</g>

<g transform="matrix( 1, 0, 0, 1, 0,0) ">
<use xlink:href="#Layer0_5_MEMBER_0_1_STROKES"/>
</g>

<g transform="matrix( 1, 0, 0, 1, 0,0) ">
<use xlink:href="#Layer0_6_MEMBER_0_1_STROKES"/>
</g>

<g transform="matrix( 1, 0, 0, 1, 0,0) ">
<use xlink:href="#Layer0_7_MEMBER_0_1_STROKES"/>
</g>

<g transform="matrix( 1, 0, 0, 1, 0,0) ">
<use xlink:href="#Layer0_8_MEMBER_0_1_STROKES"/>
</g>

<g transform="matrix( 1, 0, 0, 1, 0,0) ">
<use xlink:href="#Layer0_9_MEMBER_0_1_STROKES"/>
</g>

<g transform="matrix( 1, 0, 0, 1, 0,0) ">
<use xlink:href="#Layer0_10_FILL"/>

<use xlink:href="#Layer0_10_1_STROKES"/>
</g>

<g transform="matrix( 1, 0, 0, 1, 0,0) ">
<use xlink:href="#Layer0_11_FILL"/>

<use xlink:href="#Layer0_11_1_STROKES"/>
</g>

<g transform="matrix( 1, 0, 0, 1, 0,0) ">
<use xlink:href="#Layer0_12_MEMBER_0_1_STROKES"/>
</g>

<g transform="matrix( 1, 0, 0, 1, 0,0) ">
<use xlink:href="#Layer0_13_MEMBER_0_1_STROKES"/>
</g>

<g transform="matrix( 1, 0, 0, 1, 0,0) ">
<use xlink:href="#Layer0_14_MEMBER_0_1_STROKES"/>
</g>

<g transform="matrix( 1, 0, 0, 1, 0,0) ">
<use xlink:href="#Layer0_15_MEMBER_0_1_STROKES"/>
</g>

<g transform="matrix( 1, 0, 0, 1, 0,0) ">
<use xlink:href="#Layer0_16_MEMBER_0_1_STROKES"/>
</g>

<g transform="matrix( 1, 0, 0, 1, 0,0) ">
<use xlink:href="#Layer0_17_MEMBER_0_1_STROKES"/>
</g>

<g transform="matrix( 1, 0, 0, 1, 0,0) ">
<use xlink:href="#Layer0_18_MEMBER_0_1_STROKES"/>
</g>

<g transform="matrix( 1, 0, 0, 1, 0,0) ">
<use xlink:href="#Layer0_19_MEMBER_0_1_STROKES"/>
</g>

<g transform="matrix( 1, 0, 0, 1, 0,0) ">
<use xlink:href="#Layer0_20_MEMBER_0_1_STROKES"/>
</g>

<g transform="matrix( 1, 0, 0, 1, 0,0) ">
<use xlink:href="#Layer0_21_FILL"/>

<use xlink:href="#Layer0_21_1_STROKES"/>
</g>

<g transform="matrix( 1, 0, 0, 1, 0,0) ">
<use xlink:href="#Layer0_22_MEMBER_0_1_STROKES"/>
</g>

<g transform="matrix( 1, 0, 0, 1, 0,0) ">
<use xlink:href="#Layer0_23_MEMBER_0_1_STROKES"/>
</g>

<g transform="matrix( 1, 0, 0, 1, 0,0) ">
<use xlink:href="#Layer0_24_MEMBER_0_1_STROKES"/>
</g>

<g transform="matrix( 1, 0, 0, 1, 0,0) ">
<use xlink:href="#Layer0_25_MEMBER_0_1_STROKES"/>
</g>

<g transform="matrix( 1, 0, 0, 1, 0,0) ">
<use xlink:href="#Layer0_26_MEMBER_0_1_STROKES"/>
</g>

<g transform="matrix( 1, 0, 0, 1, 0,0) ">
<use xlink:href="#Layer0_27_MEMBER_0_1_STROKES"/>
</g>

<g transform="matrix( 1, 0, 0, 1, 0,0) ">
<use xlink:href="#Layer0_28_MEMBER_0_1_STROKES"/>
</g>

<g transform="matrix( 1, 0, 0, 1, 0,0) ">
<use xlink:href="#Layer0_29_MEMBER_0_1_STROKES"/>
</g>

<g transform="matrix( 1, 0, 0, 1, 0,0) ">
<use xlink:href="#Layer0_30_MEMBER_0_1_STROKES"/>
</g>

<g transform="matrix( 1, 0, 0, 1, 0,0) ">
<use xlink:href="#Layer0_31_FILL"/>

<use xlink:href="#Layer0_31_1_STROKES"/>
</g>

<g transform="matrix( 1, 0, 0, 1, 0,0) ">
<use xlink:href="#Layer0_32_MEMBER_0_1_STROKES"/>
</g>

<g transform="matrix( 1, 0, 0, 1, 0,0) ">
<use xlink:href="#Layer0_33_MEMBER_0_1_STROKES"/>
</g>

<g transform="matrix( 1, 0, 0, 1, 0,0) ">
<use xlink:href="#Layer0_34_MEMBER_0_1_STROKES"/>
</g>

<g transform="matrix( 1, 0, 0, 1, 0,0) ">
<use xlink:href="#Layer0_35_MEMBER_0_1_STROKES"/>
</g>

<g transform="matrix( 1, 0, 0, 1, 0,0) ">
<use xlink:href="#Layer0_36_MEMBER_0_1_STROKES"/>
</g>

<g transform="matrix( 1, 0, 0, 1, 0,0) ">
<use xlink:href="#Layer0_37_MEMBER_0_1_STROKES"/>
</g>

<g transform="matrix( 1, 0, 0, 1, 0,0) ">
<use xlink:href="#Layer0_38_MEMBER_0_1_STROKES"/>
</g>

<g transform="matrix( 1, 0, 0, 1, 0,0) ">
<use xlink:href="#Layer0_39_MEMBER_0_1_STROKES"/>
</g>

<g transform="matrix( 1, 0, 0, 1, 0,0) ">
<use xlink:href="#Layer0_40_MEMBER_0_1_STROKES"/>
</g>

<g transform="matrix( 1, 0, 0, 1, 0,0) ">
<use xlink:href="#Layer0_41_FILL"/>

<use xlink:href="#Layer0_41_1_STROKES"/>
</g>

<g transform="matrix( 1, 0, 0, 1, 0,0) ">
<use xlink:href="#Layer0_42_FILL"/>

<use xlink:href="#Layer0_42_1_STROKES"/>
</g>

<g transform="matrix( 1, 0, 0, 1, 0,0) ">
<use xlink:href="#Layer0_43_FILL"/>

<use xlink:href="#Layer0_43_1_STROKES"/>
</g>

<g transform="matrix( 1, 0, 0, 1, 0,0) ">
<use xlink:href="#Layer0_44_FILL"/>

<use xlink:href="#Layer0_44_1_STROKES"/>
</g>

<g transform="matrix( 1, 0, 0, 1, 0,0) ">
<use xlink:href="#Layer0_45_FILL"/>

<use xlink:href="#Layer0_45_1_STROKES"/>
</g>

<g transform="matrix( 1, 0, 0, 1, 0,0) ">
<use xlink:href="#Layer0_46_FILL"/>

<use xlink:href="#Layer0_46_1_STROKES"/>
</g>

<g transform="matrix( 1, 0, 0, 1, 0,0) ">
<use xlink:href="#Layer0_47_MEMBER_0_1_STROKES"/>
</g>

<g transform="matrix( 1, 0, 0, 1, 0,0) ">
<use xlink:href="#Layer0_48_MEMBER_0_1_STROKES"/>
</g>

<g transform="matrix( 1, 0, 0, 1, 0,0) ">
<use xlink:href="#Layer0_49_MEMBER_0_1_STROKES"/>
</g>

<g transform="matrix( 1, 0, 0, 1, 0,0) ">
<use xlink:href="#Layer0_50_MEMBER_0_1_STROKES"/>
</g>

<g transform="matrix( 1, 0, 0, 1, 0,0) ">
<use xlink:href="#Layer0_51_MEMBER_0_1_STROKES"/>
</g>

<g transform="matrix( 1, 0, 0, 1, 0,0) ">
<use xlink:href="#Layer0_52_MEMBER_0_1_STROKES"/>
</g>

<g transform="matrix( 1, 0, 0, 1, 0,0) ">
<use xlink:href="#Layer0_53_MEMBER_0_1_STROKES"/>
</g>

<g transform="matrix( 1, 0, 0, 1, 0,0) ">
<use xlink:href="#Layer0_54_MEMBER_0_1_STROKES"/>
</g>

<g transform="matrix( 1, 0, 0, 1, 0,0) ">
<use xlink:href="#Layer0_55_MEMBER_0_1_STROKES"/>
</g>

<g transform="matrix( 1, 0, 0, 1, 0,0) ">
<use xlink:href="#Layer0_56_FILL"/>

<use xlink:href="#Layer0_56_1_STROKES"/>
</g>

<g transform="matrix( 1, 0, 0, 1, 0,0) ">
<use xlink:href="#Layer0_57_FILL"/>

<use xlink:href="#Layer0_57_1_STROKES"/>
</g>

<g transform="matrix( 1, 0, 0, 1, 0,0) ">
<use xlink:href="#Layer0_58_MEMBER_0_1_STROKES"/>
</g>

<g transform="matrix( 1, 0, 0, 1, 0,0) ">
<use xlink:href="#Layer0_59_MEMBER_0_1_STROKES"/>
</g>

<g transform="matrix( 1, 0, 0, 1, 0,0) ">
<use xlink:href="#Layer0_60_MEMBER_0_1_STROKES"/>
</g>

<g transform="matrix( 1, 0, 0, 1, 0,0) ">
<use xlink:href="#Layer0_61_MEMBER_0_1_STROKES"/>
</g>

<g transform="matrix( 1, 0, 0, 1, 0,0) ">
<use xlink:href="#Layer0_62_MEMBER_0_1_STROKES"/>
</g>

<g transform="matrix( 1, 0, 0, 1, 0,0) ">
<use xlink:href="#Layer0_63_MEMBER_0_1_STROKES"/>
</g>

<g transform="matrix( 1, 0, 0, 1, 0,0) ">
<use xlink:href="#Layer0_64_MEMBER_0_1_STROKES"/>
</g>

<g transform="matrix( 1, 0, 0, 1, 0,0) ">
<use xlink:href="#Layer0_65_MEMBER_0_1_STROKES"/>
</g>

<g transform="matrix( 1, 0, 0, 1, 0,0) ">
<use xlink:href="#Layer0_66_MEMBER_0_1_STROKES"/>
</g>

<g transform="matrix( 1, 0, 0, 1, 0,0) ">
<use xlink:href="#Layer0_67_FILL"/>

<use xlink:href="#Layer0_67_1_STROKES"/>
</g>

<g transform="matrix( 1, 0, 0, 1, 0,0) ">
<use xlink:href="#Layer0_68_MEMBER_0_1_STROKES"/>
</g>

<g transform="matrix( 1, 0, 0, 1, 0,0) ">
<use xlink:href="#Layer0_69_MEMBER_0_1_STROKES"/>
</g>

<g transform="matrix( 1, 0, 0, 1, 0,0) ">
<use xlink:href="#Layer0_70_MEMBER_0_1_STROKES"/>
</g>

<g transform="matrix( 1, 0, 0, 1, 0,0) ">
<use xlink:href="#Layer0_71_MEMBER_0_1_STROKES"/>
</g>

<g transform="matrix( 1, 0, 0, 1, 0,0) ">
<use xlink:href="#Layer0_72_MEMBER_0_1_STROKES"/>
</g>

<g transform="matrix( 1, 0, 0, 1, 0,0) ">
<use xlink:href="#Layer0_73_MEMBER_0_1_STROKES"/>
</g>

<g transform="matrix( 1, 0, 0, 1, 0,0) ">
<use xlink:href="#Layer0_74_MEMBER_0_1_STROKES"/>
</g>

<g transform="matrix( 1, 0, 0, 1, 0,0) ">
<use xlink:href="#Layer0_75_MEMBER_0_1_STROKES"/>
</g>

<g transform="matrix( 1, 0, 0, 1, 0,0) ">
<use xlink:href="#Layer0_76_MEMBER_0_1_STROKES"/>
</g>

<g transform="matrix( 1, 0, 0, 1, 0,0) ">
<use xlink:href="#Layer0_77_FILL"/>

<use xlink:href="#Layer0_77_1_STROKES"/>
</g>

<g transform="matrix( 1, 0, 0, 1, 0,0) ">
<use xlink:href="#Layer0_78_FILL"/>

<use xlink:href="#Layer0_78_1_STROKES"/>
</g>

<g transform="matrix( 1, 0, 0, 1, 0,0) ">
<use xlink:href="#Layer0_79_FILL"/>

<use xlink:href="#Layer0_79_1_STROKES"/>
</g>

<g transform="matrix( 1, 0, 0, 1, 0,0) ">
<use xlink:href="#Layer0_80_FILL"/>

<use xlink:href="#Layer0_80_1_STROKES"/>
</g>

<g transform="matrix( 1, 0, 0, 1, 0,0) ">
<use xlink:href="#Layer0_81_FILL"/>

<use xlink:href="#Layer0_81_1_STROKES"/>
</g>

<g transform="matrix( 1, 0, 0, 1, 0,0) ">
<use xlink:href="#Layer0_82_FILL"/>

<use xlink:href="#Layer0_82_1_STROKES"/>
</g>

<g transform="matrix( 1, 0, 0, 1, 42.55,97.8) ">
<clipPath id="Mask_Mask_1">
<rect x="-2" y="-2" width="16.2" height="16" fill="#FFFFFF" stroke="none"/>
</clipPath>

<text clip-path="url(#Mask_Mask_1)" writing-mode="lr"><tspan x="0" y="8.8" baseline-shift="0%" font-family="Adobe Caslon Pro" font-size="12" fill="#221F20" xml:space="preserve">46</tspan></text>
</g>

<g transform="matrix( 1, 0, 0, 1, 122.4,97.8) ">
<clipPath id="Mask_Mask_2">
<rect x="-2" y="-2" width="16.2" height="16" fill="#FFFFFF" stroke="none"/>
</clipPath>

<text clip-path="url(#Mask_Mask_2)" writing-mode="lr"><tspan x="0" y="8.8" baseline-shift="0%" font-family="Adobe Caslon Pro" font-size="12" fill="#221F20" xml:space="preserve">37</tspan></text>
</g>
</svg>
