
<svg xmlns="http://www.w3.org/2000/svg" version="1.1" xmlns:xlink="http://www.w3.org/1999/xlink" preserveAspectRatio="none" x="0px" y="0px" width="612px" height="792px" viewBox="0 0 612 792">
<defs>
<g id="Layer13_0_MEMBER_0_MEMBER_0_MEMBER_0_FILL">
<path fill="#479F55" stroke="none" d="
M 109.05 470.45
L 101.9 470.45 101.9 541.75 109.05 541.75 109.05 470.45 Z"/>
</g>

<g id="Layer13_1_MEMBER_0_MEMBER_0_MEMBER_0_FILL">
<path fill="#479F55" stroke="none" d="
M 130.55 470.45
L 123.45 470.45 123.45 541.75 130.55 541.75 130.55 470.45 Z"/>
</g>

<g id="Layer13_2_MEMBER_0_MEMBER_0_MEMBER_0_FILL">
<path fill="#479F55" stroke="none" d="
M 119.85 470.45
L 112.75 470.45 112.75 541.75 119.85 541.75 119.85 470.45 Z"/>
</g>

<g id="Layer13_3_MEMBER_0_MEMBER_0_MEMBER_0_FILL">
<path fill="#479F55" stroke="none" d="
M 140.55 470.45
L 133.4 470.45 133.4 541.75 140.55 541.75 140.55 470.45 Z"/>
</g>

<g id="Layer13_4_MEMBER_0_MEMBER_0_MEMBER_0_FILL">
<path fill="#479F55" stroke="none" d="
M 162.05 541.75
L 162.05 470.45 154.95 470.45 154.95 541.75 162.05 541.75 Z"/>
</g>

<g id="Layer13_5_MEMBER_0_MEMBER_0_MEMBER_0_FILL">
<path fill="#479F55" stroke="none" d="
M 151.4 470.45
L 144.25 470.45 144.25 541.75 151.4 541.75 151.4 470.45 Z"/>
</g>

<g id="Layer13_6_MEMBER_0_MEMBER_0_MEMBER_0_FILL">
<path fill="#479F55" stroke="none" d="
M 173.35 470.45
L 166.2 470.45 166.2 541.75 173.35 541.75 173.35 470.45 Z"/>
</g>

<g id="Layer13_7_MEMBER_0_MEMBER_0_MEMBER_0_FILL">
<path fill="#479F55" stroke="none" d="
M 194.85 470.45
L 187.75 470.45 187.75 541.75 194.85 541.75 194.85 470.45 Z"/>
</g>

<g id="Layer13_8_MEMBER_0_MEMBER_0_MEMBER_0_FILL">
<path fill="#479F55" stroke="none" d="
M 184.15 470.45
L 177.05 470.45 177.05 541.75 184.15 541.75 184.15 470.45 Z"/>
</g>

<g id="Layer13_9_MEMBER_0_MEMBER_0_MEMBER_0_FILL">
<path fill="#479F55" stroke="none" d="
M 205.55 470.45
L 198.45 470.45 198.45 541.75 205.55 541.75 205.55 470.45 Z"/>
</g>

<g id="Layer12_0_MEMBER_0_MEMBER_1_MEMBER_0_FILL">
<path fill="#2B663D" stroke="none" d="
M 127 461.25
Q 129.05 455.8 131.75 452.75
L 127 454.45 122.25 452.75
Q 124.95 455.8 127 461.25 Z"/>
</g>

<g id="Layer10_1_MEMBER_0_MEMBER_0_MEMBER_0_FILL">
<path fill="#293E93" stroke="none" d="
M 160.85 348.55
L 89.55 348.55 89.55 419.85 160.85 419.85 160.85 348.55 Z"/>
</g>

<g id="Layer10_1_MEMBER_1_MEMBER_0_MEMBER_0_FILL">
<path fill="#3E529E" stroke="none" d="
M 189.9 348.55
L 182.8 348.55 182.8 419.85 189.9 419.85 189.9 348.55 Z"/>
</g>

<g id="Layer10_1_MEMBER_2_MEMBER_0_MEMBER_0_FILL">
<path fill="#3E529E" stroke="none" d="
M 206.5 348.55
L 199.35 348.55 199.35 419.85 206.5 419.85 206.5 348.55 Z"/>
</g>

<g id="Layer10_1_MEMBER_3_MEMBER_0_MEMBER_0_MEMBER_0_FILL">
<path fill="#3E529E" stroke="none" d="
M 223.95 348.55
L 223.95 355.7 231.05 355.7 231.05 348.55 223.95 348.55 Z"/>
</g>

<g id="Layer10_1_MEMBER_3_MEMBER_1_MEMBER_0_MEMBER_0_FILL">
<path fill="#3E529E" stroke="none" d="
M 223.95 373.15
L 223.95 380.25 231.05 380.25 231.05 373.15 223.95 373.15 Z"/>
</g>

<g id="Layer10_1_MEMBER_3_MEMBER_2_MEMBER_0_MEMBER_0_FILL">
<path fill="#3E529E" stroke="none" d="
M 223.95 360.9
L 223.95 368 231.05 368 231.05 360.9 223.95 360.9 Z"/>
</g>

<g id="Layer10_1_MEMBER_3_MEMBER_3_MEMBER_0_MEMBER_0_FILL">
<path fill="#3E529E" stroke="none" d="
M 223.95 385.4
L 223.95 392.5 231.05 392.5 231.05 385.4 223.95 385.4 Z"/>
</g>

<g id="Layer10_1_MEMBER_4_MEMBER_0_MEMBER_0_FILL">
<path fill="#3E529E" stroke="none" d="
M 223.95 398.5
L 223.95 405.6 231.05 405.6 231.05 398.5 223.95 398.5 Z"/>
</g>

<g id="Layer10_1_MEMBER_5_MEMBER_0_MEMBER_0_FILL">
<path fill="#3E529E" stroke="none" d="
M 223.95 410.8
L 223.95 417.95 231.05 417.95 231.05 410.8 223.95 410.8 Z"/>
</g>

<g id="Layer4_2_MEMBER_0_MEMBER_1_MEMBER_0_FILL">
<path fill="#2B663D" stroke="none" d="
M 243.15 165.35
Q 245.25 160 248.05 156.9
L 243.25 158.55 238.55 156.75
Q 241.25 160 243.15 165.35 Z"/>
</g>

<g id="Layer4_3_MEMBER_0_MEMBER_0_FILL">
<path fill="#479F55" stroke="none" d="
M 249.7 182.05
L 249.7 189.15 256.8 189.15 256.8 182.05 249.7 182.05 Z"/>
</g>

<g id="Layer4_3_MEMBER_1_MEMBER_0_MEMBER_0_MEMBER_0_FILL">
<path fill="#479F55" stroke="none" d="
M 236.05 169.7
L 236.05 176.85 243.15 176.85 243.15 169.7 236.05 169.7 Z"/>
</g>

<g id="Layer4_3_MEMBER_1_MEMBER_1_MEMBER_0_MEMBER_0_FILL">
<path fill="#479F55" stroke="none" d="
M 243.15 194.3
L 236.05 194.3 236.05 201.4 243.15 201.4 243.15 194.3 Z"/>
</g>

<g id="Layer4_3_MEMBER_1_MEMBER_2_MEMBER_0_MEMBER_0_FILL">
<path fill="#479F55" stroke="none" d="
M 236.05 182.05
L 236.05 189.15 243.15 189.15 243.15 182.05 236.05 182.05 Z"/>
</g>

<g id="Layer4_3_MEMBER_1_MEMBER_3_MEMBER_0_MEMBER_0_FILL">
<path fill="#479F55" stroke="none" d="
M 243.15 213.65
L 243.15 206.55 236.05 206.55 236.05 213.65 243.15 213.65 Z"/>
</g>

<g id="Layer4_3_MEMBER_2_MEMBER_0_MEMBER_0_FILL">
<path fill="#479F55" stroke="none" d="
M 249.7 169.7
L 249.7 176.85 256.8 176.85 256.8 169.7 249.7 169.7 Z"/>
</g>

<g id="Layer4_3_MEMBER_2_MEMBER_1_MEMBER_0_MEMBER_0_MEMBER_0_FILL">
<path fill="#479F55" stroke="none" d="
M 223.95 169.45
L 223.95 176.6 231.1 176.6 231.1 169.45 223.95 169.45 Z"/>
</g>

<g id="Layer4_3_MEMBER_2_MEMBER_1_MEMBER_1_MEMBER_0_MEMBER_0_FILL">
<path fill="#479F55" stroke="none" d="
M 231.1 194.05
L 223.95 194.05 223.95 201.15 231.1 201.15 231.1 194.05 Z"/>
</g>

<g id="Layer4_3_MEMBER_2_MEMBER_1_MEMBER_2_MEMBER_0_MEMBER_0_FILL">
<path fill="#479F55" stroke="none" d="
M 223.95 181.8
L 223.95 188.95 231.1 188.95 231.1 181.8 223.95 181.8 Z"/>
</g>

<g id="Layer4_3_MEMBER_2_MEMBER_1_MEMBER_3_MEMBER_0_MEMBER_0_FILL">
<path fill="#479F55" stroke="none" d="
M 223.95 206.3
L 223.95 213.4 231.1 213.4 231.1 206.3 223.95 206.3 Z"/>
</g>

<g id="Layer2_0_MEMBER_0_MEMBER_0_FILL">
<path fill="#3E529E" stroke="none" d="
M 160.1 71.3
L 88.8 71.3 88.8 142.6 160.1 142.6 160.1 71.3 Z"/>
</g>

<g id="Layer2_1_MEMBER_0_MEMBER_0_FILL">
<path fill="#3E529E" stroke="none" d="
M 189.15 71.3
L 182 71.3 182 142.6 189.15 142.6 189.15 71.3 Z"/>
</g>

<g id="Layer2_2_MEMBER_0_MEMBER_0_FILL">
<path fill="#3E529E" stroke="none" d="
M 205.7 71.3
L 198.6 71.3 198.6 142.6 205.7 142.6 205.7 71.3 Z"/>
</g>

<g id="Layer2_3_MEMBER_0_MEMBER_0_MEMBER_0_FILL">
<path fill="#3E529E" stroke="none" d="
M 223.15 71.3
L 223.15 78.45 230.3 78.45 230.3 71.3 223.15 71.3 Z"/>
</g>

<g id="Layer2_3_MEMBER_1_MEMBER_0_MEMBER_0_FILL">
<path fill="#3E529E" stroke="none" d="
M 230.3 95.85
L 223.15 95.85 223.15 103 230.3 103 230.3 95.85 Z"/>
</g>

<g id="Layer2_3_MEMBER_2_MEMBER_0_MEMBER_0_FILL">
<path fill="#3E529E" stroke="none" d="
M 223.15 83.6
L 223.15 90.75 230.3 90.75 230.3 83.6 223.15 83.6 Z"/>
</g>

<g id="Layer2_3_MEMBER_3_MEMBER_0_MEMBER_0_FILL">
<path fill="#3E529E" stroke="none" d="
M 223.15 108.1
L 223.15 115.25 230.3 115.25 230.3 108.1 223.15 108.1 Z"/>
</g>

<path id="Layer13_0_MEMBER_0_MEMBER_0_MEMBER_1_1_STROKES" stroke="#2B663D" stroke-width="1" stroke-linejoin="miter" stroke-linecap="butt" stroke-miterlimit="10" fill="none" d="
M 101.9 470.45
L 109.05 470.45 109.05 541.75 101.9 541.75 101.9 470.45 Z"/>

<path id="Layer13_1_MEMBER_0_MEMBER_0_MEMBER_1_1_STROKES" stroke="#2B663D" stroke-width="1" stroke-linejoin="miter" stroke-linecap="butt" stroke-miterlimit="10" fill="none" d="
M 123.45 470.45
L 130.55 470.45 130.55 541.75 123.45 541.75 123.45 470.45 Z"/>

<path id="Layer13_2_MEMBER_0_MEMBER_0_MEMBER_1_1_STROKES" stroke="#2B663D" stroke-width="1" stroke-linejoin="miter" stroke-linecap="butt" stroke-miterlimit="10" fill="none" d="
M 112.75 470.45
L 119.85 470.45 119.85 541.75 112.75 541.75 112.75 470.45 Z"/>

<path id="Layer13_3_MEMBER_0_MEMBER_0_MEMBER_1_1_STROKES" stroke="#2B663D" stroke-width="1" stroke-linejoin="miter" stroke-linecap="butt" stroke-miterlimit="10" fill="none" d="
M 133.4 470.45
L 140.55 470.45 140.55 541.75 133.4 541.75 133.4 470.45 Z"/>

<path id="Layer13_4_MEMBER_0_MEMBER_0_MEMBER_1_1_STROKES" stroke="#2B663D" stroke-width="1" stroke-linejoin="miter" stroke-linecap="butt" stroke-miterlimit="10" fill="none" d="
M 154.95 470.45
L 162.05 470.45 162.05 541.75 154.95 541.75 154.95 470.45 Z"/>

<path id="Layer13_5_MEMBER_0_MEMBER_0_MEMBER_1_1_STROKES" stroke="#2B663D" stroke-width="1" stroke-linejoin="miter" stroke-linecap="butt" stroke-miterlimit="10" fill="none" d="
M 144.25 470.45
L 151.4 470.45 151.4 541.75 144.25 541.75 144.25 470.45 Z"/>

<path id="Layer13_6_MEMBER_0_MEMBER_0_MEMBER_1_1_STROKES" stroke="#2B663D" stroke-width="1" stroke-linejoin="miter" stroke-linecap="butt" stroke-miterlimit="10" fill="none" d="
M 166.2 470.45
L 173.35 470.45 173.35 541.75 166.2 541.75 166.2 470.45 Z"/>

<path id="Layer13_7_MEMBER_0_MEMBER_0_MEMBER_1_1_STROKES" stroke="#2B663D" stroke-width="1" stroke-linejoin="miter" stroke-linecap="butt" stroke-miterlimit="10" fill="none" d="
M 187.75 470.45
L 194.85 470.45 194.85 541.75 187.75 541.75 187.75 470.45 Z"/>

<path id="Layer13_8_MEMBER_0_MEMBER_0_MEMBER_1_1_STROKES" stroke="#2B663D" stroke-width="1" stroke-linejoin="miter" stroke-linecap="butt" stroke-miterlimit="10" fill="none" d="
M 177.05 470.45
L 184.15 470.45 184.15 541.75 177.05 541.75 177.05 470.45 Z"/>

<path id="Layer13_9_MEMBER_0_MEMBER_0_MEMBER_1_1_STROKES" stroke="#2B663D" stroke-width="1" stroke-linejoin="miter" stroke-linecap="butt" stroke-miterlimit="10" fill="none" d="
M 198.45 470.45
L 205.55 470.45 205.55 541.75 198.45 541.75 198.45 470.45 Z"/>

<path id="Layer13_10_MEMBER_0_1_STROKES" stroke="#D93831" stroke-width="1" stroke-linejoin="miter" stroke-linecap="butt" stroke-miterlimit="10" fill="none" d="
M 210.75 471
L 210.75 541.4
Q 210.75 544.1 209.05 546 207.35 547.9 205 547.9
L 174.9 547.9"/>

<path id="Layer13_10_MEMBER_1_1_STROKES" stroke="#D93831" stroke-width="1" stroke-linejoin="miter" stroke-linecap="butt" stroke-miterlimit="10" fill="none" d="
M 210.75 471
L 210.75 347.4
Q 210.75 344.75 209.05 342.8 207.35 340.9 205 340.9
L 174.9 340.9
Q 172.55 340.9 170.85 342.8 169.15 344.75 169.15 347.4
L 170.55 405.95
Q 171.45 464.5 169.15 464.5 155.1 464.5 121.1 462.35 112.55 461.8 108.75 462.25 104.15 462.85 102.1 465.15 100 467.5 99.45 472.8 98.95 477.05 99.2 486.9 100.2 523.5 99.65 541.4 99.65 544.1 101.35 546 103.05 547.9 105.4 547.9
L 174.9 547.9"/>

<path id="Layer12_0_MEMBER_0_MEMBER_0_1_STROKES" stroke="#2B663D" stroke-width="1" stroke-linejoin="miter" stroke-linecap="butt" stroke-miterlimit="10" fill="none" d="
M 127 430.45
L 127 455.25"/>

<path id="Layer12_2_1_STROKES" stroke="#2B663D" stroke-width="1" stroke-linejoin="miter" stroke-linecap="butt" stroke-miterlimit="10" fill="none" d="
M 154.2 430.45
L 95.8 430.45
Q 90.85 430.45 87.35 426.95 83.8 423.4 83.8 418.45
L 83.8 352.9
Q 83.8 347.95 87.35 344.45 90.85 340.9 95.8 340.9
L 154.2 340.9
Q 159.15 340.9 162.7 344.45 166.2 347.95 166.2 352.9
L 166.2 418.45
Q 166.2 423.4 162.7 426.95 159.15 430.45 154.2 430.45 Z"/>

<path id="Layer10_1_MEMBER_0_MEMBER_0_MEMBER_0_1_STROKES" stroke="#3E529E" stroke-width="1" stroke-linejoin="miter" stroke-linecap="butt" stroke-miterlimit="10" fill="none" d="
M 89.55 348.55
L 160.85 348.55 160.85 419.85 89.55 419.85 89.55 348.55 Z"/>

<path id="Layer10_1_MEMBER_0_MEMBER_0_MEMBER_1_MEMBER_0_1_STROKES" stroke="#2B663D" stroke-width="1" stroke-linejoin="miter" stroke-linecap="butt" stroke-miterlimit="10" fill="none" d="
M 153.75 348.55
L 153.75 419.85"/>

<path id="Layer10_1_MEMBER_0_MEMBER_0_MEMBER_2_MEMBER_0_1_STROKES" stroke="#2B663D" stroke-width="1" stroke-linejoin="miter" stroke-linecap="butt" stroke-miterlimit="10" fill="none" d="
M 146.6 348.55
L 146.6 419.85"/>

<path id="Layer10_1_MEMBER_0_MEMBER_0_MEMBER_3_MEMBER_0_1_STROKES" stroke="#2B663D" stroke-width="1" stroke-linejoin="miter" stroke-linecap="butt" stroke-miterlimit="10" fill="none" d="
M 139.5 348.55
L 139.5 419.85"/>

<path id="Layer10_1_MEMBER_0_MEMBER_0_MEMBER_4_MEMBER_0_1_STROKES" stroke="#2B663D" stroke-width="1" stroke-linejoin="miter" stroke-linecap="butt" stroke-miterlimit="10" fill="none" d="
M 132.35 348.55
L 132.35 419.85"/>

<path id="Layer10_1_MEMBER_0_MEMBER_0_MEMBER_5_MEMBER_0_1_STROKES" stroke="#2B663D" stroke-width="1" stroke-linejoin="miter" stroke-linecap="butt" stroke-miterlimit="10" fill="none" d="
M 125.2 348.55
L 125.2 419.85"/>

<path id="Layer10_1_MEMBER_0_MEMBER_0_MEMBER_6_MEMBER_0_1_STROKES" stroke="#2B663D" stroke-width="1" stroke-linejoin="miter" stroke-linecap="butt" stroke-miterlimit="10" fill="none" d="
M 118.1 348.55
L 118.1 419.85"/>

<path id="Layer10_1_MEMBER_0_MEMBER_0_MEMBER_7_MEMBER_0_1_STROKES" stroke="#2B663D" stroke-width="1" stroke-linejoin="miter" stroke-linecap="butt" stroke-miterlimit="10" fill="none" d="
M 110.95 348.55
L 110.95 419.85"/>

<path id="Layer10_1_MEMBER_0_MEMBER_0_MEMBER_8_MEMBER_0_1_STROKES" stroke="#2B663D" stroke-width="1" stroke-linejoin="miter" stroke-linecap="butt" stroke-miterlimit="10" fill="none" d="
M 103.85 348.55
L 103.85 419.85"/>

<path id="Layer10_1_MEMBER_0_MEMBER_0_MEMBER_9_MEMBER_0_1_STROKES" stroke="#2B663D" stroke-width="1" stroke-linejoin="miter" stroke-linecap="butt" stroke-miterlimit="10" fill="none" d="
M 96.7 348.55
L 96.7 419.85"/>

<path id="Layer10_1_MEMBER_3_MEMBER_0_MEMBER_0_MEMBER_0_1_STROKES" stroke="#221F20" stroke-width="1" stroke-linejoin="miter" stroke-linecap="butt" stroke-miterlimit="10" fill="none" d="
M 223.95 348.55
L 231.05 348.55 231.05 355.7 223.95 355.7 223.95 348.55 Z"/>

<path id="Layer10_1_MEMBER_3_MEMBER_1_MEMBER_0_MEMBER_0_1_STROKES" stroke="#221F20" stroke-width="1" stroke-linejoin="miter" stroke-linecap="butt" stroke-miterlimit="10" fill="none" d="
M 223.95 373.15
L 231.05 373.15 231.05 380.25 223.95 380.25 223.95 373.15 Z"/>

<path id="Layer10_1_MEMBER_3_MEMBER_2_MEMBER_0_MEMBER_0_1_STROKES" stroke="#221F20" stroke-width="1" stroke-linejoin="miter" stroke-linecap="butt" stroke-miterlimit="10" fill="none" d="
M 223.95 360.9
L 231.05 360.9 231.05 368 223.95 368 223.95 360.9 Z"/>

<path id="Layer10_1_MEMBER_3_MEMBER_3_MEMBER_0_MEMBER_0_1_STROKES" stroke="#221F20" stroke-width="1" stroke-linejoin="miter" stroke-linecap="butt" stroke-miterlimit="10" fill="none" d="
M 223.95 385.4
L 231.05 385.4 231.05 392.5 223.95 392.5 223.95 385.4 Z"/>

<path id="Layer10_1_MEMBER_4_MEMBER_0_MEMBER_0_1_STROKES" stroke="#221F20" stroke-width="1" stroke-linejoin="miter" stroke-linecap="butt" stroke-miterlimit="10" fill="none" d="
M 223.95 398.5
L 231.05 398.5 231.05 405.6 223.95 405.6 223.95 398.5 Z"/>

<path id="Layer10_1_MEMBER_5_MEMBER_0_MEMBER_0_1_STROKES" stroke="#221F20" stroke-width="1" stroke-linejoin="miter" stroke-linecap="butt" stroke-miterlimit="10" fill="none" d="
M 223.95 410.8
L 231.05 410.8 231.05 417.95 223.95 417.95 223.95 410.8 Z"/>

<path id="Layer5_1_1_STROKES" stroke="#D93831" stroke-width="1" stroke-linejoin="miter" stroke-linecap="butt" stroke-miterlimit="10" fill="none" d="
M 251.9 220
L 229.7 220
Q 224.75 220 221.25 216.5 217.7 212.95 217.7 208
L 217.7 74.3
Q 217.7 69.35 221.25 65.85 224.75 62.3 229.7 62.3
L 251.9 62.3
Q 256.85 62.3 260.4 65.85 263.9 69.35 263.9 74.3
L 263.9 208
Q 263.9 212.95 260.4 216.5 256.85 220 251.9 220 Z"/>

<path id="Layer4_0_1_STROKES" stroke="#2B663D" stroke-width="1" stroke-linejoin="miter" stroke-linecap="butt" stroke-miterlimit="10" fill="none" d="
M 202.45 150.6
Q 197.75 150.6 194.35 147.2 190.95 143.85 190.95 139.1
L 190.95 73.75
Q 190.95 69.05 194.35 65.65 197.7 62.3 202.45 62.3 207.2 62.3 210.6 65.65 213.95 69 213.95 73.75
L 213.95 139.1
Q 213.95 143.85 210.6 147.2 207.2 150.6 202.45 150.6 Z"/>

<path id="Layer4_2_MEMBER_0_MEMBER_0_1_STROKES" stroke="#2B663D" stroke-width="1" stroke-linejoin="miter" stroke-linecap="butt" stroke-miterlimit="10" fill="none" d="
M 209.4 148.25
L 217 151.5
Q 224.9 154.45 226.7 152.85 235.85 144.8 240.1 148.65 243.05 151.35 243.35 159.35"/>

<path id="Layer4_3_MEMBER_0_MEMBER_0_1_STROKES" stroke="#221F20" stroke-width="1" stroke-linejoin="miter" stroke-linecap="butt" stroke-miterlimit="10" fill="none" d="
M 249.7 182.05
L 256.8 182.05 256.8 189.15 249.7 189.15 249.7 182.05 Z"/>

<path id="Layer4_3_MEMBER_1_MEMBER_0_MEMBER_0_MEMBER_0_1_STROKES" stroke="#221F20" stroke-width="1" stroke-linejoin="miter" stroke-linecap="butt" stroke-miterlimit="10" fill="none" d="
M 236.05 169.7
L 243.15 169.7 243.15 176.85 236.05 176.85 236.05 169.7 Z"/>

<path id="Layer4_3_MEMBER_1_MEMBER_1_MEMBER_0_MEMBER_0_1_STROKES" stroke="#221F20" stroke-width="1" stroke-linejoin="miter" stroke-linecap="butt" stroke-miterlimit="10" fill="none" d="
M 236.05 194.3
L 243.15 194.3 243.15 201.4 236.05 201.4 236.05 194.3 Z"/>

<path id="Layer4_3_MEMBER_1_MEMBER_2_MEMBER_0_MEMBER_0_1_STROKES" stroke="#221F20" stroke-width="1" stroke-linejoin="miter" stroke-linecap="butt" stroke-miterlimit="10" fill="none" d="
M 236.05 182.05
L 243.15 182.05 243.15 189.15 236.05 189.15 236.05 182.05 Z"/>

<path id="Layer4_3_MEMBER_1_MEMBER_3_MEMBER_0_MEMBER_0_1_STROKES" stroke="#221F20" stroke-width="1" stroke-linejoin="miter" stroke-linecap="butt" stroke-miterlimit="10" fill="none" d="
M 236.05 206.55
L 243.15 206.55 243.15 213.65 236.05 213.65 236.05 206.55 Z"/>

<path id="Layer4_3_MEMBER_2_MEMBER_0_MEMBER_0_1_STROKES" stroke="#221F20" stroke-width="1" stroke-linejoin="miter" stroke-linecap="butt" stroke-miterlimit="10" fill="none" d="
M 249.7 169.7
L 256.8 169.7 256.8 176.85 249.7 176.85 249.7 169.7 Z"/>

<path id="Layer4_3_MEMBER_2_MEMBER_1_MEMBER_0_MEMBER_0_MEMBER_0_1_STROKES" stroke="#221F20" stroke-width="1" stroke-linejoin="miter" stroke-linecap="butt" stroke-miterlimit="10" fill="none" d="
M 223.95 169.45
L 231.1 169.45 231.1 176.6 223.95 176.6 223.95 169.45 Z"/>

<path id="Layer4_3_MEMBER_2_MEMBER_1_MEMBER_1_MEMBER_0_MEMBER_0_1_STROKES" stroke="#221F20" stroke-width="1" stroke-linejoin="miter" stroke-linecap="butt" stroke-miterlimit="10" fill="none" d="
M 223.95 194.05
L 231.1 194.05 231.1 201.15 223.95 201.15 223.95 194.05 Z"/>

<path id="Layer4_3_MEMBER_2_MEMBER_1_MEMBER_2_MEMBER_0_MEMBER_0_1_STROKES" stroke="#221F20" stroke-width="1" stroke-linejoin="miter" stroke-linecap="butt" stroke-miterlimit="10" fill="none" d="
M 223.95 181.8
L 231.1 181.8 231.1 188.95 223.95 188.95 223.95 181.8 Z"/>

<path id="Layer4_3_MEMBER_2_MEMBER_1_MEMBER_3_MEMBER_0_MEMBER_0_1_STROKES" stroke="#221F20" stroke-width="1" stroke-linejoin="miter" stroke-linecap="butt" stroke-miterlimit="10" fill="none" d="
M 223.95 206.3
L 231.1 206.3 231.1 213.4 223.95 213.4 223.95 206.3 Z"/>

<path id="Layer2_2_MEMBER_0_MEMBER_0_1_STROKES" stroke="#221F20" stroke-width="1" stroke-linejoin="miter" stroke-linecap="butt" stroke-miterlimit="10" fill="none" d="
M 198.6 71.3
L 205.7 71.3 205.7 142.6 198.6 142.6 198.6 71.3 Z"/>

<path id="Layer2_2_MEMBER_0_MEMBER_1_MEMBER_0_1_STROKES" stroke="#221F20" stroke-width="1" stroke-linejoin="miter" stroke-linecap="butt" stroke-miterlimit="10" fill="none" d="
M 198.6 135.45
L 205.7 135.45"/>

<path id="Layer2_2_MEMBER_0_MEMBER_2_MEMBER_0_1_STROKES" stroke="#221F20" stroke-width="1" stroke-linejoin="miter" stroke-linecap="butt" stroke-miterlimit="10" fill="none" d="
M 198.6 128.35
L 205.7 128.35"/>

<path id="Layer2_2_MEMBER_0_MEMBER_3_MEMBER_0_1_STROKES" stroke="#221F20" stroke-width="1" stroke-linejoin="miter" stroke-linecap="butt" stroke-miterlimit="10" fill="none" d="
M 198.6 121.2
L 205.7 121.2"/>

<path id="Layer2_2_MEMBER_0_MEMBER_4_MEMBER_0_1_STROKES" stroke="#221F20" stroke-width="1" stroke-linejoin="miter" stroke-linecap="butt" stroke-miterlimit="10" fill="none" d="
M 198.6 114.1
L 205.7 114.1"/>

<path id="Layer2_2_MEMBER_0_MEMBER_5_MEMBER_0_1_STROKES" stroke="#221F20" stroke-width="1" stroke-linejoin="miter" stroke-linecap="butt" stroke-miterlimit="10" fill="none" d="
M 198.6 106.95
L 205.7 106.95"/>

<path id="Layer2_2_MEMBER_0_MEMBER_6_MEMBER_0_1_STROKES" stroke="#221F20" stroke-width="1" stroke-linejoin="miter" stroke-linecap="butt" stroke-miterlimit="10" fill="none" d="
M 198.6 99.8
L 205.7 99.8"/>

<path id="Layer2_2_MEMBER_0_MEMBER_7_MEMBER_0_1_STROKES" stroke="#221F20" stroke-width="1" stroke-linejoin="miter" stroke-linecap="butt" stroke-miterlimit="10" fill="none" d="
M 198.6 92.7
L 205.7 92.7"/>

<path id="Layer2_2_MEMBER_0_MEMBER_8_MEMBER_0_1_STROKES" stroke="#221F20" stroke-width="1" stroke-linejoin="miter" stroke-linecap="butt" stroke-miterlimit="10" fill="none" d="
M 198.6 85.55
L 205.7 85.55"/>

<path id="Layer2_2_MEMBER_0_MEMBER_9_MEMBER_0_1_STROKES" stroke="#221F20" stroke-width="1" stroke-linejoin="miter" stroke-linecap="butt" stroke-miterlimit="10" fill="none" d="
M 198.6 78.45
L 205.7 78.45"/>

<path id="Layer2_3_MEMBER_0_MEMBER_0_MEMBER_0_1_STROKES" stroke="#221F20" stroke-width="1" stroke-linejoin="miter" stroke-linecap="butt" stroke-miterlimit="10" fill="none" d="
M 223.15 71.3
L 230.3 71.3 230.3 78.45 223.15 78.45 223.15 71.3 Z"/>

<path id="Layer2_3_MEMBER_1_MEMBER_0_MEMBER_0_1_STROKES" stroke="#221F20" stroke-width="1" stroke-linejoin="miter" stroke-linecap="butt" stroke-miterlimit="10" fill="none" d="
M 223.15 95.85
L 230.3 95.85 230.3 103 223.15 103 223.15 95.85 Z"/>

<path id="Layer2_3_MEMBER_2_MEMBER_0_MEMBER_0_1_STROKES" stroke="#221F20" stroke-width="1" stroke-linejoin="miter" stroke-linecap="butt" stroke-miterlimit="10" fill="none" d="
M 223.15 83.6
L 230.3 83.6 230.3 90.75 223.15 90.75 223.15 83.6 Z"/>

<path id="Layer2_3_MEMBER_3_MEMBER_0_MEMBER_0_1_STROKES" stroke="#221F20" stroke-width="1" stroke-linejoin="miter" stroke-linecap="butt" stroke-miterlimit="10" fill="none" d="
M 223.15 108.1
L 230.3 108.1 230.3 115.25 223.15 115.25 223.15 108.1 Z"/>
</defs>

<g transform="matrix( 1, 0, 0, 1, 210.7,586.9) ">
<clipPath id="Mask_Mask_1">
<rect x="-2" y="-2" width="104.15" height="37.1" fill="#FFFFFF" stroke="none"/>
</clipPath>

<text clip-path="url(#Mask_Mask_1)" writing-mode="lr"><tspan x="0" y="11.05" baseline-shift="0%" font-family="Adobe Caslon Pro Bold" font-weight="bold" font-size="15" fill="#3E529E" xml:space="preserve">= 8 tens + 6 ones</tspan><tspan x="0" y="29.1" baseline-shift="0%" font-family="Adobe Caslon Pro Bold" font-weight="bold" font-size="15" fill="#3E529E" xml:space="preserve">= (86)</tspan><tspan baseline-shift="-35%" font-family="Adobe Caslon Pro Bold" font-weight="bold" font-size="9.75" fill="#3E529E" xml:space="preserve">10</tspan></text>
</g>

<g transform="matrix( 1, 0, 0, 1, 18.85,591.95) ">
<clipPath id="Mask_Mask_2">
<rect x="-2" y="-2" width="74.25" height="55.15" fill="#FFFFFF" stroke="none"/>
</clipPath>

<text clip-path="url(#Mask_Mask_2)" writing-mode="lr"><tspan x="0" y="11.05" baseline-shift="0%" font-family="Adobe Caslon Pro" font-size="15" fill="#3E529E" xml:space="preserve">12 - 4  =?</tspan><tspan x="0" y="29.1" baseline-shift="0%" font-family="Adobe Caslon Pro" font-size="15" fill="#3E529E" xml:space="preserve">12 - 2  = 10</tspan><tspan x="0" y="47.15" baseline-shift="0%" font-family="Adobe Caslon Pro" font-size="15" fill="#3E529E" xml:space="preserve">10 - 2  = 8</tspan></text>
</g>

<g transform="matrix( 1, 0, 0, 1, 18.85,574.35) ">
<clipPath id="Mask_Mask_3">
<rect x="-2" y="-2" width="68.65" height="19.05" fill="#FFFFFF" stroke="none"/>
</clipPath>

<text clip-path="url(#Mask_Mask_3)" writing-mode="lr"><tspan x="0" y="11.05" baseline-shift="0%" font-family="Adobe Caslon Pro Bold" font-weight="bold" font-size="15" fill="#5E308B" xml:space="preserve">Chunking</tspan></text>
</g>

<g transform="matrix( 1, 0, 0, 1, 411.45,552.75) ">
<clipPath id="Mask_Mask_4">
<rect x="-2" y="-2" width="177.6" height="55.15" fill="#FFFFFF" stroke="none"/>
</clipPath>

<text clip-path="url(#Mask_Mask_4)" writing-mode="lr"><tspan x="0" y="11.05" baseline-shift="0%" font-family="Adobe Caslon Pro" font-size="15" fill="#2B663D" xml:space="preserve">6.) Subtract tens - again, you</tspan><tspan x="0" y="29.1" baseline-shift="0%" font-family="Adobe Caslon Pro" font-size="15" fill="#2B663D" xml:space="preserve">might need another </tspan><tspan baseline-shift="0%" font-family="Adobe Caslon Pro" font-size="15" fill="#774292" xml:space="preserve">strategy </tspan><tspan x="0" y="47.15" baseline-shift="0%" font-family="Adobe Caslon Pro" font-size="15" fill="#2B663D" xml:space="preserve">for this sub-problem. </tspan></text>
</g>

<g transform="matrix( 1, 0, 0, 1, 89.05,554.95) ">
<clipPath id="Mask_Mask_5">
<rect x="-2" y="-2" width="179.85" height="19.05" fill="#FFFFFF" stroke="none"/>
</clipPath>

<text clip-path="url(#Mask_Mask_5)" writing-mode="lr"><tspan x="0" y="11.05" baseline-shift="0%" font-family="Adobe Caslon Pro Bold" font-weight="bold" font-size="15" fill="#3E529E" xml:space="preserve">= (12 tens + 6 ones) - (4 tens)</tspan></text>
</g>

<g transform="matrix( 1, 0, 0, 1, 0,0) ">
<use xlink:href="#Layer13_0_MEMBER_0_MEMBER_0_MEMBER_0_FILL"/>
</g>

<g transform="matrix( 1, 0, 0, 1, 0,0) ">
<use xlink:href="#Layer13_0_MEMBER_0_MEMBER_0_MEMBER_1_1_STROKES"/>
</g>

<g transform="matrix( 1, 0, 0, 1, 0,0) ">
<use xlink:href="#Layer13_1_MEMBER_0_MEMBER_0_MEMBER_0_FILL"/>
</g>

<g transform="matrix( 1, 0, 0, 1, 0,0) ">
<use xlink:href="#Layer13_1_MEMBER_0_MEMBER_0_MEMBER_1_1_STROKES"/>
</g>

<g transform="matrix( 1, 0, 0, 1, 0,0) ">
<use xlink:href="#Layer13_2_MEMBER_0_MEMBER_0_MEMBER_0_FILL"/>
</g>

<g transform="matrix( 1, 0, 0, 1, 0,0) ">
<use xlink:href="#Layer13_2_MEMBER_0_MEMBER_0_MEMBER_1_1_STROKES"/>
</g>

<g transform="matrix( 1, 0, 0, 1, 0,0) ">
<use xlink:href="#Layer13_3_MEMBER_0_MEMBER_0_MEMBER_0_FILL"/>
</g>

<g transform="matrix( 1, 0, 0, 1, 0,0) ">
<use xlink:href="#Layer13_3_MEMBER_0_MEMBER_0_MEMBER_1_1_STROKES"/>
</g>

<g transform="matrix( 1, 0, 0, 1, 0,0) ">
<use xlink:href="#Layer13_4_MEMBER_0_MEMBER_0_MEMBER_0_FILL"/>
</g>

<g transform="matrix( 1, 0, 0, 1, 0,0) ">
<use xlink:href="#Layer13_4_MEMBER_0_MEMBER_0_MEMBER_1_1_STROKES"/>
</g>

<g transform="matrix( 1, 0, 0, 1, 0,0) ">
<use xlink:href="#Layer13_5_MEMBER_0_MEMBER_0_MEMBER_0_FILL"/>
</g>

<g transform="matrix( 1, 0, 0, 1, 0,0) ">
<use xlink:href="#Layer13_5_MEMBER_0_MEMBER_0_MEMBER_1_1_STROKES"/>
</g>

<g transform="matrix( 1, 0, 0, 1, 0,0) ">
<use xlink:href="#Layer13_6_MEMBER_0_MEMBER_0_MEMBER_0_FILL"/>
</g>

<g transform="matrix( 1, 0, 0, 1, 0,0) ">
<use xlink:href="#Layer13_6_MEMBER_0_MEMBER_0_MEMBER_1_1_STROKES"/>
</g>

<g transform="matrix( 1, 0, 0, 1, 0,0) ">
<use xlink:href="#Layer13_7_MEMBER_0_MEMBER_0_MEMBER_0_FILL"/>
</g>

<g transform="matrix( 1, 0, 0, 1, 0,0) ">
<use xlink:href="#Layer13_7_MEMBER_0_MEMBER_0_MEMBER_1_1_STROKES"/>
</g>

<g transform="matrix( 1, 0, 0, 1, 0,0) ">
<use xlink:href="#Layer13_8_MEMBER_0_MEMBER_0_MEMBER_0_FILL"/>
</g>

<g transform="matrix( 1, 0, 0, 1, 0,0) ">
<use xlink:href="#Layer13_8_MEMBER_0_MEMBER_0_MEMBER_1_1_STROKES"/>
</g>

<g transform="matrix( 1, 0, 0, 1, 0,0) ">
<use xlink:href="#Layer13_9_MEMBER_0_MEMBER_0_MEMBER_0_FILL"/>
</g>

<g transform="matrix( 1, 0, 0, 1, 0,0) ">
<use xlink:href="#Layer13_9_MEMBER_0_MEMBER_0_MEMBER_1_1_STROKES"/>
</g>

<g transform="matrix( 1, 0, 0, 1, 0,0) ">
<use xlink:href="#Layer13_10_MEMBER_0_1_STROKES"/>
</g>

<g transform="matrix( 1, 0, 0, 1, 0,0) ">
<use xlink:href="#Layer13_10_MEMBER_1_1_STROKES"/>
</g>

<g transform="matrix( 1, 0, 0, 1, 411.45,447.2) ">
<clipPath id="Mask_Mask_6">
<rect x="-2" y="-2" width="206.45" height="19.05" fill="#FFFFFF" stroke="none"/>
</clipPath>

<text clip-path="url(#Mask_Mask_6)" writing-mode="lr"><tspan x="0" y="11.05" baseline-shift="0%" font-family="Adobe Caslon Pro" font-size="15" fill="#D93831" xml:space="preserve">5.) Move ALL the tens together. </tspan></text>
</g>

<g transform="matrix( 1, 0, 0, 1, 0,0) ">
<use xlink:href="#Layer12_0_MEMBER_0_MEMBER_0_1_STROKES"/>
</g>

<g transform="matrix( 1, 0, 0, 1, 0,0) ">
<use xlink:href="#Layer12_0_MEMBER_0_MEMBER_1_MEMBER_0_FILL"/>
</g>

<g transform="matrix( 1, 0, 0, 1, 36.4,437.15) ">
<clipPath id="Mask_Mask_7">
<rect x="-2" y="-2" width="78.95" height="19.05" fill="#FFFFFF" stroke="none"/>
</clipPath>

<text clip-path="url(#Mask_Mask_7)" writing-mode="lr"><tspan x="0" y="11.05" baseline-shift="0%" font-family="Adobe Caslon Pro" font-size="15" fill="#2B663D" xml:space="preserve">Decompose!</tspan></text>
</g>

<g transform="matrix( 1, 0, 0, 1, 0,0) ">
<use xlink:href="#Layer12_2_1_STROKES"/>
</g>

<g transform="matrix( 1, 0, 0, 1, 411.45,331.4) ">
<clipPath id="Mask_Mask_8">
<rect x="-2" y="-2" width="186" height="55.15" fill="#FFFFFF" stroke="none"/>
</clipPath>

<text clip-path="url(#Mask_Mask_8)" writing-mode="lr"><tspan x="0" y="11.05" baseline-shift="0%" font-family="Adobe Caslon Pro" font-size="15" fill="#2B663D" xml:space="preserve">4.) Subtract tens. If you don’t </tspan><tspan x="0" y="29.1" baseline-shift="0%" font-family="Adobe Caslon Pro" font-size="15" fill="#2B663D" xml:space="preserve">have enough loose tens,</tspan><tspan x="0" y="47.15" baseline-shift="0%" font-family="Adobe Caslon Pro" font-size="15" fill="#2B663D" xml:space="preserve">decompose a higher level unit!</tspan></text>
</g>

<g transform="matrix( 1, 0, 0, 1, 411.45,331.4) ">
<clipPath id="Mask_Mask_9">
<rect x="-2" y="-2" width="186" height="55.15" fill="#FFFFFF" stroke="none"/>
</clipPath>

<text clip-path="url(#Mask_Mask_9)" writing-mode="lr"><tspan x="0" y="11.05" baseline-shift="0%" font-family="Adobe Caslon Pro" font-size="15" fill="#2B663D" xml:space="preserve">4.) Subtract tens. If you don’t </tspan><tspan x="0" y="29.1" baseline-shift="0%" font-family="Adobe Caslon Pro" font-size="15" fill="#2B663D" xml:space="preserve">have enough loose tens,</tspan><tspan x="0" y="47.15" baseline-shift="0%" font-family="Adobe Caslon Pro" font-size="15" fill="#2B663D" xml:space="preserve">decompose a higher level unit!</tspan></text>
</g>

<g transform="matrix( 1, 0, 0, 1, 88.95,319.75) ">
<clipPath id="Mask_Mask_10">
<rect x="-2" y="-2" width="249.7" height="19.05" fill="#FFFFFF" stroke="none"/>
</clipPath>

<text clip-path="url(#Mask_Mask_10)" writing-mode="lr"><tspan x="0" y="11.05" baseline-shift="0%" font-family="Adobe Caslon Pro Bold" font-weight="bold" font-size="15" fill="#3E529E" xml:space="preserve">= (1 hundred + 2 tens + 6 ones) - (4 tens)</tspan></text>
</g>

<g transform="matrix( 1, 0, 0, 1, 0,0) ">
<use xlink:href="#Layer10_1_MEMBER_0_MEMBER_0_MEMBER_0_FILL"/>

<use xlink:href="#Layer10_1_MEMBER_0_MEMBER_0_MEMBER_0_1_STROKES"/>
</g>

<g transform="matrix( 1, 0, 0, 1, 0,0) ">
<use xlink:href="#Layer10_1_MEMBER_0_MEMBER_0_MEMBER_1_MEMBER_0_1_STROKES"/>
</g>

<g transform="matrix( 1, 0, 0, 1, 0,0) ">
<use xlink:href="#Layer10_1_MEMBER_0_MEMBER_0_MEMBER_2_MEMBER_0_1_STROKES"/>
</g>

<g transform="matrix( 1, 0, 0, 1, 0,0) ">
<use xlink:href="#Layer10_1_MEMBER_0_MEMBER_0_MEMBER_3_MEMBER_0_1_STROKES"/>
</g>

<g transform="matrix( 1, 0, 0, 1, 0,0) ">
<use xlink:href="#Layer10_1_MEMBER_0_MEMBER_0_MEMBER_4_MEMBER_0_1_STROKES"/>
</g>

<g transform="matrix( 1, 0, 0, 1, 0,0) ">
<use xlink:href="#Layer10_1_MEMBER_0_MEMBER_0_MEMBER_5_MEMBER_0_1_STROKES"/>
</g>

<g transform="matrix( 1, 0, 0, 1, 0,0) ">
<use xlink:href="#Layer10_1_MEMBER_0_MEMBER_0_MEMBER_6_MEMBER_0_1_STROKES"/>
</g>

<g transform="matrix( 1, 0, 0, 1, 0,0) ">
<use xlink:href="#Layer10_1_MEMBER_0_MEMBER_0_MEMBER_7_MEMBER_0_1_STROKES"/>
</g>

<g transform="matrix( 1, 0, 0, 1, 0,0) ">
<use xlink:href="#Layer10_1_MEMBER_0_MEMBER_0_MEMBER_8_MEMBER_0_1_STROKES"/>
</g>

<g transform="matrix( 1, 0, 0, 1, 0,0) ">
<use xlink:href="#Layer10_1_MEMBER_0_MEMBER_0_MEMBER_9_MEMBER_0_1_STROKES"/>
</g>

<g transform="matrix( 1, 0, 0, 1, 0,0) ">
<use xlink:href="#Layer10_1_MEMBER_1_MEMBER_0_MEMBER_0_FILL"/>
</g>

<g transform="matrix( 1, 0, 0, 1, 0,0) ">
<use xlink:href="#Layer10_1_MEMBER_2_MEMBER_0_MEMBER_0_FILL"/>
</g>

<g transform="matrix( 1, 0, 0, 1, 0,0) ">
<use xlink:href="#Layer10_1_MEMBER_3_MEMBER_0_MEMBER_0_MEMBER_0_FILL"/>

<use xlink:href="#Layer10_1_MEMBER_3_MEMBER_0_MEMBER_0_MEMBER_0_1_STROKES"/>
</g>

<g transform="matrix( 1, 0, 0, 1, 0,0) ">
<use xlink:href="#Layer10_1_MEMBER_3_MEMBER_1_MEMBER_0_MEMBER_0_FILL"/>

<use xlink:href="#Layer10_1_MEMBER_3_MEMBER_1_MEMBER_0_MEMBER_0_1_STROKES"/>
</g>

<g transform="matrix( 1, 0, 0, 1, 0,0) ">
<use xlink:href="#Layer10_1_MEMBER_3_MEMBER_2_MEMBER_0_MEMBER_0_FILL"/>

<use xlink:href="#Layer10_1_MEMBER_3_MEMBER_2_MEMBER_0_MEMBER_0_1_STROKES"/>
</g>

<g transform="matrix( 1, 0, 0, 1, 0,0) ">
<use xlink:href="#Layer10_1_MEMBER_3_MEMBER_3_MEMBER_0_MEMBER_0_FILL"/>

<use xlink:href="#Layer10_1_MEMBER_3_MEMBER_3_MEMBER_0_MEMBER_0_1_STROKES"/>
</g>

<g transform="matrix( 1, 0, 0, 1, 0,0) ">
<use xlink:href="#Layer10_1_MEMBER_4_MEMBER_0_MEMBER_0_FILL"/>

<use xlink:href="#Layer10_1_MEMBER_4_MEMBER_0_MEMBER_0_1_STROKES"/>
</g>

<g transform="matrix( 1, 0, 0, 1, 0,0) ">
<use xlink:href="#Layer10_1_MEMBER_5_MEMBER_0_MEMBER_0_FILL"/>

<use xlink:href="#Layer10_1_MEMBER_5_MEMBER_0_MEMBER_0_1_STROKES"/>
</g>

<g transform="matrix( 1, 0, 0, 1, 118,264.5) ">
<clipPath id="Mask_Mask_11">
<rect x="-2" y="-2" width="106.5" height="19.05" fill="#FFFFFF" stroke="none"/>
</clipPath>

<text clip-path="url(#Mask_Mask_11)" writing-mode="lr"><tspan x="0" y="11.05" baseline-shift="0%" font-family="Adobe Caslon Pro" font-size="15" fill="#293E93" xml:space="preserve">14-8 = 16-10 = 6</tspan></text>
</g>

<g transform="matrix( 1, 0, 0, 1, 37.9,243.35) ">
<clipPath id="Mask_Mask_12">
<rect x="96.15" y="-2" width="49.85" height="19.05" fill="#FFFFFF" stroke="none"/>
</clipPath>

<text clip-path="url(#Mask_Mask_12)" writing-mode="lr"><tspan x="98.35" y="11.05" baseline-shift="0%" font-family="Adobe Caslon Pro Bold" font-weight="bold" font-size="15" fill="#5E308B" xml:space="preserve">Sliding</tspan></text>
</g>

<g transform="matrix( 1, 0, 0, 1, 18.85,264.5) ">
<clipPath id="Mask_Mask_13">
<rect x="-2" y="-2" width="62.85" height="55.15" fill="#FFFFFF" stroke="none"/>
</clipPath>

<text clip-path="url(#Mask_Mask_13)" writing-mode="lr"><tspan x="0" y="11.05" baseline-shift="0%" font-family="Adobe Caslon Pro" font-size="15" fill="#293E93" xml:space="preserve">14-8 = ?</tspan><tspan x="0" y="29.1" baseline-shift="0%" font-family="Adobe Caslon Pro" font-size="15" fill="#293E93" xml:space="preserve">14-4 = 10</tspan><tspan x="0" y="47.15" baseline-shift="0%" font-family="Adobe Caslon Pro" font-size="15" fill="#293E93" xml:space="preserve">10-4 = 6</tspan></text>
</g>

<g transform="matrix( 1, 0, 0, 1, -70.05,243.35) ">
<clipPath id="Mask_Mask_14">
<rect x="77.35" y="-2" width="68.65" height="19.05" fill="#FFFFFF" stroke="none"/>
</clipPath>

<text clip-path="url(#Mask_Mask_14)" writing-mode="lr"><tspan x="79.55" y="11.05" baseline-shift="0%" font-family="Adobe Caslon Pro Bold" font-weight="bold" font-size="15" fill="#5E308B" xml:space="preserve">Chunking</tspan></text>
</g>

<g transform="matrix( 1, 0, 0, 1, 411.45,243.35) ">
<clipPath id="Mask_Mask_15">
<rect x="-2" y="-2" width="187.75" height="55.15" fill="#FFFFFF" stroke="none"/>
</clipPath>

<text clip-path="url(#Mask_Mask_15)" writing-mode="lr"><tspan x="0" y="11.05" baseline-shift="0%" font-family="Adobe Caslon Pro" font-size="15" fill="#2B663D" xml:space="preserve">3.) Subtract ones - Sometimes</tspan><tspan x="0" y="29.1" baseline-shift="0%" font-family="Adobe Caslon Pro" font-size="15" fill="#2B663D" xml:space="preserve">this creates a sub-problem,</tspan><tspan x="0" y="47.15" baseline-shift="0%" font-family="Adobe Caslon Pro" font-size="15" fill="#2B663D" xml:space="preserve">and you need another</tspan><tspan baseline-shift="0%" font-family="Adobe Caslon Pro" font-size="15" fill="#479F55" xml:space="preserve"> </tspan><tspan baseline-shift="0%" font-family="Adobe Caslon Pro" font-size="15" fill="#774292" xml:space="preserve">strategy</tspan><tspan baseline-shift="0%" font-family="Adobe Caslon Pro" font-size="15" fill="#479F55" xml:space="preserve">!</tspan></text>
</g>

<g transform="matrix( 1, 0, 0, 1, 88.9,223.8) ">
<clipPath id="Mask_Mask_16">
<rect x="-2" y="-2" width="310.05" height="19.05" fill="#FFFFFF" stroke="none"/>
</clipPath>

<text clip-path="url(#Mask_Mask_16)" writing-mode="lr"><tspan x="0" y="11.05" baseline-shift="0%" font-family="Adobe Caslon Pro Bold" font-weight="bold" font-size="15" fill="#3E529E" xml:space="preserve">= (1 hundred + 2 tens + 14 ones) - (4 tens + 8 ones)</tspan></text>
</g>

<g transform="matrix( 1, 0, 0, 1, 411.45,153.4) ">
<clipPath id="Mask_Mask_17">
<rect x="-2" y="-2" width="182.4" height="19.05" fill="#FFFFFF" stroke="none"/>
</clipPath>

<text clip-path="url(#Mask_Mask_17)" writing-mode="lr"><tspan x="0" y="11.05" baseline-shift="0%" font-family="Adobe Caslon Pro" font-size="15" fill="#D93831" xml:space="preserve">2.) Move ALL ones together.</tspan></text>
</g>

<g transform="matrix( 1, 0, 0, 1, 0,0) ">
<use xlink:href="#Layer5_1_1_STROKES"/>
</g>

<g transform="matrix( 1, 0, 0, 1, 0,0) ">
<use xlink:href="#Layer4_0_1_STROKES"/>
</g>

<g transform="matrix( 1, 0, 0, 1, 267.65,150.15) ">
<clipPath id="Mask_Mask_18">
<rect x="-2" y="-2" width="78.95" height="19.05" fill="#FFFFFF" stroke="none"/>
</clipPath>

<text clip-path="url(#Mask_Mask_18)" writing-mode="lr"><tspan x="0" y="11.05" baseline-shift="0%" font-family="Adobe Caslon Pro" font-size="15" fill="#2B663D" xml:space="preserve">Decompose!</tspan></text>
</g>

<g transform="matrix( 1, 0, 0, 1, 0,0) ">
<use xlink:href="#Layer4_2_MEMBER_0_MEMBER_0_1_STROKES"/>
</g>

<g transform="matrix( 1, 0, 0, 1, 0,0) ">
<use xlink:href="#Layer4_2_MEMBER_0_MEMBER_1_MEMBER_0_FILL"/>
</g>

<g transform="matrix( 1, 0, 0, 1, 0,0) ">
<use xlink:href="#Layer4_3_MEMBER_0_MEMBER_0_FILL"/>

<use xlink:href="#Layer4_3_MEMBER_0_MEMBER_0_1_STROKES"/>
</g>

<g transform="matrix( 1, 0, 0, 1, 0,0) ">
<use xlink:href="#Layer4_3_MEMBER_1_MEMBER_0_MEMBER_0_MEMBER_0_FILL"/>

<use xlink:href="#Layer4_3_MEMBER_1_MEMBER_0_MEMBER_0_MEMBER_0_1_STROKES"/>
</g>

<g transform="matrix( 1, 0, 0, 1, 0,0) ">
<use xlink:href="#Layer4_3_MEMBER_1_MEMBER_1_MEMBER_0_MEMBER_0_FILL"/>

<use xlink:href="#Layer4_3_MEMBER_1_MEMBER_1_MEMBER_0_MEMBER_0_1_STROKES"/>
</g>

<g transform="matrix( 1, 0, 0, 1, 0,0) ">
<use xlink:href="#Layer4_3_MEMBER_1_MEMBER_2_MEMBER_0_MEMBER_0_FILL"/>

<use xlink:href="#Layer4_3_MEMBER_1_MEMBER_2_MEMBER_0_MEMBER_0_1_STROKES"/>
</g>

<g transform="matrix( 1, 0, 0, 1, 0,0) ">
<use xlink:href="#Layer4_3_MEMBER_1_MEMBER_3_MEMBER_0_MEMBER_0_FILL"/>

<use xlink:href="#Layer4_3_MEMBER_1_MEMBER_3_MEMBER_0_MEMBER_0_1_STROKES"/>
</g>

<g transform="matrix( 1, 0, 0, 1, 0,0) ">
<use xlink:href="#Layer4_3_MEMBER_2_MEMBER_0_MEMBER_0_FILL"/>

<use xlink:href="#Layer4_3_MEMBER_2_MEMBER_0_MEMBER_0_1_STROKES"/>
</g>

<g transform="matrix( 1, 0, 0, 1, 0,0) ">
<use xlink:href="#Layer4_3_MEMBER_2_MEMBER_1_MEMBER_0_MEMBER_0_MEMBER_0_FILL"/>

<use xlink:href="#Layer4_3_MEMBER_2_MEMBER_1_MEMBER_0_MEMBER_0_MEMBER_0_1_STROKES"/>
</g>

<g transform="matrix( 1, 0, 0, 1, 0,0) ">
<use xlink:href="#Layer4_3_MEMBER_2_MEMBER_1_MEMBER_1_MEMBER_0_MEMBER_0_FILL"/>

<use xlink:href="#Layer4_3_MEMBER_2_MEMBER_1_MEMBER_1_MEMBER_0_MEMBER_0_1_STROKES"/>
</g>

<g transform="matrix( 1, 0, 0, 1, 0,0) ">
<use xlink:href="#Layer4_3_MEMBER_2_MEMBER_1_MEMBER_2_MEMBER_0_MEMBER_0_FILL"/>

<use xlink:href="#Layer4_3_MEMBER_2_MEMBER_1_MEMBER_2_MEMBER_0_MEMBER_0_1_STROKES"/>
</g>

<g transform="matrix( 1, 0, 0, 1, 0,0) ">
<use xlink:href="#Layer4_3_MEMBER_2_MEMBER_1_MEMBER_3_MEMBER_0_MEMBER_0_FILL"/>

<use xlink:href="#Layer4_3_MEMBER_2_MEMBER_1_MEMBER_3_MEMBER_0_MEMBER_0_1_STROKES"/>
</g>

<g transform="matrix( 1, 0, 0, 1, 411.45,88.75) ">
<clipPath id="Mask_Mask_19">
<rect x="-2" y="-2" width="187.05" height="55.15" fill="#FFFFFF" stroke="none"/>
</clipPath>

<text clip-path="url(#Mask_Mask_19)" writing-mode="lr"><tspan x="0" y="11.05" baseline-shift="0%" font-family="Adobe Caslon Pro" font-size="15" fill="#2B663D" xml:space="preserve">1.) Subtract ones. If you don’t </tspan><tspan x="0" y="29.1" baseline-shift="0%" font-family="Adobe Caslon Pro" font-size="15" fill="#2B663D" xml:space="preserve">have enough loose ones,</tspan><tspan x="0" y="47.15" baseline-shift="0%" font-family="Adobe Caslon Pro" font-size="15" fill="#2B663D" xml:space="preserve">decompose a base!</tspan></text>
</g>

<g transform="matrix( 1, 0, 0, 1, 0,0) ">
<use xlink:href="#Layer2_0_MEMBER_0_MEMBER_0_FILL"/>
</g>

<g transform="matrix( 1, 0, 0, 1, 0,0) ">
<use xlink:href="#Layer2_1_MEMBER_0_MEMBER_0_FILL"/>
</g>

<g transform="matrix( 1, 0, 0, 1, 0,0) ">
<use xlink:href="#Layer2_2_MEMBER_0_MEMBER_0_FILL"/>

<use xlink:href="#Layer2_2_MEMBER_0_MEMBER_0_1_STROKES"/>
</g>

<g transform="matrix( 1, 0, 0, 1, 0,0) ">
<use xlink:href="#Layer2_2_MEMBER_0_MEMBER_1_MEMBER_0_1_STROKES"/>
</g>

<g transform="matrix( 1, 0, 0, 1, 0,0) ">
<use xlink:href="#Layer2_2_MEMBER_0_MEMBER_2_MEMBER_0_1_STROKES"/>
</g>

<g transform="matrix( 1, 0, 0, 1, 0,0) ">
<use xlink:href="#Layer2_2_MEMBER_0_MEMBER_3_MEMBER_0_1_STROKES"/>
</g>

<g transform="matrix( 1, 0, 0, 1, 0,0) ">
<use xlink:href="#Layer2_2_MEMBER_0_MEMBER_4_MEMBER_0_1_STROKES"/>
</g>

<g transform="matrix( 1, 0, 0, 1, 0,0) ">
<use xlink:href="#Layer2_2_MEMBER_0_MEMBER_5_MEMBER_0_1_STROKES"/>
</g>

<g transform="matrix( 1, 0, 0, 1, 0,0) ">
<use xlink:href="#Layer2_2_MEMBER_0_MEMBER_6_MEMBER_0_1_STROKES"/>
</g>

<g transform="matrix( 1, 0, 0, 1, 0,0) ">
<use xlink:href="#Layer2_2_MEMBER_0_MEMBER_7_MEMBER_0_1_STROKES"/>
</g>

<g transform="matrix( 1, 0, 0, 1, 0,0) ">
<use xlink:href="#Layer2_2_MEMBER_0_MEMBER_8_MEMBER_0_1_STROKES"/>
</g>

<g transform="matrix( 1, 0, 0, 1, 0,0) ">
<use xlink:href="#Layer2_2_MEMBER_0_MEMBER_9_MEMBER_0_1_STROKES"/>
</g>

<g transform="matrix( 1, 0, 0, 1, 0,0) ">
<use xlink:href="#Layer2_3_MEMBER_0_MEMBER_0_MEMBER_0_FILL"/>

<use xlink:href="#Layer2_3_MEMBER_0_MEMBER_0_MEMBER_0_1_STROKES"/>
</g>

<g transform="matrix( 1, 0, 0, 1, 0,0) ">
<use xlink:href="#Layer2_3_MEMBER_1_MEMBER_0_MEMBER_0_FILL"/>

<use xlink:href="#Layer2_3_MEMBER_1_MEMBER_0_MEMBER_0_1_STROKES"/>
</g>

<g transform="matrix( 1, 0, 0, 1, 0,0) ">
<use xlink:href="#Layer2_3_MEMBER_2_MEMBER_0_MEMBER_0_FILL"/>

<use xlink:href="#Layer2_3_MEMBER_2_MEMBER_0_MEMBER_0_1_STROKES"/>
</g>

<g transform="matrix( 1, 0, 0, 1, 0,0) ">
<use xlink:href="#Layer2_3_MEMBER_3_MEMBER_0_MEMBER_0_FILL"/>

<use xlink:href="#Layer2_3_MEMBER_3_MEMBER_0_MEMBER_0_1_STROKES"/>
</g>

<g transform="matrix( 1, 0, 0, 1, 88.9,38.2) ">
<clipPath id="Mask_Mask_20">
<rect x="-2" y="-2" width="292.05" height="19.05" fill="#FFFFFF" stroke="none"/>
</clipPath>

<text clip-path="url(#Mask_Mask_20)" writing-mode="lr"><tspan x="0" y="11.05" baseline-shift="0%" font-family="Adobe Caslon Pro Bold" font-weight="bold" font-size="15" fill="#3E529E" xml:space="preserve">(1 hundred + 3 tens + 4 ones) - (4 tens + 8 ones)</tspan></text>
</g>

<g transform="matrix( 1, 0, 0, 1, 88.9,12.5) ">
<clipPath id="Mask_Mask_21">
<rect x="-2" y="-2" width="53.7" height="19.05" fill="#FFFFFF" stroke="none"/>
</clipPath>

<text clip-path="url(#Mask_Mask_21)" writing-mode="lr"><tspan x="0" y="11.05" baseline-shift="0%" font-family="Adobe Caslon Pro Bold" font-weight="bold" font-size="15" fill="#3E529E" xml:space="preserve">134 - 48</tspan></text>
</g>
</svg>
