<?xml version="1.0" encoding="UTF-8"?><svg id="Layer_2" xmlns="http://www.w3.org/2000/svg" viewBox="0 0 642.15 140.66"><defs><style>.cls-1{stroke:red;}.cls-1,.cls-2,.cls-3,.cls-4{fill:none;}.cls-5,.cls-6,.cls-7{fill:#231f20;}.cls-2,.cls-3,.cls-4{stroke:#231f20;stroke-miterlimit:10;}.cls-3{stroke-width:2px;}.cls-6,.cls-7,.cls-8{font-family:ACaslonPro-Regular, 'Adobe Caslon Pro';}.cls-6,.cls-8{font-size:19px;}.cls-7{font-size:10px;}.cls-4{stroke-width:.5px;}.cls-9{letter-spacing:0em;}.cls-10{fill:red;}.cls-11{letter-spacing:-.07em;}.cls-8{fill:#ff1d25;}.cls-12{letter-spacing:.02em;}</style></defs><g id="Layer_1-2"><line class="cls-3" x1="12.07" y1="57.38" x2="543.04" y2="57.38"/><path class="cls-5" d="M0,57.38c5.68,2.11,12.73,5.7,17.09,9.51l-3.44-9.51,3.44-9.51c-4.37,3.81-11.42,7.4-17.09,9.51Z"/><path class="cls-5" d="M555.11,57.38c-5.68,2.11-12.73,5.7-17.09,9.51l3.44-9.51-3.44-9.51c4.37,3.81,11.42,7.4,17.09,9.51Z"/><line class="cls-3" x1="24.59" y1="46.15" x2="24.59" y2="70.74"/><line class="cls-3" x1="526.12" y1="54.56" x2="526.12" y2="70.74"/><text class="cls-6" transform="translate(19.55 90.9)"><tspan x="0" y="0">0</tspan></text><path class="cls-4" d="M468.76,51.69c-.28-10.77-2.04-19.05-4.18-19.05-2.33,0-4.07,5.67-4.07,17.87"/><path class="cls-5" d="M468.8,54.7c.47-1.44,1.3-3.23,2.21-4.36l-2.34.95-2.41-.77c.99,1.05,1.96,2.78,2.54,4.18Z"/><text class="cls-6" transform="translate(517.03 87.43)"><tspan x="0" y="0">83</tspan></text><text class="cls-6" transform="translate(451.41 87.43)"><tspan x="0" y="0">76</tspan></text><text class="cls-6" transform="translate(385.78 87.43)"><tspan x="0" y="0">66</tspan></text><text class="cls-6" transform="translate(320.15 87.43)"><tspan x="0" y="0">56</tspan></text><text class="cls-6" transform="translate(254.52 87.43)"><tspan x="0" y="0">46</tspan></text><line class="cls-3" x1="264.98" y1="46.1" x2="264.98" y2="70.69"/><line class="cls-3" x1="329.17" y1="46.65" x2="329.17" y2="71.24"/><line class="cls-3" x1="394.36" y1="45.08" x2="394.36" y2="69.67"/><line class="cls-3" x1="460.19" y1="45.56" x2="460.19" y2="70.15"/><path class="cls-4" d="M525.91,51.69c-.28-10.77-2.04-19.05-4.18-19.05-2.33,0-4.07,5.67-4.07,17.87"/><path class="cls-5" d="M525.95,54.7c.47-1.44,1.3-3.23,2.21-4.36l-2.34.95-2.41-.77c.99,1.05,1.96,2.78,2.54,4.18Z"/><path class="cls-4" d="M516.39,51.69c-.28-10.77-2.04-19.05-4.18-19.05-2.33,0-4.07,5.67-4.07,17.87"/><path class="cls-5" d="M516.43,54.7c.47-1.44,1.3-3.23,2.21-4.36l-2.34.95-2.41-.77c.99,1.05,1.96,2.78,2.54,4.18Z"/><path class="cls-4" d="M506.86,51.69c-.28-10.77-2.04-19.05-4.18-19.05-2.33,0-4.07,5.67-4.07,17.87"/><path class="cls-5" d="M506.9,54.7c.47-1.44,1.3-3.23,2.21-4.36l-2.34.95-2.41-.77c.99,1.05,1.96,2.78,2.54,4.18Z"/><path class="cls-4" d="M497.34,51.69c-.28-10.77-2.04-19.05-4.18-19.05-2.33,0-4.07,5.67-4.07,17.87"/><path class="cls-5" d="M497.38,54.7c.47-1.44,1.3-3.23,2.21-4.36l-2.34.95-2.41-.77c.99,1.05,1.96,2.78,2.54,4.18Z"/><path class="cls-4" d="M487.81,51.69c-.28-10.77-2.04-19.05-4.18-19.05-2.33,0-4.07,5.67-4.07,17.87"/><path class="cls-5" d="M487.85,54.7c.47-1.44,1.3-3.23,2.21-4.36l-2.34.95-2.41-.77c.99,1.05,1.96,2.78,2.54,4.18Z"/><path class="cls-4" d="M478.29,51.69c-.28-10.77-2.04-19.05-4.18-19.05-2.33,0-4.07,5.67-4.07,17.87"/><path class="cls-5" d="M478.32,54.7c.47-1.44,1.3-3.23,2.21-4.36l-2.34.95-2.41-.77c.99,1.05,1.96,2.78,2.54,4.18Z"/><text class="cls-6" transform="translate(277.96 16.04)"><tspan x="0" y="0">+10</tspan></text><text class="cls-6" transform="translate(338.72 16.04)"><tspan x="0" y="0">+10</tspan></text><text class="cls-6" transform="translate(408.33 16.04)"><tspan x="0" y="0">+10</tspan></text><text class="cls-7" transform="translate(466.52 27.67)"><tspan x="0" y="0">+1</tspan></text><text class="cls-7" transform="translate(495.51 27.67)"><tspan x="0" y="0">+1</tspan></text><text class="cls-7" transform="translate(485.85 27.67)"><tspan x="0" y="0">+1</tspan></text><text class="cls-7" transform="translate(476.18 27.67)"><tspan x="0" y="0">+1</tspan></text><text class="cls-7" transform="translate(456.86 27.67)"><tspan x="0" y="0">+1</tspan></text><text class="cls-7" transform="translate(505.17 27.67)"><tspan x="0" y="0">+1</tspan></text><text class="cls-7" transform="translate(514.84 27.67)"><tspan x="0" y="0">+1</tspan></text><path class="cls-2" d="M327.98,38.08c-3.48-10.3-15.79-17.9-30.46-17.9-17.38,0-30.39,6.13-30.39,19.32"/><path class="cls-5" d="M328.97,44.03c.52-2.98,1.64-6.78,3.12-9.27l-4.36,2.56-4.99-.82c2.27,1.8,4.68,4.94,6.23,7.54Z"/><path class="cls-2" d="M392.72,38.08c-3.48-10.3-15.79-17.9-30.46-17.9-17.38,0-30.39,6.13-30.39,19.32"/><path class="cls-5" d="M393.71,44.03c.52-2.98,1.64-6.78,3.12-9.27l-4.36,2.56-4.99-.82c2.27,1.8,4.68,4.94,6.23,7.54Z"/><path class="cls-2" d="M457.27,38.08c-3.48-10.3-15.79-17.9-30.46-17.9-17.38,0-30.39,6.13-30.39,19.32"/><path class="cls-5" d="M458.25,44.03c.52-2.98,1.64-6.78,3.12-9.27l-4.36,2.56-4.99-.82c2.27,1.8,4.68,4.94,6.23,7.54Z"/><line class="cls-2" x1="495.71" y1="70.18" x2="495.71" y2="88.35"/><path class="cls-5" d="M495.71,94.38c-1.05-2.84-2.85-6.36-4.76-8.55l4.76,1.72,4.75-1.72c-1.9,2.18-3.7,5.71-4.75,8.55Z"/><text class="cls-6" transform="translate(486.54 118.94)"><tspan x="0" y="0">77</tspan><tspan class="cls-11" x="19" y="0">,</tspan><tspan x="22.5" y="0" xml:space="preserve"> 78</tspan><tspan class="cls-11" x="46.32" y="0">,</tspan><tspan class="cls-9" x="49.82" y="0" xml:space="preserve"> 79</tspan><tspan class="cls-11" x="73.64" y="0">,</tspan><tspan x="77.14" y="0" xml:space="preserve"> 80</tspan><tspan class="cls-11" x="100.97" y="0">,</tspan><tspan class="cls-9" x="104.46" y="0" xml:space="preserve"> 81</tspan><tspan class="cls-11" x="128.29" y="0">,</tspan><tspan x="131.78" y="0" xml:space="preserve"> 82</tspan></text><line class="cls-1" x1="289.13" y1="112.47" x2="274.33" y2="96.46"/><path class="cls-10" d="M270.23,92.03c2.7,1.37,6.41,2.74,9.29,3.05l-4.66,1.97-2.32,4.49c-.08-2.9-1.16-6.7-2.31-9.5Z"/><line class="cls-1" x1="331.49" y1="113.42" x2="331.49" y2="96.93"/><path class="cls-10" d="M331.49,90.89c1.05,2.84,2.85,6.36,4.76,8.55l-4.76-1.72-4.75,1.72c1.9-2.18,3.7-5.71,4.75-8.55Z"/><line class="cls-1" x1="392.81" y1="113.04" x2="392.81" y2="96.93"/><path class="cls-10" d="M392.81,90.89c1.05,2.84,2.85,6.36,4.76,8.55l-4.76-1.72-4.75,1.72c1.9-2.18,3.7-5.71,4.75-8.55Z"/><line class="cls-1" x1="405.8" y1="112.83" x2="443.3" y2="93.64"/><path class="cls-10" d="M448.67,90.89c-2.05,2.23-4.37,5.44-5.44,8.13l-.63-5.02-3.7-3.45c2.81.7,6.77.7,9.77.34Z"/><line class="cls-1" x1="405.95" y1="114.58" x2="476.32" y2="114.58"/><path class="cls-10" d="M482.36,114.58c-2.84,1.05-6.36,2.85-8.55,4.76l1.72-4.76-1.72-4.75c2.18,1.9,5.71,3.7,8.55,4.75Z"/><text class="cls-8" transform="translate(283.56 127.36)"><tspan class="cls-12" x="0" y="0">S</tspan><tspan x="10.7" y="0">topping points</tspan></text></g></svg>