<?xml version="1.0" encoding="UTF-8"?>
<svg id="Layer_1" xmlns="http://www.w3.org/2000/svg" version="1.1" viewBox="0 0 303.1 205.5">
  <!-- Generator: Adobe Illustrator 29.4.0, SVG Export Plug-In . SVG Version: 2.1.0 Build 152)  -->
  <defs>
    <style>
      .st0 {
        stroke-width: 1.4px;
      }

      .st0, .st1, .st2, .st3 {
        fill: none;
      }

      .st0, .st1, .st4, .st5, .st3 {
        stroke: #000;
      }

      .st0, .st2, .st4, .st5, .st3 {
        stroke-miterlimit: 10;
      }

      .st1 {
        stroke-linecap: round;
        stroke-linejoin: round;
      }

      .st1, .st4, .st3 {
        stroke-width: .4px;
      }

      .st6, .st4, .st5 {
        fill: #fff;
      }

      .st2 {
        stroke: #fff;
        stroke-width: .6px;
      }

      .st5 {
        stroke-width: .6px;
      }
    </style>
  </defs>
  <rect class="st6" x="87.1" y="15.6" width="26.2" height="9"/>
  <path class="st5" d="M169.9,21.3c0-11.6-9.4-21-21-21s-21,9.4-21,21,9.4,21,21,21c11.6,0,21-9.4,21-21h0Z"/>
  <rect class="st6" x="66.1" y="175.7" width="44.2" height="13"/>
  <rect class="st6" y="24.9" width="103.6" height="12.7"/>
  <rect class="st6" x="192.5" y="20.4" width="48.5" height="17"/>
  <rect class="st6" x="191.5" y="176.4" width="103.5" height="17"/>
  <rect class="st6" x="228.6" y="96.7" width="74.4" height="17"/>
  <rect class="st6" x="12.1" y="98.6" width="56" height="17"/>
  <circle class="st6" cx="148.6" cy="106.1" r="79.5"/>
  <path class="st0" d="M169.5,21.3c0-11.4-9.2-20.6-20.6-20.6s-20.6,9.2-20.6,20.6,9.2,20.6,20.6,20.6,20.6-9.2,20.6-20.6h0Z"/>
  <path class="st2" d="M169.5,21.3c0-11.4-9.2-20.6-20.6-20.6s-20.6,9.2-20.6,20.6,9.2,20.6,20.6,20.6,20.6-9.2,20.6-20.6h0Z"/>
  <path d="M133.6,20.6c0,.5.2,1,.5,1,1,0,2.2-1.6,2.4-2l-.7,3.7c-.1.6-.3.5-.6.6v.2c.1,0,1.5-.1,1.6-.2v-.2c-.3,0-.4,0-.4-.2s1.2-6.4,1.2-6.4h0c0,0-.2,0-.2,0,0,0-.6-.2-.9-.2-1.4,0-2.9,1.5-2.9,3.8h0ZM134.3,20.2c0-1.7.9-3,1.7-3s.5,0,.8.2c0,.3-.3,1.2-.3,1.4-.6,1.1-1.5,2.1-1.9,2.1-.2,0-.3-.2-.3-.6h0Z"/>
  <path d="M138.3,21.5c0,.9.4,2.1,1.4,2.1s1.5-1.3,1.5-2.3-.4-2.1-1.4-2.1c-1.1,0-1.5,1.2-1.5,2.2h0ZM139,21.4c0-.6,0-1.8.8-1.8s.8,1.3.8,2,0,1.8-.8,1.8c-.8,0-.8-1.3-.8-2h0ZM142.1,24.1h.5l2-5.4h-.5l-2,5.4ZM145.3,23c0,.4.2.6.3.6.4,0,1.1-.8,1.6-1.4,0,.1-.3.7-.3,1.1s0,.3.2.3.6-.3,1.1-.7v-.2c-.2,0-.5.3-.6.3s0,0,0-.1c0-.4.4-1.8.6-2.6h0s-.3,0-.3,0c-.2,0-.3-.1-.5-.1-1.4,0-2,1.6-2,2.6h0ZM145.8,22.8c0-.8.5-2.2,1.2-2.2s.3,0,.5.1c0,.3-.2.8-.3,1-.1.2-.9,1.4-1.2,1.4s-.2-.1-.2-.3h0Z"/>
  <path d="M148.8,22.6c0,.6.3,1,.8,1s1.1-.4,1.4-.7h0c-.3,0-.7.3-1,.3s-.5-.3-.5-.8c0-1,.5-1.8,1-1.8s.5.2.5.3,0,.1,0,.2h.2c0-.2.2-.4.2-.5s-.3-.3-.6-.3c-1.2,0-1.9,1.1-1.9,2.3h0ZM152,22.6c0,.6.3,1,.8,1s1.1-.4,1.4-.7h0c-.3,0-.7.3-1,.3s-.5-.3-.5-.8c0-1,.5-1.8,1-1.8s.5.2.5.3,0,.1,0,.2h.2c0-.2.2-.4.2-.5s-.3-.3-.6-.3c-1.2,0-1.9,1.1-1.9,2.3h0ZM155.2,22.7c0,.7.4.9.8.9s.9-.2,1.5-.8h0c-.3.1-.7.4-1.1.4s-.5-.4-.5-.7,0-.2,0-.3c.6-.2,1.9-.5,1.9-1.3s-.2-.5-.6-.5c-1,0-1.9,1.2-1.9,2.4h0ZM155.8,21.9c0-.4.4-1.4.9-1.4s.3.1.3.4c0,.6-.8.9-1.3,1h0ZM158.2,25.3c.3,0,.8,0,1.1-.1,0,0,0-.2,0-.2-.2,0-.3-.1-.3-.3,0-.3.1-1,.2-1.3.1,0,.3.1.5.1,1.3,0,1.9-1.4,1.9-2.5s-.2-.8-.7-.8-.9.4-1.2.7c0-.2.1-.7.1-.7h0c-.2,0-.8.4-1.2.5v.2c.2,0,.4-.2.6-.2-.1.9-.6,4.3-1,4.3v.2ZM159.4,23.1s.3-1.5.3-1.6c.2-.4.6-.9.9-.9s.5.2.5.6-.4,2-1.2,2c-.2,0-.4,0-.5-.2h0Z"/>
  <path d="M162.4,20.8h.5s-.5,2.2-.5,2.4,0,.3.2.3c.3,0,1-.6,1.2-.8,0,0,0-.1,0-.1-.1.1-.5.4-.7.4s0,0,0-.2c0-.2.4-1.9.4-2.2h.8v-.3c0,0-.7,0-.7,0,0-.3.2-1,.3-1.1h0c0,0-.5.2-.6.3l-.2.9h-.5v.3Z"/>
  <line class="st3" x1="114.7" y1="21" x2="126.5" y2="21"/>
  <path class="st1" d="M124.6,18.7c.4,1.4,1.2,2.1,2.1,2.4-.9.3-1.7,1-2.1,2.4"/>
  <path d="M91.4,23.2c.3.7.5.8,1.3.8s1.9-.5,1.9-1.5c0-1.6-2.5-1-2.5-2.2s.4-.7.8-.7c.6,0,1,.4,1.1,1h.3s0-1.1,0-1.1c-.3-.1-.7-.2-1.1-.2-.8,0-1.7.4-1.7,1.4,0,1.5,2.4.9,2.4,2.2s-.5.8-1,.8c-1.2,0-1-.8-1.2-1.1h-.2c0-.1-.2.6-.2.6ZM95.4,19.7v.4h.7v2.8c0,.7.3,1.1,1,1.1s.8-.3,1.1-.6v-.2c-.3.1-.5.2-.7.2-.5,0-.6-.4-.6-.8v-2.6h1.2v-.4c0,0-1.2,0-1.2,0v-1.5h0c-.5,0-.7.2-.7.8v.7h-.7ZM99,22.9c0,.7.6,1.2,1.2,1.2s1.2-.6,1.4-.8c0,.2,0,.7.2.7s1.2-.2,1.3-.2v-.3c-.1,0-.2,0-.3,0-.3,0-.4-.1-.4-.5v-2c0-1-.3-1.6-1.4-1.6-.9,0-1.5.5-1.8,1.2l.3.2c.3-.5.5-.9,1.1-.9s1,.4,1,1.3l-1.3.4c-.7.2-1.3.5-1.3,1.3h0ZM99.9,22.7c0-.7,1.8-1.2,1.8-1.2v1.5c-.2.3-.7.6-1.1.6-.4,0-.7-.4-.7-.8h0ZM103.9,23.9c.4,0,.8,0,1.2,0s.8,0,1.2,0v-.3c-.7,0-.9,0-.9-.7v-1.9c0-.3.4-.9.8-.9s.5.2.5.3h.1s.4-.7.4-.7c0-.2-.4-.4-.6-.4-.5,0-1.1.6-1.3,1v-1h0c-.8.2-.6.1-1.5.3v.2c.7,0,.7,0,.7.7v2.3c0,.7-.1.6-.8.7v.3h0ZM107.9,19.7v.4h.7v2.8c0,.7.3,1.1,1,1.1s.8-.3,1.1-.6v-.2c-.3.1-.5.2-.7.2-.5,0-.6-.4-.6-.8v-2.6h1.2v-.4s-1.2,0-1.2,0v-1.5h0c-.5,0-.7.2-.7.8v.7h-.7Z"/>
  <path class="st4" d="M236.8,63.6c0-7.8-6.3-14.2-14.2-14.2s-14.2,6.3-14.2,14.2,6.3,14.2,14.2,14.2,14.2-6.3,14.2-14.2h0Z"/>
  <path d="M218.6,63.7c0,.5.2,1,.5,1,1,0,2.2-1.6,2.4-2l-.7,3.7c-.1.6-.3.5-.6.6v.2c.1,0,1.5-.1,1.6-.2v-.2c-.3,0-.4,0-.4-.2s1.2-6.4,1.2-6.4h0c0,0-.2,0-.2,0,0,0-.6-.2-.9-.2-1.4,0-2.9,1.5-2.9,3.8h0ZM219.3,63.4c0-1.7.9-3,1.7-3s.5,0,.8.2c0,.3-.3,1.2-.3,1.4-.6,1.1-1.5,2.1-1.9,2.1s-.3-.2-.3-.6h0Z"/>
  <path d="M223.6,62.9v.3c.2,0,.4,0,.6,0s.3,0,.3.2v2.8c0,.4-.4.4-.7.4v.2c.3,0,.7,0,1,0s.7,0,1,0v-.2c-.3,0-.7,0-.7-.4v-2.5c0-.4,0-.7,0-1.1h0c-.5.1-1,.3-1.5.4h0Z"/>
  <path class="st4" d="M236.8,148.6c0-7.8-6.3-14.2-14.2-14.2s-14.2,6.3-14.2,14.2,6.3,14.2,14.2,14.2,14.2-6.3,14.2-14.2h0Z"/>
  <path d="M218.6,148.8c0,.5.2,1,.5,1,1,0,2.2-1.6,2.4-2l-.7,3.7c-.1.6-.3.5-.6.6v.2c.1,0,1.5-.1,1.6-.2v-.2c-.3,0-.4,0-.4-.2s1.2-6.4,1.2-6.4h0c0,0-.2,0-.2,0,0,0-.6-.2-.9-.2-1.4,0-2.9,1.5-2.9,3.8h0ZM219.3,148.4c0-1.7.9-3,1.7-3s.5,0,.8.2c0,.3-.3,1.2-.3,1.4-.6,1.1-1.5,2.1-1.9,2.1-.2,0-.3-.2-.3-.6h0Z"/>
  <path d="M223.4,151.7h.3c.4,0,.7,0,1.1,0h.2c0,0,.2,0,.2,0,.3,0,.7-.3,1.1-.4v-.4c-.5.2-.8.2-1.2.2h-.7l1-1.1c.4-.5.8-.8.8-1.4s-.6-1.2-1.3-1.2-.7.1-1,.4l-.3.8h.2c.2-.4.3-.6.8-.6s.9.3.9.8-.5,1-.9,1.5l-1.1,1.2v.2h0Z"/>
  <path class="st4" d="M163.1,191.1c0-7.8-6.3-14.2-14.2-14.2s-14.2,6.3-14.2,14.2,6.3,14.2,14.2,14.2,14.2-6.3,14.2-14.2h0Z"/>
  <path d="M144.9,191.3c0,.5.2,1,.5,1,1,0,2.2-1.6,2.4-2l-.7,3.7c-.1.6-.3.5-.6.6v.2c.1,0,1.5-.1,1.6-.2v-.2c-.3,0-.4,0-.4-.2s1.2-6.4,1.2-6.4h0c0,0-.2,0-.2,0,0,0-.6-.2-.9-.2-1.4,0-2.9,1.5-2.9,3.8h0ZM145.7,191c0-1.7.9-3,1.7-3s.5,0,.8.2c0,.3-.3,1.2-.3,1.4-.6,1.1-1.5,2.1-1.9,2.1-.2,0-.3-.2-.3-.6h0Z"/>
  <path d="M149.9,193.5c.1.6.2.8.8.8,1.2,0,1.8-.6,1.8-1.6s-.5-.9-1-1c.3-.2.7-.5.7-.9s-.5-.9-1.1-.9-.6.1-.9.3l-.3.7h.2c.2-.3.3-.5.7-.5s.6.2.6.6-.7.7-1.1.9v.3c.2,0,.3,0,.5,0,.5,0,.8.4.8.9s-.3.9-.7.9-.7-.2-1.1-.5h-.1Z"/>
  <path class="st4" d="M89.5,148.6c0-7.8-6.3-14.2-14.2-14.2s-14.2,6.3-14.2,14.2,6.3,14.2,14.2,14.2,14.2-6.3,14.2-14.2h0Z"/>
  <path d="M71.3,148.8c0,.5.2,1,.5,1,1,0,2.2-1.6,2.4-2l-.7,3.7c-.1.6-.3.5-.6.6v.2c.1,0,1.5-.1,1.6-.2v-.2c-.3,0-.4,0-.4-.2s1.2-6.4,1.2-6.4h0c0,0-.2,0-.2,0,0,0-.6-.2-.9-.2-1.4,0-2.9,1.5-2.9,3.8h0ZM72,148.4c0-1.7.9-3,1.7-3s.5,0,.8.2c0,.3-.3,1.2-.3,1.4-.6,1.1-1.5,2.1-1.9,2.1-.2,0-.3-.2-.3-.6h0Z"/>
  <path d="M76,150.4v.2h1.9v.5c0,.4-.2.5-.5.5h-.3v.2h2v-.2c-.4,0-.6,0-.6-.5v-.5c.2,0,.3,0,.6,0v-.5c-.2,0-.3,0-.6,0v-2.1c0-.2,0-.4,0-.6h-.7c0,.1-1.9,3-1.9,3ZM76.4,150.1l1.3-1.9h.1v1.9s-1.4,0-1.4,0Z"/>
  <path class="st4" d="M89.5,63.6c0-7.8-6.3-14.2-14.2-14.2s-14.2,6.3-14.2,14.2,6.3,14.2,14.2,14.2,14.2-6.3,14.2-14.2h0Z"/>
  <path d="M71.3,63.7c0,.5.2,1,.5,1,1,0,2.2-1.6,2.4-2l-.7,3.7c-.1.6-.3.5-.6.6v.2c.1,0,1.5-.1,1.6-.2v-.2c-.3,0-.4,0-.4-.2s1.2-6.4,1.2-6.4h0c0,0-.2,0-.2,0,0,0-.6-.2-.9-.2-1.4,0-2.9,1.5-2.9,3.8h0ZM72,63.4c0-1.7.9-3,1.7-3s.5,0,.8.2c0,.3-.3,1.2-.3,1.4-.6,1.1-1.5,2.1-1.9,2.1s-.3-.2-.3-.6h0Z"/>
  <path d="M76.2,66c.2.5.2.7.8.7,1.1,0,1.8-.5,1.8-1.7s-.6-1.2-1.3-1.2-.5,0-.7.2v-1c.4,0,.6,0,.9,0s.5,0,.7,0h.1c0-.1,0-.7,0-.7-.4,0-.8,0-1.2,0s-.5,0-.8,0c0,.7-.1,1.4-.2,2.1h0c.2,0,.4-.1.7-.1.6,0,1,.4,1,1s-.2.9-.8.9-.8,0-1-.5h-.1Z"/>
  <path class="st3" d="M168.7,28.3c18.3,7.1,28.1,13.1,41.8,25.2"/>
  <path class="st1" d="M210.7,50.4c-.7,1.3-.5,2.4,0,3.2-.8-.4-1.9-.4-3.1.4"/>
  <path d="M195.3,34.2s.8,0,1.4,0,.9,0,1.4,0v-.3c-.9,0-.9-.1-.9-1.1v-4.8c0-.2.4-.2.8-.2.8,0,1.6.4,1.6,1.4s-.3,1-1,1.3c-.4.2-1.1.1-1.1.3s.7.6.9.9c.2.4,1,1.5,1.3,1.9.3.4.5.6,1.1.6h.7c0-.1-.1-.3-.1-.3-.3,0-.3,0-.5-.3l-2-2.7c.9-.3,1.6-.8,1.6-1.8s-1.5-1.6-2.1-1.6-3,0-3,0v.3c.9,0,.9.1.9,1.1v4c0,1,0,1-.9,1.1v.3h0ZM202,32.1c0,1.3.8,2.2,2.1,2.2.5,0,1.4-.3,1.7-.9h-.1c-.4.1-.7.3-1.2.3-1.2,0-1.7-.9-1.7-2,0,0,.4,0,.9,0s.9,0,1.3,0l.8-.3c0-1.3-.7-1.9-1.6-1.9s-.8.2-1.2.4c-.8.5-1.1,1.2-1.1,2.1h0ZM202.9,31.4c0-.7.4-1.4,1.2-1.4s1,.5,1,1-.1.4-.4.5c-.1,0-.9,0-1.1,0-.6,0-.7,0-.7,0h0ZM206.8,33.1c0,.7.6,1.2,1.2,1.2s1.2-.6,1.4-.8c0,.2,0,.7.2.7s1.2-.2,1.3-.2v-.3c-.1,0-.2,0-.3,0-.3,0-.4-.1-.4-.5v-2c0-1-.3-1.6-1.4-1.6-.9,0-1.5.5-1.8,1.2l.3.2c.3-.5.5-.9,1.1-.9s1,.4,1,1.3l-1.3.4c-.7.2-1.3.5-1.3,1.3h0ZM207.6,33c0-.7,1.8-1.2,1.8-1.2v1.5c-.2.3-.7.6-1.1.6-.4,0-.7-.4-.7-.8h0ZM211.7,32.1c0,1.2.8,2.2,2.1,2.2s1.2-.4,1.5-.8v.8c.9-.1.6-.1,1.6-.2v-.2c-.6,0-.8,0-.8-.6v-6.1h0c-.9.1-.6,0-1.5.3v.2c.6,0,.8,0,.8.5v1.7s-.6-.2-.9-.2c-1.4,0-2.6,1.1-2.6,2.5h0ZM212.6,31.8c0-.9.4-1.8,1.4-1.8s1.2.2,1.2.6v2.1c0,.6-.7,1-1.2,1-1,0-1.4-1.1-1.4-1.9h0Z"/>
  <path d="M219.9,34.2h2.1v-.2c-.5,0-.7,0-.7-.2,0-.3,1.1-2.2,1.1-2.2h2.3s.3,1.7.3,2c0,.4-.2.3-.8.4v.2s2.4,0,2.4,0v-.2c-.5,0-.8-.1-.8-.6-.3-2.3-.9-5.9-.9-5.9h-.3s-3.3,5.6-3.3,5.6c-.3.5-.5.9-1.2.9v.3ZM222.7,31.2l1.6-2.7.4,2.7h-2ZM227.3,35.4v.2c.8-.3,1.7-1.4,1.7-2.1s-.3-.6-.5-.6-.4.2-.4.3,0,0,0,0c0,.1,0,.3,0,.4,0,.7-.7,1.5-.9,1.7h0Z"/>
  <path d="M231.4,34.2h2.6c1.7,0,2.7-.9,2.7-2.2s-.8-1.3-1.5-1.5c.8-.2,1.7-.8,1.7-1.8s-.9-1.3-1.8-1.3h-2.7v.2c.6,0,.8,0,.8.4s-.6,3.5-.8,5c-.1.6-.2.7-.8.8v.2ZM233,33.4c0-.3.5-2.6.5-2.6h.7c.9,0,1.6.4,1.6,1.3s-.6,1.8-1.9,1.8c-.5,0-.8,0-.8-.4h0ZM233.5,30.5l.5-2.5c0-.2.4-.2.6-.2.8,0,1.3.3,1.3,1.1s-.7,1.6-1.8,1.6h-.6Z"/>
  <path class="st3" d="M225.1,77.7c3.8,21.8,3.8,34.9.2,55.4"/>
  <path class="st1" d="M228,131.7c-1.5.1-2.3.8-2.7,1.6-.1-.9-.6-1.8-2-2.5"/>
  <path d="M231.8,102.9c.9,0,.9.2.9,1v4.2c0,.6,0,.9-.7,1v.2h2.6c2.3,0,4.1-1.3,4.1-3.7s-1.7-3-3.6-3h-3.2v.3ZM233.6,108.5v-5.2c0-.3.5-.3,1-.3,1.9,0,3.1.7,3.1,2.9s-1.1,3.1-3.1,3.1-1,0-1-.5h0ZM239.5,107.3c0,1.3.8,2.2,2.1,2.2.5,0,1.4-.3,1.7-.9h-.1c-.4.1-.7.3-1.2.3-1.2,0-1.7-.9-1.7-2,0,0,.4,0,.9,0s.9,0,1.3,0l.8-.3c0-1.3-.7-1.9-1.6-1.9s-.8.2-1.2.4c-.8.5-1.1,1.2-1.1,2.1h0ZM240.4,106.6c0-.7.4-1.4,1.2-1.4s1,.5,1,1-.1.4-.4.5c-.1,0-.9,0-1.1,0-.6,0-.7,0-.7,0h0ZM244.2,105.1v.4h.7v2.8c0,.7.3,1.1,1,1.1s.8-.3,1.1-.6v-.2c-.3.1-.5.2-.7.2-.5,0-.6-.4-.6-.8v-2.6h1.2v-.4s-1.2,0-1.2,0v-1.5h0c-.5,0-.7.2-.7.8v.7h-.7ZM247.8,107.3c0,1.3.8,2.2,2.1,2.2.5,0,1.4-.3,1.7-.9h-.1c-.4.1-.7.3-1.2.3-1.2,0-1.7-.9-1.7-2,0,0,.4,0,.9,0s.9,0,1.3,0l.8-.3c0-1.3-.7-1.9-1.6-1.9s-.8.2-1.2.4c-.8.5-1.1,1.2-1.1,2.1h0ZM248.6,106.6c0-.7.4-1.4,1.2-1.4s1,.5,1,1-.1.4-.4.5c-.1,0-.9,0-1.1,0-.6,0-.7,0-.7,0h0ZM252.4,109.4c.4,0,.8,0,1.2,0s.8,0,1.2,0v-.3c-.7,0-.9,0-.9-.7v-1.9c0-.3.4-.9.8-.9s.5.2.5.3h.1s.4-.7.4-.7c0-.2-.4-.4-.6-.4-.5,0-1.1.6-1.3,1v-1h0c-.8.2-.6.1-1.5.3v.2c.7,0,.7,0,.7.7v2.3c0,.7-.1.6-.8.7v.3h0ZM256.4,109.4s.7,0,1.1,0,.8,0,1.2,0v-.3c-.6,0-.7,0-.7-.7v-2.3c.2-.4.7-.7,1.2-.7.7,0,.9.6.9,1.1v1.9c0,.7-.1.6-.8.7v.3s.7,0,1.1,0,.8,0,1.2,0v-.3c-.7,0-.7,0-.7-.7v-2.3c.2-.4.7-.7,1.2-.7.7,0,.9.6.9,1.2v1.8c0,.2,0,.8-.3.8v.2c.3,0,.6,0,.9,0s.7,0,1,0v-.3c-.7,0-.7,0-.7-.7v-2.1c0-.9-.5-1.5-1.4-1.5s-1.2.4-1.6.9c-.2-.6-.7-.9-1.3-.9s-1.1.4-1.5.8v-.8h0c-.9.2-.6.1-1.5.3v.2c.7,0,.7,0,.7.7v2.3c0,.7-.1.6-.8.7v.3h0ZM265.2,109.4c.4,0,.8,0,1.2,0s.8,0,1.2,0v-.3c-.7,0-.8,0-.8-.7v-3.5h0c0,0-1.5.3-1.5.3v.2c.7,0,.7,0,.7.7v2.3c0,.7-.1.6-.8.7v.3ZM265.8,103.7c0,.3.2.5.5.5s.5-.2.5-.5-.2-.6-.5-.6-.5.3-.5.6h0ZM268.2,109.4c.4,0,.8,0,1.2,0s.8,0,1.2,0v-.3c-.6,0-.7,0-.7-.7v-2.3c.2-.4.7-.7,1.2-.7.7,0,1,.6,1,.9v2c0,.2,0,.8-.4.8v.2c.3,0,.6,0,.9,0s.6,0,.9,0v-.3c-.6,0-.7,0-.7-.7v-2c0-1-.5-1.5-1.5-1.5s-1.1.3-1.5.8v-.8h0c-1,.2-.7.2-1.5.3v.2c.7,0,.7,0,.7.7v2.3c0,.7-.1.7-.8.7v.3h0ZM274.2,107.3c0,1.3.8,2.2,2.1,2.2.5,0,1.4-.3,1.7-.9h-.1c-.4.1-.7.3-1.2.3-1.2,0-1.7-.9-1.7-2,0,0,.4,0,.9,0s.9,0,1.3,0l.8-.3c0-1.3-.7-1.9-1.6-1.9s-.8.2-1.2.4c-.8.5-1.1,1.2-1.1,2.1h0ZM275,106.6c0-.7.4-1.4,1.2-1.4s1,.5,1,1-.1.4-.4.5c-.1,0-.9,0-1.1,0-.6,0-.7,0-.7,0h0Z"/>
  <path d="M281.4,107.3c0,1.3.9,2.3,2.2,2.3s2.4-1.1,2.4-2.5-1-2.3-2.3-2.3-2.3,1.1-2.3,2.5h0ZM282.3,106.9c0-.8.3-1.8,1.3-1.8s1.5,1.4,1.5,2.2-.2,1.8-1.2,1.8c-1.2,0-1.5-1.4-1.5-2.3h0ZM286.5,109.4c.4,0,.8,0,1.2,0s.8,0,1.2,0v-.3c-.6,0-.7,0-.7-.7v-2.3c.2-.4.7-.7,1.2-.7.7,0,1,.6,1,.9v2c0,.2,0,.8-.4.8v.2c.3,0,.6,0,.9,0s.6,0,.9,0v-.3c-.6,0-.7,0-.7-.7v-2c0-1-.5-1.5-1.5-1.5s-1.1.3-1.5.8v-.8h0c-1,.2-.7.2-1.5.3v.2c.7,0,.7,0,.7.7v2.3c0,.7-.1.7-.8.7v.3h0ZM292.6,107.3c0,1.3.8,2.2,2.1,2.2.5,0,1.4-.3,1.7-.9h-.1c-.4.1-.7.3-1.2.3-1.2,0-1.7-.9-1.7-2,0,0,.4,0,.9,0s.9,0,1.3,0l.8-.3c0-1.3-.7-1.9-1.6-1.9s-.8.2-1.2.4c-.8.5-1.1,1.2-1.1,2.1h0ZM293.4,106.6c0-.7.4-1.4,1.2-1.4s1,.5,1,1-.1.4-.4.5c-.1,0-.9,0-1.1,0-.6,0-.7,0-.7,0h0ZM297.3,108.7c.3.7.5.8,1.3.8s1.9-.5,1.9-1.5c0-1.6-2.5-1-2.5-2.2s.4-.7.8-.7c.6,0,1,.4,1.1,1h.3s0-1.1,0-1.1c-.3-.1-.7-.2-1.1-.2-.8,0-1.7.4-1.7,1.4,0,1.5,2.4.9,2.4,2.2s-.5.8-1,.8c-1.2,0-1-.8-1.2-1.1h-.2c0-.1-.2.6-.2.6Z"/>
  <path class="st3" d="M211.6,157.8c-17,14.3-28.3,20.8-47.8,27.9"/>
  <path class="st1" d="M166.3,187.3c-.8-1.2-1.9-1.6-2.8-1.5.7-.6,1.3-1.5,1.1-3"/>
  <path d="M192.3,181.9c0,2.2,1.7,3.4,3.7,3.4s1.5-.1,2.1-.4c.1-.3.3-.7.4-1h-.2c-.5.7-1.2,1-2.1,1-1.9,0-2.9-1.4-2.9-3.2s1-3,2.7-3,1.7.3,1.8.8v.7c.1,0,.4,0,.4,0v-1.5c-.7-.2-1.3-.3-2-.3-2.1,0-3.9,1.3-3.9,3.6h0ZM199.3,183.1c0,1.3.9,2.3,2.2,2.3s2.4-1.1,2.4-2.5-1-2.3-2.3-2.3c-1.4,0-2.3,1.1-2.3,2.5h0ZM200.2,182.7c0-.8.3-1.8,1.3-1.8s1.5,1.4,1.5,2.2-.2,1.8-1.2,1.8c-1.2,0-1.5-1.4-1.5-2.3h0ZM204.5,185.2s.7,0,1.1,0,.8,0,1.2,0v-.3c-.6,0-.7,0-.7-.7v-2.3c.2-.4.7-.7,1.2-.7.7,0,.9.6.9,1.1v1.9c0,.7-.1.6-.8.7v.3s.7,0,1.1,0,.8,0,1.2,0v-.3c-.7,0-.7,0-.7-.7v-2.3c.2-.4.7-.7,1.2-.7.7,0,.9.6.9,1.2v1.8c0,.2,0,.8-.3.8v.2c.3,0,.6,0,.9,0s.7,0,1,0v-.3c-.7,0-.7,0-.7-.7v-2.1c0-.9-.5-1.5-1.4-1.5s-1.2.4-1.6.9c-.2-.6-.7-.9-1.3-.9s-1.1.4-1.5.8v-.8h0c-.9.2-.6.1-1.5.3v.2c.7,0,.7,0,.7.7v2.3c0,.7-.1.6-.8.7v.3h0ZM213.3,187.5v.3c.4,0,.8,0,1.2,0s.8,0,1.2,0v-.3c-.7,0-.9,0-.9-.7v-1.7c.2.1.6.2.8.2,2.1,0,2.6-1,2.6-2.8s-.8-1.9-1.9-1.9-1.1.3-1.6.8v-.8h0c-.9.2-.7.1-1.5.4v.2c.7,0,.8,0,.8.7v4.8c0,.7-.1.6-.8.7h0ZM214.9,184.3v-2.4c.2-.4.7-.7,1.2-.7,1,0,1.5.8,1.5,1.8s-.5,1.8-1.5,1.8-.8-.2-1.2-.5h0ZM219.2,181.2c.6,0,.7,0,.7.6v2c0,.9.3,1.5,1.3,1.5s1.3-.3,1.6-.9v.8h0c.9-.1.6,0,1.5-.1v-.3c-.6,0-.8,0-.8-.6v-3.5h0c-.9.1-.6,0-1.6.2v.2c.6,0,.8,0,.8.6v1.6c0,.5-.6,1.3-1.2,1.3s-.9-.5-.9-1.2v-2.8h0c-.9.1-.6,0-1.5.2v.2h0ZM225.2,181v.4h.7v2.8c0,.7.3,1.1,1,1.1s.8-.3,1.1-.6v-.2c-.3.1-.5.2-.7.2-.5,0-.6-.4-.6-.8v-2.6h1.2v-.4s-1.2,0-1.2,0v-1.5h0c-.5,0-.7.2-.7.8v.7h-.7ZM228.8,183.1c0,1.3.8,2.2,2.1,2.2.5,0,1.4-.3,1.7-.9h-.1c-.4.1-.7.3-1.2.3-1.2,0-1.7-.9-1.7-2,0,0,.4,0,.9,0s.9,0,1.3,0l.8-.3c0-1.3-.7-1.9-1.6-1.9s-.8.2-1.2.4c-.8.5-1.1,1.2-1.1,2.1h0ZM229.6,182.4c0-.7.4-1.4,1.2-1.4s1,.5,1,1-.1.4-.4.5c-.1,0-.9,0-1.1,0-.6,0-.7,0-.7,0h0Z"/>
  <path d="M235.9,185.2c.4,0,.8,0,1.2,0s.8,0,1.2,0v-.3c-.6,0-.7,0-.7-.7v-2.3c.2-.4.7-.7,1.2-.7.7,0,1,.6,1,.9v2c0,.2,0,.8-.4.8v.2c.3,0,.6,0,.9,0s.6,0,.9,0v-.3c-.6,0-.7,0-.7-.7v-2c0-1-.5-1.5-1.5-1.5s-1.1.3-1.5.8v-.8h0c-1,.2-.7.2-1.5.3v.2c.7,0,.7,0,.7.7v2.3c0,.7-.1.7-.8.7v.3h0ZM241.9,183.1c0,1.3.8,2.2,2.1,2.2.5,0,1.4-.3,1.7-.9h-.1c-.4.1-.7.3-1.2.3-1.2,0-1.7-.9-1.7-2,0,0,.4,0,.9,0s.9,0,1.3,0l.8-.3c0-1.3-.7-1.9-1.6-1.9s-.8.2-1.2.4c-.8.5-1.1,1.2-1.1,2.1h0ZM242.8,182.4c0-.7.4-1.4,1.2-1.4s1,.5,1,1-.1.4-.4.5c-.1,0-.9,0-1.1,0-.6,0-.7,0-.7,0h0ZM246.6,183.1c0,1.3.8,2.2,2.1,2.2.5,0,1.4-.3,1.7-.9h-.1c-.4.1-.7.3-1.2.3-1.2,0-1.7-.9-1.7-2,0,0,.4,0,.9,0s.9,0,1.3,0l.8-.3c0-1.3-.7-1.9-1.6-1.9s-.8.2-1.2.4c-.8.5-1.1,1.2-1.1,2.1h0ZM247.5,182.4c0-.7.4-1.4,1.2-1.4s1,.5,1,1-.1.4-.4.5c-.1,0-.9,0-1.1,0-.6,0-.7,0-.7,0h0ZM251.4,183.1c0,1.2.8,2.2,2.1,2.2s1.2-.4,1.5-.8v.8c.9-.1.6-.1,1.6-.2v-.2c-.6,0-.8,0-.8-.6v-6.1h0c-.9.1-.6,0-1.5.3v.2c.6,0,.8,0,.8.5v1.7s-.6-.2-.9-.2c-1.4,0-2.6,1.1-2.6,2.5h0ZM252.2,182.8c0-.9.4-1.8,1.4-1.8s1.2.2,1.2.6v2.1c0,.6-.7,1-1.2,1-1,0-1.4-1.1-1.4-1.9h0ZM257.2,183.1c0,1.3.8,2.2,2.1,2.2.5,0,1.4-.3,1.7-.9h-.1c-.4.1-.7.3-1.2.3-1.2,0-1.7-.9-1.7-2,0,0,.4,0,.9,0s.9,0,1.3,0l.8-.3c0-1.3-.7-1.9-1.6-1.9s-.8.2-1.2.4c-.8.5-1.1,1.2-1.1,2.1h0ZM258.1,182.4c0-.7.4-1.4,1.2-1.4s1,.5,1,1-.1.4-.4.5c-.1,0-.9,0-1.1,0-.6,0-.7,0-.7,0h0ZM262,183.1c0,1.2.8,2.2,2.1,2.2s1.2-.4,1.5-.8v.8c.9-.1.6-.1,1.6-.2v-.2c-.6,0-.8,0-.8-.6v-6.1h0c-.9.1-.6,0-1.5.3v.2c.6,0,.8,0,.8.5v1.7s-.6-.2-.9-.2c-1.4,0-2.6,1.1-2.6,2.5h0ZM262.9,182.8c0-.9.4-1.8,1.4-1.8s1.2.2,1.2.6v2.1c0,.6-.7,1-1.2,1-1,0-1.4-1.1-1.4-1.9h0Z"/>
  <path d="M270.4,183.1c0,1.3.9,2.3,2.2,2.3s2.4-1.1,2.4-2.5-1-2.3-2.3-2.3c-1.4,0-2.3,1.1-2.3,2.5h0ZM271.3,182.7c0-.8.3-1.8,1.3-1.8s1.5,1.4,1.5,2.2-.2,1.8-1.2,1.8c-1.2,0-1.5-1.4-1.5-2.3h0ZM275.5,185.2c.4,0,.8,0,1.2,0s.8,0,1.2,0v-.3c-.6,0-.7,0-.7-.7v-2.3c.2-.4.7-.7,1.2-.7.7,0,1,.6,1,.9v2c0,.2,0,.8-.4.8v.2c.3,0,.6,0,.9,0s.6,0,.9,0v-.3c-.6,0-.7,0-.7-.7v-2c0-1-.5-1.5-1.5-1.5s-1.1.3-1.5.8v-.8h0c-1,.2-.7.2-1.5.3v.2c.7,0,.7,0,.7.7v2.3c0,.7-.1.7-.8.7v.3h0ZM281.5,183.1c0,1.3.8,2.2,2.1,2.2.5,0,1.4-.3,1.7-.9h-.1c-.4.1-.7.3-1.2.3-1.2,0-1.7-.9-1.7-2,0,0,.4,0,.9,0s.9,0,1.3,0l.8-.3c0-1.3-.7-1.9-1.6-1.9s-.8.2-1.2.4c-.8.5-1.1,1.2-1.1,2.1h0ZM282.4,182.4c0-.7.4-1.4,1.2-1.4s1,.5,1,1-.1.4-.4.5c-.1,0-.9,0-1.1,0-.6,0-.7,0-.7,0h0ZM286.3,184.5c.3.7.5.8,1.3.8s1.9-.5,1.9-1.5c0-1.6-2.5-1-2.5-2.2s.4-.7.8-.7c.6,0,1,.4,1.1,1h.3s0-1.1,0-1.1c-.3-.1-.7-.2-1.1-.2-.8,0-1.7.4-1.7,1.4,0,1.5,2.4.9,2.4,2.2s-.5.8-1,.8c-1.2,0-1-.8-1.2-1.1h-.2c0-.1-.2.6-.2.6Z"/>
  <path class="st3" d="M135.4,186.2c-20.8-7.6-32.1-14.1-48.1-27.5"/>
  <path class="st1" d="M87.3,161.8c.6-1.3.4-2.4,0-3.2.8.3,1.9.4,3.1-.5"/>
  <path d="M70,181.9c0,2.2,1.7,3.4,3.7,3.4s1.5-.1,2.1-.4c.1-.3.3-.7.4-1h-.2c-.5.7-1.2,1-2.1,1-1.9,0-2.9-1.4-2.9-3.2s1-3,2.7-3,1.7.3,1.8.8v.7c.1,0,.4,0,.4,0v-1.5c-.7-.2-1.3-.3-2-.3-2.1,0-3.9,1.3-3.9,3.6h0ZM76.9,178.6c.5,0,.8-.1.8.5v5c0,.7,0,.7-.7.7v.3c.4,0,.8,0,1.1,0s.8,0,1.1,0v-.3c-.7,0-.7,0-.7-.7v-2.3c0-.4.8-.7,1.1-.7.7,0,1,.5,1,1.2v1.8c0,.2,0,.8-.3.8v.2c.3,0,.6,0,.9,0s.6,0,.9,0v-.3c-.6,0-.7,0-.7-.7v-2c0-1-.5-1.6-1.5-1.6s-1.5.8-1.5.8v-3.3h0c-.5,0-1,.2-1.5.3v.2h0ZM82.9,183.1c0,1.3.8,2.2,2.1,2.2.5,0,1.4-.3,1.7-.9h-.1c-.4.1-.7.3-1.2.3-1.2,0-1.7-.9-1.7-2,0,0,.4,0,.9,0s.9,0,1.3,0l.8-.3c0-1.3-.7-1.9-1.6-1.9s-.8.2-1.2.4c-.8.5-1.1,1.2-1.1,2.1h0ZM83.7,182.4c0-.7.4-1.4,1.2-1.4s1,.5,1,1-.1.4-.4.5c-.1,0-.9,0-1.1,0-.6,0-.7,0-.7,0h0ZM87.6,183.2c0,1.3.9,2.2,2.2,2.2s1.4-.4,1.6-.9h-.1c-.4.1-.7.3-1.1.3-1.1,0-1.7-1-1.7-2s.4-1.6,1.3-1.6.8,0,.9.3l.2.4h.2s.2-.8.2-.8c-.2-.3-.9-.4-1.1-.4-1.4,0-2.6,1.1-2.6,2.5h0ZM92.1,185.2s.7,0,1.3,0,.7,0,1.1,0v-.3c-.7,0-.8,0-.8-.7v-1.3h.1c0,0,2.2,2.3,2.2,2.3h1.1v-.4c-.3,0-.6-.3-.8-.5l-1.7-1.9,1.1-1c.5-.4.5-.4,1.1-.5v-.3h-1.6s0,.3,0,.3h.2s-1.7,1.7-1.7,1.7v-4.6h0c-.9.1-.6,0-1.5.3v.2c.5,0,.8-.1.8.5v5.1c0,.7-.1.6-.8.7v.3h0Z"/>
  <path d="M100.1,185.2h2.6c1.7,0,2.7-.9,2.7-2.2s-.8-1.3-1.5-1.5c.8-.2,1.7-.8,1.7-1.8s-.9-1.3-1.8-1.3h-2.7v.2c.6,0,.8,0,.8.4s-.6,3.5-.8,5c-.1.6-.2.7-.8.8v.2ZM101.8,184.5c0-.3.5-2.6.5-2.6h.7c.9,0,1.6.4,1.6,1.3s-.6,1.8-1.9,1.8c-.5,0-.8,0-.8-.4h0ZM102.3,181.5l.5-2.5c0-.2.4-.2.6-.2.8,0,1.3.3,1.3,1.1s-.7,1.6-1.8,1.6h-.6Z"/>
  <path class="st3" d="M72.8,134.5c-3.8-21.8-3.8-34.9-.2-55.4"/>
  <path class="st1" d="M69.9,80.5c1.5-.1,2.3-.8,2.7-1.6.1.9.6,1.8,2,2.5"/>
  <path d="M19.8,109.4c.4,0,.8,0,1.2,0s.8,0,1.2,0v-.3c-.7,0-.9,0-.9-.7l.2-4.3,2.4,5.3h.2l2.6-5.6v4.5c0,.7,0,.8-.8.8v.3c.4,0,.8,0,1.3,0s1,0,1.4,0v-.3c-1,0-.9-.1-1-.8v-4.5c0-.7,0-.8.9-.8v-.3c-.3,0-.6,0-.9,0s-.6,0-.9,0l-2.5,5.3-2.5-5.3c-.3,0-.6,0-.9,0s-.6,0-.9,0v.3c.8,0,.9.1.9,1.1v4.3c-.2.7-.4.7-1,.7v.3h0ZM29,107.3c0,1.3.9,2.3,2.2,2.3s2.4-1.1,2.4-2.5-1-2.3-2.3-2.3-2.3,1.1-2.3,2.5h0ZM30,106.9c0-.8.3-1.8,1.3-1.8s1.5,1.4,1.5,2.2-.2,1.8-1.2,1.8c-1.2,0-1.5-1.4-1.5-2.3h0ZM34.1,105.2c.5,0,.5,0,.7.5l1.6,3.8h.4l1.5-3.6c.2-.5.3-.6.8-.7v-.3c-.3,0-.6,0-.9,0s-.6,0-.9,0v.3c.2,0,.6,0,.6.2,0,.4-1.1,3-1.1,3,0,0-1.1-2.7-1.2-3,0-.2.3-.2.6-.2v-.3s-.7,0-1.2,0-.6,0-1,0v.3h0Z"/>
  <path d="M39.5,107.3c0,1.3.8,2.2,2.1,2.2.5,0,1.4-.3,1.7-.9h-.1c-.4.1-.7.3-1.2.3-1.2,0-1.7-.9-1.7-2,0,0,.4,0,.9,0s.9,0,1.3,0l.8-.3c0-1.3-.7-1.9-1.6-1.9s-.8.2-1.2.4c-.8.5-1.1,1.2-1.1,2.1h0ZM40.4,106.6c0-.7.4-1.4,1.2-1.4s1,.5,1,1-.1.4-.4.5c-.1,0-.9,0-1.1,0-.6,0-.7,0-.7,0h0Z"/>
  <path d="M46.7,107.3c0,1.3.9,2.3,2.2,2.3s2.4-1.1,2.4-2.5-1-2.3-2.3-2.3-2.3,1.1-2.3,2.5h0ZM47.6,106.9c0-.8.3-1.8,1.3-1.8s1.5,1.4,1.5,2.2-.2,1.8-1.2,1.8c-1.2,0-1.5-1.4-1.5-2.3h0ZM51.9,109.4c.4,0,.8,0,1.2,0s.8,0,1.2,0v-.3c-.6,0-.7,0-.7-.7v-2.3c.2-.4.7-.7,1.2-.7.7,0,1,.6,1,.9v2c0,.2,0,.8-.4.8v.2c.3,0,.6,0,.9,0s.6,0,.9,0v-.3c-.6,0-.7,0-.7-.7v-2c0-1-.5-1.5-1.5-1.5s-1.1.3-1.5.8v-.8h0c-1,.2-.7.2-1.5.3v.2c.7,0,.7,0,.7.7v2.3c0,.7-.1.7-.8.7v.3h0ZM57.9,107.3c0,1.3.8,2.2,2.1,2.2.5,0,1.4-.3,1.7-.9h-.1c-.4.1-.7.3-1.2.3-1.2,0-1.7-.9-1.7-2,0,0,.4,0,.9,0s.9,0,1.3,0l.8-.3c0-1.3-.7-1.9-1.6-1.9s-.8.2-1.2.4c-.8.5-1.1,1.2-1.1,2.1h0ZM58.8,106.6c0-.7.4-1.4,1.2-1.4s1,.5,1,1-.1.4-.4.5c-.1,0-.9,0-1.1,0-.6,0-.7,0-.7,0h0ZM62.6,108.7c.3.7.5.8,1.3.8s1.9-.5,1.9-1.5c0-1.6-2.5-1-2.5-2.2s.4-.7.8-.7c.6,0,1,.4,1.1,1h.3s0-1.1,0-1.1c-.3-.1-.7-.2-1.1-.2-.8,0-1.7.4-1.7,1.4,0,1.5,2.4.9,2.4,2.2s-.5.8-1,.8c-1.2,0-1-.8-1.2-1.1h-.2c0-.1-.2.6-.2.6Z"/>
  <path class="st3" d="M86.3,54.3c14.7-12.9,24.6-18.9,41.5-25.6"/>
  <path class="st1" d="M125.2,27.2c.9,1.2,1.9,1.5,2.8,1.5-.7.6-1.2,1.5-1.1,3"/>
  <path d="M3.6,33s.7,0,1.1,0,.7,0,1.1,0v-.3c-.2,0-.8,0-.8-.3s.5-1.4.6-1.8h2.5c.1.3.7,1.6.7,1.8s-.6.3-.8.3v.3c.4,0,.8,0,1.3,0s.8,0,1.3,0v-.3c-.8,0-.8-.3-1.1-1l-2.2-5.5h-.3s-2.4,5.8-2.4,5.8c-.3.6-.3.7-1,.8v.3h0ZM5.8,30.2l1.1-2.7,1.1,2.7h-2.1ZM11.2,30.9c0,1.2.8,2.2,2.1,2.2s1.2-.4,1.5-.8v.8c.9-.1.6-.1,1.6-.2v-.2c-.6,0-.8,0-.8-.6v-6.1h0c-.9.1-.6,0-1.5.3v.2c.6,0,.8,0,.8.5v1.7s-.6-.2-.9-.2c-1.4,0-2.6,1.1-2.6,2.5h0ZM12.1,30.6c0-.9.4-1.8,1.4-1.8s1.2.2,1.2.6v2.1c0,.6-.7,1-1.2,1-1,0-1.4-1.1-1.4-1.9h0ZM17.2,30.9c0,1.2.8,2.2,2.1,2.2s1.2-.4,1.5-.8v.8c.9-.1.6-.1,1.6-.2v-.2c-.6,0-.8,0-.8-.6v-6.1h0c-.9.1-.6,0-1.5.3v.2c.6,0,.8,0,.8.5v1.7s-.6-.2-.9-.2c-1.4,0-2.6,1.1-2.6,2.5h0ZM18,30.6c0-.9.4-1.8,1.4-1.8s1.2.2,1.2.6v2.1c0,.6-.7,1-1.2,1-1,0-1.4-1.1-1.4-1.9h0Z"/>
  <path d="M25.6,31.9c0,.7.6,1.2,1.2,1.2s1.2-.6,1.4-.8c0,.2,0,.7.2.7s1.2-.2,1.3-.2v-.3c-.1,0-.2,0-.3,0-.3,0-.4-.1-.4-.5v-2c0-1-.3-1.6-1.4-1.6-.9,0-1.5.5-1.8,1.2l.3.2c.3-.5.5-.9,1.1-.9s1,.4,1,1.3l-1.3.4c-.7.2-1.3.5-1.3,1.3h0ZM26.4,31.7c0-.7,1.8-1.2,1.8-1.2v1.5c-.2.3-.7.6-1.1.6-.4,0-.7-.4-.7-.8h0ZM30.5,30.9c0,1.2.8,2.2,2.1,2.2s1.2-.4,1.5-.8v.8c.9-.1.6-.1,1.6-.2v-.2c-.6,0-.8,0-.8-.6v-6.1h0c-.9.1-.6,0-1.5.3v.2c.6,0,.8,0,.8.5v1.7s-.6-.2-.9-.2c-1.4,0-2.6,1.1-2.6,2.5h0ZM31.4,30.6c0-.9.4-1.8,1.4-1.8s1.2.2,1.2.6v2.1c0,.6-.7,1-1.2,1-1,0-1.4-1.1-1.4-1.9h0ZM35.8,35.2l.2.4c.6-.1,1.2-.5,1.5-1.1.2-.4.3-1.5.3-2.1v-4h0c-.9.2-.6.1-1.5.3v.2c.7,0,.8,0,.8.7v2.7c0,.6,0,1.8-.3,2.3-.1.2-.8.5-.8.5h0ZM36.7,27.3c0,.3.2.5.5.5s.5-.3.5-.5-.2-.5-.5-.5-.5.3-.5.5h0ZM39,29c.6,0,.7,0,.7.6v2c0,.9.3,1.5,1.3,1.5s1.3-.3,1.6-.9v.8h0c.9-.1.6,0,1.5-.1v-.3c-.6,0-.8,0-.8-.6v-3.5h0c-.9.1-.6,0-1.6.2v.2c.6,0,.8,0,.8.6v1.6c0,.5-.6,1.3-1.2,1.3s-.9-.5-.9-1.2v-2.8h0c-.9.1-.6,0-1.5.2v.2h0ZM45,32.3c.3.7.5.8,1.3.8s1.9-.5,1.9-1.5c0-1.6-2.5-1-2.5-2.2s.4-.7.8-.7c.6,0,1,.4,1.1,1h.3s0-1.1,0-1.1c-.3-.1-.7-.2-1.1-.2-.8,0-1.7.4-1.7,1.4,0,1.5,2.4.9,2.4,2.2s-.5.8-1,.8c-1.2,0-1-.8-1.2-1.1h-.2c0-.1-.2.6-.2.6ZM49,28.7v.4h.7v2.8c0,.7.3,1.1,1,1.1s.8-.3,1.1-.6v-.2c-.3.1-.5.2-.7.2-.5,0-.6-.4-.6-.8v-2.6h1.2v-.4c0,0-1.2,0-1.2,0v-1.5h0c-.5,0-.7.2-.7.8v.7h-.7ZM52.7,30.9c0,1.3.8,2.2,2.1,2.2.5,0,1.4-.3,1.7-.9h-.1c-.4.1-.7.3-1.2.3-1.2,0-1.7-.9-1.7-2,0,0,.4,0,.9,0s.9,0,1.3,0l.8-.3c0-1.3-.7-1.9-1.6-1.9s-.8.2-1.2.4c-.8.5-1.1,1.2-1.1,2.1h0ZM53.5,30.2c0-.7.4-1.4,1.2-1.4s1,.5,1,1-.1.4-.4.5c-.1,0-.9,0-1.1,0-.6,0-.7,0-.7,0h0ZM57.4,30.9c0,1.2.8,2.2,2.1,2.2s1.2-.4,1.5-.8v.8c.9-.1.6-.1,1.6-.2v-.2c-.6,0-.8,0-.8-.6v-6.1h0c-.9.1-.6,0-1.5.3v.2c.6,0,.8,0,.8.5v1.7s-.6-.2-.9-.2c-1.4,0-2.6,1.1-2.6,2.5h0ZM58.3,30.6c0-.9.4-1.8,1.4-1.8s1.2.2,1.2.6v2.1c0,.6-.7,1-1.2,1-1,0-1.4-1.1-1.4-1.9h0Z"/>
  <path d="M65.9,31.9c0,.7.6,1.2,1.2,1.2s1.2-.6,1.4-.8c0,.2,0,.7.2.7s1.2-.2,1.3-.2v-.3c-.1,0-.2,0-.3,0-.3,0-.4-.1-.4-.5v-2c0-1-.3-1.6-1.4-1.6-.9,0-1.5.5-1.8,1.2l.3.2c.3-.5.5-.9,1.1-.9s1,.4,1,1.3l-1.3.4c-.7.2-1.3.5-1.3,1.3h0ZM66.7,31.7c0-.7,1.8-1.2,1.8-1.2v1.5c-.2.3-.7.6-1.1.6-.4,0-.7-.4-.7-.8h0ZM70.8,30.9c0,1.2.8,2.2,2.1,2.2s1.2-.4,1.5-.8v.8c.9-.1.6-.1,1.6-.2v-.2c-.6,0-.8,0-.8-.6v-6.1h0c-.9.1-.6,0-1.5.3v.2c.6,0,.8,0,.8.5v1.7s-.6-.2-.9-.2c-1.4,0-2.6,1.1-2.6,2.5h0ZM71.7,30.6c0-.9.4-1.8,1.4-1.8s1.2.2,1.2.6v2.1c0,.6-.7,1-1.2,1-1,0-1.4-1.1-1.4-1.9h0ZM76.7,30.9c0,1.2.8,2.2,2.1,2.2s1.2-.4,1.5-.8v.8c.9-.1.6-.1,1.6-.2v-.2c-.6,0-.8,0-.8-.6v-6.1h0c-.9.1-.6,0-1.5.3v.2c.6,0,.8,0,.8.5v1.7s-.6-.2-.9-.2c-1.4,0-2.6,1.1-2.6,2.5h0ZM77.6,30.6c0-.9.4-1.8,1.4-1.8s1.2.2,1.2.6v2.1c0,.6-.7,1-1.2,1-1,0-1.4-1.1-1.4-1.9h0ZM82.6,30.9c0,1.3.8,2.2,2.1,2.2.5,0,1.4-.3,1.7-.9h-.1c-.4.1-.7.3-1.2.3-1.2,0-1.7-.9-1.7-2,0,0,.4,0,.9,0s.9,0,1.3,0l.8-.3c0-1.3-.7-1.9-1.6-1.9s-.8.2-1.2.4c-.8.5-1.1,1.2-1.1,2.1h0ZM83.4,30.2c0-.7.4-1.4,1.2-1.4s1,.5,1,1-.1.4-.4.5c-.1,0-.9,0-1.1,0-.6,0-.7,0-.7,0h0ZM87.2,33c.4,0,.8,0,1.2,0s.8,0,1.2,0v-.3c-.6,0-.7,0-.7-.7v-2.3c.2-.4.7-.7,1.2-.7.7,0,1,.6,1,.9v2c0,.2,0,.8-.4.8v.2c.3,0,.6,0,.9,0s.6,0,.9,0v-.3c-.6,0-.7,0-.7-.7v-2c0-1-.5-1.5-1.5-1.5s-1.1.3-1.5.8v-.8h0c-1,.2-.7.2-1.5.3v.2c.7,0,.7,0,.7.7v2.3c0,.7-.1.7-.8.7v.3h0ZM93.2,30.9c0,1.2.8,2.2,2.1,2.2s1.2-.4,1.5-.8v.8c.9-.1.6-.1,1.6-.2v-.2c-.6,0-.8,0-.8-.6v-6.1h0c-.9.1-.6,0-1.5.3v.2c.6,0,.8,0,.8.5v1.7s-.6-.2-.9-.2c-1.4,0-2.6,1.1-2.6,2.5h0ZM94.1,30.6c0-.9.4-1.8,1.4-1.8s1.2.2,1.2.6v2.1c0,.6-.7,1-1.2,1-1,0-1.4-1.1-1.4-1.9h0ZM99.1,32.3c.3.7.5.8,1.3.8s1.9-.5,1.9-1.5c0-1.6-2.5-1-2.5-2.2s.4-.7.8-.7c.6,0,1,.4,1.1,1h.3s0-1.1,0-1.1c-.3-.1-.7-.2-1.1-.2-.8,0-1.7.4-1.7,1.4,0,1.5,2.4.9,2.4,2.2s-.5.8-1,.8c-1.2,0-1-.8-1.2-1.1h-.2c0-.1-.2.6-.2.6Z"/>
</svg>