<?xml version="1.0" encoding="UTF-8"?>
<svg id="Layer_1" xmlns="http://www.w3.org/2000/svg" version="1.1" viewBox="0 0 325.5 209.5">
  <!-- Generator: Adobe Illustrator 29.4.0, SVG Export Plug-In . SVG Version: 2.1.0 Build 152)  -->
  <defs>
    <style>
      .st0 {
        stroke-width: 1.4px;
      }

      .st0, .st1, .st2, .st3 {
        fill: none;
      }

      .st0, .st1, .st3 {
        stroke: #000;
      }

      .st0, .st2, .st3 {
        stroke-miterlimit: 10;
      }

      .st1 {
        stroke-linecap: round;
        stroke-linejoin: round;
      }

      .st1, .st3 {
        stroke-width: .4px;
      }

      .st2 {
        stroke: #fff;
        stroke-width: .6px;
      }
    </style>
  </defs>
  <path class="st0" d="M194.4,21.3c0-11.4-9.2-20.6-20.6-20.6s-20.6,9.2-20.6,20.6,9.2,20.6,20.6,20.6,20.6-9.2,20.6-20.6h0Z"/>
  <path class="st2" d="M194.4,21.3c0-11.4-9.2-20.6-20.6-20.6s-20.6,9.2-20.6,20.6,9.2,20.6,20.6,20.6,20.6-9.2,20.6-20.6h0Z"/>
  <path d="M158.4,20.8c0,.5.2,1,.5,1,1,0,2.2-1.6,2.4-2l-.7,3.7c-.1.6-.3.5-.6.6v.2c.1,0,1.5-.1,1.6-.2v-.2c-.3,0-.4,0-.4-.2s1.2-6.4,1.2-6.4h0c0,0-.2,0-.2,0,0,0-.6-.2-.9-.2-1.4,0-2.9,1.5-2.9,3.8h0ZM159.2,20.4c0-1.7.9-3,1.7-3s.5,0,.8.2c0,.3-.3,1.2-.3,1.4-.6,1.1-1.5,2.1-1.9,2.1s-.3-.2-.3-.6h0Z"/>
  <path d="M163.2,21.7c0,.9.4,2.1,1.4,2.1s1.5-1.3,1.5-2.3-.4-2.1-1.4-2.1-1.5,1.2-1.5,2.2h0ZM163.8,21.6c0-.6,0-1.8.8-1.8s.8,1.3.8,2,0,1.8-.8,1.8-.8-1.3-.8-2h0ZM166.9,24.3h.5l2-5.4h-.5l-2,5.4ZM170.2,23.2c0,.4.2.6.3.6.4,0,1.1-.8,1.6-1.4,0,.1-.3.7-.3,1.1s0,.3.2.3.6-.3,1.1-.7v-.2c-.2,0-.5.3-.6.3s0,0,0-.1c0-.4.4-1.8.6-2.6h0s-.3,0-.3,0c-.2,0-.3-.1-.5-.1-1.4,0-2,1.6-2,2.6h0ZM170.7,23c0-.8.5-2.2,1.2-2.2s.3,0,.5.1c0,.3-.2.8-.3,1-.1.2-.9,1.4-1.2,1.4s-.2-.1-.2-.3h0Z"/>
  <path d="M173.7,22.8c0,.6.3,1,.8,1s1.1-.4,1.4-.7h0c-.3,0-.7.3-1,.3s-.5-.3-.5-.8c0-1,.5-1.8,1-1.8s.5.2.5.3,0,.1,0,.2h.2c0-.2.2-.4.2-.5s-.3-.3-.6-.3c-1.2,0-1.9,1.1-1.9,2.3h0ZM176.9,22.8c0,.6.3,1,.8,1s1.1-.4,1.4-.7h0c-.3,0-.7.3-1,.3s-.5-.3-.5-.8c0-1,.5-1.8,1-1.8s.5.2.5.3,0,.1,0,.2h.2c0-.2.2-.4.2-.5s-.3-.3-.6-.3c-1.2,0-1.9,1.1-1.9,2.3h0ZM180,22.9c0,.7.4.9.8.9s.9-.2,1.5-.8h0c-.3.1-.7.4-1.1.4s-.5-.4-.5-.7,0-.2,0-.3c.6-.2,1.9-.5,1.9-1.3s-.2-.5-.6-.5c-1,0-1.9,1.2-1.9,2.4h0ZM180.7,22.2c0-.4.4-1.4.9-1.4s.3.1.3.4c0,.6-.8.9-1.3,1h0ZM183,25.5c.3,0,.8,0,1.1-.1,0,0,0-.2,0-.2-.2,0-.3-.1-.3-.3,0-.3.1-1,.2-1.3.1,0,.3.1.5.1,1.3,0,1.9-1.4,1.9-2.5s-.2-.8-.7-.8-.9.4-1.2.7c0-.2.1-.7.1-.7h0c-.2,0-.8.4-1.2.5v.2c.2,0,.4-.2.6-.2-.1.9-.6,4.3-1,4.3v.2ZM184.2,23.3s.3-1.5.3-1.6c.2-.4.6-.9.9-.9s.5.2.5.6-.4,2-1.2,2c-.2,0-.4,0-.5-.2h0Z"/>
  <path d="M187.3,21h.5s-.5,2.2-.5,2.4,0,.3.2.3c.3,0,1-.6,1.2-.8,0,0,0-.1,0-.1-.1.1-.5.4-.7.4s0,0,0-.2c0-.2.4-1.9.4-2.2h.8v-.3c0,0-.7,0-.7,0,0-.3.2-1,.3-1.1h0c0,0-.5.2-.6.3l-.2.9h-.5v.3Z"/>
  <line class="st3" x1="139.5" y1="21.3" x2="151.3" y2="21.3"/>
  <path class="st1" d="M149.5,18.9c.4,1.4,1.2,2.1,2.1,2.4-.9.3-1.7,1-2.1,2.4"/>
  <path d="M116.3,23.4c.3.7.5.8,1.3.8s1.9-.5,1.9-1.5c0-1.6-2.5-1-2.5-2.2s.4-.7.8-.7c.6,0,1,.4,1.1,1h.3s0-1.1,0-1.1c-.3-.1-.7-.2-1.1-.2-.8,0-1.7.4-1.7,1.4,0,1.5,2.4.9,2.4,2.2s-.5.8-1,.8c-1.2,0-1-.8-1.2-1.1h-.2c0-.1-.2.6-.2.6ZM120.3,19.9v.4h.7v2.8c0,.7.3,1.1,1,1.1s.8-.3,1.1-.6v-.2c-.3.1-.5.2-.7.2-.5,0-.6-.4-.6-.8v-2.6h1.2v-.4s-1.2,0-1.2,0v-1.5h0c-.5,0-.7.2-.7.8v.7h-.7ZM123.9,23.1c0,.7.6,1.2,1.2,1.2s1.2-.6,1.4-.8c0,.2,0,.7.2.7s1.2-.2,1.3-.2v-.3c-.1,0-.2,0-.3,0-.3,0-.4-.1-.4-.5v-2c0-1-.3-1.6-1.4-1.6-.9,0-1.5.5-1.8,1.2l.3.2c.3-.5.5-.9,1.1-.9s1,.4,1,1.3l-1.3.4c-.7.2-1.3.5-1.3,1.3h0ZM124.7,22.9c0-.7,1.8-1.2,1.8-1.2v1.5c-.2.3-.7.6-1.1.6-.4,0-.7-.4-.7-.8h0ZM128.7,24.2c.4,0,.8,0,1.2,0s.8,0,1.2,0v-.3c-.7,0-.9,0-.9-.7v-1.9c0-.3.4-.9.8-.9s.5.2.5.3h.1s.4-.7.4-.7c0-.2-.4-.4-.6-.4-.5,0-1.1.6-1.3,1v-1h0c-.8.2-.6.1-1.5.3v.2c.7,0,.7,0,.7.7v2.3c0,.7-.1.6-.8.7v.3h0ZM132.7,19.9v.4h.7v2.8c0,.7.3,1.1,1,1.1s.8-.3,1.1-.6v-.2c-.3.1-.5.2-.7.2-.5,0-.6-.4-.6-.8v-2.6h1.2v-.4s-1.2,0-1.2,0v-1.5h0c-.5,0-.7.2-.7.8v.7h-.7Z"/>
  <path class="st3" d="M268.9,80c0-7.8-6.3-14.2-14.2-14.2s-14.2,6.3-14.2,14.2,6.3,14.2,14.2,14.2,14.2-6.3,14.2-14.2h0Z"/>
  <path d="M250.7,80.2c0,.5.2,1,.5,1,1,0,2.2-1.6,2.4-2l-.7,3.7c-.1.6-.3.5-.6.6v.2c.1,0,1.5-.1,1.6-.2v-.2c-.3,0-.4,0-.4-.2s1.2-6.4,1.2-6.4h0c0,0-.2,0-.2,0,0,0-.6-.2-.9-.2-1.4,0-2.9,1.5-2.9,3.8h0ZM251.4,79.9c0-1.7.9-3,1.7-3s.5,0,.8.2c0,.3-.3,1.2-.3,1.4-.6,1.1-1.5,2.1-1.9,2.1-.2,0-.3-.2-.3-.6h0Z"/>
  <path d="M255.7,79.4v.3c.2,0,.4,0,.6,0s.3,0,.3.2v2.8c0,.4-.4.4-.7.4v.2c.3,0,.7,0,1,0s.7,0,1,0v-.2c-.3,0-.7,0-.7-.4v-2.5c0-.4,0-.7,0-1.1h0c-.5.1-1,.3-1.5.4h0Z"/>
  <path class="st3" d="M238,175.1c0-7.8-6.3-14.2-14.2-14.2s-14.2,6.3-14.2,14.2,6.3,14.2,14.2,14.2,14.2-6.3,14.2-14.2h0Z"/>
  <path d="M219.8,175.3c0,.5.2,1,.5,1,1,0,2.2-1.6,2.4-2l-.7,3.7c-.1.6-.3.5-.6.6v.2c.1,0,1.5-.1,1.6-.2v-.2c-.3,0-.4,0-.4-.2s1.2-6.4,1.2-6.4h0c0,0-.2,0-.2,0,0,0-.6-.2-.9-.2-1.4,0-2.9,1.5-2.9,3.8h0ZM220.5,174.9c0-1.7.9-3,1.7-3s.5,0,.8.2c0,.3-.3,1.2-.3,1.4-.6,1.1-1.5,2.1-1.9,2.1-.2,0-.3-.2-.3-.6h0Z"/>
  <path d="M224.6,178.2h.3c.4,0,.7,0,1.1,0h.2c0,0,.2,0,.2,0,.3,0,.7-.3,1.1-.4v-.4c-.5.2-.8.2-1.2.2h-.7l1-1.1c.4-.5.8-.8.8-1.4s-.6-1.2-1.3-1.2-.7.1-1,.4l-.3.8h.2c.2-.4.3-.6.8-.6s.9.3.9.8-.5,1-.9,1.5l-1.1,1.2v.2h0Z"/>
  <path class="st3" d="M138,175.1c0-7.8-6.3-14.2-14.2-14.2s-14.2,6.3-14.2,14.2,6.3,14.2,14.2,14.2,14.2-6.3,14.2-14.2h0Z"/>
  <path d="M119.8,175.3c0,.5.2,1,.5,1,1,0,2.2-1.6,2.4-2l-.7,3.7c-.1.6-.3.5-.6.6v.2c.1,0,1.5-.1,1.6-.2v-.2c-.3,0-.4,0-.4-.2s1.2-6.4,1.2-6.4h0c0,0-.2,0-.2,0,0,0-.6-.2-.9-.2-1.4,0-2.9,1.5-2.9,3.8h0ZM120.6,174.9c0-1.7.9-3,1.7-3s.5,0,.8.2c0,.3-.3,1.2-.3,1.4-.6,1.1-1.5,2.1-1.9,2.1-.2,0-.3-.2-.3-.6h0Z"/>
  <path d="M124.7,177.5c.1.6.2.8.8.8,1.2,0,1.8-.6,1.8-1.6s-.5-.9-1-1c.3-.2.7-.5.7-.9s-.5-.9-1.1-.9-.6.1-.9.3l-.3.7h.2c.2-.3.3-.5.7-.5s.6.2.6.6-.7.7-1.1.9v.3c.2,0,.3,0,.5,0,.5,0,.8.4.8.9s-.3.9-.7.9-.7-.2-1.1-.5h-.1Z"/>
  <path class="st3" d="M107.1,80c0-7.8-6.3-14.2-14.2-14.2s-14.2,6.3-14.2,14.2,6.3,14.2,14.2,14.2,14.2-6.3,14.2-14.2h0Z"/>
  <path d="M88.9,80.2c0,.5.2,1,.5,1,1,0,2.2-1.6,2.4-2l-.7,3.7c-.1.6-.3.5-.6.6v.2c.1,0,1.5-.1,1.6-.2v-.2c-.3,0-.4,0-.4-.2s1.2-6.4,1.2-6.4h0c0,0-.2,0-.2,0,0,0-.6-.2-.9-.2-1.4,0-2.9,1.5-2.9,3.8h0ZM89.7,79.9c0-1.7.9-3,1.7-3s.5,0,.8.2c0,.3-.3,1.2-.3,1.4-.6,1.1-1.5,2.1-1.9,2.1-.2,0-.3-.2-.3-.6h0Z"/>
  <path d="M93.6,81.8v.2h1.9v.5c0,.4-.2.5-.5.5h-.3v.2h2v-.2c-.4,0-.6,0-.6-.5v-.5c.2,0,.3,0,.6,0v-.5c-.2,0-.3,0-.6,0v-2.1c0-.2,0-.4,0-.6h-.7c0,.1-1.9,3-1.9,3ZM94.1,81.5l1.3-1.9h.1v1.9s-1.4,0-1.4,0Z"/>
  <path class="st3" d="M193.5,28.8c23.8,9.9,36.5,19.6,51.3,38.9"/>
  <path class="st1" d="M245.5,64.8c-.9,1.2-.9,2.3-.6,3.1-.7-.5-1.8-.8-3.2-.2"/>
  <path d="M226.4,40s.8,0,1.4,0,.9,0,1.4,0v-.3c-.9,0-.9-.1-.9-1.1v-4.8c0-.2.4-.2.8-.2.8,0,1.6.4,1.6,1.4s-.3,1-1,1.3c-.4.2-1.1.1-1.1.3s.7.6.9.9c.2.4,1,1.5,1.3,1.9.3.4.5.6,1.1.6h.7c0-.1-.1-.3-.1-.3-.3,0-.3,0-.5-.3l-2-2.7c.9-.3,1.6-.8,1.6-1.8s-1.5-1.6-2.1-1.6-3,0-3,0v.3c.9,0,.9.1.9,1.1v4c0,1,0,1-.9,1.1v.3h0ZM233.1,37.9c0,1.3.8,2.2,2.1,2.2.5,0,1.4-.3,1.7-.9h-.1c-.4.1-.7.3-1.2.3-1.2,0-1.7-.9-1.7-2,0,0,.4,0,.9,0s.9,0,1.3,0l.8-.3c0-1.3-.7-1.9-1.6-1.9s-.8.2-1.2.4c-.8.5-1.1,1.2-1.1,2.1h0ZM234,37.2c0-.7.4-1.4,1.2-1.4s1,.5,1,1-.1.4-.4.5c-.1,0-.9,0-1.1,0-.6,0-.7,0-.7,0h0ZM237.9,38.9c0,.7.6,1.2,1.2,1.2s1.2-.6,1.4-.8c0,.2,0,.7.2.7s1.2-.2,1.3-.2v-.3c-.1,0-.2,0-.3,0-.3,0-.4-.1-.4-.5v-2c0-1-.3-1.6-1.4-1.6-.9,0-1.5.5-1.8,1.2l.3.2c.3-.5.5-.9,1.1-.9s1,.4,1,1.3l-1.3.4c-.7.2-1.3.5-1.3,1.3h0ZM238.7,38.7c0-.7,1.8-1.2,1.8-1.2v1.5c-.2.3-.7.6-1.1.6-.4,0-.7-.4-.7-.8h0ZM242.8,37.9c0,1.2.8,2.2,2.1,2.2s1.2-.4,1.5-.8v.8c.9-.1.6-.1,1.6-.2v-.2c-.6,0-.8,0-.8-.6v-6.1h0c-.9.1-.6,0-1.5.3v.2c.6,0,.8,0,.8.5v1.7s-.6-.2-.9-.2c-1.4,0-2.6,1.1-2.6,2.5h0ZM243.7,37.6c0-.9.4-1.8,1.4-1.8s1.2.2,1.2.6v2.1c0,.6-.7,1-1.2,1-1,0-1.4-1.1-1.4-1.9h0Z"/>
  <path d="M250.9,40c.3,0,.7,0,1.1,0s.9,0,1.1,0v-.2c-.2,0-.8,0-.8-.4s1.2-4.8,1.2-4.8l1.4,5.5h.2l3.4-5.7-.5,4.6c0,.7-.4.8-1,.8v.2c.3,0,.8,0,1.2,0s1,0,1.3,0v-.2c-.5,0-.8-.1-.8-.5s.5-4.9.5-4.9c0-.7.4-.7,1-.8v-.2c-.2,0-.5,0-.8,0s-.5,0-.8,0l-3.3,5.5-1.4-5.5c-.3,0-.5,0-.8,0s-.5,0-.8,0v.2c.4,0,.8,0,.8.5s-1.3,5.1-1.3,5.1c-.1.4-.3.6-.9.6v.2ZM261.3,41.2v.2c.8-.3,1.7-1.4,1.7-2.1s-.3-.6-.5-.6-.4.2-.4.3,0,0,0,0c0,.1,0,.3,0,.4,0,.7-.7,1.5-.9,1.7h0Z"/>
  <path d="M265.8,39c.3.9.5,1.1,1.6,1.1s2.6-1,2.6-2.3c0-2.1-2.7-1.1-2.7-3s.6-1.3,1.4-1.3,1.1.5,1.2,1.3h.3c0-.5,0-.9.1-1.4-.5-.2-.8-.3-1.3-.3-1.2,0-2.4.8-2.4,2.1,0,2.2,2.7,1.1,2.7,3s-.6,1.5-1.6,1.5-1.2-.5-1.4-1.4c0,0-.2,0-.2,0l-.2.7Z"/>
  <path class="st3" d="M253.9,94.4c-1.5,28.2-7,45-21.6,67.5"/>
  <path class="st1" d="M235.4,161.6c-1.4-.5-2.4-.1-3.1.4.2-.9.1-1.9-.9-3"/>
  <path d="M251.8,126.3c.9,0,.9.2.9,1v4.2c0,.6,0,.9-.7,1v.2h2.6c2.3,0,4.1-1.3,4.1-3.7s-1.7-3-3.6-3h-3.2v.3ZM253.6,131.8v-5.2c0-.3.5-.3,1-.3,1.9,0,3.1.7,3.1,2.9s-1.1,3.1-3.1,3.1-1,0-1-.5h0ZM259.6,130.6c0,1.3.8,2.2,2.1,2.2.5,0,1.4-.3,1.7-.9h-.1c-.4.1-.7.3-1.2.3-1.2,0-1.7-.9-1.7-2,0,0,.4,0,.9,0s.9,0,1.3,0l.8-.3c0-1.3-.7-1.9-1.6-1.9s-.8.2-1.2.4c-.8.5-1.1,1.2-1.1,2.1h0ZM260.4,129.9c0-.7.4-1.4,1.2-1.4s1,.5,1,1-.1.4-.4.5c-.1,0-.9,0-1.1,0-.6,0-.7,0-.7,0h0ZM264.3,130.6c0,1.3.9,2.2,2.2,2.2s1.4-.4,1.6-.9h-.1c-.4.1-.7.3-1.1.3-1.1,0-1.7-1-1.7-2s.4-1.6,1.3-1.6.8,0,.9.3l.2.4h.2s.2-.8.2-.8c-.2-.3-.9-.4-1.1-.4-1.4,0-2.6,1.1-2.6,2.5h0ZM268.8,132.7c.4,0,.8,0,1.2,0s.8,0,1.2,0v-.3c-.7,0-.8,0-.8-.7v-3.5h0c0,0-1.5.3-1.5.3v.2c.7,0,.7,0,.7.7v2.3c0,.7-.1.6-.8.7v.3ZM269.4,127c0,.3.2.5.5.5s.5-.2.5-.5-.2-.6-.5-.6-.5.3-.5.6h0ZM271.9,130.6c0,1.2.8,2.2,2.1,2.2s1.2-.4,1.5-.8v.8c.9-.1.6-.1,1.6-.2v-.2c-.6,0-.8,0-.8-.6v-6.1h0c-.9.1-.6,0-1.5.3v.2c.6,0,.8,0,.8.5v1.7s-.6-.2-.9-.2c-1.4,0-2.6,1.1-2.6,2.5h0ZM272.8,130.3c0-.9.4-1.8,1.4-1.8s1.2.2,1.2.6v2.1c0,.6-.7,1-1.2,1-1,0-1.4-1.1-1.4-1.9h0ZM277.8,130.6c0,1.3.8,2.2,2.1,2.2.5,0,1.4-.3,1.7-.9h-.1c-.4.1-.7.3-1.2.3-1.2,0-1.7-.9-1.7-2,0,0,.4,0,.9,0s.9,0,1.3,0l.8-.3c0-1.3-.7-1.9-1.6-1.9s-.8.2-1.2.4c-.8.5-1.1,1.2-1.1,2.1h0ZM278.6,129.9c0-.7.4-1.4,1.2-1.4s1,.5,1,1-.1.4-.4.5c-.1,0-.9,0-1.1,0-.6,0-.7,0-.7,0h0Z"/>
  <path d="M285,132.7c.4,0,.8,0,1.2,0s.8,0,1.2,0v-.3c-.7,0-.9,0-.9-.7v-1.9c0-.3.4-.9.8-.9s.5.2.5.3h.1s.4-.7.4-.7c0-.2-.4-.4-.6-.4-.5,0-1.1.6-1.3,1v-1h0c-.8.2-.6.1-1.5.3v.2c.7,0,.7,0,.7.7v2.3c0,.7-.1.6-.8.7v.3h0ZM289,130.6c0,1.3.9,2.3,2.2,2.3s2.4-1.1,2.4-2.5-1-2.3-2.3-2.3c-1.4,0-2.3,1.1-2.3,2.5h0ZM289.9,130.2c0-.8.3-1.8,1.3-1.8s1.5,1.4,1.5,2.2-.2,1.8-1.2,1.8c-1.2,0-1.5-1.4-1.5-2.3h0ZM294.2,128.7c.6,0,.7,0,.7.6v2c0,.9.3,1.5,1.3,1.5s1.3-.3,1.6-.9v.8h0c.9-.1.6,0,1.5-.1v-.3c-.6,0-.8,0-.8-.6v-3.5h0c-.9.1-.6,0-1.6.2v.2c.6,0,.8,0,.8.6v1.6c0,.5-.6,1.3-1.2,1.3s-.9-.5-.9-1.2v-2.8h0c-.9.1-.6,0-1.5.2v.2h0ZM300.1,132.7c.4,0,.8,0,1.2,0s.8,0,1.2,0v-.3c-.6,0-.7,0-.7-.7v-2.3c.2-.4.7-.7,1.2-.7.7,0,1,.6,1,.9v2c0,.2,0,.8-.4.8v.2c.3,0,.6,0,.9,0s.6,0,.9,0v-.3c-.6,0-.7,0-.7-.7v-2c0-1-.5-1.5-1.5-1.5s-1.1.3-1.5.8v-.8h0c-1,.2-.7.2-1.5.3v.2c.7,0,.7,0,.7.7v2.3c0,.7-.1.7-.8.7v.3h0ZM306.1,130.6c0,1.2.8,2.2,2.1,2.2s1.2-.4,1.5-.8v.8c.9-.1.6-.1,1.6-.2v-.2c-.6,0-.8,0-.8-.6v-6.1h0c-.9.1-.6,0-1.5.3v.2c.6,0,.8,0,.8.5v1.7s-.6-.2-.9-.2c-1.4,0-2.6,1.1-2.6,2.5h0ZM307,130.3c0-.9.4-1.8,1.4-1.8s1.2.2,1.2.6v2.1c0,.6-.7,1-1.2,1-1,0-1.4-1.1-1.4-1.9h0ZM312,132.7c.4,0,.8,0,1.2,0s.8,0,1.2,0v-.3c-.7,0-.8,0-.8-.7v-3.5h0c0,0-1.5.3-1.5.3v.2c.7,0,.7,0,.7.7v2.3c0,.7-.1.6-.8.7v.3ZM312.6,127c0,.3.2.5.5.5s.5-.2.5-.5-.2-.6-.5-.6-.5.3-.5.6h0ZM314.9,132.7c.4,0,.8,0,1.2,0s.8,0,1.2,0v-.3c-.6,0-.7,0-.7-.7v-2.3c.2-.4.7-.7,1.2-.7.7,0,1,.6,1,.9v2c0,.2,0,.8-.4.8v.2c.3,0,.6,0,.9,0s.6,0,.9,0v-.3c-.6,0-.7,0-.7-.7v-2c0-1-.5-1.5-1.5-1.5s-1.1.3-1.5.8v-.8h0c-1,.2-.7.2-1.5.3v.2c.7,0,.7,0,.7.7v2.3c0,.7-.1.7-.8.7v.3h0ZM320.9,133.9c0,1,1.1,1.4,2,1.4,1.6,0,2.5-.8,2.5-2.1s-.6-1.2-1.3-1.2-.8,0-1.3,0-.7,0-.7-.4.5-.5.5-.5c1.4,0,2.1-.5,2.1-1.6s-.2-.7-.2-.7h.7s.3-.5.3-.5h-1.4c-.3-.1-.7-.2-1.1-.2-1,0-2,.7-2,1.7s.4,1.2,1.1,1.3c0,0-.8.5-1,.8,0,.6.8.7.8.7,0,0-1.1.5-1.1,1.2h0ZM321.7,133.8c0-.9.8-1,1.5-1s1.5,0,1.5.9-.9,1.3-1.6,1.3c-.7,0-1.4-.4-1.4-1.1h0ZM321.9,129.6c0-.6.3-1.2.9-1.2s1,.7,1,1.4-.3,1.1-.9,1.1c-.7,0-1-.7-1-1.3h0Z"/>
  <path class="st3" d="M209.9,178.8c-27.2,7.3-45,7.3-70.9.4"/>
  <path class="st1" d="M140.2,182c0-1.5-.6-2.4-1.4-2.8.9,0,1.9-.5,2.6-1.8"/>
  <path d="M139.4,195s.8,0,1.4,0,.9,0,1.4,0v-.3c-.9,0-.9-.1-.9-1.1v-4.8c0-.2.4-.2.8-.2.8,0,1.6.4,1.6,1.4s-.3,1-1,1.3c-.4.2-1.1.1-1.1.3s.7.6.9.9c.2.4,1,1.5,1.3,1.9.3.4.5.6,1.1.6h.7c0-.1-.1-.3-.1-.3-.3,0-.3,0-.5-.3l-2-2.7c.9-.3,1.6-.8,1.6-1.8s-1.5-1.6-2.1-1.6-3,0-3,0v.3c.9,0,.9.1.9,1.1v4c0,1,0,1-.9,1.1v.3h0ZM146,192.9c0,1.3.9,2.3,2.2,2.3s2.4-1.1,2.4-2.5-1-2.3-2.3-2.3-2.3,1.1-2.3,2.5h0ZM146.9,192.5c0-.8.3-1.8,1.3-1.8s1.5,1.4,1.5,2.2-.2,1.8-1.2,1.8c-1.2,0-1.5-1.4-1.5-2.3h0ZM151.2,191c.6,0,.7,0,.7.6v2c0,.9.3,1.5,1.3,1.5s1.3-.3,1.6-.9v.8h0c.9-.1.6,0,1.5-.1v-.3c-.6,0-.8,0-.8-.6v-3.5h0c-.9.1-.6,0-1.6.2v.2c.6,0,.8,0,.8.6v1.6c0,.5-.6,1.3-1.2,1.3s-.9-.5-.9-1.2v-2.8h0c-.9.1-.6,0-1.5.2v.2h0ZM157.1,195c.4,0,.8,0,1.2,0s.8,0,1.2,0v-.3c-.6,0-.7,0-.7-.7v-2.3c.2-.4.7-.7,1.2-.7.7,0,1,.6,1,.9v2c0,.2,0,.8-.4.8v.2c.3,0,.6,0,.9,0s.6,0,.9,0v-.3c-.6,0-.7,0-.7-.7v-2c0-1-.5-1.5-1.5-1.5s-1.1.3-1.5.8v-.8h0c-1,.2-.7.2-1.5.3v.2c.7,0,.7,0,.7.7v2.3c0,.7-.1.7-.8.7v.3h0ZM163.1,192.9c0,1.2.8,2.2,2.1,2.2s1.2-.4,1.5-.8v.8c.9-.1.6-.1,1.6-.2v-.2c-.6,0-.8,0-.8-.6v-6.1h0c-.9.1-.6,0-1.5.3v.2c.6,0,.8,0,.8.5v1.7s-.6-.2-.9-.2c-1.4,0-2.6,1.1-2.6,2.5h0ZM164,192.6c0-.9.4-1.8,1.4-1.8s1.2.2,1.2.6v2.1c0,.6-.7,1-1.2,1-1,0-1.4-1.1-1.4-1.9h0Z"/>
  <path d="M171.4,195c.4,0,.8,0,1.2,0s.8,0,1.2,0v-.3c-.6,0-.7,0-.7-.7v-2.3c.2-.4.7-.7,1.2-.7.7,0,1,.6,1,.9v2c0,.2,0,.8-.4.8v.2c.3,0,.6,0,.9,0s.6,0,.9,0v-.3c-.6,0-.7,0-.7-.7v-2c0-1-.5-1.5-1.5-1.5s-1.1.3-1.5.8v-.8h0c-1,.2-.7.2-1.5.3v.2c.7,0,.7,0,.7.7v2.3c0,.7-.1.7-.8.7v.3h0Z"/>
  <path d="M177.2,191c.6,0,.7,0,.7.6v2c0,.9.3,1.5,1.3,1.5s1.3-.3,1.6-.9v.8h0c.9-.1.6,0,1.5-.1v-.3c-.6,0-.8,0-.8-.6v-3.5h0c-.9.1-.6,0-1.6.2v.2c.6,0,.8,0,.8.6v1.6c0,.5-.6,1.3-1.2,1.3s-.9-.5-.9-1.2v-2.8h0c-.9.1-.6,0-1.5.2v.2h0ZM183.1,195s.7,0,1.1,0,.8,0,1.2,0v-.3c-.6,0-.7,0-.7-.7v-2.3c.2-.4.7-.7,1.2-.7.7,0,.9.6.9,1.1v1.9c0,.7-.1.6-.8.7v.3s.7,0,1.1,0,.8,0,1.2,0v-.3c-.7,0-.7,0-.7-.7v-2.3c.2-.4.7-.7,1.2-.7.7,0,.9.6.9,1.2v1.8c0,.2,0,.8-.3.8v.2c.3,0,.6,0,.9,0s.7,0,1,0v-.3c-.7,0-.7,0-.7-.7v-2.1c0-.9-.5-1.5-1.4-1.5s-1.2.4-1.6.9c-.2-.6-.7-.9-1.3-.9s-1.1.4-1.5.8v-.8h0c-.9.2-.6.1-1.5.3v.2c.7,0,.7,0,.7.7v2.3c0,.7-.1.6-.8.7v.3h0ZM191.7,188.4c.5,0,.7,0,.7.5v5.6s0,.1,0,.1c0,0,.5.4,1.6.4,2.1,0,2.6-1.3,2.6-2.7s-.8-2-1.9-2-1.1.4-1.5.7v-3.2h0c-1,.2-.7,0-1.5.3v.2ZM193.3,194v-2.5c0-.2.8-.6,1-.6,1,0,1.5.8,1.5,1.8s-.4,1.9-1.4,1.9c-.3,0-1.1-.3-1.1-.7h0ZM197.5,192.9c0,1.3.8,2.2,2.1,2.2.5,0,1.4-.3,1.7-.9h-.1c-.4.1-.7.3-1.2.3-1.2,0-1.7-.9-1.7-2,0,0,.4,0,.9,0s.9,0,1.3,0l.8-.3c0-1.3-.7-1.9-1.6-1.9s-.8.2-1.2.4c-.8.5-1.1,1.2-1.1,2.1h0ZM198.4,192.2c0-.7.4-1.4,1.2-1.4s1,.5,1,1-.1.4-.4.5c-.1,0-.9,0-1.1,0-.6,0-.7,0-.7,0h0ZM202.2,195c.4,0,.8,0,1.2,0s.8,0,1.2,0v-.3c-.7,0-.9,0-.9-.7v-1.9c0-.3.4-.9.8-.9s.5.2.5.3h.1s.4-.7.4-.7c0-.2-.4-.4-.6-.4-.5,0-1.1.6-1.3,1v-1h0c-.8.2-.6.1-1.5.3v.2c.7,0,.7,0,.7.7v2.3c0,.7-.1.6-.8.7v.3h0ZM206.3,196.2v.2c.8-.3,1.7-1.4,1.7-2.1s-.3-.6-.5-.6-.4.2-.4.3.1.1.1.5c0,.7-.7,1.5-.9,1.7h0ZM206.7,191.1c0,.3.3.6.6.6s.6-.3.6-.6-.3-.6-.6-.6c-.3,0-.6.3-.6.6h0Z"/>
  <path d="M133.3,209.2v.3c.4,0,.8,0,1.2,0s.8,0,1.2,0v-.3c-.7,0-.9,0-.9-.7v-1.7c.2.1.6.2.8.2,2.1,0,2.6-1,2.6-2.8s-.8-1.9-1.9-1.9-1.1.3-1.6.8v-.8h0c-.9.2-.7.1-1.5.4v.2c.7,0,.8,0,.8.7v4.8c0,.7-.1.6-.8.7h0ZM134.9,206.1v-2.4c.2-.4.7-.7,1.2-.7,1,0,1.5.8,1.5,1.8s-.5,1.8-1.5,1.8c-.5,0-.8-.2-1.2-.5h0ZM139.2,202.9c.6,0,.7,0,.7.6v2c0,.9.3,1.5,1.3,1.5s1.3-.3,1.6-.9v.8h0c.9-.1.6,0,1.5-.1v-.3c-.6,0-.8,0-.8-.6v-3.5h0c-.9.1-.6,0-1.6.2v.2c.6,0,.8,0,.8.6v1.6c0,.5-.6,1.3-1.2,1.3s-.9-.5-.9-1.2v-2.8h0c-.9.1-.6,0-1.5.2v.2h0ZM145.3,206.2c.3.7.5.8,1.3.8s1.9-.5,1.9-1.5c0-1.6-2.5-1-2.5-2.2s.4-.7.8-.7c.6,0,1,.4,1.1,1h.3s0-1.1,0-1.1c-.3-.1-.7-.2-1.1-.2-.8,0-1.7.4-1.7,1.4,0,1.5,2.4.9,2.4,2.2s-.5.8-1,.8c-1.2,0-1-.8-1.2-1.1h-.2c0-.1-.2.6-.2.6ZM149.2,200.4c.5,0,.8-.1.8.5v5c0,.7,0,.7-.7.7v.3c.4,0,.8,0,1.1,0s.8,0,1.1,0v-.3c-.7,0-.7,0-.7-.7v-2.3c0-.4.8-.7,1.1-.7.7,0,1,.5,1,1.2v1.8c0,.2,0,.8-.3.8v.2c.3,0,.6,0,.9,0s.6,0,.9,0v-.3c-.6,0-.7,0-.7-.7v-2c0-1-.5-1.6-1.5-1.6s-1.5.8-1.5.8v-3.3h0c-.5,0-1,.2-1.5.3v.2h0Z"/>
  <path d="M157.7,205.9c0,.7.6,1.2,1.2,1.2s1.2-.6,1.4-.8c0,.2,0,.7.2.7s1.2-.2,1.3-.2v-.3c-.1,0-.2,0-.3,0-.3,0-.4-.1-.4-.5v-2c0-1-.3-1.6-1.4-1.6-.9,0-1.5.5-1.8,1.2l.3.2c.3-.5.5-.9,1.1-.9s1,.4,1,1.3l-1.3.4c-.7.2-1.3.5-1.3,1.3h0ZM158.6,205.7c0-.7,1.8-1.2,1.8-1.2v1.5c-.2.3-.7.6-1.1.6s-.7-.4-.7-.8h0ZM162.7,204.8c0,1.2.8,2.2,2.1,2.2s1.2-.4,1.5-.8v.8c.9-.1.6-.1,1.6-.2v-.2c-.6,0-.8,0-.8-.6v-6.1h0c-.9.1-.6,0-1.5.3v.2c.6,0,.8,0,.8.5v1.7s-.6-.2-.9-.2c-1.4,0-2.6,1.1-2.6,2.5h0ZM163.6,204.5c0-.9.4-1.8,1.4-1.8s1.2.2,1.2.6v2.1c0,.6-.7,1-1.2,1-1,0-1.4-1.1-1.4-1.9h0ZM167.9,209.2l.2.4c.6-.1,1.2-.5,1.5-1.1.2-.4.3-1.5.3-2.1v-4h0c-.9.2-.6.1-1.5.3v.2c.7,0,.8,0,.8.7v2.7c0,.6,0,1.8-.3,2.3-.1.2-.8.5-.8.5h0ZM168.9,201.2c0,.3.2.5.5.5s.5-.3.5-.5-.2-.5-.5-.5-.5.3-.5.5h0ZM171.2,202.9c.6,0,.7,0,.7.6v2c0,.9.3,1.5,1.3,1.5s1.3-.3,1.6-.9v.8h0c.9-.1.6,0,1.5-.1v-.3c-.6,0-.8,0-.8-.6v-3.5h0c-.9.1-.6,0-1.6.2v.2c.6,0,.8,0,.8.6v1.6c0,.5-.6,1.3-1.2,1.3s-.9-.5-.9-1.2v-2.8h0c-.9.1-.6,0-1.5.2v.2h0ZM177.2,206.2c.3.7.5.8,1.3.8s1.9-.5,1.9-1.5c0-1.6-2.5-1-2.5-2.2s.4-.7.8-.7c.6,0,1,.4,1.1,1h.3s0-1.1,0-1.1c-.3-.1-.7-.2-1.1-.2-.8,0-1.7.4-1.7,1.4,0,1.5,2.4.9,2.4,2.2s-.5.8-1,.8c-1.2,0-1-.8-1.2-1.1h-.2c0-.1-.2.6-.2.6ZM181.2,202.7v.4h.7v2.8c0,.7.3,1.1,1,1.1s.8-.3,1.1-.6v-.2c-.3.1-.5.2-.7.2-.5,0-.6-.4-.6-.8v-2.6h1.2v-.4s-1.2,0-1.2,0v-1.5h0c-.5,0-.7.2-.7.8v.7h-.7ZM184.7,206.9s.7,0,1.1,0,.8,0,1.2,0v-.3c-.6,0-.7,0-.7-.7v-2.3c.2-.4.7-.7,1.2-.7.7,0,.9.6.9,1.1v1.9c0,.7-.1.6-.8.7v.3s.7,0,1.1,0,.8,0,1.2,0v-.3c-.7,0-.7,0-.7-.7v-2.3c.2-.4.7-.7,1.2-.7.7,0,.9.6.9,1.2v1.8c0,.2,0,.8-.3.8v.2c.3,0,.6,0,.9,0s.7,0,1,0v-.3c-.7,0-.7,0-.7-.7v-2.1c0-.9-.5-1.5-1.4-1.5s-1.2.4-1.6.9c-.2-.6-.7-.9-1.3-.9s-1.1.4-1.5.8v-.8h0c-.9.2-.6.1-1.5.3v.2c.7,0,.7,0,.7.7v2.3c0,.7-.1.6-.8.7v.3h0ZM193.6,204.8c0,1.3.8,2.2,2.1,2.2.5,0,1.4-.3,1.7-.9h-.1c-.4.1-.7.3-1.2.3-1.2,0-1.7-.9-1.7-2,0,0,.4,0,.9,0s.9,0,1.3,0l.8-.3c0-1.3-.7-1.9-1.6-1.9s-.8.2-1.2.4c-.8.5-1.1,1.2-1.1,2.1h0ZM194.4,204.1c0-.7.4-1.4,1.2-1.4s1,.5,1,1-.1.4-.4.5c-.1,0-.9,0-1.1,0-.6,0-.7,0-.7,0h0ZM198.1,206.9c.4,0,.8,0,1.2,0s.8,0,1.2,0v-.3c-.6,0-.7,0-.7-.7v-2.3c.2-.4.7-.7,1.2-.7.7,0,1,.6,1,.9v2c0,.2,0,.8-.4.8v.2c.3,0,.6,0,.9,0s.6,0,.9,0v-.3c-.6,0-.7,0-.7-.7v-2c0-1-.5-1.5-1.5-1.5s-1.1.3-1.5.8v-.8h0c-1,.2-.7.2-1.5.3v.2c.7,0,.7,0,.7.7v2.3c0,.7-.1.7-.8.7v.3h0Z"/>
  <path d="M204,202.7v.4h.7v2.8c0,.7.3,1.1,1,1.1s.8-.3,1.1-.6v-.2c-.3.1-.5.2-.7.2-.5,0-.6-.4-.6-.8v-2.6h1.2v-.4s-1.2,0-1.2,0v-1.5h0c-.5,0-.7.2-.7.8v.7h-.7Z"/>
  <path d="M210.3,206.1c0,.6.3.9.5.9.5,0,1.6-1.2,2.2-2,0,.2-.4,1-.4,1.6s0,.4.3.4.8-.3,1.5-.9v-.2c-.2.1-.7.5-.8.5s-.1,0-.1-.2c0-.5.5-2.6.8-3.7h0c0,0-.4,0-.4,0-.3,0-.4-.1-.6-.1-2.1,0-2.8,2.4-2.8,3.8h0ZM210.9,205.9c0-1.1.8-3.1,1.7-3.1s.5,0,.8.1c0,.5-.2,1.2-.4,1.5-.1.3-1.4,2-1.8,2s-.3-.2-.3-.5h0Z"/>
  <path class="st3" d="M116,163.1c-15.4-23.7-20.8-40.5-22.2-67.3"/>
  <path class="st1" d="M91.5,97.8c1.4-.5,2-1.3,2.3-2.2.3.8,1,1.6,2.5,1.9"/>
  <path d="M0,137.8c0,2.2,1.7,3.4,3.7,3.4s1.5-.1,2.1-.4c.1-.3.3-.7.4-1h-.2c-.5.7-1.2,1-2.1,1-1.9,0-2.9-1.4-2.9-3.2s1-3,2.7-3,1.7.3,1.8.8v.7c.1,0,.4,0,.4,0v-1.5c-.7-.2-1.3-.3-2-.3-2.1,0-3.9,1.3-3.9,3.6h0ZM7,139c0,1.3.9,2.3,2.2,2.3s2.4-1.1,2.4-2.5-1-2.3-2.3-2.3-2.3,1.1-2.3,2.5h0ZM7.9,138.6c0-.8.3-1.8,1.3-1.8s1.5,1.4,1.5,2.2-.2,1.8-1.2,1.8c-1.2,0-1.5-1.4-1.5-2.3h0ZM12.2,141.1s.7,0,1.1,0,.8,0,1.2,0v-.3c-.6,0-.7,0-.7-.7v-2.3c.2-.4.7-.7,1.2-.7.7,0,.9.6.9,1.1v1.9c0,.7-.1.6-.8.7v.3s.7,0,1.1,0,.8,0,1.2,0v-.3c-.7,0-.7,0-.7-.7v-2.3c.2-.4.7-.7,1.2-.7.7,0,.9.6.9,1.2v1.8c0,.2,0,.8-.3.8v.2c.3,0,.6,0,.9,0s.7,0,1,0v-.3c-.7,0-.7,0-.7-.7v-2.1c0-.9-.5-1.5-1.4-1.5s-1.2.4-1.6.9c-.2-.6-.7-.9-1.3-.9s-1.1.4-1.5.8v-.8h0c-.9.2-.6.1-1.5.3v.2c.7,0,.7,0,.7.7v2.3c0,.7-.1.6-.8.7v.3h0ZM21,143.4v.3c.4,0,.8,0,1.2,0s.8,0,1.2,0v-.3c-.7,0-.9,0-.9-.7v-1.7c.2.1.6.2.8.2,2.1,0,2.6-1,2.6-2.8s-.8-1.9-1.9-1.9-1.1.3-1.6.8v-.8h0c-.9.2-.7.1-1.5.4v.2c.7,0,.8,0,.8.7v4.8c0,.7-.1.6-.8.7h0ZM22.6,140.2v-2.4c.2-.4.7-.7,1.2-.7,1,0,1.5.8,1.5,1.8s-.5,1.8-1.5,1.8c-.5,0-.8-.2-1.2-.5h0ZM26.9,137.1c.6,0,.7,0,.7.6v2c0,.9.3,1.5,1.3,1.5s1.3-.3,1.6-.9v.8h0c.9-.1.6,0,1.5-.1v-.3c-.6,0-.8,0-.8-.6v-3.5h0c-.9.1-.6,0-1.6.2v.2c.6,0,.8,0,.8.6v1.6c0,.5-.6,1.3-1.2,1.3s-.9-.5-.9-1.2v-2.8h0c-.9.1-.6,0-1.5.2v.2h0ZM32.8,136.8v.4h.7v2.8c0,.7.3,1.1,1,1.1s.8-.3,1.1-.6v-.2c-.3.1-.5.2-.7.2-.5,0-.6-.4-.6-.8v-2.6h1.2v-.4c0,0-1.2,0-1.2,0v-1.5h0c-.5,0-.7.2-.7.8v.7h-.7ZM36.5,139c0,1.3.8,2.2,2.1,2.2.5,0,1.4-.3,1.7-.9h-.1c-.4.1-.7.3-1.2.3-1.2,0-1.7-.9-1.7-2,0,0,.4,0,.9,0s.9,0,1.3,0l.8-.3c0-1.3-.7-1.9-1.6-1.9s-.8.2-1.2.4c-.8.5-1.1,1.2-1.1,2.1h0ZM37.3,138.3c0-.7.4-1.4,1.2-1.4s1,.5,1,1-.1.4-.4.5c-.1,0-.9,0-1.1,0-.6,0-.7,0-.7,0h0Z"/>
  <path d="M43.7,143.4v.3c.4,0,.8,0,1.2,0s.8,0,1.2,0v-.3c-.7,0-.9,0-.9-.7v-1.7c.2.1.6.2.8.2,2.1,0,2.6-1,2.6-2.8s-.8-1.9-1.9-1.9-1.1.3-1.6.8v-.8h0c-.9.2-.7.1-1.5.4v.2c.7,0,.8,0,.8.7v4.8c0,.7-.1.6-.8.7h0ZM45.3,140.2v-2.4c.2-.4.7-.7,1.2-.7,1,0,1.5.8,1.5,1.8s-.5,1.8-1.5,1.8c-.5,0-.8-.2-1.2-.5h0ZM49.6,141.1c.4,0,.8,0,1.2,0s.8,0,1.2,0v-.3c-.7,0-.9,0-.9-.7v-1.9c0-.3.4-.9.8-.9s.5.2.5.3h.1s.4-.7.4-.7c0-.2-.4-.4-.6-.4-.5,0-1.1.6-1.3,1v-1h0c-.8.2-.6.1-1.5.3v.2c.7,0,.7,0,.7.7v2.3c0,.7-.1.6-.8.7v.3ZM53.7,139c0,1.3.8,2.2,2.1,2.2.5,0,1.4-.3,1.7-.9h-.1c-.4.1-.7.3-1.2.3-1.2,0-1.7-.9-1.7-2,0,0,.4,0,.9,0s.9,0,1.3,0l.8-.3c0-1.3-.7-1.9-1.6-1.9s-.8.2-1.2.4c-.8.5-1.1,1.2-1.1,2.1h0ZM54.6,138.3c0-.7.4-1.4,1.2-1.4s1,.5,1,1-.1.4-.4.5c-.1,0-.9,0-1.1,0-.6,0-.7,0-.7,0h0ZM58.4,141.1s.7,0,1.2,0,.8,0,1.2,0v-.3c-.7,0-.8,0-.8-.7v-6.1h0c-.9.1-.6,0-1.5.3v.2c.5,0,.8,0,.8.5v5.1c0,.7-.1.6-.8.7v.3h0ZM61.5,141.1c.4,0,.8,0,1.2,0s.8,0,1.2,0v-.3c-.7,0-.8,0-.8-.7v-3.5h0c0,0-1.5.3-1.5.3v.2c.7,0,.7,0,.7.7v2.3c0,.7-.1.6-.8.7v.3h0ZM62.1,135.4c0,.3.2.5.5.5s.5-.2.5-.5-.2-.6-.5-.6-.5.3-.5.6h0ZM64.5,141.1s.7,0,1.1,0,.8,0,1.2,0v-.3c-.6,0-.7,0-.7-.7v-2.3c.2-.4.7-.7,1.2-.7.7,0,.9.6.9,1.1v1.9c0,.7-.1.6-.8.7v.3s.7,0,1.1,0,.8,0,1.2,0v-.3c-.7,0-.7,0-.7-.7v-2.3c.2-.4.7-.7,1.2-.7.7,0,.9.6.9,1.2v1.8c0,.2,0,.8-.3.8v.2c.3,0,.6,0,.9,0s.7,0,1,0v-.3c-.7,0-.7,0-.7-.7v-2.1c0-.9-.5-1.5-1.4-1.5s-1.2.4-1.6.9c-.2-.6-.7-.9-1.3-.9s-1.1.4-1.5.8v-.8h0c-.9.2-.6.1-1.5.3v.2c.7,0,.7,0,.7.7v2.3c0,.7-.1.6-.8.7v.3h0ZM73.3,141.1c.4,0,.8,0,1.2,0s.8,0,1.2,0v-.3c-.7,0-.8,0-.8-.7v-3.5h0c0,0-1.5.3-1.5.3v.2c.7,0,.7,0,.7.7v2.3c0,.7-.1.6-.8.7v.3h0ZM73.9,135.4c0,.3.2.5.5.5s.5-.2.5-.5-.2-.6-.5-.6-.5.3-.5.6h0ZM76.2,141.1c.4,0,.8,0,1.2,0s.8,0,1.2,0v-.3c-.6,0-.7,0-.7-.7v-2.3c.2-.4.7-.7,1.2-.7.7,0,1,.6,1,.9v2c0,.2,0,.8-.4.8v.2c.3,0,.6,0,.9,0s.6,0,.9,0v-.3c-.6,0-.7,0-.7-.7v-2c0-1-.5-1.5-1.5-1.5s-1.1.3-1.5.8v-.8h0c-1,.2-.7.2-1.5.3v.2c.7,0,.7,0,.7.7v2.3c0,.7-.1.7-.8.7v.3h0ZM82.3,140c0,.7.6,1.2,1.2,1.2s1.2-.6,1.4-.8c0,.2,0,.7.2.7s1.2-.2,1.3-.2v-.3c-.1,0-.2,0-.3,0-.3,0-.4-.1-.4-.5v-2c0-1-.3-1.6-1.4-1.6-.9,0-1.5.5-1.8,1.2l.3.2c.3-.5.5-.9,1.1-.9s1,.4,1,1.3l-1.3.4c-.7.2-1.3.5-1.3,1.3h0ZM83.1,139.8c0-.7,1.8-1.2,1.8-1.2v1.5c-.2.3-.7.6-1.1.6s-.7-.4-.7-.8h0ZM87.1,141.1c.4,0,.8,0,1.2,0s.8,0,1.2,0v-.3c-.7,0-.9,0-.9-.7v-1.9c0-.3.4-.9.8-.9s.5.2.5.3h.1s.4-.7.4-.7c0-.2-.4-.4-.6-.4-.5,0-1.1.6-1.3,1v-1h0c-.8.2-.6.1-1.5.3v.2c.7,0,.7,0,.7.7v2.3c0,.7-.1.6-.8.7v.3ZM90.9,136.9c.5,0,.6.1.8.6l1.4,3.6c-.5,1.4-.5,1.1-1.5,1.7-.2.1-.2.3-.2.4,0,.2.2.4.5.4.5,0,1.3-1.7,1.4-2.1l1.6-3.7c.3-.6.3-.9,1-1v-.3c-.3,0-.6,0-.9,0s-.6,0-.9,0v.3c.3,0,.6,0,.6.3s-1.1,2.9-1.1,2.9c0,0-1.1-2.8-1.1-2.9,0-.2.4-.2.6-.2v-.3c-.4,0-.7,0-1.1,0s-.7,0-1.1,0v.3h0Z"/>
  <path d="M10.8,151c0,1.2.8,2.2,2.1,2.2s1.2-.4,1.5-.8v.8c.9-.1.6-.1,1.6-.2v-.2c-.6,0-.8,0-.8-.6v-6.1h0c-.9.1-.6,0-1.5.3v.2c.6,0,.8,0,.8.5v1.7s-.6-.2-.9-.2c-1.4,0-2.6,1.1-2.6,2.5h0ZM11.6,150.7c0-.9.4-1.8,1.4-1.8s1.2.2,1.2.6v2.1c0,.6-.7,1-1.2,1-1,0-1.4-1.1-1.4-1.9h0ZM16.6,153c.4,0,.8,0,1.2,0s.8,0,1.2,0v-.3c-.7,0-.8,0-.8-.7v-3.5h0c0,0-1.5.3-1.5.3v.2c.7,0,.7,0,.7.7v2.3c0,.7-.1.6-.8.7v.3h0ZM17.2,147.3c0,.3.2.5.5.5s.5-.2.5-.5-.2-.6-.5-.6c-.3,0-.5.3-.5.6h0ZM19.6,153c.4,0,.8,0,1.2,0s.8,0,1.2,0v-.3c-.6,0-.9,0-.9-.7v-2.9c.3,0,.7,0,1.1,0s.7,0,1.1,0v2.9c0,.7-.1.6-.7.7v.3c.4,0,.8,0,1.2,0s.8,0,1.2,0v-.3c-.6,0-.9,0-.9-.7v-2.9h1.2v-.4c0,0-1.2,0-1.2,0,0-.1,0-.4,0-.7,0-.7,0-1.6.7-1.6s.7.3.9.3,0,0,0,0c0,0,.2-.3.2-.5s0-.1,0-.2c-.1-.1-.4-.2-.6-.2-.8,0-1.4.6-1.7,1.2-.2.4-.2.9-.2,1.4v.3h-2.1c0-.1,0-.4,0-.7,0-.7,0-1.6.7-1.6s.7.3.9.3,0,0,0,0c0,0,.2-.3.2-.5s0-.1,0-.2c-.1-.1-.4-.2-.6-.2-.8,0-1.4.6-1.7,1.2-.2.4-.2.9-.2,1.4v.3h-.7s0,.4,0,.4h.7s0,2.9,0,2.9c0,.7-.1.6-.7.7v.3h0ZM26,151c0,1.3.8,2.2,2.1,2.2.5,0,1.4-.3,1.7-.9h-.1c-.4.1-.7.3-1.2.3-1.2,0-1.7-.9-1.7-2,0,0,.4,0,.9,0s.9,0,1.3,0l.8-.3c0-1.3-.7-1.9-1.6-1.9s-.8.2-1.2.4c-.8.5-1.1,1.2-1.1,2.1h0ZM26.8,150.2c0-.7.4-1.4,1.2-1.4s1,.5,1,1-.1.4-.4.5c-.1,0-.9,0-1.1,0-.6,0-.7,0-.7,0h0ZM30.6,153.1c.4,0,.8,0,1.2,0s.8,0,1.2,0v-.3c-.7,0-.9,0-.9-.7v-1.9c0-.3.4-.9.8-.9s.5.2.5.3h.1s.4-.7.4-.7c0-.2-.4-.4-.6-.4-.5,0-1.1.6-1.3,1v-1h0c-.8.2-.6.1-1.5.3v.2c.7,0,.7,0,.7.7v2.3c0,.7-.1.6-.8.7v.3ZM34.7,151c0,1.3.8,2.2,2.1,2.2.5,0,1.4-.3,1.7-.9h-.1c-.4.1-.7.3-1.2.3-1.2,0-1.7-.9-1.7-2,0,0,.4,0,.9,0s.9,0,1.3,0l.8-.3c0-1.3-.7-1.9-1.6-1.9s-.8.2-1.2.4c-.8.5-1.1,1.2-1.1,2.1h0ZM35.6,150.2c0-.7.4-1.4,1.2-1.4s1,.5,1,1-.1.4-.4.5c-.1,0-.9,0-1.1,0-.6,0-.7,0-.7,0h0ZM39.3,153c.4,0,.8,0,1.2,0s.8,0,1.2,0v-.3c-.6,0-.7,0-.7-.7v-2.3c.2-.4.7-.7,1.2-.7.7,0,1,.6,1,.9v2c0,.2,0,.8-.4.8v.2c.3,0,.6,0,.9,0s.6,0,.9,0v-.3c-.6,0-.7,0-.7-.7v-2c0-1-.5-1.5-1.5-1.5s-1.1.3-1.5.8v-.8h0c-1,.2-.7.2-1.5.3v.2c.7,0,.7,0,.7.7v2.3c0,.7-.1.7-.8.7v.3h0ZM45.3,151c0,1.3.9,2.2,2.2,2.2s1.4-.4,1.6-.9h-.1c-.4.1-.7.3-1.1.3-1.1,0-1.7-1-1.7-2s.4-1.6,1.3-1.6.8,0,.9.3l.2.4h.2s.2-.8.2-.8c-.2-.3-.9-.4-1.1-.4-1.4,0-2.6,1.1-2.6,2.5h0ZM49.9,151c0,1.3.8,2.2,2.1,2.2.5,0,1.4-.3,1.7-.9h-.1c-.4.1-.7.3-1.2.3-1.2,0-1.7-.9-1.7-2,0,0,.4,0,.9,0s.9,0,1.3,0l.8-.3c0-1.3-.7-1.9-1.6-1.9s-.8.2-1.2.4c-.8.5-1.1,1.2-1.1,2.1h0ZM50.7,150.2c0-.7.4-1.4,1.2-1.4s1,.5,1,1-.1.4-.4.5c-.1,0-.9,0-1.1,0-.6,0-.7,0-.7,0h0Z"/>
  <path d="M56.8,153c.3,0,.7,0,1.1,0s.9,0,1.1,0v-.2c-.2,0-.8,0-.8-.4s1.2-4.8,1.2-4.8l1.4,5.5h.2l3.4-5.7-.5,4.6c0,.7-.4.8-1,.8v.2c.3,0,.8,0,1.2,0s1,0,1.3,0v-.2c-.5,0-.8-.1-.8-.5s.5-4.9.5-4.9c0-.7.4-.7,1-.8v-.2c-.2,0-.5,0-.8,0s-.5,0-.8,0l-3.3,5.5-1.4-5.5c-.3,0-.5,0-.8,0s-.5,0-.8,0v.2c.4,0,.8,0,.8.5s-1.3,5.1-1.3,5.1c-.1.4-.3.6-.9.6v.2ZM69.6,150.8h5.1v-.5h-5.1v.5Z"/>
  <path d="M78,152c.3.9.5,1.1,1.6,1.1s2.6-1,2.6-2.3c0-2.1-2.7-1.1-2.7-3s.6-1.3,1.4-1.3,1.1.5,1.2,1.3h.3c0-.5,0-.9.1-1.4-.5-.2-.8-.3-1.3-.3-1.2,0-2.4.8-2.4,2.1,0,2.2,2.7,1.1,2.7,3s-.6,1.5-1.6,1.5-1.2-.5-1.4-1.4c0,0-.2,0-.2,0l-.2.7Z"/>
  <path d="M83.5,148s0,0,0,0c0,0,.1,0,.3-.2.5-.6,1-1.3,1.3-1.8,0-.2.2-.4.2-.6s-.1-.4-.5-.4-.3.2-.3.6c0,.9-.5,1.7-.9,2.3,0,0,0,0,0,0h0Z"/>
  <path class="st3" d="M102,68.9c15.7-20.4,28.4-30.2,50.9-39.5"/>
  <path class="st1" d="M150.2,27.9c.9,1.2,1.9,1.5,2.8,1.4-.7.6-1.2,1.5-1,3"/>
  <path d="M45.7,41.3s.7,0,1.1,0,.7,0,1.1,0v-.3c-.2,0-.8,0-.8-.3s.5-1.4.6-1.8h2.5c.1.3.7,1.6.7,1.8s-.6.3-.8.3v.3c.4,0,.8,0,1.3,0s.8,0,1.3,0v-.3c-.8,0-.8-.3-1.1-1l-2.2-5.6h-.3c0,0-2.4,5.8-2.4,5.8-.3.6-.3.7-1,.8v.3h0ZM47.8,38.5l1.1-2.7,1.1,2.7h-2.1ZM53.3,39.2c0,1.2.8,2.2,2.1,2.2s1.2-.4,1.5-.8v.8c.9-.1.6-.1,1.6-.2v-.2c-.6,0-.8,0-.8-.6v-6.1h0c-.9.1-.6,0-1.5.3v.2c.6,0,.8,0,.8.5v1.7s-.6-.2-.9-.2c-1.4,0-2.6,1.1-2.6,2.5h0ZM54.2,38.9c0-.9.4-1.8,1.4-1.8s1.2.2,1.2.6v2.1c0,.6-.7,1-1.2,1-1,0-1.4-1.1-1.4-1.9h0ZM58.5,43.5l.2.4c.6-.1,1.2-.5,1.5-1.1.2-.4.3-1.5.3-2.1v-4h0c-.9.2-.6.1-1.5.3v.2c.7,0,.8,0,.8.7v2.7c0,.6,0,1.8-.3,2.3-.1.2-.8.5-.8.5h0ZM59.5,35.6c0,.3.2.5.5.5s.5-.3.5-.5-.2-.5-.5-.5c-.3,0-.5.3-.5.5h0ZM61.8,37.3c.6,0,.7,0,.7.6v2c0,.9.3,1.5,1.3,1.5s1.3-.3,1.6-.9v.8h0c.9-.1.6,0,1.5-.1v-.3c-.6,0-.8,0-.8-.6v-3.5h0c-.9.1-.6,0-1.6.2v.2c.6,0,.8,0,.8.6v1.6c0,.5-.6,1.3-1.2,1.3s-.9-.5-.9-1.2v-2.8h0c-.9.1-.6,0-1.5.2v.2h0ZM67.8,40.6c.3.7.5.8,1.3.8s1.9-.5,1.9-1.5c0-1.6-2.5-1-2.5-2.2s.4-.7.8-.7c.6,0,1,.4,1.1,1h.3s0-1.1,0-1.1c-.3-.1-.7-.2-1.1-.2-.8,0-1.7.4-1.7,1.4,0,1.5,2.4.9,2.4,2.2s-.5.8-1,.8c-1.2,0-1-.8-1.2-1.1h-.2c0-.1-.2.6-.2.6ZM71.8,37.1v.4h.7v2.8c0,.7.3,1.1,1,1.1s.8-.3,1.1-.6v-.2c-.3.1-.5.2-.7.2-.5,0-.6-.4-.6-.8v-2.6h1.2v-.4c0,0-1.2,0-1.2,0v-1.5h0c-.5,0-.7.2-.7.8v.7h-.7Z"/>
  <path d="M78,39.2c0,1.2.8,2.2,2.1,2.2s1.2-.4,1.5-.8v.8c.9-.1.6-.1,1.6-.2v-.2c-.6,0-.8,0-.8-.6v-6.1h0c-.9.1-.6,0-1.5.3v.2c.6,0,.8,0,.8.5v1.7s-.6-.2-.9-.2c-1.4,0-2.6,1.1-2.6,2.5h0ZM78.9,38.9c0-.9.4-1.8,1.4-1.8s1.2.2,1.2.6v2.1c0,.6-.7,1-1.2,1-1,0-1.4-1.1-1.4-1.9h0ZM83.8,41.3c.4,0,.8,0,1.2,0s.8,0,1.2,0v-.3c-.7,0-.8,0-.8-.7v-3.5h0c0,0-1.5.3-1.5.3v.2c.7,0,.7,0,.7.7v2.3c0,.7-.1.6-.8.7v.3h0ZM84.4,35.6c0,.3.2.5.5.5s.5-.2.5-.5-.2-.6-.5-.6-.5.3-.5.6h0ZM86.9,41.3c.4,0,.8,0,1.2,0s.8,0,1.2,0v-.3c-.6,0-.9,0-.9-.7v-2.9c.3,0,.7,0,1.1,0s.7,0,1.1,0v2.9c0,.7-.1.6-.7.7v.3c.4,0,.8,0,1.2,0s.8,0,1.2,0v-.3c-.6,0-.9,0-.9-.7v-2.9h1.2v-.4c0,0-1.2,0-1.2,0,0-.1,0-.4,0-.7,0-.7,0-1.6.7-1.6s.7.3.9.3,0,0,0,0c0,0,.2-.3.2-.5s0-.1,0-.2c-.1-.1-.4-.2-.6-.2-.8,0-1.4.6-1.7,1.2-.2.4-.2.9-.2,1.4v.3h-2.1c0-.1,0-.4,0-.7,0-.7,0-1.6.7-1.6s.7.3.9.3,0,0,0,0c0,0,.2-.3.2-.5s0-.1,0-.2c-.1-.1-.4-.2-.6-.2-.8,0-1.4.6-1.7,1.2-.2.4-.2.9-.2,1.4v.3h-.7s0,.4,0,.4h.7s0,2.9,0,2.9c0,.7-.1.6-.7.7v.3h0ZM93.2,39.2c0,1.3.8,2.2,2.1,2.2.5,0,1.4-.3,1.7-.9h-.1c-.4.1-.7.3-1.2.3-1.2,0-1.7-.9-1.7-2,0,0,.4,0,.9,0s.9,0,1.3,0l.8-.3c0-1.3-.7-1.9-1.6-1.9s-.8.2-1.2.4c-.8.5-1.1,1.2-1.1,2.1h0ZM94.1,38.5c0-.7.4-1.4,1.2-1.4s1,.5,1,1-.1.4-.4.5c-.1,0-.9,0-1.1,0-.6,0-.7,0-.7,0h0ZM97.9,41.3c.4,0,.8,0,1.2,0s.8,0,1.2,0v-.3c-.7,0-.9,0-.9-.7v-1.9c0-.3.4-.9.8-.9s.5.2.5.3h.1s.4-.7.4-.7c0-.2-.4-.4-.6-.4-.5,0-1.1.6-1.3,1v-1h0c-.8.2-.6.1-1.5.3v.2c.7,0,.7,0,.7.7v2.3c0,.7-.1.6-.8.7v.3ZM102,39.2c0,1.3.8,2.2,2.1,2.2.5,0,1.4-.3,1.7-.9h-.1c-.4.1-.7.3-1.2.3-1.2,0-1.7-.9-1.7-2,0,0,.4,0,.9,0s.9,0,1.3,0l.8-.3c0-1.3-.7-1.9-1.6-1.9s-.8.2-1.2.4c-.8.5-1.1,1.2-1.1,2.1h0ZM102.8,38.5c0-.7.4-1.4,1.2-1.4s1,.5,1,1-.1.4-.4.5c-.1,0-.9,0-1.1,0-.6,0-.7,0-.7,0h0ZM106.5,41.3c.4,0,.8,0,1.2,0s.8,0,1.2,0v-.3c-.6,0-.7,0-.7-.7v-2.3c.2-.4.7-.7,1.2-.7.7,0,1,.6,1,.9v2c0,.2,0,.8-.4.8v.2c.3,0,.6,0,.9,0s.6,0,.9,0v-.3c-.6,0-.7,0-.7-.7v-2c0-1-.5-1.5-1.5-1.5s-1.1.3-1.5.8v-.8h0c-1,.2-.7.2-1.5.3v.2c.7,0,.7,0,.7.7v2.3c0,.7-.1.7-.8.7v.3h0ZM112.6,39.3c0,1.3.9,2.2,2.2,2.2s1.4-.4,1.6-.9h-.1c-.4.1-.7.3-1.1.3-1.1,0-1.7-1-1.7-2s.4-1.6,1.3-1.6.8,0,.9.3l.2.4h.2s.2-.8.2-.8c-.2-.3-.9-.4-1.1-.4-1.4,0-2.6,1.1-2.6,2.5h0ZM117.1,39.2c0,1.3.8,2.2,2.1,2.2.5,0,1.4-.3,1.7-.9h-.1c-.4.1-.7.3-1.2.3-1.2,0-1.7-.9-1.7-2,0,0,.4,0,.9,0s.9,0,1.3,0l.8-.3c0-1.3-.7-1.9-1.6-1.9s-.8.2-1.2.4c-.8.5-1.1,1.2-1.1,2.1h0ZM118,38.5c0-.7.4-1.4,1.2-1.4s1,.5,1,1-.1.4-.4.5c-.1,0-.9,0-1.1,0-.6,0-.7,0-.7,0h0Z"/>
  <path d="M68.9,50.7c0,1.9.7,3.7,2.1,4.9-.9-1.4-1.4-3.2-1.4-4.9s.5-3.4,1.4-4.8c-1.5,1.2-2.1,2.9-2.1,4.8h0ZM71.9,52.2c0,.7.6,1.2,1.2,1.2s1.2-.6,1.4-.8c0,.2,0,.7.2.7s1.2-.2,1.3-.2v-.3c-.1,0-.2,0-.3,0-.3,0-.4-.1-.4-.5v-2c0-1-.3-1.6-1.4-1.6-.9,0-1.5.5-1.8,1.2l.3.2c.3-.5.5-.9,1.1-.9s1,.4,1,1.3l-1.3.4c-.7.2-1.3.5-1.3,1.3h0ZM72.8,52c0-.7,1.8-1.2,1.8-1.2v1.5c-.2.3-.7.6-1.1.6-.4,0-.7-.4-.7-.8h0ZM76.9,51.2c0,1.2.8,2.2,2.1,2.2s1.2-.4,1.5-.8v.8c.9-.1.6-.1,1.6-.2v-.2c-.6,0-.8,0-.8-.6v-6.1h0c-.9.1-.6,0-1.5.3v.2c.6,0,.8,0,.8.5v1.7s-.6-.2-.9-.2c-1.4,0-2.6,1.1-2.6,2.5h0ZM77.7,50.9c0-.9.4-1.8,1.4-1.8s1.2.2,1.2.6v2.1c0,.6-.7,1-1.2,1-1,0-1.4-1.1-1.4-1.9h0ZM82.8,51.2c0,1.2.8,2.2,2.1,2.2s1.2-.4,1.5-.8v.8c.9-.1.6-.1,1.6-.2v-.2c-.6,0-.8,0-.8-.6v-6.1h0c-.9.1-.6,0-1.5.3v.2c.6,0,.8,0,.8.5v1.7s-.6-.2-.9-.2c-1.4,0-2.6,1.1-2.6,2.5h0ZM83.7,50.9c0-.9.4-1.8,1.4-1.8s1.2.2,1.2.6v2.1c0,.6-.7,1-1.2,1-1,0-1.4-1.1-1.4-1.9h0Z"/>
  <path d="M91.3,52.5c0,.6.3.9.5.9.5,0,1.6-1.2,2.2-2,0,.2-.4,1-.4,1.6s0,.4.3.4.8-.3,1.5-.9v-.2c-.2.1-.7.5-.8.5s-.1,0-.1-.2c0-.5.5-2.6.8-3.7h0c0,0-.4,0-.4,0-.3,0-.4-.1-.6-.1-2.1,0-2.8,2.4-2.8,3.8h0ZM92,52.2c0-1.1.8-3.1,1.7-3.1s.5,0,.8.1c0,.5-.2,1.2-.4,1.5-.1.3-1.4,2-1.8,2-.2,0-.3-.2-.3-.5h0Z"/>
  <path d="M96.1,55.6c1.5-1.2,2.1-3,2.1-4.9s-.7-3.6-2.1-4.8c1,1.4,1.4,3.2,1.4,4.8s-.4,3.4-1.4,4.9h0Z"/>
</svg>