<?xml version="1.0" encoding="UTF-8"?>
<svg id="Layer_1" xmlns="http://www.w3.org/2000/svg" version="1.1" viewBox="0 0 296.9 205.7">
  <!-- Generator: Adobe Illustrator 29.4.0, SVG Export Plug-In . SVG Version: 2.1.0 Build 152)  -->
  <defs>
    <style>
      .st0 {
        stroke-width: 1.4px;
      }

      .st0, .st1, .st2, .st3 {
        fill: none;
      }

      .st0, .st1, .st3 {
        stroke: #000;
      }

      .st0, .st2, .st3 {
        stroke-miterlimit: 10;
      }

      .st1 {
        stroke-linecap: round;
        stroke-linejoin: round;
      }

      .st1, .st3 {
        stroke-width: .4px;
      }

      .st2 {
        stroke: #fff;
        stroke-width: .6px;
      }
    </style>
  </defs>
  <path class="st0" d="M165.9,21.3c0-11.4-9.2-20.6-20.6-20.6s-20.6,9.2-20.6,20.6,9.2,20.6,20.6,20.6,20.6-9.2,20.6-20.6h0Z"/>
  <path class="st2" d="M165.9,21.3c0-11.4-9.2-20.6-20.6-20.6s-20.6,9.2-20.6,20.6,9.2,20.6,20.6,20.6,20.6-9.2,20.6-20.6h0Z"/>
  <path d="M129.9,20.8c0,.5.2,1,.5,1,1,0,2.2-1.6,2.4-2l-.7,3.7c-.1.6-.3.5-.6.6v.2c.1,0,1.5-.1,1.6-.2v-.2c-.3,0-.4,0-.4-.2s1.2-6.4,1.2-6.4h0c0,0-.2,0-.2,0,0,0-.6-.2-.9-.2-1.4,0-2.9,1.5-2.9,3.8h0ZM130.7,20.4c0-1.7.9-3,1.7-3s.5,0,.8.2c0,.3-.3,1.2-.3,1.4-.6,1.1-1.5,2.1-1.9,2.1-.2,0-.3-.2-.3-.6h0Z"/>
  <path d="M134.7,21.7c0,.9.4,2.1,1.4,2.1s1.5-1.3,1.5-2.3-.4-2.1-1.4-2.1c-1.1,0-1.5,1.2-1.5,2.2h0ZM135.4,21.6c0-.6,0-1.8.8-1.8s.8,1.3.8,2,0,1.8-.8,1.8c-.8,0-.8-1.3-.8-2h0ZM138.4,24.3h.5l2-5.4h-.5l-2,5.4ZM141.7,23.2c0,.4.2.6.3.6.4,0,1.1-.8,1.6-1.4,0,.1-.3.7-.3,1.1s0,.3.2.3.6-.3,1.1-.7v-.2c-.2,0-.5.3-.6.3s0,0,0-.1c0-.4.4-1.8.6-2.6h0s-.3,0-.3,0c-.2,0-.3-.1-.5-.1-1.4,0-2,1.6-2,2.6h0ZM142.2,23c0-.8.5-2.2,1.2-2.2s.3,0,.5.1c0,.3-.2.8-.3,1-.1.2-.9,1.4-1.2,1.4s-.2-.1-.2-.3h0Z"/>
  <path d="M145.2,22.8c0,.6.3,1,.8,1s1.1-.4,1.4-.7h0c-.3,0-.7.3-1,.3s-.5-.3-.5-.8c0-1,.5-1.8,1-1.8s.5.2.5.3,0,.1,0,.2h.2c0-.2.2-.4.2-.5s-.3-.3-.6-.3c-1.2,0-1.9,1.1-1.9,2.3h0ZM148.4,22.8c0,.6.3,1,.8,1s1.1-.4,1.4-.7h0c-.3,0-.7.3-1,.3s-.5-.3-.5-.8c0-1,.5-1.8,1-1.8s.5.2.5.3,0,.1,0,.2h.2c0-.2.2-.4.2-.5s-.3-.3-.6-.3c-1.2,0-1.9,1.1-1.9,2.3h0ZM151.6,22.9c0,.7.4.9.8.9s.9-.2,1.5-.8h0c-.3.1-.7.4-1.1.4s-.5-.4-.5-.7,0-.2,0-.3c.6-.2,1.9-.5,1.9-1.3s-.2-.5-.6-.5c-1,0-1.9,1.2-1.9,2.4h0ZM152.2,22.2c0-.4.4-1.4.9-1.4s.3.1.3.4c0,.6-.8.9-1.3,1h0ZM154.6,25.5c.3,0,.8,0,1.1-.1,0,0,0-.2,0-.2-.2,0-.3-.1-.3-.3,0-.3.1-1,.2-1.3.1,0,.3.1.5.1,1.3,0,1.9-1.4,1.9-2.5s-.2-.8-.7-.8-.9.4-1.2.7c0-.2.1-.7.1-.7h0c-.2,0-.8.4-1.2.5v.2c.2,0,.4-.2.6-.2-.1.9-.6,4.3-1,4.3v.2ZM155.7,23.3s.3-1.5.3-1.6c.2-.4.6-.9.9-.9s.5.2.5.6-.4,2-1.2,2c-.2,0-.4,0-.5-.2h0Z"/>
  <path d="M158.8,21h.5s-.5,2.2-.5,2.4,0,.3.2.3c.3,0,1-.6,1.2-.8,0,0,0-.1,0-.1-.1.1-.5.4-.7.4s0,0,0-.2c0-.2.4-1.9.4-2.2h.8v-.3c0,0-.7,0-.7,0,0-.3.2-1,.3-1.1h0c0,0-.5.2-.6.3l-.2.9h-.5v.3Z"/>
  <line class="st3" x1="111.1" y1="21.3" x2="122.9" y2="21.3"/>
  <path class="st1" d="M121,18.9c.4,1.4,1.2,2.1,2.1,2.4-.9.3-1.7,1-2.1,2.4"/>
  <path d="M87.8,23.4c.3.7.5.8,1.3.8s1.9-.5,1.9-1.5c0-1.6-2.5-1-2.5-2.2s.4-.7.8-.7c.6,0,1,.4,1.1,1h.3s0-1.1,0-1.1c-.3-.1-.7-.2-1.1-.2-.8,0-1.7.4-1.7,1.4,0,1.5,2.4.9,2.4,2.2s-.5.8-1,.8c-1.2,0-1-.8-1.2-1.1h-.2c0-.1-.2.6-.2.6ZM91.8,19.9v.4h.7v2.8c0,.7.3,1.1,1,1.1s.8-.3,1.1-.6v-.2c-.3.1-.5.2-.7.2-.5,0-.6-.4-.6-.8v-2.6h1.2v-.4c0,0-1.2,0-1.2,0v-1.5h0c-.5,0-.7.2-.7.8v.7h-.7ZM95.4,23.1c0,.7.6,1.2,1.2,1.2s1.2-.6,1.4-.8c0,.2,0,.7.2.7s1.2-.2,1.3-.2v-.3c-.1,0-.2,0-.3,0-.3,0-.4-.1-.4-.5v-2c0-1-.3-1.6-1.4-1.6-.9,0-1.5.5-1.8,1.2l.3.2c.3-.5.5-.9,1.1-.9s1,.4,1,1.3l-1.3.4c-.7.2-1.3.5-1.3,1.3h0ZM96.3,22.9c0-.7,1.8-1.2,1.8-1.2v1.5c-.2.3-.7.6-1.1.6s-.7-.4-.7-.8h0ZM100.3,24.2c.4,0,.8,0,1.2,0s.8,0,1.2,0v-.3c-.7,0-.9,0-.9-.7v-1.9c0-.3.4-.9.8-.9s.5.2.5.3h.1s.4-.7.4-.7c0-.2-.4-.4-.6-.4-.5,0-1.1.6-1.3,1v-1h0c-.8.2-.6.1-1.5.3v.2c.7,0,.7,0,.7.7v2.3c0,.7-.1.6-.8.7v.3ZM104.2,19.9v.4h.7v2.8c0,.7.3,1.1,1,1.1s.8-.3,1.1-.6v-.2c-.3.1-.5.2-.7.2-.5,0-.6-.4-.6-.8v-2.6h1.2v-.4s-1.2,0-1.2,0v-1.5h0c-.5,0-.7.2-.7.8v.7h-.7Z"/>
  <path class="st3" d="M233.2,63.8c0-7.8-6.3-14.2-14.2-14.2s-14.2,6.3-14.2,14.2,6.3,14.2,14.2,14.2,14.2-6.3,14.2-14.2h0Z"/>
  <path d="M215,64c0,.5.2,1,.5,1,1,0,2.2-1.6,2.4-2l-.7,3.7c-.1.6-.3.5-.6.6v.2c.1,0,1.5-.1,1.6-.2v-.2c-.3,0-.4,0-.4-.2s1.2-6.4,1.2-6.4h0c0,0-.2,0-.2,0,0,0-.6-.2-.9-.2-1.4,0-2.9,1.5-2.9,3.8h0ZM215.7,63.6c0-1.7.9-3,1.7-3s.5,0,.8.2c0,.3-.3,1.2-.3,1.4-.6,1.1-1.5,2.1-1.9,2.1s-.3-.2-.3-.6h0Z"/>
  <path d="M220,63.1v.3c.2,0,.4,0,.6,0s.3,0,.3.2v2.8c0,.4-.4.4-.7.4v.2c.3,0,.7,0,1,0s.7,0,1,0v-.2c-.3,0-.7,0-.7-.4v-2.5c0-.4,0-.7,0-1.1h0c-.5.1-1,.3-1.5.4h0Z"/>
  <path class="st3" d="M233.2,148.8c0-7.8-6.3-14.2-14.2-14.2s-14.2,6.3-14.2,14.2,6.3,14.2,14.2,14.2,14.2-6.3,14.2-14.2h0Z"/>
  <path d="M215,149c0,.5.2,1,.5,1,1,0,2.2-1.6,2.4-2l-.7,3.7c-.1.6-.3.5-.6.6v.2c.1,0,1.5-.1,1.6-.2v-.2c-.3,0-.4,0-.4-.2s1.2-6.4,1.2-6.4h0c0,0-.2,0-.2,0,0,0-.6-.2-.9-.2-1.4,0-2.9,1.5-2.9,3.8h0ZM215.7,148.7c0-1.7.9-3,1.7-3s.5,0,.8.2c0,.3-.3,1.2-.3,1.4-.6,1.1-1.5,2.1-1.9,2.1-.2,0-.3-.2-.3-.6h0Z"/>
  <path d="M219.8,151.9h.3c.4,0,.7,0,1.1,0h.2c0,0,.2,0,.2,0,.3,0,.7-.3,1.1-.4v-.4c-.5.2-.8.2-1.2.2h-.7l1-1.1c.4-.5.8-.8.8-1.4s-.6-1.2-1.3-1.2-.7.1-1,.4l-.3.8h.2c.2-.4.3-.6.8-.6s.9.3.9.8-.5,1-.9,1.5l-1.1,1.2v.2h0Z"/>
  <path class="st3" d="M159.5,191.3c0-7.8-6.3-14.2-14.2-14.2s-14.2,6.3-14.2,14.2,6.3,14.2,14.2,14.2,14.2-6.3,14.2-14.2h0Z"/>
  <path d="M141.3,191.5c0,.5.2,1,.5,1,1,0,2.2-1.6,2.4-2l-.7,3.7c-.1.6-.3.5-.6.6v.2c.1,0,1.5-.1,1.6-.2v-.2c-.3,0-.4,0-.4-.2s1.2-6.4,1.2-6.4h0c0,0-.2,0-.2,0,0,0-.6-.2-.9-.2-1.4,0-2.9,1.5-2.9,3.8h0ZM142.1,191.2c0-1.7.9-3,1.7-3s.5,0,.8.2c0,.3-.3,1.2-.3,1.4-.6,1.1-1.5,2.1-1.9,2.1-.2,0-.3-.2-.3-.6h0Z"/>
  <path d="M146.2,193.8c.1.6.2.8.8.8,1.2,0,1.8-.6,1.8-1.6s-.5-.9-1-1c.3-.2.7-.5.7-.9s-.5-.9-1.1-.9-.6.1-.9.3l-.3.7h.2c.2-.3.3-.5.7-.5s.6.2.6.6-.7.7-1.1.9v.3c.2,0,.3,0,.5,0,.5,0,.8.4.8.9s-.3.9-.7.9-.7-.2-1.1-.5h-.1Z"/>
  <path class="st3" d="M85.9,148.8c0-7.8-6.3-14.2-14.2-14.2s-14.2,6.3-14.2,14.2,6.3,14.2,14.2,14.2,14.2-6.3,14.2-14.2h0Z"/>
  <path d="M67.7,149c0,.5.2,1,.5,1,1,0,2.2-1.6,2.4-2l-.7,3.7c-.1.6-.3.5-.6.6v.2c.1,0,1.5-.1,1.6-.2v-.2c-.3,0-.4,0-.4-.2s1.2-6.4,1.2-6.4h0c0,0-.2,0-.2,0,0,0-.6-.2-.9-.2-1.4,0-2.9,1.5-2.9,3.8h0ZM68.4,148.7c0-1.7.9-3,1.7-3s.5,0,.8.2c0,.3-.3,1.2-.3,1.4-.6,1.1-1.5,2.1-1.9,2.1-.2,0-.3-.2-.3-.6h0Z"/>
  <path d="M72.3,150.6v.2h1.9v.5c0,.4-.2.5-.5.5h-.3v.2h2v-.2c-.4,0-.6,0-.6-.5v-.5c.2,0,.3,0,.6,0v-.5c-.2,0-.3,0-.6,0v-2.1c0-.2,0-.4,0-.6h-.7c0,.1-1.9,3-1.9,3ZM72.8,150.3l1.3-1.9h.1v1.9s-1.4,0-1.4,0Z"/>
  <path class="st3" d="M85.9,63.8c0-7.8-6.3-14.2-14.2-14.2s-14.2,6.3-14.2,14.2,6.3,14.2,14.2,14.2,14.2-6.3,14.2-14.2h0Z"/>
  <path d="M67.7,64c0,.5.2,1,.5,1,1,0,2.2-1.6,2.4-2l-.7,3.7c-.1.6-.3.5-.6.6v.2c.1,0,1.5-.1,1.6-.2v-.2c-.3,0-.4,0-.4-.2s1.2-6.4,1.2-6.4h0c0,0-.2,0-.2,0,0,0-.6-.2-.9-.2-1.4,0-2.9,1.5-2.9,3.8h0ZM68.4,63.6c0-1.7.9-3,1.7-3s.5,0,.8.2c0,.3-.3,1.2-.3,1.4-.6,1.1-1.5,2.1-1.9,2.1s-.3-.2-.3-.6h0Z"/>
  <path d="M72.6,66.2c.2.5.2.7.8.7,1.1,0,1.8-.5,1.8-1.7s-.6-1.2-1.3-1.2-.5,0-.7.2v-1c.4,0,.6,0,.9,0s.5,0,.7,0h.1c0-.1,0-.7,0-.7-.4,0-.8,0-1.2,0s-.5,0-.8,0c0,.7-.1,1.4-.2,2.1h0c.2,0,.4-.1.7-.1.6,0,1,.4,1,1s-.2.9-.8.9-.8,0-1-.5h-.1Z"/>
  <path class="st3" d="M165.1,28.5c18.3,7.1,28.1,13.1,41.8,25.2"/>
  <path class="st1" d="M207.1,50.6c-.7,1.3-.5,2.4,0,3.2-.8-.4-1.9-.4-3.1.4"/>
  <path d="M191.7,34.4s.8,0,1.4,0,.9,0,1.4,0v-.3c-.9,0-.9-.1-.9-1.1v-4.8c0-.2.4-.2.8-.2.8,0,1.6.4,1.6,1.4s-.3,1-1,1.3c-.4.2-1.1.1-1.1.3s.7.6.9.9c.2.4,1,1.5,1.3,1.9.3.4.5.6,1.1.6h.7c0-.1-.1-.3-.1-.3-.3,0-.3,0-.5-.3l-2-2.7c.9-.3,1.6-.8,1.6-1.8s-1.5-1.6-2.1-1.6-3,0-3,0v.3c.9,0,.9.1.9,1.1v4c0,1,0,1-.9,1.1v.3h0ZM198.4,32.3c0,1.3.8,2.2,2.1,2.2.5,0,1.4-.3,1.7-.9h-.1c-.4.1-.7.3-1.2.3-1.2,0-1.7-.9-1.7-2,0,0,.4,0,.9,0s.9,0,1.3,0l.8-.3c0-1.3-.7-1.9-1.6-1.9s-.8.2-1.2.4c-.8.5-1.1,1.2-1.1,2.1h0ZM199.3,31.6c0-.7.4-1.4,1.2-1.4s1,.5,1,1-.1.4-.4.5c-.1,0-.9,0-1.1,0-.6,0-.7,0-.7,0h0ZM203.1,33.3c0,.7.6,1.2,1.2,1.2s1.2-.6,1.4-.8c0,.2,0,.7.2.7s1.2-.2,1.3-.2v-.3c-.1,0-.2,0-.3,0-.3,0-.4-.1-.4-.5v-2c0-1-.3-1.6-1.4-1.6-.9,0-1.5.5-1.8,1.2l.3.2c.3-.5.5-.9,1.1-.9s1,.4,1,1.3l-1.3.4c-.7.2-1.3.5-1.3,1.3h0ZM204,33.2c0-.7,1.8-1.2,1.8-1.2v1.5c-.2.3-.7.6-1.1.6-.4,0-.7-.4-.7-.8h0ZM208.1,32.3c0,1.2.8,2.2,2.1,2.2s1.2-.4,1.5-.8v.8c.9-.1.6-.1,1.6-.2v-.2c-.6,0-.8,0-.8-.6v-6.1h0c-.9.1-.6,0-1.5.3v.2c.6,0,.8,0,.8.5v1.7s-.6-.2-.9-.2c-1.4,0-2.6,1.1-2.6,2.5h0ZM208.9,32c0-.9.4-1.8,1.4-1.8s1.2.2,1.2.6v2.1c0,.6-.7,1-1.2,1-1,0-1.4-1.1-1.4-1.9h0Z"/>
  <path d="M216.3,34.4h2.1v-.2c-.5,0-.7,0-.7-.2,0-.3,1.1-2.2,1.1-2.2h2.3s.3,1.7.3,2c0,.4-.2.3-.8.4v.2s2.4,0,2.4,0v-.2c-.5,0-.8-.1-.8-.6-.3-2.3-.9-5.9-.9-5.9h-.3s-3.3,5.6-3.3,5.6c-.3.5-.5.9-1.2.9v.3ZM219,31.4l1.6-2.7.4,2.7h-2ZM223.7,35.6v.2c.8-.3,1.7-1.4,1.7-2.1s-.3-.6-.5-.6-.4.2-.4.3,0,0,0,0c0,.1,0,.3,0,.4,0,.7-.7,1.5-.9,1.7h0Z"/>
  <path d="M227.8,34.4h2.6c1.7,0,2.7-.9,2.7-2.2s-.8-1.3-1.5-1.5c.8-.2,1.7-.8,1.7-1.8s-.9-1.3-1.8-1.3h-2.7v.2c.6,0,.8,0,.8.4s-.6,3.5-.8,5c-.1.6-.2.7-.8.8v.2ZM229.4,33.7c0-.3.5-2.6.5-2.6h.7c.9,0,1.6.4,1.6,1.3s-.6,1.8-1.9,1.8-.8,0-.8-.4h0ZM229.9,30.7l.5-2.5c0-.2.4-.2.6-.2.8,0,1.3.3,1.3,1.1s-.7,1.6-1.8,1.6h-.6Z"/>
  <path class="st3" d="M221.5,77.9c3.8,21.8,3.8,34.9.2,55.4"/>
  <path class="st1" d="M224.4,131.9c-1.5.1-2.3.8-2.7,1.6-.1-.9-.6-1.8-2-2.5"/>
  <path d="M228.2,103.1c.9,0,.9.2.9,1v4.2c0,.6,0,.9-.7,1v.2h2.6c2.3,0,4.1-1.3,4.1-3.7s-1.7-3-3.6-3h-3.2v.3ZM230,108.7v-5.2c0-.3.5-.3,1-.3,1.9,0,3.1.7,3.1,2.9s-1.1,3.1-3.1,3.1-1,0-1-.5h0ZM235.9,107.5c0,1.3.8,2.2,2.1,2.2.5,0,1.4-.3,1.7-.9h-.1c-.4.1-.7.3-1.2.3-1.2,0-1.7-.9-1.7-2,0,0,.4,0,.9,0s.9,0,1.3,0l.8-.3c0-1.3-.7-1.9-1.6-1.9s-.8.2-1.2.4c-.8.5-1.1,1.2-1.1,2.1h0ZM236.8,106.8c0-.7.4-1.4,1.2-1.4s1,.5,1,1-.1.4-.4.5c-.1,0-.9,0-1.1,0-.6,0-.7,0-.7,0h0ZM240.5,105.3v.4h.7v2.8c0,.7.3,1.1,1,1.1s.8-.3,1.1-.6v-.2c-.3.1-.5.2-.7.2-.5,0-.6-.4-.6-.8v-2.6h1.2v-.4s-1.2,0-1.2,0v-1.5h0c-.5,0-.7.2-.7.8v.7h-.7ZM244.2,107.5c0,1.3.8,2.2,2.1,2.2.5,0,1.4-.3,1.7-.9h-.1c-.4.1-.7.3-1.2.3-1.2,0-1.7-.9-1.7-2,0,0,.4,0,.9,0s.9,0,1.3,0l.8-.3c0-1.3-.7-1.9-1.6-1.9s-.8.2-1.2.4c-.8.5-1.1,1.2-1.1,2.1h0ZM245,106.8c0-.7.4-1.4,1.2-1.4s1,.5,1,1-.1.4-.4.5c-.1,0-.9,0-1.1,0-.6,0-.7,0-.7,0h0ZM248.8,109.6c.4,0,.8,0,1.2,0s.8,0,1.2,0v-.3c-.7,0-.9,0-.9-.7v-1.9c0-.3.4-.9.8-.9s.5.2.5.3h.1s.4-.7.4-.7c0-.2-.4-.4-.6-.4-.5,0-1.1.6-1.3,1v-1h0c-.8.2-.6.1-1.5.3v.2c.7,0,.7,0,.7.7v2.3c0,.7-.1.6-.8.7v.3h0ZM252.8,109.6s.7,0,1.1,0,.8,0,1.2,0v-.3c-.6,0-.7,0-.7-.7v-2.3c.2-.4.7-.7,1.2-.7.7,0,.9.6.9,1.1v1.9c0,.7-.1.6-.8.7v.3s.7,0,1.1,0,.8,0,1.2,0v-.3c-.7,0-.7,0-.7-.7v-2.3c.2-.4.7-.7,1.2-.7.7,0,.9.6.9,1.2v1.8c0,.2,0,.8-.3.8v.2c.3,0,.6,0,.9,0s.7,0,1,0v-.3c-.7,0-.7,0-.7-.7v-2.1c0-.9-.5-1.5-1.4-1.5s-1.2.4-1.6.9c-.2-.6-.7-.9-1.3-.9s-1.1.4-1.5.8v-.8h0c-.9.2-.6.1-1.5.3v.2c.7,0,.7,0,.7.7v2.3c0,.7-.1.6-.8.7v.3h0ZM261.6,109.6c.4,0,.8,0,1.2,0s.8,0,1.2,0v-.3c-.7,0-.8,0-.8-.7v-3.5h0c0,0-1.5.3-1.5.3v.2c.7,0,.7,0,.7.7v2.3c0,.7-.1.6-.8.7v.3ZM262.2,103.9c0,.3.2.5.5.5s.5-.2.5-.5-.2-.6-.5-.6-.5.3-.5.6h0ZM264.5,109.6c.4,0,.8,0,1.2,0s.8,0,1.2,0v-.3c-.6,0-.7,0-.7-.7v-2.3c.2-.4.7-.7,1.2-.7.7,0,1,.6,1,.9v2c0,.2,0,.8-.4.8v.2c.3,0,.6,0,.9,0s.6,0,.9,0v-.3c-.6,0-.7,0-.7-.7v-2c0-1-.5-1.5-1.5-1.5s-1.1.3-1.5.8v-.8h0c-1,.2-.7.2-1.5.3v.2c.7,0,.7,0,.7.7v2.3c0,.7-.1.7-.8.7v.3h0ZM270.6,107.5c0,1.3.8,2.2,2.1,2.2.5,0,1.4-.3,1.7-.9h-.1c-.4.1-.7.3-1.2.3-1.2,0-1.7-.9-1.7-2,0,0,.4,0,.9,0s.9,0,1.3,0l.8-.3c0-1.3-.7-1.9-1.6-1.9s-.8.2-1.2.4c-.8.5-1.1,1.2-1.1,2.1h0ZM271.4,106.8c0-.7.4-1.4,1.2-1.4s1,.5,1,1-.1.4-.4.5c-.1,0-.9,0-1.1,0-.6,0-.7,0-.7,0h0Z"/>
  <path d="M277.8,107.5c0,1.3.9,2.3,2.2,2.3s2.4-1.1,2.4-2.5-1-2.3-2.3-2.3-2.3,1.1-2.3,2.5h0ZM278.7,107.1c0-.8.3-1.8,1.3-1.8s1.5,1.4,1.5,2.2-.2,1.8-1.2,1.8c-1.2,0-1.5-1.4-1.5-2.3h0ZM282.9,109.6c.4,0,.8,0,1.2,0s.8,0,1.2,0v-.3c-.6,0-.7,0-.7-.7v-2.3c.2-.4.7-.7,1.2-.7.7,0,1,.6,1,.9v2c0,.2,0,.8-.4.8v.2c.3,0,.6,0,.9,0s.6,0,.9,0v-.3c-.6,0-.7,0-.7-.7v-2c0-1-.5-1.5-1.5-1.5s-1.1.3-1.5.8v-.8h0c-1,.2-.7.2-1.5.3v.2c.7,0,.7,0,.7.7v2.3c0,.7-.1.7-.8.7v.3h0ZM288.9,107.5c0,1.3.8,2.2,2.1,2.2.5,0,1.4-.3,1.7-.9h-.1c-.4.1-.7.3-1.2.3-1.2,0-1.7-.9-1.7-2,0,0,.4,0,.9,0s.9,0,1.3,0l.8-.3c0-1.3-.7-1.9-1.6-1.9s-.8.2-1.2.4c-.8.5-1.1,1.2-1.1,2.1h0ZM289.8,106.8c0-.7.4-1.4,1.2-1.4s1,.5,1,1-.1.4-.4.5c-.1,0-.9,0-1.1,0-.6,0-.7,0-.7,0h0ZM293.7,108.9c.3.7.5.8,1.3.8s1.9-.5,1.9-1.5c0-1.6-2.5-1-2.5-2.2s.4-.7.8-.7c.6,0,1,.4,1.1,1h.3s0-1.1,0-1.1c-.3-.1-.7-.2-1.1-.2-.8,0-1.7.4-1.7,1.4,0,1.5,2.4.9,2.4,2.2s-.5.8-1,.8c-1.2,0-1-.8-1.2-1.1h-.2c0-.1-.2.6-.2.6Z"/>
  <path class="st3" d="M208,158.1c-17,14.3-28.3,20.8-47.8,27.9"/>
  <path class="st1" d="M162.7,187.6c-.8-1.2-1.9-1.6-2.8-1.5.7-.6,1.3-1.5,1.1-3"/>
  <path d="M188.7,182.1c0,2.2,1.7,3.4,3.7,3.4s1.5-.1,2.1-.4c.1-.3.3-.7.4-1h-.2c-.5.7-1.2,1-2.1,1-1.9,0-2.9-1.4-2.9-3.2s1-3,2.7-3,1.7.3,1.8.8v.7c.1,0,.4,0,.4,0v-1.5c-.7-.2-1.3-.3-2-.3-2.1,0-3.9,1.3-3.9,3.6h0ZM195.7,183.3c0,1.3.9,2.3,2.2,2.3s2.4-1.1,2.4-2.5-1-2.3-2.3-2.3-2.3,1.1-2.3,2.5h0ZM196.6,183c0-.8.3-1.8,1.3-1.8s1.5,1.4,1.5,2.2-.2,1.8-1.2,1.8c-1.2,0-1.5-1.4-1.5-2.3h0ZM200.9,185.4s.7,0,1.1,0,.8,0,1.2,0v-.3c-.6,0-.7,0-.7-.7v-2.3c.2-.4.7-.7,1.2-.7.7,0,.9.6.9,1.1v1.9c0,.7-.1.6-.8.7v.3s.7,0,1.1,0,.8,0,1.2,0v-.3c-.7,0-.7,0-.7-.7v-2.3c.2-.4.7-.7,1.2-.7.7,0,.9.6.9,1.2v1.8c0,.2,0,.8-.3.8v.2c.3,0,.6,0,.9,0s.7,0,1,0v-.3c-.7,0-.7,0-.7-.7v-2.1c0-.9-.5-1.5-1.4-1.5s-1.2.4-1.6.9c-.2-.6-.7-.9-1.3-.9s-1.1.4-1.5.8v-.8h0c-.9.2-.6.1-1.5.3v.2c.7,0,.7,0,.7.7v2.3c0,.7-.1.6-.8.7v.3h0ZM209.7,187.7v.3c.4,0,.8,0,1.2,0s.8,0,1.2,0v-.3c-.7,0-.9,0-.9-.7v-1.7c.2.1.6.2.8.2,2.1,0,2.6-1,2.6-2.8s-.8-1.9-1.9-1.9-1.1.3-1.6.8v-.8h0c-.9.2-.7.1-1.5.4v.2c.7,0,.8,0,.8.7v4.8c0,.7-.1.6-.8.7h0ZM211.3,184.6v-2.4c.2-.4.7-.7,1.2-.7,1,0,1.5.8,1.5,1.8s-.5,1.8-1.5,1.8-.8-.2-1.2-.5h0ZM215.6,181.4c.6,0,.7,0,.7.6v2c0,.9.3,1.5,1.3,1.5s1.3-.3,1.6-.9v.8h0c.9-.1.6,0,1.5-.1v-.3c-.6,0-.8,0-.8-.6v-3.5h0c-.9.1-.6,0-1.6.2v.2c.6,0,.8,0,.8.6v1.6c0,.5-.6,1.3-1.2,1.3s-.9-.5-.9-1.2v-2.8h0c-.9.1-.6,0-1.5.2v.2h0ZM221.5,181.2v.4h.7v2.8c0,.7.3,1.1,1,1.1s.8-.3,1.1-.6v-.2c-.3.1-.5.2-.7.2-.5,0-.6-.4-.6-.8v-2.6h1.2v-.4s-1.2,0-1.2,0v-1.5h0c-.5,0-.7.2-.7.8v.7h-.7ZM225.2,183.3c0,1.3.8,2.2,2.1,2.2.5,0,1.4-.3,1.7-.9h-.1c-.4.1-.7.3-1.2.3-1.2,0-1.7-.9-1.7-2,0,0,.4,0,.9,0s.9,0,1.3,0l.8-.3c0-1.3-.7-1.9-1.6-1.9s-.8.2-1.2.4c-.8.5-1.1,1.2-1.1,2.1h0ZM226,182.6c0-.7.4-1.4,1.2-1.4s1,.5,1,1-.1.4-.4.5c-.1,0-.9,0-1.1,0-.6,0-.7,0-.7,0h0Z"/>
  <path d="M232.3,185.4c.4,0,.8,0,1.2,0s.8,0,1.2,0v-.3c-.6,0-.7,0-.7-.7v-2.3c.2-.4.7-.7,1.2-.7.7,0,1,.6,1,.9v2c0,.2,0,.8-.4.8v.2c.3,0,.6,0,.9,0s.6,0,.9,0v-.3c-.6,0-.7,0-.7-.7v-2c0-1-.5-1.5-1.5-1.5s-1.1.3-1.5.8v-.8h0c-1,.2-.7.2-1.5.3v.2c.7,0,.7,0,.7.7v2.3c0,.7-.1.7-.8.7v.3h0ZM238.3,183.3c0,1.3.8,2.2,2.1,2.2.5,0,1.4-.3,1.7-.9h-.1c-.4.1-.7.3-1.2.3-1.2,0-1.7-.9-1.7-2,0,0,.4,0,.9,0s.9,0,1.3,0l.8-.3c0-1.3-.7-1.9-1.6-1.9s-.8.2-1.2.4c-.8.5-1.1,1.2-1.1,2.1h0ZM239.1,182.6c0-.7.4-1.4,1.2-1.4s1,.5,1,1-.1.4-.4.5c-.1,0-.9,0-1.1,0-.6,0-.7,0-.7,0h0ZM243,183.3c0,1.3.8,2.2,2.1,2.2.5,0,1.4-.3,1.7-.9h-.1c-.4.1-.7.3-1.2.3-1.2,0-1.7-.9-1.7-2,0,0,.4,0,.9,0s.9,0,1.3,0l.8-.3c0-1.3-.7-1.9-1.6-1.9s-.8.2-1.2.4c-.8.5-1.1,1.2-1.1,2.1h0ZM243.9,182.6c0-.7.4-1.4,1.2-1.4s1,.5,1,1-.1.4-.4.5c-.1,0-.9,0-1.1,0-.6,0-.7,0-.7,0h0ZM247.8,183.3c0,1.2.8,2.2,2.1,2.2s1.2-.4,1.5-.8v.8c.9-.1.6-.1,1.6-.2v-.2c-.6,0-.8,0-.8-.6v-6.1h0c-.9.1-.6,0-1.5.3v.2c.6,0,.8,0,.8.5v1.7s-.6-.2-.9-.2c-1.4,0-2.6,1.1-2.6,2.5h0ZM248.6,183c0-.9.4-1.8,1.4-1.8s1.2.2,1.2.6v2.1c0,.6-.7,1-1.2,1-1,0-1.4-1.1-1.4-1.9h0ZM253.6,183.3c0,1.3.8,2.2,2.1,2.2.5,0,1.4-.3,1.7-.9h-.1c-.4.1-.7.3-1.2.3-1.2,0-1.7-.9-1.7-2,0,0,.4,0,.9,0s.9,0,1.3,0l.8-.3c0-1.3-.7-1.9-1.6-1.9s-.8.2-1.2.4c-.8.5-1.1,1.2-1.1,2.1h0ZM254.5,182.6c0-.7.4-1.4,1.2-1.4s1,.5,1,1-.1.4-.4.5c-.1,0-.9,0-1.1,0-.6,0-.7,0-.7,0h0ZM258.4,183.3c0,1.2.8,2.2,2.1,2.2s1.2-.4,1.5-.8v.8c.9-.1.6-.1,1.6-.2v-.2c-.6,0-.8,0-.8-.6v-6.1h0c-.9.1-.6,0-1.5.3v.2c.6,0,.8,0,.8.5v1.7s-.6-.2-.9-.2c-1.4,0-2.6,1.1-2.6,2.5h0ZM259.3,183c0-.9.4-1.8,1.4-1.8s1.2.2,1.2.6v2.1c0,.6-.7,1-1.2,1-1,0-1.4-1.1-1.4-1.9h0Z"/>
  <path d="M266.7,183.3c0,1.3.9,2.3,2.2,2.3s2.4-1.1,2.4-2.5-1-2.3-2.3-2.3-2.3,1.1-2.3,2.5h0ZM267.7,183c0-.8.3-1.8,1.3-1.8s1.5,1.4,1.5,2.2-.2,1.8-1.2,1.8c-1.2,0-1.5-1.4-1.5-2.3h0ZM271.9,185.4c.4,0,.8,0,1.2,0s.8,0,1.2,0v-.3c-.6,0-.7,0-.7-.7v-2.3c.2-.4.7-.7,1.2-.7.7,0,1,.6,1,.9v2c0,.2,0,.8-.4.8v.2c.3,0,.6,0,.9,0s.6,0,.9,0v-.3c-.6,0-.7,0-.7-.7v-2c0-1-.5-1.5-1.5-1.5s-1.1.3-1.5.8v-.8h0c-1,.2-.7.2-1.5.3v.2c.7,0,.7,0,.7.7v2.3c0,.7-.1.7-.8.7v.3h0ZM277.9,183.3c0,1.3.8,2.2,2.1,2.2.5,0,1.4-.3,1.7-.9h-.1c-.4.1-.7.3-1.2.3-1.2,0-1.7-.9-1.7-2,0,0,.4,0,.9,0s.9,0,1.3,0l.8-.3c0-1.3-.7-1.9-1.6-1.9s-.8.2-1.2.4c-.8.5-1.1,1.2-1.1,2.1h0ZM278.8,182.6c0-.7.4-1.4,1.2-1.4s1,.5,1,1-.1.4-.4.5c-.1,0-.9,0-1.1,0-.6,0-.7,0-.7,0h0ZM282.7,184.7c.3.7.5.8,1.3.8s1.9-.5,1.9-1.5c0-1.6-2.5-1-2.5-2.2s.4-.7.8-.7c.6,0,1,.4,1.1,1h.3s0-1.1,0-1.1c-.3-.1-.7-.2-1.1-.2-.8,0-1.7.4-1.7,1.4,0,1.5,2.4.9,2.4,2.2s-.5.8-1,.8c-1.2,0-1-.8-1.2-1.1h-.2c0-.1-.2.6-.2.6Z"/>
  <path class="st3" d="M131.8,186.4c-20.8-7.6-32.1-14.1-48.1-27.5"/>
  <path class="st1" d="M83.7,162c.6-1.3.4-2.4,0-3.2.8.3,1.9.4,3.1-.5"/>
  <path d="M66.4,182.1c0,2.2,1.7,3.4,3.7,3.4s1.5-.1,2.1-.4c.1-.3.3-.7.4-1h-.2c-.5.7-1.2,1-2.1,1-1.9,0-2.9-1.4-2.9-3.2s1-3,2.7-3,1.7.3,1.8.8v.7c.1,0,.4,0,.4,0v-1.5c-.7-.2-1.3-.3-2-.3-2.1,0-3.9,1.3-3.9,3.6h0ZM73.2,178.9c.5,0,.8-.1.8.5v5c0,.7,0,.7-.7.7v.3c.4,0,.8,0,1.1,0s.8,0,1.1,0v-.3c-.7,0-.7,0-.7-.7v-2.3c0-.4.8-.7,1.1-.7.7,0,1,.5,1,1.2v1.8c0,.2,0,.8-.3.8v.2c.3,0,.6,0,.9,0s.6,0,.9,0v-.3c-.6,0-.7,0-.7-.7v-2c0-1-.5-1.6-1.5-1.6s-1.5.8-1.5.8v-3.3h0c-.5,0-1,.2-1.5.3v.2h0ZM79.2,183.3c0,1.3.8,2.2,2.1,2.2.5,0,1.4-.3,1.7-.9h-.1c-.4.1-.7.3-1.2.3-1.2,0-1.7-.9-1.7-2,0,0,.4,0,.9,0s.9,0,1.3,0l.8-.3c0-1.3-.7-1.9-1.6-1.9s-.8.2-1.2.4c-.8.5-1.1,1.2-1.1,2.1h0ZM80.1,182.6c0-.7.4-1.4,1.2-1.4s1,.5,1,1-.1.4-.4.5c-.1,0-.9,0-1.1,0-.6,0-.7,0-.7,0h0ZM84,183.4c0,1.3.9,2.2,2.2,2.2s1.4-.4,1.6-.9h-.1c-.4.1-.7.3-1.1.3-1.1,0-1.7-1-1.7-2s.4-1.6,1.3-1.6.8,0,.9.3l.2.4h.2s.2-.8.2-.8c-.2-.3-.9-.4-1.1-.4-1.4,0-2.6,1.1-2.6,2.5h0ZM88.4,185.4s.7,0,1.3,0,.7,0,1.1,0v-.3c-.7,0-.8,0-.8-.7v-1.3h.1c0,0,2.2,2.3,2.2,2.3h1.1v-.4c-.3,0-.6-.3-.8-.5l-1.7-1.9,1.1-1c.5-.4.5-.4,1.1-.5v-.3h-1.6s0,.3,0,.3h.2s-1.7,1.7-1.7,1.7v-4.6h0c-.9.1-.6,0-1.5.3v.2c.5,0,.8-.1.8.5v5.1c0,.7-.1.6-.8.7v.3h0Z"/>
  <path d="M96.5,185.4h2.6c1.7,0,2.7-.9,2.7-2.2s-.8-1.3-1.5-1.5c.8-.2,1.7-.8,1.7-1.8s-.9-1.3-1.8-1.3h-2.7v.2c.6,0,.8,0,.8.4s-.6,3.5-.8,5c-.1.6-.2.7-.8.8v.2ZM98.2,184.7c0-.3.5-2.6.5-2.6h.7c.9,0,1.6.4,1.6,1.3s-.6,1.8-1.9,1.8-.8,0-.8-.4h0ZM98.7,181.7l.5-2.5c0-.2.4-.2.6-.2.8,0,1.3.3,1.3,1.1s-.7,1.6-1.8,1.6h-.6Z"/>
  <path class="st3" d="M69.2,134.7c-3.8-21.8-3.8-34.9-.2-55.4"/>
  <path class="st1" d="M66.3,80.7c1.5-.1,2.3-.8,2.7-1.6.1.9.6,1.8,2,2.5"/>
  <path d="M16.2,109.6c.4,0,.8,0,1.2,0s.8,0,1.2,0v-.3c-.7,0-.9,0-.9-.7l.2-4.3,2.4,5.3h.2l2.6-5.6v4.5c0,.7,0,.8-.8.8v.3c.4,0,.8,0,1.3,0s1,0,1.4,0v-.3c-1,0-.9-.1-1-.8v-4.5c0-.7,0-.8.9-.8v-.3c-.3,0-.6,0-.9,0s-.6,0-.9,0l-2.5,5.3-2.5-5.3c-.3,0-.6,0-.9,0s-.6,0-.9,0v.3c.8,0,.9.1.9,1.1v4.3c-.2.7-.4.7-1,.7v.3h0ZM25.4,107.5c0,1.3.9,2.3,2.2,2.3s2.4-1.1,2.4-2.5-1-2.3-2.3-2.3-2.3,1.1-2.3,2.5h0ZM26.3,107.1c0-.8.3-1.8,1.3-1.8s1.5,1.4,1.5,2.2-.2,1.8-1.2,1.8c-1.2,0-1.5-1.4-1.5-2.3h0ZM30.4,105.4c.5,0,.5,0,.7.5l1.6,3.8h.4l1.5-3.6c.2-.5.3-.6.8-.7v-.3c-.3,0-.6,0-.9,0s-.6,0-.9,0v.3c.2,0,.6,0,.6.2,0,.4-1.1,3-1.1,3,0,0-1.1-2.7-1.2-3,0-.2.3-.2.6-.2v-.3s-.7,0-1.2,0-.6,0-1,0v.3h0Z"/>
  <path d="M35.9,107.5c0,1.3.8,2.2,2.1,2.2.5,0,1.4-.3,1.7-.9h-.1c-.4.1-.7.3-1.2.3-1.2,0-1.7-.9-1.7-2,0,0,.4,0,.9,0s.9,0,1.3,0l.8-.3c0-1.3-.7-1.9-1.6-1.9s-.8.2-1.2.4c-.8.5-1.1,1.2-1.1,2.1h0ZM36.8,106.8c0-.7.4-1.4,1.2-1.4s1,.5,1,1-.1.4-.4.5c-.1,0-.9,0-1.1,0-.6,0-.7,0-.7,0h0Z"/>
  <path d="M43.1,107.5c0,1.3.9,2.3,2.2,2.3s2.4-1.1,2.4-2.5-1-2.3-2.3-2.3-2.3,1.1-2.3,2.5h0ZM44,107.1c0-.8.3-1.8,1.3-1.8s1.5,1.4,1.5,2.2-.2,1.8-1.2,1.8c-1.2,0-1.5-1.4-1.5-2.3h0ZM48.3,109.6c.4,0,.8,0,1.2,0s.8,0,1.2,0v-.3c-.6,0-.7,0-.7-.7v-2.3c.2-.4.7-.7,1.2-.7.7,0,1,.6,1,.9v2c0,.2,0,.8-.4.8v.2c.3,0,.6,0,.9,0s.6,0,.9,0v-.3c-.6,0-.7,0-.7-.7v-2c0-1-.5-1.5-1.5-1.5s-1.1.3-1.5.8v-.8h0c-1,.2-.7.2-1.5.3v.2c.7,0,.7,0,.7.7v2.3c0,.7-.1.7-.8.7v.3h0ZM54.3,107.5c0,1.3.8,2.2,2.1,2.2.5,0,1.4-.3,1.7-.9h-.1c-.4.1-.7.3-1.2.3-1.2,0-1.7-.9-1.7-2,0,0,.4,0,.9,0s.9,0,1.3,0l.8-.3c0-1.3-.7-1.9-1.6-1.9s-.8.2-1.2.4c-.8.5-1.1,1.2-1.1,2.1h0ZM55.1,106.8c0-.7.4-1.4,1.2-1.4s1,.5,1,1-.1.4-.4.5c-.1,0-.9,0-1.1,0-.6,0-.7,0-.7,0h0ZM59,108.9c.3.7.5.8,1.3.8s1.9-.5,1.9-1.5c0-1.6-2.5-1-2.5-2.2s.4-.7.8-.7c.6,0,1,.4,1.1,1h.3s0-1.1,0-1.1c-.3-.1-.7-.2-1.1-.2-.8,0-1.7.4-1.7,1.4,0,1.5,2.4.9,2.4,2.2s-.5.8-1,.8c-1.2,0-1-.8-1.2-1.1h-.2c0-.1-.2.6-.2.6Z"/>
  <path class="st3" d="M82.7,54.5c14.7-12.9,24.6-18.9,41.5-25.6"/>
  <path class="st1" d="M121.6,27.4c.9,1.2,1.9,1.5,2.8,1.5-.7.6-1.2,1.5-1.1,3"/>
  <path d="M0,33.2s.7,0,1.1,0,.7,0,1.1,0v-.3c-.2,0-.8,0-.8-.3s.5-1.4.6-1.8h2.5c.1.3.7,1.6.7,1.8s-.6.3-.8.3v.3c.4,0,.8,0,1.3,0s.8,0,1.3,0v-.3c-.8,0-.8-.3-1.1-1l-2.2-5.5h-.3s-2.4,5.8-2.4,5.8c-.3.6-.3.7-1,.8v.3h0ZM2.2,30.4l1.1-2.7,1.1,2.7h-2.1ZM7.6,31.1c0,1.2.8,2.2,2.1,2.2s1.2-.4,1.5-.8v.8c.9-.1.6-.1,1.6-.2v-.2c-.6,0-.8,0-.8-.6v-6.1h0c-.9.1-.6,0-1.5.3v.2c.6,0,.8,0,.8.5v1.7s-.6-.2-.9-.2c-1.4,0-2.6,1.1-2.6,2.5h0ZM8.5,30.8c0-.9.4-1.8,1.4-1.8s1.2.2,1.2.6v2.1c0,.6-.7,1-1.2,1-1,0-1.4-1.1-1.4-1.9h0ZM13.5,31.1c0,1.2.8,2.2,2.1,2.2s1.2-.4,1.5-.8v.8c.9-.1.6-.1,1.6-.2v-.2c-.6,0-.8,0-.8-.6v-6.1h0c-.9.1-.6,0-1.5.3v.2c.6,0,.8,0,.8.5v1.7s-.6-.2-.9-.2c-1.4,0-2.6,1.1-2.6,2.5h0ZM14.4,30.8c0-.9.4-1.8,1.4-1.8s1.2.2,1.2.6v2.1c0,.6-.7,1-1.2,1-1,0-1.4-1.1-1.4-1.9h0Z"/>
  <path d="M22,32.1c0,.7.6,1.2,1.2,1.2s1.2-.6,1.4-.8c0,.2,0,.7.2.7s1.2-.2,1.3-.2v-.3c-.1,0-.2,0-.3,0-.3,0-.4-.1-.4-.5v-2c0-1-.3-1.6-1.4-1.6-.9,0-1.5.5-1.8,1.2l.3.2c.3-.5.5-.9,1.1-.9s1,.4,1,1.3l-1.3.4c-.7.2-1.3.5-1.3,1.3h0ZM22.8,32c0-.7,1.8-1.2,1.8-1.2v1.5c-.2.3-.7.6-1.1.6-.4,0-.7-.4-.7-.8h0ZM26.9,31.1c0,1.2.8,2.2,2.1,2.2s1.2-.4,1.5-.8v.8c.9-.1.6-.1,1.6-.2v-.2c-.6,0-.8,0-.8-.6v-6.1h0c-.9.1-.6,0-1.5.3v.2c.6,0,.8,0,.8.5v1.7s-.6-.2-.9-.2c-1.4,0-2.6,1.1-2.6,2.5h0ZM27.8,30.8c0-.9.4-1.8,1.4-1.8s1.2.2,1.2.6v2.1c0,.6-.7,1-1.2,1-1,0-1.4-1.1-1.4-1.9h0ZM32.2,35.4l.2.4c.6-.1,1.2-.5,1.5-1.1.2-.4.3-1.5.3-2.1v-4h0c-.9.2-.6.1-1.5.3v.2c.7,0,.8,0,.8.7v2.7c0,.6,0,1.8-.3,2.3-.1.2-.8.5-.8.5h0ZM33.1,27.5c0,.3.2.5.5.5s.5-.3.5-.5-.2-.5-.5-.5-.5.3-.5.5h0ZM35.4,29.2c.6,0,.7,0,.7.6v2c0,.9.3,1.5,1.3,1.5s1.3-.3,1.6-.9v.8h0c.9-.1.6,0,1.5-.1v-.3c-.6,0-.8,0-.8-.6v-3.5h0c-.9.1-.6,0-1.6.2v.2c.6,0,.8,0,.8.6v1.6c0,.5-.6,1.3-1.2,1.3s-.9-.5-.9-1.2v-2.8h0c-.9.1-.6,0-1.5.2v.2h0ZM41.4,32.5c.3.7.5.8,1.3.8s1.9-.5,1.9-1.5c0-1.6-2.5-1-2.5-2.2s.4-.7.8-.7c.6,0,1,.4,1.1,1h.3s0-1.1,0-1.1c-.3-.1-.7-.2-1.1-.2-.8,0-1.7.4-1.7,1.4,0,1.5,2.4.9,2.4,2.2s-.5.8-1,.8c-1.2,0-1-.8-1.2-1.1h-.2c0-.1-.2.6-.2.6ZM45.4,29v.4h.7v2.8c0,.7.3,1.1,1,1.1s.8-.3,1.1-.6v-.2c-.3.1-.5.2-.7.2-.5,0-.6-.4-.6-.8v-2.6h1.2v-.4c0,0-1.2,0-1.2,0v-1.5h0c-.5,0-.7.2-.7.8v.7h-.7ZM49,31.1c0,1.3.8,2.2,2.1,2.2.5,0,1.4-.3,1.7-.9h-.1c-.4.1-.7.3-1.2.3-1.2,0-1.7-.9-1.7-2,0,0,.4,0,.9,0s.9,0,1.3,0l.8-.3c0-1.3-.7-1.9-1.6-1.9s-.8.2-1.2.4c-.8.5-1.1,1.2-1.1,2.1h0ZM49.9,30.4c0-.7.4-1.4,1.2-1.4s1,.5,1,1-.1.4-.4.5c-.1,0-.9,0-1.1,0-.6,0-.7,0-.7,0h0ZM53.8,31.1c0,1.2.8,2.2,2.1,2.2s1.2-.4,1.5-.8v.8c.9-.1.6-.1,1.6-.2v-.2c-.6,0-.8,0-.8-.6v-6.1h0c-.9.1-.6,0-1.5.3v.2c.6,0,.8,0,.8.5v1.7s-.6-.2-.9-.2c-1.4,0-2.6,1.1-2.6,2.5h0ZM54.7,30.8c0-.9.4-1.8,1.4-1.8s1.2.2,1.2.6v2.1c0,.6-.7,1-1.2,1-1,0-1.4-1.1-1.4-1.9h0Z"/>
  <path d="M62.2,32.1c0,.7.6,1.2,1.2,1.2s1.2-.6,1.4-.8c0,.2,0,.7.2.7s1.2-.2,1.3-.2v-.3c-.1,0-.2,0-.3,0-.3,0-.4-.1-.4-.5v-2c0-1-.3-1.6-1.4-1.6-.9,0-1.5.5-1.8,1.2l.3.2c.3-.5.5-.9,1.1-.9s1,.4,1,1.3l-1.3.4c-.7.2-1.3.5-1.3,1.3h0ZM63.1,32c0-.7,1.8-1.2,1.8-1.2v1.5c-.2.3-.7.6-1.1.6-.4,0-.7-.4-.7-.8h0ZM67.2,31.1c0,1.2.8,2.2,2.1,2.2s1.2-.4,1.5-.8v.8c.9-.1.6-.1,1.6-.2v-.2c-.6,0-.8,0-.8-.6v-6.1h0c-.9.1-.6,0-1.5.3v.2c.6,0,.8,0,.8.5v1.7s-.6-.2-.9-.2c-1.4,0-2.6,1.1-2.6,2.5h0ZM68,30.8c0-.9.4-1.8,1.4-1.8s1.2.2,1.2.6v2.1c0,.6-.7,1-1.2,1-1,0-1.4-1.1-1.4-1.9h0ZM73.1,31.1c0,1.2.8,2.2,2.1,2.2s1.2-.4,1.5-.8v.8c.9-.1.6-.1,1.6-.2v-.2c-.6,0-.8,0-.8-.6v-6.1h0c-.9.1-.6,0-1.5.3v.2c.6,0,.8,0,.8.5v1.7s-.6-.2-.9-.2c-1.4,0-2.6,1.1-2.6,2.5h0ZM74,30.8c0-.9.4-1.8,1.4-1.8s1.2.2,1.2.6v2.1c0,.6-.7,1-1.2,1-1,0-1.4-1.1-1.4-1.9h0ZM79,31.1c0,1.3.8,2.2,2.1,2.2.5,0,1.4-.3,1.7-.9h-.1c-.4.1-.7.3-1.2.3-1.2,0-1.7-.9-1.7-2,0,0,.4,0,.9,0s.9,0,1.3,0l.8-.3c0-1.3-.7-1.9-1.6-1.9s-.8.2-1.2.4c-.8.5-1.1,1.2-1.1,2.1h0ZM79.8,30.4c0-.7.4-1.4,1.2-1.4s1,.5,1,1-.1.4-.4.5c-.1,0-.9,0-1.1,0-.6,0-.7,0-.7,0h0ZM83.5,33.2c.4,0,.8,0,1.2,0s.8,0,1.2,0v-.3c-.6,0-.7,0-.7-.7v-2.3c.2-.4.7-.7,1.2-.7.7,0,1,.6,1,.9v2c0,.2,0,.8-.4.8v.2c.3,0,.6,0,.9,0s.6,0,.9,0v-.3c-.6,0-.7,0-.7-.7v-2c0-1-.5-1.5-1.5-1.5s-1.1.3-1.5.8v-.8h0c-1,.2-.7.2-1.5.3v.2c.7,0,.7,0,.7.7v2.3c0,.7-.1.7-.8.7v.3h0ZM89.6,31.1c0,1.2.8,2.2,2.1,2.2s1.2-.4,1.5-.8v.8c.9-.1.6-.1,1.6-.2v-.2c-.6,0-.8,0-.8-.6v-6.1h0c-.9.1-.6,0-1.5.3v.2c.6,0,.8,0,.8.5v1.7s-.6-.2-.9-.2c-1.4,0-2.6,1.1-2.6,2.5h0ZM90.5,30.8c0-.9.4-1.8,1.4-1.8s1.2.2,1.2.6v2.1c0,.6-.7,1-1.2,1-1,0-1.4-1.1-1.4-1.9h0ZM95.5,32.5c.3.7.5.8,1.3.8s1.9-.5,1.9-1.5c0-1.6-2.5-1-2.5-2.2s.4-.7.8-.7c.6,0,1,.4,1.1,1h.3s0-1.1,0-1.1c-.3-.1-.7-.2-1.1-.2-.8,0-1.7.4-1.7,1.4,0,1.5,2.4.9,2.4,2.2s-.5.8-1,.8c-1.2,0-1-.8-1.2-1.1h-.2c0-.1-.2.6-.2.6Z"/>
</svg>