<?xml version="1.0" encoding="UTF-8"?>
<svg id="Layer_1" xmlns="http://www.w3.org/2000/svg" version="1.1" viewBox="0 0 301.1 210.8">
  <!-- Generator: Adobe Illustrator 29.4.0, SVG Export Plug-In . SVG Version: 2.1.0 Build 152)  -->
  <defs>
    <style>
      .st0 {
        stroke-width: 1.4px;
      }

      .st0, .st1, .st2, .st3 {
        fill: none;
      }

      .st0, .st1, .st3 {
        stroke: #000;
      }

      .st0, .st2, .st3 {
        stroke-miterlimit: 10;
      }

      .st1 {
        stroke-linecap: round;
        stroke-linejoin: round;
      }

      .st1, .st3 {
        stroke-width: .4px;
      }

      .st2 {
        stroke: #fff;
        stroke-width: .6px;
      }
    </style>
  </defs>
  <path class="st3" d="M191.9,35.2c16.3,6.8,25.1,12.4,37.1,23.4"/>
  <path class="st1" d="M229.2,55.6c-.7,1.3-.5,2.4,0,3.2-.8-.4-1.9-.4-3.1.4"/>
  <path d="M216,48.4s.8,0,1.4,0,.9,0,1.4,0v-.3c-.9,0-.9-.1-.9-1.1v-4.8c0-.2.4-.2.8-.2.8,0,1.6.4,1.6,1.4s-.3,1-1,1.3c-.4.2-1.1.1-1.1.3s.7.6.9.9c.2.4,1,1.5,1.3,1.9.3.4.5.6,1.1.6h.7c0-.1-.1-.3-.1-.3-.3,0-.3,0-.5-.3l-2-2.7c.9-.3,1.6-.8,1.6-1.8s-1.5-1.6-2.1-1.6-3,0-3,0v.3c.9,0,.9.1.9,1.1v4c0,1,0,1-.9,1.1v.3h0ZM222.7,46.3c0,1.3.8,2.2,2.1,2.2.5,0,1.4-.3,1.7-.9h-.1c-.4.1-.7.3-1.2.3-1.2,0-1.7-.9-1.7-2,0,0,.4,0,.9,0s.9,0,1.3,0l.8-.3c0-1.3-.7-1.9-1.6-1.9s-.8.2-1.2.4c-.8.5-1.1,1.2-1.1,2.1h0ZM223.6,45.5c0-.7.4-1.4,1.2-1.4s1,.5,1,1-.1.4-.4.5c-.1,0-.9,0-1.1,0-.6,0-.7,0-.7,0h0ZM227.5,47.3c0,.7.6,1.2,1.2,1.2s1.2-.6,1.4-.8c0,.2,0,.7.2.7s1.2-.2,1.3-.2v-.3c-.1,0-.2,0-.3,0-.3,0-.4-.1-.4-.5v-2c0-1-.3-1.6-1.4-1.6-.9,0-1.5.5-1.8,1.2l.3.2c.3-.5.5-.9,1.1-.9s1,.4,1,1.3l-1.3.4c-.7.2-1.3.5-1.3,1.3h0ZM228.3,47.1c0-.7,1.8-1.2,1.8-1.2v1.5c-.2.3-.7.6-1.1.6s-.7-.4-.7-.8h0ZM232.4,46.3c0,1.2.8,2.2,2.1,2.2s1.2-.4,1.5-.8v.8c.9-.1.6-.1,1.6-.2v-.2c-.6,0-.8,0-.8-.6v-6.1h0c-.9.1-.6,0-1.5.3v.2c.6,0,.8,0,.8.5v1.7s-.6-.2-.9-.2c-1.4,0-2.6,1.1-2.6,2.5h0ZM233.3,46c0-.9.4-1.8,1.4-1.8s1.2.2,1.2.6v2.1c0,.6-.7,1-1.2,1-1,0-1.4-1.1-1.4-1.9h0Z"/>
  <path d="M240.6,48.3h2.1v-.2c-.5,0-.7,0-.7-.2,0-.3,1.1-2.2,1.1-2.2h2.3s.3,1.7.3,2c0,.4-.2.3-.8.4v.2s2.4,0,2.4,0v-.2c-.5,0-.8-.1-.8-.6-.3-2.3-.9-5.9-.9-5.9h-.3s-3.3,5.6-3.3,5.6c-.3.5-.5.9-1.2.9v.3ZM243.4,45.4l1.6-2.7.4,2.7h-2ZM248,49.6v.2c.8-.3,1.7-1.4,1.7-2.1s-.3-.6-.5-.6-.4.2-.4.3,0,0,0,0c0,.1,0,.3,0,.4,0,.7-.7,1.5-.9,1.7h0Z"/>
  <path d="M252.1,48.3h2.6c1.7,0,2.7-.9,2.7-2.2s-.8-1.3-1.5-1.5c.8-.2,1.7-.8,1.7-1.8s-.9-1.3-1.8-1.3h-2.7v.2c.6,0,.8,0,.8.4s-.6,3.5-.8,5c-.1.6-.2.7-.8.8v.2ZM253.7,47.6c0-.3.5-2.6.5-2.6h.7c.9,0,1.6.4,1.6,1.3s-.6,1.8-1.9,1.8-.8,0-.8-.4h0ZM254.3,44.6l.5-2.5c0-.2.4-.2.6-.2.8,0,1.3.3,1.3,1.1s-.7,1.6-1.8,1.6h-.6Z"/>
  <path class="st3" d="M243.5,83c3.8,21.8,3.8,34.9.2,55.4"/>
  <path class="st1" d="M246.4,136.9c-1.5.1-2.3.8-2.7,1.6-.1-.9-.6-1.8-2-2.5"/>
  <path d="M250.2,114.9s.8,0,1.4,0,.9,0,1.4,0v-.3c-.9,0-.9-.1-.9-1.1v-4.8c0-.2.4-.2.8-.2.8,0,1.6.4,1.6,1.4s-.3,1-1,1.3c-.4.2-1.1.1-1.1.3s.7.6.9.9c.2.4,1,1.5,1.3,1.9.3.4.5.6,1.1.6h.7c0-.1-.1-.3-.1-.3-.3,0-.3,0-.5-.3l-2-2.7c.9-.3,1.6-.8,1.6-1.8s-1.5-1.6-2.1-1.6-3,0-3,0v.3c.9,0,.9.1.9,1.1v4c0,1,0,1-.9,1.1v.3h0ZM256.9,112.7c0,1.3.9,2.3,2.2,2.3s2.4-1.1,2.4-2.5-1-2.3-2.3-2.3-2.3,1.1-2.3,2.5h0ZM257.8,112.4c0-.8.3-1.8,1.3-1.8s1.5,1.4,1.5,2.2-.2,1.8-1.2,1.8c-1.2,0-1.5-1.4-1.5-2.3h0ZM262.1,110.8c.6,0,.7,0,.7.6v2c0,.9.3,1.5,1.3,1.5s1.3-.3,1.6-.9v.8h0c.9,0,.6,0,1.5-.1v-.3c-.6,0-.8,0-.8-.6v-3.5h0c-.9.1-.6,0-1.6.2v.2c.6,0,.8,0,.8.6v1.6c0,.5-.6,1.3-1.2,1.3s-.9-.5-.9-1.2v-2.8h0c-.9.1-.6,0-1.5.2v.2h0ZM268,114.8c.4,0,.8,0,1.2,0s.8,0,1.2,0v-.3c-.6,0-.7,0-.7-.7v-2.3c.2-.4.7-.7,1.2-.7.7,0,1,.6,1,.9v2c0,.2,0,.8-.4.8v.2c.3,0,.6,0,.9,0s.6,0,.9,0v-.3c-.6,0-.7,0-.7-.7v-2c0-1-.5-1.5-1.5-1.5s-1.1.3-1.5.8v-.8h0c-1,.2-.7.2-1.5.3v.2c.7,0,.7,0,.7.7v2.3c0,.7-.1.7-.8.7v.3h0ZM274,112.8c0,1.2.8,2.2,2.1,2.2s1.2-.4,1.5-.8v.8c.9-.1.6-.1,1.6-.2v-.2c-.6,0-.8,0-.8-.6v-6.1h0c-.9.1-.6,0-1.5.3v.2c.6,0,.8,0,.8.5v1.7s-.6-.2-.9-.2c-1.4,0-2.6,1.1-2.6,2.5h0ZM274.9,112.5c0-.9.4-1.8,1.4-1.8s1.2.2,1.2.6v2.1c0,.6-.7,1-1.2,1-1,0-1.4-1.1-1.4-1.9h0Z"/>
  <path d="M282.2,114.8h2.1v-.2c-.5,0-.7,0-.7-.2,0-.3,1.1-2.2,1.1-2.2h2.3s.3,1.7.3,2c0,.4-.2.3-.8.4v.2s2.4,0,2.4,0v-.2c-.5,0-.8-.1-.8-.6-.3-2.3-.9-5.9-.9-5.9h-.3s-3.3,5.6-3.3,5.6c-.3.5-.5.9-1.2.9v.3ZM285,111.9l1.6-2.7.4,2.7h-2Z"/>
  <path class="st3" d="M230,163.1c-17,14.3-28.3,20.8-47.8,27.9"/>
  <path class="st1" d="M184.8,192.6c-.8-1.2-1.9-1.6-2.8-1.5.7-.6,1.3-1.5,1.1-3"/>
  <path d="M210.7,179.2c0,2.2,1.7,3.4,3.7,3.4s1.5-.1,2.1-.4c.1-.3.3-.7.4-1h-.2c-.5.7-1.2,1-2.1,1-1.9,0-2.9-1.4-2.9-3.2s1-3,2.7-3,1.7.3,1.8.8v.7c.1,0,.4,0,.4,0v-1.5c-.7-.2-1.3-.3-2-.3-2.1,0-3.9,1.3-3.9,3.6h0ZM217.7,180.4c0,1.3.9,2.3,2.2,2.3s2.4-1.1,2.4-2.5-1-2.3-2.3-2.3c-1.4,0-2.3,1.1-2.3,2.5h0ZM218.7,180.1c0-.8.3-1.8,1.3-1.8s1.5,1.4,1.5,2.2-.2,1.8-1.2,1.8-1.5-1.4-1.5-2.3h0ZM223,182.5s.7,0,1.1,0,.8,0,1.2,0v-.3c-.6,0-.7,0-.7-.7v-2.3c.2-.4.7-.7,1.2-.7.7,0,.9.6.9,1.1v1.9c0,.7-.1.6-.8.7v.3s.7,0,1.1,0,.8,0,1.2,0v-.3c-.7,0-.7,0-.7-.7v-2.3c.2-.4.7-.7,1.2-.7.7,0,.9.6.9,1.2v1.8c0,.2,0,.8-.3.8v.2c.3,0,.6,0,.9,0s.7,0,1,0v-.3c-.7,0-.7,0-.7-.7v-2.1c0-.9-.5-1.5-1.4-1.5s-1.2.4-1.6.9c-.2-.6-.7-.9-1.3-.9s-1.1.4-1.5.8v-.8h0c-.9.2-.6.1-1.5.3v.2c.7,0,.7,0,.7.7v2.3c0,.7-.1.6-.8.7v.3h0ZM231.8,184.8v.3c.4,0,.8,0,1.2,0s.8,0,1.2,0v-.3c-.7,0-.9,0-.9-.7v-1.7c.2.1.6.2.8.2,2.1,0,2.6-1,2.6-2.8s-.8-1.9-1.9-1.9-1.1.3-1.6.8v-.8h0c-.9.2-.7.1-1.5.4v.2c.7,0,.8,0,.8.7v4.8c0,.7-.1.6-.8.7h0ZM233.3,181.6v-2.4c.2-.4.7-.7,1.2-.7,1,0,1.5.8,1.5,1.8s-.5,1.8-1.5,1.8c-.5,0-.8-.2-1.2-.5h0ZM237.7,178.5c.6,0,.7,0,.7.6v2c0,.9.3,1.5,1.3,1.5s1.3-.3,1.6-.9v.8h0c.9,0,.6,0,1.5-.1v-.3c-.6,0-.8,0-.8-.6v-3.5h0c-.9.1-.6,0-1.6.2v.2c.6,0,.8,0,.8.6v1.6c0,.5-.6,1.3-1.2,1.3s-.9-.5-.9-1.2v-2.8h0c-.9.1-.6,0-1.5.2v.2h0ZM243.6,178.3v.4h.7v2.8c0,.7.3,1.1,1,1.1s.8-.3,1.1-.6v-.2c-.3,0-.5.2-.7.2-.5,0-.6-.4-.6-.8v-2.6h1.2v-.4s-1.2,0-1.2,0v-1.5h0c-.5,0-.7.2-.7.8v.7h-.7ZM247.2,180.4c0,1.3.8,2.2,2.1,2.2.5,0,1.4-.3,1.7-.9h-.1c-.4.1-.7.3-1.2.3-1.2,0-1.7-.9-1.7-2,0,0,.4,0,.9,0s.9,0,1.3,0l.8-.3c0-1.3-.7-1.9-1.6-1.9s-.8.2-1.2.4c-.8.5-1.1,1.2-1.1,2.1h0ZM248.1,179.7c0-.7.4-1.4,1.2-1.4s1,.5,1,1-.1.4-.4.5c-.1,0-.9,0-1.1,0-.6,0-.7,0-.7,0h0Z"/>
  <path d="M254.4,182.5h2.6c3.5,0,4.4-2.6,4.4-4.1s-1.4-2.6-3.1-2.6h-2.9v.2c.6,0,.8,0,.8.4s-.9,5-.9,5c-.1.6-.2.7-.8.8v.2ZM256.1,181.5c0-.3.9-5.1.9-5.1,0-.3.5-.3.8-.3,1.9,0,2.7.7,2.7,2.3s-1.5,3.6-3.2,3.6-1.2,0-1.2-.6h0ZM265.6,181.2h5.1v-.5h-5.1v.5ZM265.6,179.3h5.1v-.5h-5.1v.5Z"/>
  <path d="M274.4,182.5h2.1v-.2c-.5,0-.7,0-.7-.2,0-.3,1.1-2.2,1.1-2.2h2.3s.3,1.7.3,2c0,.4-.2.3-.8.4v.2s2.4,0,2.4,0v-.2c-.5,0-.8-.1-.8-.6-.3-2.3-.9-5.9-.9-5.9h-.3s-3.3,5.6-3.3,5.6c-.3.5-.5.9-1.2.9v.3ZM277.1,179.5l1.6-2.7.4,2.7h-2Z"/>
  <path d="M281.9,177.5s0,0,0,0c0,0,.1,0,.3-.2.5-.6,1-1.3,1.3-1.8,0-.2.2-.4.2-.6s-.1-.4-.5-.4-.3.2-.3.6c0,.9-.5,1.7-.9,2.3,0,0,0,0,0,0h0Z"/>
  <path d="M286.5,180.3h5.1v-.5h-5.1v.5ZM294.5,182.5h2.1v-.2c-.5,0-.7,0-.7-.2,0-.3,1.1-2.2,1.1-2.2h2.3s.3,1.7.3,2c0,.4-.2.3-.8.4v.2s2.4,0,2.4,0v-.2c-.5,0-.8-.1-.8-.6-.3-2.3-.9-5.9-.9-5.9h-.3s-3.3,5.6-3.3,5.6c-.3.5-.5.9-1.2.9v.3ZM297.2,179.5l1.6-2.7.4,2.7h-2Z"/>
  <path class="st3" d="M153.9,191.5c-20.8-7.6-32.1-14.1-48.1-27.5"/>
  <path class="st1" d="M105.7,167c.6-1.3.4-2.4,0-3.2.8.3,1.9.4,3.1-.5"/>
  <path d="M76.6,183.7s.7,0,1.1,0,.7,0,1.1,0v-.3c-.2,0-.8,0-.8-.3s.5-1.4.6-1.8h2.5c.1.3.7,1.6.7,1.8s-.6.3-.8.3v.3c.4,0,.8,0,1.3,0s.8,0,1.3,0v-.3c-.8,0-.8-.3-1.1-1l-2.2-5.5h-.3s-2.4,5.8-2.4,5.8c-.3.6-.3.7-1,.8v.3h0ZM78.7,180.9l1.1-2.7,1.1,2.7h-2.1ZM84.2,181.6c0,1.2.8,2.2,2.1,2.2s1.2-.4,1.5-.8v.8c.9-.1.6-.1,1.6-.2v-.2c-.6,0-.8,0-.8-.6v-6.1h0c-.9.1-.6,0-1.5.3v.2c.6,0,.8,0,.8.5v1.7s-.6-.2-.9-.2c-1.4,0-2.6,1.1-2.6,2.5h0ZM85.1,181.3c0-.9.4-1.8,1.4-1.8s1.2.2,1.2.6v2.1c0,.6-.7,1-1.2,1-1,0-1.4-1.1-1.4-1.9h0ZM90.1,181.6c0,1.2.8,2.2,2.1,2.2s1.2-.4,1.5-.8v.8c.9-.1.6-.1,1.6-.2v-.2c-.6,0-.8,0-.8-.6v-6.1h0c-.9.1-.6,0-1.5.3v.2c.6,0,.8,0,.8.5v1.7s-.6-.2-.9-.2c-1.4,0-2.6,1.1-2.6,2.5h0ZM91,181.3c0-.9.4-1.8,1.4-1.8s1.2.2,1.2.6v2.1c0,.6-.7,1-1.2,1-1,0-1.4-1.1-1.4-1.9h0Z"/>
  <path d="M98.3,183.7h2.1v-.2c-.5,0-.7,0-.7-.2,0-.3,1.1-2.2,1.1-2.2h2.3s.3,1.7.3,2c0,.4-.2.3-.8.4v.2s2.4,0,2.4,0v-.2c-.5,0-.8-.1-.8-.6-.3-2.3-.9-5.9-.9-5.9h-.3s-3.3,5.6-3.3,5.6c-.3.5-.5.9-1.2.9v.3ZM101.1,180.7l1.6-2.7.4,2.7h-2Z"/>
  <path d="M105.9,178.7s0,0,0,0c0,0,.1,0,.3-.2.5-.6,1-1.3,1.3-1.8,0-.2.2-.4.2-.6s-.1-.4-.5-.4-.3.2-.3.6c0,.9-.5,1.7-.9,2.3,0,0,0,0,0,0h0Z"/>
  <path d="M110.6,181.5h2.3v2.4h.5v-2.4h2.3v-.5h-2.3v-2.3h-.5v2.3h-2.3v.5ZM118.6,183.7h2.6c1.7,0,2.7-.9,2.7-2.2s-.8-1.3-1.5-1.5c.8-.2,1.7-.8,1.7-1.8s-.9-1.3-1.8-1.3h-2.7v.2c.6,0,.8,0,.8.4s-.6,3.5-.8,5c-.1.6-.2.7-.8.8v.2ZM120.2,183c0-.3.5-2.6.5-2.6h.7c.9,0,1.6.4,1.6,1.3s-.6,1.8-1.9,1.8c-.5,0-.8,0-.8-.4h0ZM120.7,180l.5-2.5c0-.2.4-.2.6-.2.8,0,1.3.3,1.3,1.1s-.7,1.6-1.8,1.6h-.6Z"/>
  <path class="st3" d="M91.2,139.7c-3.8-21.8-3.8-34.9-.2-55.4"/>
  <path class="st1" d="M88.3,85.8c1.5-.1,2.3-.8,2.7-1.6.1.9.6,1.8,2,2.5"/>
  <path d="M0,113.7s.7,0,1.1,0,.7,0,1.1,0v-.3c-.2,0-.8,0-.8-.3s.5-1.4.6-1.8h2.5c.1.3.7,1.6.7,1.8s-.6.3-.8.3v.3c.4,0,.8,0,1.3,0s.8,0,1.3,0v-.3c-.8,0-.8-.3-1.1-1l-2.2-5.5h-.3s-2.4,5.8-2.4,5.8c-.3.6-.3.7-1,.8v.3h0ZM2.2,110.9l1.1-2.7,1.1,2.7h-2.1ZM7.6,111.6c0,1.2.8,2.2,2.1,2.2s1.2-.4,1.5-.8v.8c.9-.1.6-.1,1.6-.2v-.2c-.6,0-.8,0-.8-.6v-6.1h0c-.9.1-.6,0-1.5.3v.2c.6,0,.8,0,.8.5v1.7s-.6-.2-.9-.2c-1.4,0-2.6,1.1-2.6,2.5h0ZM8.5,111.3c0-.9.4-1.8,1.4-1.8s1.2.2,1.2.6v2.1c0,.6-.7,1-1.2,1-1,0-1.4-1.1-1.4-1.9h0ZM12.9,115.9l.2.4c.6-.1,1.2-.5,1.5-1.1.2-.4.3-1.5.3-2.1v-4h0c-.9.2-.6.1-1.5.3v.2c.7,0,.8,0,.8.7v2.7c0,.6,0,1.8-.3,2.3-.1.2-.8.5-.8.5h0ZM13.8,108c0,.3.2.5.5.5s.5-.3.5-.5-.2-.5-.5-.5c-.3,0-.5.3-.5.5h0ZM16.1,109.7c.6,0,.7,0,.7.6v2c0,.9.3,1.5,1.3,1.5s1.3-.3,1.6-.9v.8h0c.9,0,.6,0,1.5-.1v-.3c-.6,0-.8,0-.8-.6v-3.5h0c-.9.1-.6,0-1.6.2v.2c.6,0,.8,0,.8.6v1.6c0,.5-.6,1.3-1.2,1.3s-.9-.5-.9-1.2v-2.8h0c-.9.1-.6,0-1.5.2v.2h0ZM22.1,113c.3.7.5.8,1.3.8s1.9-.5,1.9-1.5c0-1.6-2.5-1-2.5-2.2s.4-.7.8-.7c.6,0,1,.4,1.1,1h.3s0-1.1,0-1.1c-.3-.1-.7-.2-1.1-.2-.8,0-1.7.4-1.7,1.4,0,1.5,2.4.9,2.4,2.2s-.5.8-1,.8c-1.2,0-1-.8-1.2-1.1h-.2c0-.1-.2.6-.2.6ZM26.1,109.5v.4h.7v2.8c0,.7.3,1.1,1,1.1s.8-.3,1.1-.6v-.2c-.3,0-.5.2-.7.2-.5,0-.6-.4-.6-.8v-2.6h1.2v-.4c0,0-1.2,0-1.2,0v-1.5h0c-.5,0-.7.2-.7.8v.7h-.7Z"/>
  <path d="M32.7,111.2c0,1.9.7,3.7,2.1,4.9-.9-1.4-1.4-3.2-1.4-4.9s.5-3.4,1.4-4.8c-1.5,1.2-2.1,2.9-2.1,4.8h0ZM35.7,113c.3.7.5.8,1.3.8s1.9-.5,1.9-1.5c0-1.6-2.5-1-2.5-2.2s.4-.7.8-.7c.6,0,1,.4,1.1,1h.3s0-1.1,0-1.1c-.3-.1-.7-.2-1.1-.2-.8,0-1.7.4-1.7,1.4,0,1.5,2.4.9,2.4,2.2s-.5.8-1,.8c-1.2,0-1-.8-1.2-1.1h-.2c0-.1-.2.6-.2.6ZM39.7,109.7c.6,0,.7,0,.7.6v2c0,.9.3,1.5,1.3,1.5s1.3-.3,1.6-.9v.8h0c.9,0,.6,0,1.5-.1v-.3c-.6,0-.8,0-.8-.6v-3.5h0c-.9.1-.6,0-1.6.2v.2c.6,0,.8,0,.8.6v1.6c0,.5-.6,1.3-1.2,1.3s-.9-.5-.9-1.2v-2.8h0c-.9.1-.6,0-1.5.2v.2h0ZM45.5,107.1c.5,0,.7,0,.7.5v5.7s0,0,0,0c0,0,.5.4,1.6.4,2.1,0,2.6-1.3,2.6-2.7s-.8-2-1.9-2-1.1.4-1.5.7v-3.2h0c-1,.2-.7,0-1.5.3v.2h0ZM47.1,112.7v-2.5c0-.2.8-.6,1-.6,1,0,1.5.8,1.5,1.8s-.4,1.9-1.4,1.9-1.1-.3-1.1-.7h0ZM51.2,109.5v.4h.7v2.8c0,.7.3,1.1,1,1.1s.8-.3,1.1-.6v-.2c-.3,0-.5.2-.7.2-.5,0-.6-.4-.6-.8v-2.6h1.2v-.4c0,0-1.2,0-1.2,0v-1.5h0c-.5,0-.7.2-.7.8v.7h-.7ZM54.8,113.7c.4,0,.8,0,1.2,0s.8,0,1.2,0v-.3c-.7,0-.9,0-.9-.7v-1.9c0-.3.4-.9.8-.9s.5.2.5.3h.1s.4-.7.4-.7c0-.2-.4-.4-.6-.4-.5,0-1.1.6-1.3,1v-1h0c-.8.2-.6.1-1.5.3v.2c.7,0,.7,0,.7.7v2.3c0,.7-.1.6-.8.7v.3ZM58.9,112.6c0,.7.6,1.2,1.2,1.2s1.2-.6,1.4-.8c0,.2,0,.7.2.7s1.2-.2,1.3-.2v-.3c-.1,0-.2,0-.3,0-.3,0-.4-.1-.4-.5v-2c0-1-.3-1.6-1.4-1.6-.9,0-1.5.5-1.8,1.2l.3.2c.3-.5.5-.9,1.1-.9s1,.4,1,1.3l-1.3.4c-.7.2-1.3.5-1.3,1.3h0ZM59.7,112.5c0-.7,1.8-1.2,1.8-1.2v1.5c-.2.3-.7.6-1.1.6-.4,0-.7-.4-.7-.8h0ZM63.8,111.7c0,1.3.9,2.2,2.2,2.2s1.4-.4,1.6-.9h-.1c-.4.1-.7.3-1.1.3-1.1,0-1.7-1-1.7-2s.4-1.6,1.3-1.6.8,0,.9.3l.2.4h.2s.2-.8.2-.8c-.2-.3-.9-.4-1.1-.4-1.4,0-2.6,1.1-2.6,2.5h0ZM68.2,109.5v.4h.7v2.8c0,.7.3,1.1,1,1.1s.8-.3,1.1-.6v-.2c-.3,0-.5.2-.7.2-.5,0-.6-.4-.6-.8v-2.6h1.2v-.4c0,0-1.2,0-1.2,0v-1.5h0c-.5,0-.7.2-.7.8v.7h-.7Z"/>
  <path d="M74.2,113.7h2.6c3.5,0,4.4-2.6,4.4-4.1s-1.4-2.6-3.1-2.6h-2.9v.2c.6,0,.8,0,.8.4s-.9,5-.9,5c-.1.6-.2.7-.8.8v.2ZM75.9,112.7c0-.3.9-5.1.9-5.1,0-.3.5-.3.8-.3,1.9,0,2.7.7,2.7,2.3s-1.5,3.6-3.2,3.6c-.5,0-1.2,0-1.2-.6h0Z"/>
  <path d="M82,116c1.5-1.2,2.1-3,2.1-4.9s-.7-3.6-2.1-4.8c1,1.4,1.4,3.2,1.4,4.8,0,1.6-.4,3.4-1.4,4.9h0Z"/>
  <path class="st3" d="M104.7,59.6c13-12,21.8-17.6,36.8-23.8"/>
  <path class="st1" d="M138.9,34.3c.9,1.2,1.9,1.5,2.8,1.4-.7.6-1.2,1.5-1,3"/>
  <path d="M58.8,44.5c0,1.9,1.4,3.5,3.3,3.5s3.6-1.6,3.6-3.7-1.4-3.3-3.4-3.3c-2.1,0-3.6,1.5-3.6,3.6h0ZM59.9,44.2c0-1.5.7-2.9,2.4-2.9s2.6,1.7,2.6,3.3-.6,3-2.3,3c-1.9,0-2.6-1.8-2.6-3.4h0ZM66.5,43.8c.6,0,.7,0,.7.6v2c0,.9.3,1.5,1.3,1.5s1.3-.3,1.6-.9v.8h0c.9-.1.6,0,1.5-.1v-.3c-.6,0-.8,0-.8-.6v-3.5h0c-.9.1-.6,0-1.6.2v.2c.6,0,.8,0,.8.6v1.6c0,.5-.6,1.3-1.2,1.3s-.9-.5-.9-1.2v-2.8h0c-.9.1-.6,0-1.5.2v.2h0ZM72.4,43.5v.4h.7v2.8c0,.7.3,1.1,1,1.1s.8-.3,1.1-.6v-.2c-.3.1-.5.2-.7.2-.5,0-.6-.4-.6-.8v-2.6h1.2v-.4c0,0-1.2,0-1.2,0v-1.5h0c-.5,0-.7.2-.7.8v.7h-.7ZM76,50.1v.3c.4,0,.8,0,1.2,0s.8,0,1.2,0v-.3c-.7,0-.9,0-.9-.7v-1.7c.2.1.6.2.8.2,2.1,0,2.6-1,2.6-2.8s-.8-1.9-1.9-1.9-1.1.3-1.6.8v-.8h0c-.9.2-.7.1-1.5.4v.2c.7,0,.8,0,.8.7v4.8c0,.7-.1.6-.8.7h0ZM77.6,46.9v-2.4c.2-.4.7-.7,1.2-.7,1,0,1.5.8,1.5,1.8s-.5,1.8-1.5,1.8c-.5,0-.8-.2-1.2-.5h0ZM81.9,43.8c.6,0,.7,0,.7.6v2c0,.9.3,1.5,1.3,1.5s1.3-.3,1.6-.9v.8h0c.9-.1.6,0,1.5-.1v-.3c-.6,0-.8,0-.8-.6v-3.5h0c-.9.1-.6,0-1.6.2v.2c.6,0,.8,0,.8.6v1.6c0,.5-.6,1.3-1.2,1.3s-.9-.5-.9-1.2v-2.8h0c-.9.1-.6,0-1.5.2v.2h0ZM87.9,43.5v.4h.7v2.8c0,.7.3,1.1,1,1.1s.8-.3,1.1-.6v-.2c-.3.1-.5.2-.7.2-.5,0-.6-.4-.6-.8v-2.6h1.2v-.4c0,0-1.2,0-1.2,0v-1.5h0c-.5,0-.7.2-.7.8v.7h-.7Z"/>
  <path d="M93.9,47.8c.4,0,.8,0,1.2,0s.8,0,1.2,0v-.3c-.7,0-.9,0-.9-.7v-1.9c0-.3.4-.9.8-.9s.5.2.5.3h.1s.4-.7.4-.7c0-.2-.4-.4-.6-.4-.5,0-1.1.6-1.3,1v-1h0c-.8.2-.6.1-1.5.3v.2c.7,0,.7,0,.7.7v2.3c0,.7-.1.6-.8.7v.3ZM98.1,45.7c0,1.3.8,2.2,2.1,2.2.5,0,1.4-.3,1.7-.9h-.1c-.4.1-.7.3-1.2.3-1.2,0-1.7-.9-1.7-2,0,0,.4,0,.9,0s.9,0,1.3,0l.8-.3c0-1.3-.7-1.9-1.6-1.9s-.8.2-1.2.4c-.8.5-1.1,1.2-1.1,2.1h0ZM98.9,45c0-.7.4-1.4,1.2-1.4s1,.5,1,1-.1.4-.4.5c-.1,0-.9,0-1.1,0-.6,0-.7,0-.7,0h0ZM102.8,47.1c.3.7.5.8,1.3.8s1.9-.5,1.9-1.5c0-1.6-2.5-1-2.5-2.2s.4-.7.8-.7c.6,0,1,.4,1.1,1h.3s0-1.1,0-1.1c-.3-.1-.7-.2-1.1-.2-.8,0-1.7.4-1.7,1.4,0,1.5,2.4.9,2.4,2.2s-.5.8-1,.8c-1.2,0-1-.8-1.2-1.1h-.2c0-.1-.2.6-.2.6ZM106.8,43.8c.6,0,.7,0,.7.6v2c0,.9.3,1.5,1.3,1.5s1.3-.3,1.6-.9v.8h0c.9-.1.6,0,1.5-.1v-.3c-.6,0-.8,0-.8-.6v-3.5h0c-.9.1-.6,0-1.6.2v.2c.6,0,.8,0,.8.6v1.6c0,.5-.6,1.3-1.2,1.3s-.9-.5-.9-1.2v-2.8h0c-.9.1-.6,0-1.5.2v.2h0ZM112.8,47.8s.7,0,1.2,0,.8,0,1.2,0v-.3c-.7,0-.8,0-.8-.7v-6.1h0c-.9.1-.6,0-1.5.3v.2c.5,0,.8,0,.8.5v5.1c0,.7-.1.6-.8.7v.3h0Z"/>
  <path d="M115.8,43.5v.4h.7v2.8c0,.7.3,1.1,1,1.1s.8-.3,1.1-.6v-.2c-.3.1-.5.2-.7.2-.5,0-.6-.4-.6-.8v-2.6h1.2v-.4c0,0-1.2,0-1.2,0v-1.5h0c-.5,0-.7.2-.7.8v.7h-.7Z"/>
  <path class="st0" d="M193,26.3c0-14.1-11.5-25.6-25.6-25.6s-25.6,11.5-25.6,25.6,11.5,25.6,25.6,25.6,25.6-11.5,25.6-25.6h0Z"/>
  <path class="st2" d="M193,26.3c0-14.1-11.5-25.6-25.6-25.6s-25.6,11.5-25.6,25.6,11.5,25.6,25.6,25.6,25.6-11.5,25.6-25.6h0Z"/>
  <path d="M146.7,25.8c0,.5.2,1,.5,1,1,0,2.2-1.6,2.4-2l-.7,3.7c-.1.6-.3.5-.6.6v.2c.1,0,1.5-.1,1.6-.2v-.2c-.3,0-.4,0-.4-.2s1.2-6.4,1.2-6.4h0c0,0-.2,0-.2,0,0,0-.6-.2-.9-.2-1.4,0-2.9,1.5-2.9,3.8h0ZM147.5,25.5c0-1.7.9-3,1.7-3s.5,0,.8.2c0,.3-.3,1.2-.3,1.4-.6,1.1-1.5,2.1-1.9,2.1-.2,0-.3-.2-.3-.6h0Z"/>
  <path d="M151.3,28.3c.2.5.3.6.9.6s1.3-.3,1.3-1.1c0-1.1-1.7-.7-1.7-1.5s.3-.5.6-.5c.4,0,.7.3.8.7h.2s0-.8,0-.8c-.2,0-.5-.1-.7-.1-.6,0-1.2.3-1.2,1,0,1.1,1.7.7,1.7,1.5s-.3.6-.7.6c-.8,0-.7-.6-.8-.8h-.1c0,0-.1.4-.1.4ZM154.1,25.8v.3h.5v2c0,.5.2.8.7.8s.6-.2.7-.4h0c-.1,0-.3,0-.4,0-.3,0-.4-.3-.4-.6v-1.8h.8v-.3s-.8,0-.8,0v-1.1h0c-.4,0-.5.1-.5.6v.5h-.5ZM156.6,28c0,.5.4.8.9.8s.8-.4,1-.6c0,.1,0,.5.2.5s.8-.2.9-.2v-.2c0,0-.1,0-.2,0-.2,0-.3-.1-.3-.4v-1.4c0-.7-.2-1.1-1-1.1-.6,0-1.1.3-1.3.9h.2c.2-.2.4-.5.7-.5s.7.3.7.9l-.9.3c-.5.2-.9.3-.9.9h0ZM157.2,27.9c0-.5,1.3-.9,1.3-.9v1c-.2.2-.5.4-.8.4-.3,0-.5-.3-.5-.6h0ZM160,28.8c.3,0,.6,0,.9,0s.6,0,.9,0v-.2c-.5,0-.6,0-.6-.5v-1.3c0-.2.3-.6.6-.6s.4.1.4.2h0s.3-.5.3-.5c0-.1-.3-.3-.4-.3-.4,0-.8.4-.9.7v-.7h0c-.6.1-.4,0-1.1.2v.2c.5,0,.5,0,.5.5v1.6c0,.5,0,.5-.5.5v.2h0ZM162.8,25.8v.3h.5v2c0,.5.2.8.7.8s.6-.2.7-.4h0c-.1,0-.3,0-.4,0-.3,0-.4-.3-.4-.6v-1.8h.8v-.3s-.8,0-.8,0v-1.1h0c-.4,0-.5.1-.5.6v.5h-.5ZM165.5,29.3h.4l2-5.4h-.4l-2,5.4ZM168.7,28c0,.5.4.8.9.8s.8-.4,1-.6c0,.1,0,.5.2.5s.8-.2.9-.2v-.2c0,0-.1,0-.2,0-.2,0-.3-.1-.3-.4v-1.4c0-.7-.2-1.1-1-1.1-.6,0-1.1.3-1.3.9h.2c.2-.2.4-.5.7-.5s.7.3.7.9l-.9.3c-.5.2-.9.3-.9.9h0ZM169.3,27.9c0-.5,1.3-.9,1.3-.9v1c-.2.2-.5.4-.8.4-.3,0-.5-.3-.5-.6h0ZM172.1,27.3c0,.9.6,1.5,1.5,1.5s1-.3,1.1-.6h0c-.3,0-.5.2-.8.2-.8,0-1.2-.7-1.2-1.4s.3-1.1.9-1.1.6,0,.6.2v.3c.1,0,.3,0,.3,0l.2-.6c-.1-.2-.6-.3-.7-.3-1,0-1.8.8-1.8,1.8h0ZM175.3,27.3c0,.9.6,1.5,1.5,1.5s1-.3,1.1-.6h0c-.3,0-.5.2-.8.2-.8,0-1.2-.7-1.2-1.4s.3-1.1.9-1.1.6,0,.6.2v.3c.1,0,.3,0,.3,0l.2-.6c-.1-.2-.6-.3-.7-.3-1,0-1.8.8-1.8,1.8h0ZM178.5,27.3c0,.9.6,1.6,1.5,1.6.4,0,1-.2,1.2-.7h0c-.3.1-.5.2-.8.2-.8,0-1.2-.6-1.2-1.4,0,0,.3,0,.6,0s.6,0,.9,0l.6-.2c0-.9-.5-1.3-1.1-1.3s-.6.1-.8.3c-.5.3-.8.9-.8,1.5h0ZM179.1,26.8c0-.5.3-1,.8-1s.7.4.7.7,0,.3-.3.3c0,0-.6,0-.7,0-.4,0-.5,0-.5,0h0ZM181.7,30.4v.2c.3,0,.6,0,.9,0s.6,0,.9,0v-.2c-.5,0-.6,0-.6-.5v-1.2c.2.1.4.2.6.2,1.5,0,1.8-.7,1.8-2s-.6-1.3-1.3-1.3-.8.2-1.1.6v-.6h0c-.7.2-.5.1-1.1.3v.2c.5,0,.5,0,.5.5v3.4c0,.5,0,.5-.5.5h0ZM182.8,28.2v-1.7c.1-.3.5-.5.8-.5.7,0,1,.6,1,1.2s-.3,1.3-1,1.3-.6-.1-.8-.3h0ZM185.9,25.8v.3h.5v2c0,.5.2.8.7.8s.6-.2.7-.4h0c-.1,0-.3,0-.4,0-.3,0-.4-.3-.4-.6v-1.8h.8v-.3s-.8,0-.8,0v-1.1h0c-.4,0-.5.1-.5.6v.5h-.5Z"/>
  <line class="st3" x1="128.1" y1="26.3" x2="139.9" y2="26.3"/>
  <path class="st1" d="M138,23.9c.4,1.4,1.2,2.1,2.1,2.4-.9.3-1.7,1-2.1,2.4"/>
  <path d="M104.8,28.5c.3.7.5.8,1.3.8s1.9-.5,1.9-1.5c0-1.6-2.5-1-2.5-2.2s.4-.7.8-.7c.6,0,1,.4,1.1,1h.3s0-1.1,0-1.1c-.3-.1-.7-.2-1.1-.2-.8,0-1.7.4-1.7,1.4,0,1.5,2.4.9,2.4,2.2s-.5.8-1,.8c-1.2,0-1-.8-1.2-1.1h-.2c0-.1-.2.6-.2.6ZM108.8,24.9v.4h.7v2.8c0,.7.3,1.1,1,1.1s.8-.3,1.1-.6v-.2c-.3.1-.5.2-.7.2-.5,0-.6-.4-.6-.8v-2.6h1.2v-.4c0,0-1.2,0-1.2,0v-1.5h0c-.5,0-.7.2-.7.8v.7h-.7ZM112.4,28.1c0,.7.6,1.2,1.2,1.2s1.2-.6,1.4-.8c0,.2,0,.7.2.7s1.2-.2,1.3-.2v-.3c-.1,0-.2,0-.3,0-.3,0-.4-.1-.4-.5v-2c0-1-.3-1.6-1.4-1.6-.9,0-1.5.5-1.8,1.2l.3.2c.3-.5.5-.9,1.1-.9s1,.4,1,1.3l-1.3.4c-.7.2-1.3.5-1.3,1.3h0ZM113.3,27.9c0-.7,1.8-1.2,1.8-1.2v1.5c-.2.3-.7.6-1.1.6s-.7-.4-.7-.8h0ZM117.3,29.2c.4,0,.8,0,1.2,0s.8,0,1.2,0v-.3c-.7,0-.9,0-.9-.7v-1.9c0-.3.4-.9.8-.9s.5.2.5.3h.1s.4-.7.4-.7c0-.2-.4-.4-.6-.4-.5,0-1.1.6-1.3,1v-1h0c-.8.2-.6.1-1.5.3v.2c.7,0,.7,0,.7.7v2.3c0,.7-.1.6-.8.7v.3h0ZM121.3,24.9v.4h.7v2.8c0,.7.3,1.1,1,1.1s.8-.3,1.1-.6v-.2c-.3.1-.5.2-.7.2-.5,0-.6-.4-.6-.8v-2.6h1.2v-.4s-1.2,0-1.2,0v-1.5h0c-.5,0-.7.2-.7.8v.7h-.7Z"/>
  <path class="st3" d="M255.2,68.8c0-7.8-6.3-14.2-14.2-14.2s-14.2,6.3-14.2,14.2,6.3,14.2,14.2,14.2c7.8,0,14.2-6.3,14.2-14.2h0Z"/>
  <path d="M237,69c0,.5.2,1,.5,1,1,0,2.2-1.6,2.4-2l-.7,3.7c-.1.6-.3.5-.6.6v.2c.1,0,1.5-.1,1.6-.2v-.2c-.3,0-.4,0-.4-.2s1.2-6.4,1.2-6.4h0c0,0-.2,0-.2,0,0,0-.6-.2-.9-.2-1.4,0-2.9,1.5-2.9,3.8h0ZM237.8,68.7c0-1.7.9-3,1.7-3s.5,0,.8.2c0,.3-.3,1.2-.3,1.4-.6,1.1-1.5,2.1-1.9,2.1s-.3-.2-.3-.6h0Z"/>
  <path d="M242,68.2v.3c.2,0,.4,0,.6,0s.3,0,.3.2v2.8c0,.4-.4.4-.7.4v.2c.3,0,.7,0,1,0s.7,0,1,0v-.2c-.3,0-.7,0-.7-.4v-2.5c0-.4,0-.7,0-1.1h0c-.5.1-1,.3-1.5.4h0Z"/>
  <path class="st3" d="M255.2,153.9c0-7.8-6.3-14.2-14.2-14.2s-14.2,6.3-14.2,14.2,6.3,14.2,14.2,14.2c7.8,0,14.2-6.3,14.2-14.2h0Z"/>
  <path d="M237,154c0,.5.2,1,.5,1,1,0,2.2-1.6,2.4-2l-.7,3.7c-.1.6-.3.5-.6.6v.2c.1,0,1.5-.1,1.6-.2v-.2c-.3,0-.4,0-.4-.2s1.2-6.4,1.2-6.4h0c0,0-.2,0-.2,0,0,0-.6-.2-.9-.2-1.4,0-2.9,1.5-2.9,3.8h0ZM237.8,153.7c0-1.7.9-3,1.7-3s.5,0,.8.2c0,.3-.3,1.2-.3,1.4-.6,1.1-1.5,2.1-1.9,2.1-.2,0-.3-.2-.3-.6h0Z"/>
  <path d="M241.9,157h.3c.4,0,.7,0,1.1,0h.2c0,0,.2,0,.2,0,.3,0,.7-.3,1.1-.4v-.4c-.5.2-.8.2-1.2.2h-.7l1-1.1c.4-.5.8-.8.8-1.4s-.6-1.2-1.3-1.2-.7.1-1,.4l-.3.8h.2c.2-.4.3-.6.8-.6s.9.3.9.8-.5,1-.9,1.5l-1.1,1.2v.2h0Z"/>
  <path class="st3" d="M181.6,196.4c0-7.8-6.3-14.2-14.2-14.2s-14.2,6.3-14.2,14.2,6.3,14.2,14.2,14.2,14.2-6.3,14.2-14.2h0Z"/>
  <path d="M163.4,196.6c0,.5.2,1,.5,1,1,0,2.2-1.6,2.4-2l-.7,3.7c-.1.6-.3.5-.6.6v.2c.1,0,1.5-.1,1.6-.2v-.2c-.3,0-.4,0-.4-.2s1.2-6.4,1.2-6.4h0c0,0-.2,0-.2,0,0,0-.6-.2-.9-.2-1.4,0-2.9,1.5-2.9,3.8h0ZM164.1,196.2c0-1.7.9-3,1.7-3s.5,0,.8.2c0,.3-.3,1.2-.3,1.4-.6,1.1-1.5,2.1-1.9,2.1-.2,0-.3-.2-.3-.6h0Z"/>
  <path d="M168.3,198.8c.1.6.2.8.8.8,1.2,0,1.8-.6,1.8-1.6s-.5-.9-1-1c.3-.2.7-.5.7-.9s-.5-.9-1.1-.9-.6.1-.9.3l-.3.7h.2c.2-.3.3-.5.7-.5s.6.2.6.6-.7.7-1.1.9v.3c.2,0,.3,0,.5,0,.5,0,.8.4.8.9s-.3.9-.7.9-.7-.2-1.1-.5h-.1Z"/>
  <path class="st3" d="M107.9,153.9c0-7.8-6.3-14.2-14.2-14.2s-14.2,6.3-14.2,14.2,6.3,14.2,14.2,14.2c7.8,0,14.2-6.3,14.2-14.2h0Z"/>
  <path d="M89.7,154c0,.5.2,1,.5,1,1,0,2.2-1.6,2.4-2l-.7,3.7c-.1.6-.3.5-.6.6v.2c.1,0,1.5-.1,1.6-.2v-.2c-.3,0-.4,0-.4-.2s1.2-6.4,1.2-6.4h0c0,0-.2,0-.2,0,0,0-.6-.2-.9-.2-1.4,0-2.9,1.5-2.9,3.8h0ZM90.5,153.7c0-1.7.9-3,1.7-3s.5,0,.8.2c0,.3-.3,1.2-.3,1.4-.6,1.1-1.5,2.1-1.9,2.1-.2,0-.3-.2-.3-.6h0Z"/>
  <path d="M94.4,155.7v.2h1.9v.5c0,.4-.2.5-.5.5h-.3v.2h2v-.2c-.4,0-.6,0-.6-.5v-.5c.2,0,.3,0,.6,0v-.5c-.2,0-.3,0-.6,0v-2.1c0-.2,0-.4,0-.6h-.7c0,.1-1.9,3-1.9,3ZM94.9,155.4l1.3-1.9h.1v1.9s-1.4,0-1.4,0Z"/>
  <path class="st3" d="M107.9,68.8c0-7.8-6.3-14.2-14.2-14.2s-14.2,6.3-14.2,14.2,6.3,14.2,14.2,14.2c7.8,0,14.2-6.3,14.2-14.2h0Z"/>
  <path d="M89.7,69c0,.5.2,1,.5,1,1,0,2.2-1.6,2.4-2l-.7,3.7c-.1.6-.3.5-.6.6v.2c.1,0,1.5-.1,1.6-.2v-.2c-.3,0-.4,0-.4-.2s1.2-6.4,1.2-6.4h0c0,0-.2,0-.2,0,0,0-.6-.2-.9-.2-1.4,0-2.9,1.5-2.9,3.8h0ZM90.5,68.7c0-1.7.9-3,1.7-3s.5,0,.8.2c0,.3-.3,1.2-.3,1.4-.6,1.1-1.5,2.1-1.9,2.1s-.3-.2-.3-.6h0Z"/>
  <path d="M94.6,71.3c.2.5.2.7.8.7,1.1,0,1.8-.5,1.8-1.7s-.6-1.2-1.3-1.2-.5,0-.7.2v-1c.4,0,.6,0,.9,0s.5,0,.7,0h.1c0-.1,0-.7,0-.7-.4,0-.8,0-1.2,0s-.5,0-.8,0c0,.7-.1,1.4-.2,2.1h0c.2,0,.4-.1.7-.1.6,0,1,.4,1,1s-.2.9-.8.9-.8,0-1-.5h-.1Z"/>
</svg>