<?xml version="1.0" encoding="UTF-8"?>
<svg id="Layer_1" xmlns="http://www.w3.org/2000/svg" version="1.1" viewBox="0 0 314.5654 207.2441">
  <!-- Generator: Adobe Illustrator 29.4.0, SVG Export Plug-In . SVG Version: 2.1.0 Build 152)  -->
  <defs>
    <style>
      .st0, .st1, .st2, .st3, .st4 {
        font-family: Georgia, Georgia;
      }

      .st0, .st5 {
        letter-spacing: -.027em;
      }

      .st6 {
        stroke-linecap: round;
        stroke-linejoin: round;
      }

      .st6, .st7, .st8, .st9 {
        stroke: #000;
      }

      .st6, .st8 {
        stroke-width: .3985px;
      }

      .st6, .st8, .st9 {
        fill: none;
      }

      .st10 {
        letter-spacing: .3309em;
      }

      .st11 {
        letter-spacing: .331em;
      }

      .st12 {
        letter-spacing: .331em;
      }

      .st13 {
        letter-spacing: .332em;
      }

      .st2 {
        letter-spacing: 0em;
      }

      .st14 {
        letter-spacing: 0em;
      }

      .st15, .st3, .st16 {
        font-size: 10.9091px;
      }

      .st17 {
        letter-spacing: 0em;
      }

      .st7 {
        fill: #fff;
        stroke-width: .25px;
      }

      .st7, .st8, .st9 {
        stroke-miterlimit: 10;
      }

      .st16, .st18 {
        font-family: Georgia-Italic, Georgia;
        font-style: italic;
      }

      .st9 {
        stroke-width: .5263px;
      }

      .st19 {
        letter-spacing: -.026em;
      }

      .st4 {
        font-size: 8px;
      }
    </style>
  </defs>
  <line class="st8" x1="116.2917" y1="22.8525" x2="128.9845" y2="22.8525"/>
  <path class="st6" d="M127.1116,20.4615c.3786,1.4347,1.2222,2.1121,2.0722,2.3911-.85.2789-1.6936.9564-2.0722,2.3911"/>
  <text class="st3" transform="translate(90.1177 26.2081)"><tspan x="0" y="0">start</tspan></text>
  <g>
    <circle class="st7" cx="226.1609" cy="66.1595" r="14.2588"/>
    <text class="st16" transform="translate(222.1482 67.3565)"><tspan x="0" y="0">q</tspan></text>
    <text class="st3" transform="translate(228.2049 70.9893) scale(.583)"><tspan x="0" y="0">1</tspan></text>
  </g>
  <g>
    <path class="st8" d="M176.8291,31.0426c16.3657,6.6164,25.4691,12.1357,37.3,22.5556"/>
    <path d="M215.9276,55.2007c-1.1285-.4284-2.6572-.8127-3.812-.8139l1.7632-.9762.7305-1.8779c.1561,1.1441.7421,2.6075,1.3183,3.668Z"/>
  </g>
  <text class="st15" transform="translate(200.3552 37.0294)"><tspan class="st1" x="0" y="0">Read </tspan><tspan class="st18" x="27.3203" y="0">A, B</tspan></text>
  <g>
    <path class="st8" d="M230.4694,79.527c3.6907,20.9319,3.8358,33.8969.6497,52.9848"/>
    <path d="M230.7115,134.8854c-.235-1.184-.7196-2.684-1.3307-3.6637l1.7624.9775,1.9796-.3762c-.8874.7389-1.8175,2.0116-2.4113,3.0623Z"/>
  </g>
  <text class="st3" transform="translate(237.164 111.65)"><tspan x="0" y="0">Determin</tspan><tspan class="st10" x="46.2041" y="0">e</tspan><tspan x="55.0879" y="0">ones</tspan></text>
  <g>
    <path class="st8" d="M216.9639,159.6518c-16.3253,13.6982-27.3946,20.2567-45.5614,27.0553"/>
    <path d="M169.1428,187.5408c.9079-.7954,1.9648-1.9649,2.5079-2.9839l.0344,2.0151,1.3153,1.5265c-1.0836-.3992-2.6507-.5686-3.8576-.5576Z"/>
  </g>
  <text class="st3" transform="translate(197.6562 187.6637)"><tspan x="0" y="0">Comput</tspan><tspan class="st11" x="38.7676" y="0">e</tspan><tspan x="47.6523" y="0">neede</tspan><tspan class="st13" x="76.1816" y="0">d</tspan><tspan class="st14" x="86.0684" y="0">ones</tspan></text>
  <g>
    <path class="st8" d="M140.8207,188.0178c-20.0258-7.2887-31.2401-13.596-46.2114-25.9295"/>
    <path d="M92.7575,160.5483c1.1428.3886,2.6841.7191,3.8381.6799l-1.7279,1.0373-.6643,1.9024c-.1961-1.1379-.833-2.5799-1.4459-3.6196Z"/>
  </g>
  <text class="st15" transform="translate(69.6333 187.6637)"><tspan class="st1" x="0" y="0">Che</tspan><tspan class="st0" x="18.6274" y="0">c</tspan><tspan class="st2" x="23.2866" y="0">k </tspan><tspan class="st18" x="31.7617" y="0">B</tspan></text>
  <g>
    <path class="st8" d="M78.1835,136.2589c-3.6908-20.9319-3.8358-33.8969-.6498-52.9848"/>
    <path d="M77.9414,80.9005c.235,1.184.7196,2.684,1.3307,3.6637l-1.7624-.9775-1.9796.3762c.8874-.7389,1.8175-2.0116,2.4113-3.0623Z"/>
  </g>
  <text class="st3" transform="translate(22.0166 111.65)"><tspan x="0" y="0">M</tspan><tspan class="st5" x="10.1152" y="0">o</tspan><tspan class="st19" x="15.7017" y="0">v</tspan><tspan class="st11" x="20.835" y="0">e</tspan><tspan class="st17" x="29.7197" y="0">ones</tspan></text>
  <g>
    <path class="st8" d="M91.689,56.1341c13.1159-11.8146,22.0644-17.5817,36.6135-23.6537"/>
    <path d="M130.5307,31.5654c-.8793.8268-1.8944,2.0329-2.4012,3.0704l-.1053-2.0126-1.3683-1.4792c1.0969.3607,2.6691.4749,3.8748.4214Z"/>
  </g>
  <text class="st3" transform="translate(.2185 40.6894)"><tspan class="st5" x="0" y="0">A</tspan><tspan x="7.0244" y="0">d</tspan><tspan class="st13" x="13.2886" y="0">d</tspan><tspan x="23.1748" y="0">adjuste</tspan><tspan class="st12" x="58.1499" y="0">d</tspan><tspan x="68.0249" y="0">addends</tspan></text>
  <g>
    <circle class="st7" cx="227.8269" cy="149.6511" r="14.2588"/>
    <text class="st16" transform="translate(223.8138 150.8483)"><tspan x="0" y="0">q</tspan></text>
    <text class="st3" transform="translate(229.8704 154.4811) scale(.583)"><tspan x="0" y="0">2</tspan></text>
  </g>
  <g>
    <circle class="st7" cx="154.5545" cy="192.8603" r="14.2588"/>
    <text class="st16" transform="translate(150.5419 194.0572)"><tspan x="0" y="0">q</tspan></text>
    <text class="st3" transform="translate(156.5985 197.6901) scale(.583)"><tspan x="0" y="0">3</tspan></text>
  </g>
  <g>
    <circle class="st7" cx="80.8047" cy="149.8643" r="14.2588"/>
    <text class="st16" transform="translate(76.7919 151.0614)"><tspan x="0" y="0">q</tspan></text>
    <text class="st3" transform="translate(82.8485 154.6942) scale(.583)"><tspan x="0" y="0">4</tspan></text>
  </g>
  <g>
    <circle class="st7" cx="82.646" cy="66.3347" r="14.2588"/>
    <text class="st16" transform="translate(78.6331 67.5316)"><tspan x="0" y="0">q</tspan></text>
    <text class="st3" transform="translate(84.6897 71.1644) scale(.583)"><tspan x="0" y="0">5</tspan></text>
  </g>
  <g>
    <g>
      <circle class="st7" cx="153.2163" cy="23.2632" r="22"/>
      <circle class="st9" cx="153.2163" cy="23.2632" r="23"/>
    </g>
    <text class="st16" transform="translate(134.2907 24.46)"><tspan x="0" y="0">q</tspan></text>
    <text class="st3" transform="translate(140.3474 28.0928) scale(.583)"><tspan x="0" y="0" xml:space="preserve">0  </tspan></text>
    <text class="st4" transform="translate(147.319 24.46)"><tspan x="0" y="0">/accept</tspan></text>
  </g>
</svg>