<?xml version="1.0" encoding="UTF-8"?>
<svg id="Layer_1" xmlns="http://www.w3.org/2000/svg" version="1.1" viewBox="0 0 339.4 163.2">
  <!-- Generator: Adobe Illustrator 29.4.0, SVG Export Plug-In . SVG Version: 2.1.0 Build 152)  -->
  <defs>
    <style>
      .st0 {
        stroke-width: 1.4px;
      }

      .st0, .st1, .st2, .st3 {
        fill: none;
      }

      .st0, .st1, .st3 {
        stroke: #000;
      }

      .st0, .st2, .st3 {
        stroke-miterlimit: 10;
      }

      .st1 {
        stroke-linecap: round;
        stroke-linejoin: round;
      }

      .st1, .st3 {
        stroke-width: .4px;
      }

      .st2 {
        stroke: #fff;
        stroke-width: .6px;
      }
    </style>
  </defs>
  <path class="st0" d="M182.9,21.3c0-11.4-9.2-20.6-20.6-20.6s-20.6,9.2-20.6,20.6,9.2,20.6,20.6,20.6,20.6-9.2,20.6-20.6h0Z"/>
  <path class="st2" d="M182.9,21.3c0-11.4-9.2-20.6-20.6-20.6s-20.6,9.2-20.6,20.6,9.2,20.6,20.6,20.6,20.6-9.2,20.6-20.6h0Z"/>
  <path d="M146.9,20.8c0,.5.2,1,.5,1,1,0,2.2-1.6,2.4-2l-.7,3.7c-.1.6-.3.5-.6.6v.2c.1,0,1.5-.1,1.6-.2v-.2c-.3,0-.4,0-.4-.2s1.2-6.4,1.2-6.4h0c0,0-.2,0-.2,0,0,0-.6-.2-.9-.2-1.4,0-2.9,1.5-2.9,3.8h0ZM147.7,20.4c0-1.7.9-3,1.7-3s.5,0,.8.2c0,.3-.3,1.2-.3,1.4-.6,1.1-1.5,2.1-1.9,2.1s-.3-.2-.3-.6h0Z"/>
  <path d="M151.7,21.7c0,.9.4,2.1,1.4,2.1s1.5-1.3,1.5-2.3-.4-2.1-1.4-2.1c-1.1,0-1.5,1.2-1.5,2.2h0ZM152.4,21.6c0-.6,0-1.8.8-1.8s.8,1.3.8,2,0,1.8-.8,1.8c-.8,0-.8-1.3-.8-2h0ZM155.4,24.3h.5l2-5.4h-.5l-2,5.4ZM158.7,23.2c0,.4.2.6.3.6.4,0,1.1-.8,1.6-1.4,0,.1-.3.7-.3,1.1s0,.3.2.3.6-.3,1.1-.7v-.2c-.2,0-.5.3-.6.3s0,0,0-.1c0-.4.4-1.8.6-2.6h0s-.3,0-.3,0c-.2,0-.3-.1-.5-.1-1.4,0-2,1.6-2,2.6h0ZM159.2,23c0-.8.5-2.2,1.2-2.2s.3,0,.5.1c0,.3-.2.8-.3,1-.1.2-.9,1.4-1.2,1.4-.1,0-.2-.1-.2-.3h0Z"/>
  <path d="M162.2,22.8c0,.6.3,1,.8,1s1.1-.4,1.4-.7h0c-.3,0-.7.3-1,.3s-.5-.3-.5-.8c0-1,.5-1.8,1-1.8s.5.2.5.3,0,.1,0,.2h.2c0-.2.2-.4.2-.5s-.3-.3-.6-.3c-1.2,0-1.9,1.1-1.9,2.3h0ZM165.4,22.8c0,.6.3,1,.8,1s1.1-.4,1.4-.7h0c-.3,0-.7.3-1,.3s-.5-.3-.5-.8c0-1,.5-1.8,1-1.8s.5.2.5.3,0,.1,0,.2h.2c0-.2.2-.4.2-.5s-.3-.3-.6-.3c-1.2,0-1.9,1.1-1.9,2.3h0ZM168.6,22.9c0,.7.4.9.8.9s.9-.2,1.5-.8h0c-.3.1-.7.4-1.1.4s-.5-.4-.5-.7,0-.2,0-.3c.6-.2,1.9-.5,1.9-1.3s-.2-.5-.6-.5c-1,0-1.9,1.2-1.9,2.4h0ZM169.2,22.2c0-.4.4-1.4.9-1.4s.3.1.3.4c0,.6-.8.9-1.3,1h0ZM171.6,25.5c.3,0,.8,0,1.1-.1,0,0,0-.2,0-.2-.2,0-.3-.1-.3-.3,0-.3.1-1,.2-1.3.1,0,.3.1.5.1,1.3,0,1.9-1.4,1.9-2.5s-.2-.8-.7-.8-.9.4-1.2.7c0-.2.1-.7.1-.7h0c-.2,0-.8.4-1.2.5v.2c.2,0,.4-.2.6-.2-.1.9-.6,4.3-1,4.3v.2ZM172.7,23.3s.3-1.5.3-1.6c.2-.4.6-.9.9-.9s.5.2.5.6-.4,2-1.2,2c-.2,0-.4,0-.5-.2h0Z"/>
  <path d="M175.8,21h.5s-.5,2.2-.5,2.4,0,.3.2.3c.3,0,1-.6,1.2-.8,0,0,0-.1,0-.1-.1.1-.5.4-.7.4s0,0,0-.2c0-.2.4-1.9.4-2.2h.8v-.3c0,0-.7,0-.7,0,0-.3.2-1,.3-1.1h0c0,0-.5.2-.6.3l-.2.9h-.5v.3Z"/>
  <line class="st3" x1="128" y1="21.3" x2="139.9" y2="21.3"/>
  <path class="st1" d="M138,18.9c.4,1.4,1.2,2.1,2.1,2.4-.9.3-1.7,1-2.1,2.4"/>
  <path d="M104.8,23.4c.3.7.5.8,1.3.8s1.9-.5,1.9-1.5c0-1.6-2.5-1-2.5-2.2s.4-.7.8-.7c.6,0,1,.4,1.1,1h.3s0-1.1,0-1.1c-.3-.1-.7-.2-1.1-.2-.8,0-1.7.4-1.7,1.4,0,1.5,2.4.9,2.4,2.2s-.5.8-1,.8c-1.2,0-1-.8-1.2-1.1h-.2c0-.1-.2.6-.2.6ZM108.8,19.9v.4h.7v2.8c0,.7.3,1.1,1,1.1s.8-.3,1.1-.6v-.2c-.3.1-.5.2-.7.2-.5,0-.6-.4-.6-.8v-2.6h1.2v-.4c0,0-1.2,0-1.2,0v-1.5h0c-.5,0-.7.2-.7.8v.7h-.7ZM112.4,23.1c0,.7.6,1.2,1.2,1.2s1.2-.6,1.4-.8c0,.2,0,.7.2.7s1.2-.2,1.3-.2v-.3c-.1,0-.2,0-.3,0-.3,0-.4-.1-.4-.5v-2c0-1-.3-1.6-1.4-1.6-.9,0-1.5.5-1.8,1.2l.3.2c.3-.5.5-.9,1.1-.9s1,.4,1,1.3l-1.3.4c-.7.2-1.3.5-1.3,1.3h0ZM113.3,22.9c0-.7,1.8-1.2,1.8-1.2v1.5c-.2.3-.7.6-1.1.6-.4,0-.7-.4-.7-.8h0ZM117.2,24.2c.4,0,.8,0,1.2,0s.8,0,1.2,0v-.3c-.7,0-.9,0-.9-.7v-1.9c0-.3.4-.9.8-.9s.5.2.5.3h.1s.4-.7.4-.7c0-.2-.4-.4-.6-.4-.5,0-1.1.6-1.3,1v-1h0c-.8.2-.6.1-1.5.3v.2c.7,0,.7,0,.7.7v2.3c0,.7-.1.6-.8.7v.3h0ZM121.2,19.9v.4h.7v2.8c0,.7.3,1.1,1,1.1s.8-.3,1.1-.6v-.2c-.3.1-.5.2-.7.2-.5,0-.6-.4-.6-.8v-2.6h1.2v-.4s-1.2,0-1.2,0v-1.5h0c-.5,0-.7.2-.7.8v.7h-.7Z"/>
  <path class="st3" d="M102.8,148.8c0-7.8-6.3-14.2-14.2-14.2s-14.2,6.3-14.2,14.2,6.3,14.2,14.2,14.2c7.8,0,14.2-6.3,14.2-14.2h0Z"/>
  <path d="M84.6,149c0,.5.2,1,.5,1,1,0,2.2-1.6,2.4-2l-.7,3.7c-.1.6-.3.5-.6.6v.2c.1,0,1.5-.1,1.6-.2v-.2c-.3,0-.4,0-.4-.2s1.2-6.4,1.2-6.4h0c0,0-.2,0-.2,0,0,0-.6-.2-.9-.2-1.4,0-2.9,1.5-2.9,3.8h0ZM85.4,148.7c0-1.7.9-3,1.7-3s.5,0,.8.2c0,.3-.3,1.2-.3,1.4-.6,1.1-1.5,2.1-1.9,2.1-.2,0-.3-.2-.3-.6h0Z"/>
  <path d="M89.7,148.2v.3c.2,0,.4,0,.6,0s.3,0,.3.2v2.8c0,.4-.4.4-.7.4v.2c.3,0,.7,0,1,0s.7,0,1,0v-.2c-.3,0-.7,0-.7-.4v-2.5c0-.4,0-.7,0-1.1h0c-.5.1-1,.3-1.5.4h0Z"/>
  <path class="st3" d="M250.1,148.8c0-7.8-6.3-14.2-14.2-14.2s-14.2,6.3-14.2,14.2,6.3,14.2,14.2,14.2c7.8,0,14.2-6.3,14.2-14.2h0Z"/>
  <path d="M231.9,149c0,.5.2,1,.5,1,1,0,2.2-1.6,2.4-2l-.7,3.7c-.1.6-.3.5-.6.6v.2c.1,0,1.5-.1,1.6-.2v-.2c-.3,0-.4,0-.4-.2s1.2-6.4,1.2-6.4h0c0,0-.2,0-.2,0,0,0-.6-.2-.9-.2-1.4,0-2.9,1.5-2.9,3.8h0ZM232.7,148.7c0-1.7.9-3,1.7-3s.5,0,.8.2c0,.3-.3,1.2-.3,1.4-.6,1.1-1.5,2.1-1.9,2.1-.2,0-.3-.2-.3-.6h0Z"/>
  <path d="M236.8,151.9h.3c.4,0,.7,0,1.1,0h.2c0,0,.2,0,.2,0,.3,0,.7-.3,1.1-.4v-.4c-.5.2-.8.2-1.2.2h-.7l1-1.1c.4-.5.8-.8.8-1.4s-.6-1.2-1.3-1.2-.7.1-1,.4l-.3.8h.2c.2-.4.3-.6.8-.6s.9.3.9.8-.5,1-.9,1.5l-1.1,1.2v.2h0Z"/>
  <path class="st3" d="M156.9,41.6c-12.1,42.5-26.3,66.3-57,96.1"/>
  <path class="st1" d="M102.8,138.1c-1.3-.8-2.3-.7-3.2-.3.4-.8.6-1.9-.2-3.2"/>
  <path d="M27.8,78.9c.5,0,.9,0,1.4,0s.9,0,1.4,0v-.3c-.9,0-.9-.1-.9-1.1v-4c0-1,0-1,.9-1.1v-.3c-.4,0-.9,0-1.3,0s-1,0-1.4,0v.3c.9,0,.9.1.9,1.1v4c0,1,0,1-.9,1.1v.3h0ZM31.3,78.9c.4,0,.8,0,1.2,0s.8,0,1.2,0v-.3c-.6,0-.7,0-.7-.7v-2.3c.2-.4.7-.7,1.2-.7.7,0,1,.6,1,.9v2c0,.2,0,.8-.4.8v.2c.3,0,.6,0,.9,0s.6,0,.9,0v-.3c-.6,0-.7,0-.7-.7v-2c0-1-.5-1.5-1.5-1.5s-1.1.3-1.5.8v-.8h0c-1,.2-.7.2-1.5.3v.2c.7,0,.7,0,.7.7v2.3c0,.7-.1.7-.8.7v.3h0ZM37.2,78.9c.4,0,.8,0,1.2,0s.8,0,1.2,0v-.3c-.7,0-.8,0-.8-.7v-3.5h0c0,0-1.5.3-1.5.3v.2c.7,0,.7,0,.7.7v2.3c0,.7-.1.6-.8.7v.3h0ZM37.8,73.2c0,.3.2.5.5.5s.5-.2.5-.5-.2-.6-.5-.6-.5.3-.5.6h0ZM40.2,74.7v.4h.7v2.8c0,.7.3,1.1,1,1.1s.8-.3,1.1-.6v-.2c-.3.1-.5.2-.7.2-.5,0-.6-.4-.6-.8v-2.6h1.2v-.4c0,0-1.2,0-1.2,0v-1.5h0c-.5,0-.7.2-.7.8v.7h-.7ZM44.1,78.4c0,.3.2.6.6.6s.6-.3.6-.6-.3-.6-.6-.6-.6.3-.6.6h0ZM44.1,75.1c0,.3.2.6.6.6s.6-.3.6-.6-.3-.6-.6-.6-.6.3-.6.6h0Z"/>
  <path d="M49.8,77.2v1.5c.6.2,1.1.4,1.7.4,1.3,0,2.6-.8,2.6-2.2,0-2.4-3.5-1.2-3.5-3.1s.5-1.3,1.3-1.3c1.1,0,1.2.5,1.5,1.3h.3s0-1.4,0-1.4c-.5-.2-1-.3-1.5-.3-1.2,0-2.3.7-2.3,2,0,2.3,3.4,1.2,3.4,3.2s-.7,1.4-1.5,1.4c-1.6,0-1.4-1.1-1.7-1.4h-.3ZM55,76.8c0,1.3.8,2.2,2.1,2.2.5,0,1.4-.3,1.7-.9h-.1c-.4.1-.7.3-1.2.3-1.2,0-1.7-.9-1.7-2,0,0,.4,0,.9,0s.9,0,1.3,0l.8-.3c0-1.3-.7-1.9-1.6-1.9s-.8.2-1.2.4c-.8.5-1.1,1.2-1.1,2.1h0ZM55.9,76.1c0-.7.4-1.4,1.2-1.4s1,.5,1,1-.1.4-.4.5c-.1,0-.9,0-1.1,0-.6,0-.7,0-.7,0h0ZM59.6,74.7v.4h.7v2.8c0,.7.3,1.1,1,1.1s.8-.3,1.1-.6v-.2c-.3.1-.5.2-.7.2-.5,0-.6-.4-.6-.8v-2.6h1.2v-.4c0,0-1.2,0-1.2,0v-1.5h0c-.5,0-.7.2-.7.8v.7h-.7Z"/>
  <path d="M65.8,77.2v1.5c.6.2,1.1.4,1.7.4,1.3,0,2.6-.8,2.6-2.2,0-2.4-3.5-1.2-3.5-3.1s.5-1.3,1.3-1.3c1.1,0,1.2.5,1.5,1.3h.3s0-1.4,0-1.4c-.5-.2-1-.3-1.5-.3-1.2,0-2.3.7-2.3,2,0,2.3,3.4,1.2,3.4,3.2s-.7,1.4-1.5,1.4c-1.6,0-1.4-1.1-1.7-1.4h-.3ZM70.9,74.9c.6,0,.7,0,.7.6v2c0,.9.3,1.5,1.3,1.5s1.3-.3,1.6-.9v.8h0c.9-.1.6,0,1.5-.1v-.3c-.6,0-.8,0-.8-.6v-3.5h0c-.9.1-.6,0-1.6.2v.2c.6,0,.8,0,.8.6v1.6c0,.5-.6,1.3-1.2,1.3s-.9-.5-.9-1.2v-2.8h0c-.9.1-.6,0-1.5.2v.2h0ZM76.8,78.9s.7,0,1.1,0,.8,0,1.2,0v-.3c-.6,0-.7,0-.7-.7v-2.3c.2-.4.7-.7,1.2-.7.7,0,.9.6.9,1.1v1.9c0,.7-.1.6-.8.7v.3s.7,0,1.1,0,.8,0,1.2,0v-.3c-.7,0-.7,0-.7-.7v-2.3c.2-.4.7-.7,1.2-.7.7,0,.9.6.9,1.2v1.8c0,.2,0,.8-.3.8v.2c.3,0,.6,0,.9,0s.7,0,1,0v-.3c-.7,0-.7,0-.7-.7v-2.1c0-.9-.5-1.5-1.4-1.5s-1.2.4-1.6.9c-.2-.6-.7-.9-1.3-.9s-1.1.4-1.5.8v-.8h0c-.9.2-.6.1-1.5.3v.2c.7,0,.7,0,.7.7v2.3c0,.7-.1.6-.8.7v.3h0Z"/>
  <path d="M88.5,77.8h5.2v-.5h-5.2v.5ZM88.5,75.6h5.2v-.5h-5.2v.5Z"/>
  <path d="M97.1,78.9h2.1v-.2c-.5,0-.7,0-.7-.2,0-.3,1.1-2.2,1.1-2.2h2.3s.3,1.7.3,2c0,.4-.2.3-.8.4v.2s2.4,0,2.4,0v-.2c-.5,0-.8-.1-.8-.6-.3-2.3-.9-5.9-.9-5.9h-.3c0,0-3.3,5.6-3.3,5.6-.3.5-.5.9-1.2.9v.3ZM99.8,75.9l1.6-2.7.4,2.7h-2Z"/>
  <path d="M0,84.4c.9,0,.9.1.9,1.1v4c0,.9,0,1-.9,1.1v.3h4.1l.9-.4.2-1.2h-.2c0,.2-.3.9-.5,1-.3.2-.9.2-1.5.2s-.8,0-1-.1c-.1,0-.1-.7-.1-1v-1.8c.2,0,.6,0,1,0s.8,0,1,.1c.1.1.1.6.2.8h.3c0-.3,0-.7,0-1.1s0-.7,0-1.1h-.3c0,.2,0,.5-.1.7-.2.2-.6.2-1,.2,0,0-.8,0-1,0v-2.5c0-.2.7-.2,1-.2.5,0,.9,0,1.2.1.4.1.4.7.4,1h.3s0-1.2,0-1.2l-.6-.3H0v.3ZM5.9,90.9c.4,0,.6,0,.7,0s.3,0,.7,0v-.3c-.2,0-.3,0-.3-.1,0-.1,1-1.5,1-1.5,0,0,1,1.3,1,1.5s-.1,0-.3,0v.3c.5,0,.7,0,.9,0s.4,0,1,0v-.3c-.5,0-.6,0-.9-.5l-1.2-1.8,1.1-1.4c.2-.3.5-.3.8-.3v-.2c-.4,0-.5,0-.7,0s-.3,0-.7,0v.2c.2,0,.2,0,.2,0,0,.1-.9,1.3-.9,1.3,0,0-.8-1.1-.8-1.3s.1,0,.4,0v-.3c-.6,0-.8,0-1,0s-.4,0-1,0v.3c.5,0,.7,0,.9.5l1,1.6-1.1,1.5c-.3.4-.5.4-.9.4v.3h0ZM11.1,86.6v.4h.7v2.8c0,.7.3,1.1,1,1.1s.8-.3,1.1-.6v-.2c-.3.1-.5.2-.7.2-.5,0-.6-.4-.6-.8v-2.6h1.2v-.4c0,0-1.2,0-1.2,0v-1.5h0c-.5,0-.7.2-.7.8v.7h-.7ZM14.7,90.9c.4,0,.8,0,1.2,0s.8,0,1.2,0v-.3c-.7,0-.9,0-.9-.7v-1.9c0-.3.4-.9.8-.9s.5.2.5.3h.1s.4-.7.4-.7c0-.2-.4-.4-.6-.4-.5,0-1.1.6-1.3,1v-1h0c-.8.2-.6.1-1.5.3v.2c.7,0,.7,0,.7.7v2.3c0,.7-.1.6-.8.7v.3ZM18.8,89.8c0,.7.6,1.2,1.2,1.2s1.2-.6,1.4-.8c0,.2,0,.7.2.7s1.2-.2,1.3-.2v-.3c-.1,0-.2,0-.3,0-.3,0-.4-.1-.4-.5v-2c0-1-.3-1.6-1.4-1.6-.9,0-1.5.5-1.8,1.2l.3.2c.3-.5.5-.9,1.1-.9s1,.4,1,1.3l-1.3.4c-.7.2-1.3.5-1.3,1.3h0ZM19.6,89.6c0-.7,1.8-1.2,1.8-1.2v1.5c-.2.3-.7.6-1.1.6-.4,0-.7-.4-.7-.8h0ZM23.7,88.8c0,1.3.9,2.2,2.2,2.2s1.4-.4,1.6-.9h-.1c-.4.1-.7.3-1.1.3-1.1,0-1.7-1-1.7-2s.4-1.6,1.3-1.6.8,0,.9.3l.2.4h.2s.2-.8.2-.8c-.2-.3-.9-.4-1.1-.4-1.4,0-2.6,1.1-2.6,2.5h0ZM28.1,86.6v.4h.7v2.8c0,.7.3,1.1,1,1.1s.8-.3,1.1-.6v-.2c-.3.1-.5.2-.7.2-.5,0-.6-.4-.6-.8v-2.6h1.2v-.4c0,0-1.2,0-1.2,0v-1.5h0c-.5,0-.7.2-.7.8v.7h-.7Z"/>
  <path d="M34,84.3c.5,0,.7,0,.7.5v5.6s0,.1,0,.1c0,0,.5.4,1.6.4,2.1,0,2.6-1.3,2.6-2.7s-.8-2-1.9-2-1.1.4-1.5.7v-3.2h0c-1,.2-.7,0-1.5.3v.2h0ZM35.5,89.9v-2.5c0-.2.8-.6,1-.6,1,0,1.5.8,1.5,1.8s-.4,1.9-1.4,1.9c-.3,0-1.1-.3-1.1-.7h0ZM39.8,89.8c0,.7.6,1.2,1.2,1.2s1.2-.6,1.4-.8c0,.2,0,.7.2.7s1.2-.2,1.3-.2v-.3c-.1,0-.2,0-.3,0-.3,0-.4-.1-.4-.5v-2c0-1-.3-1.6-1.4-1.6-.9,0-1.5.5-1.8,1.2l.3.2c.3-.5.5-.9,1.1-.9s1,.4,1,1.3l-1.3.4c-.7.2-1.3.5-1.3,1.3h0ZM40.7,89.6c0-.7,1.8-1.2,1.8-1.2v1.5c-.2.3-.7.6-1.1.6-.4,0-.7-.4-.7-.8h0ZM44.7,90.2c.3.7.5.8,1.3.8s1.9-.5,1.9-1.5c0-1.6-2.5-1-2.5-2.2s.4-.7.8-.7c.6,0,1,.4,1.1,1h.3s0-1.1,0-1.1c-.3-.1-.7-.2-1.1-.2-.8,0-1.7.4-1.7,1.4,0,1.5,2.4.9,2.4,2.2s-.5.8-1,.8c-1.2,0-1-.8-1.2-1.1h-.2c0-.1-.2.6-.2.6ZM48.8,88.8c0,1.3.8,2.2,2.1,2.2.5,0,1.4-.3,1.7-.9h-.1c-.4.1-.7.3-1.2.3-1.2,0-1.7-.9-1.7-2,0,0,.4,0,.9,0s.9,0,1.3,0l.8-.3c0-1.3-.7-1.9-1.6-1.9s-.8.2-1.2.4c-.8.5-1.1,1.2-1.1,2.1h0ZM49.7,88.1c0-.7.4-1.4,1.2-1.4s1,.5,1,1-.1.4-.4.5c-.1,0-.9,0-1.1,0-.6,0-.7,0-.7,0h0ZM53.6,90.2c.3.7.5.8,1.3.8s1.9-.5,1.9-1.5c0-1.6-2.5-1-2.5-2.2s.4-.7.8-.7c.6,0,1,.4,1.1,1h.3s0-1.1,0-1.1c-.3-.1-.7-.2-1.1-.2-.8,0-1.7.4-1.7,1.4,0,1.5,2.4.9,2.4,2.2s-.5.8-1,.8c-1.2,0-1-.8-1.2-1.1h-.2c0-.1-.2.6-.2.6Z"/>
  <path d="M60.2,89.8c0,.7.6,1.2,1.2,1.2s1.2-.6,1.4-.8c0,.2,0,.7.2.7s1.2-.2,1.3-.2v-.3c-.1,0-.2,0-.3,0-.3,0-.4-.1-.4-.5v-2c0-1-.3-1.6-1.4-1.6-.9,0-1.5.5-1.8,1.2l.3.2c.3-.5.5-.9,1.1-.9s1,.4,1,1.3l-1.3.4c-.7.2-1.3.5-1.3,1.3h0ZM61.1,89.6c0-.7,1.8-1.2,1.8-1.2v1.5c-.2.3-.7.6-1.1.6-.4,0-.7-.4-.7-.8h0ZM65,90.9c.4,0,.8,0,1.2,0s.8,0,1.2,0v-.3c-.6,0-.7,0-.7-.7v-2.3c.2-.4.7-.7,1.2-.7.7,0,1,.6,1,.9v2c0,.2,0,.8-.4.8v.2c.3,0,.6,0,.9,0s.6,0,.9,0v-.3c-.6,0-.7,0-.7-.7v-2c0-1-.5-1.5-1.5-1.5s-1.1.3-1.5.8v-.8h0c-1,.2-.7.2-1.5.3v.2c.7,0,.7,0,.7.7v2.3c0,.7-.1.7-.8.7v.3h0ZM71,88.8c0,1.2.8,2.2,2.1,2.2s1.2-.4,1.5-.8v.8c.9-.1.6-.1,1.6-.2v-.2c-.6,0-.8,0-.8-.6v-6.1h0c-.9.1-.6,0-1.5.3v.2c.6,0,.8,0,.8.5v1.7s-.6-.2-.9-.2c-1.4,0-2.6,1.1-2.6,2.5h0ZM71.9,88.5c0-.9.4-1.8,1.4-1.8s1.2.2,1.2.6v2.1c0,.6-.7,1-1.2,1-1,0-1.4-1.1-1.4-1.9h0Z"/>
  <path d="M79.4,88.8c0,1.3.9,2.3,2.2,2.3s2.4-1.1,2.4-2.5-1-2.3-2.3-2.3-2.3,1.1-2.3,2.5h0ZM80.3,88.4c0-.8.3-1.8,1.3-1.8s1.5,1.4,1.5,2.2-.2,1.8-1.2,1.8c-1.2,0-1.5-1.4-1.5-2.3h0ZM84.5,90.9c.4,0,.8,0,1.2,0s.8,0,1.2,0v-.3c-.6,0-.7,0-.7-.7v-2.3c.2-.4.7-.7,1.2-.7.7,0,1,.6,1,.9v2c0,.2,0,.8-.4.8v.2c.3,0,.6,0,.9,0s.6,0,.9,0v-.3c-.6,0-.7,0-.7-.7v-2c0-1-.5-1.5-1.5-1.5s-1.1.3-1.5.8v-.8h0c-1,.2-.7.2-1.5.3v.2c.7,0,.7,0,.7.7v2.3c0,.7-.1.7-.8.7v.3h0ZM90.6,88.8c0,1.3.8,2.2,2.1,2.2.5,0,1.4-.3,1.7-.9h-.1c-.4.1-.7.3-1.2.3-1.2,0-1.7-.9-1.7-2,0,0,.4,0,.9,0s.9,0,1.3,0l.8-.3c0-1.3-.7-1.9-1.6-1.9s-.8.2-1.2.4c-.8.5-1.1,1.2-1.1,2.1h0ZM91.4,88.1c0-.7.4-1.4,1.2-1.4s1,.5,1,1-.1.4-.4.5c-.1,0-.9,0-1.1,0-.6,0-.7,0-.7,0h0ZM95.3,90.2c.3.7.5.8,1.3.8s1.9-.5,1.9-1.5c0-1.6-2.5-1-2.5-2.2s.4-.7.8-.7c.6,0,1,.4,1.1,1h.3s0-1.1,0-1.1c-.3-.1-.7-.2-1.1-.2-.8,0-1.7.4-1.7,1.4,0,1.5,2.4.9,2.4,2.2s-.5.8-1,.8c-1.2,0-1-.8-1.2-1.1h-.2c0-.1-.2.6-.2.6Z"/>
  <path d="M101.9,90.9c.4,0,.8,0,1.2,0s.8,0,1.2,0v-.3c-.7,0-.9,0-.9-.7v-2.9h1.2v-.4c0,0-1.2,0-1.2,0,0-.1,0-.4,0-.7,0-.7,0-1.6.7-1.6s.7.3.9.3.2-.3.2-.5c0-.3-.5-.4-.7-.4-.8,0-1.4.6-1.7,1.2-.2.4-.2,1-.2,1.7h-.7s0,.4,0,.4h.7s0,2.9,0,2.9c0,.7-.1.6-.7.7v.3h0ZM105.5,90.9c.4,0,.8,0,1.2,0s.8,0,1.2,0v-.3c-.7,0-.9,0-.9-.7v-1.9c0-.3.4-.9.8-.9s.5.2.5.3h.1s.4-.7.4-.7c0-.2-.4-.4-.6-.4-.5,0-1.1.6-1.3,1v-1h0c-.8.2-.6.1-1.5.3v.2c.7,0,.7,0,.7.7v2.3c0,.7-.1.6-.8.7v.3ZM109.5,88.8c0,1.3.9,2.3,2.2,2.3s2.4-1.1,2.4-2.5-1-2.3-2.3-2.3-2.3,1.1-2.3,2.5h0ZM110.4,88.4c0-.8.3-1.8,1.3-1.8s1.5,1.4,1.5,2.2-.2,1.8-1.2,1.8c-1.2,0-1.5-1.4-1.5-2.3h0ZM114.7,90.9s.7,0,1.1,0,.8,0,1.2,0v-.3c-.6,0-.7,0-.7-.7v-2.3c.2-.4.7-.7,1.2-.7.7,0,.9.6.9,1.1v1.9c0,.7-.1.6-.8.7v.3s.7,0,1.1,0,.8,0,1.2,0v-.3c-.7,0-.7,0-.7-.7v-2.3c.2-.4.7-.7,1.2-.7.7,0,.9.6.9,1.2v1.8c0,.2,0,.8-.3.8v.2c.3,0,.6,0,.9,0s.7,0,1,0v-.3c-.7,0-.7,0-.7-.7v-2.1c0-.9-.5-1.5-1.4-1.5s-1.2.4-1.6.9c-.2-.6-.7-.9-1.3-.9s-1.1.4-1.5.8v-.8h0c-.9.2-.6.1-1.5.3v.2c.7,0,.7,0,.7.7v2.3c0,.7-.1.6-.8.7v.3h0Z"/>
  <path d="M125.9,90.9h2.6c1.7,0,2.7-.9,2.7-2.2s-.8-1.3-1.5-1.5c.8-.2,1.7-.8,1.7-1.8s-.9-1.3-1.8-1.3h-2.7v.2c.6,0,.8,0,.8.4s-.6,3.5-.8,5c-.1.6-.2.7-.8.8v.2ZM127.6,90.1c0-.3.5-2.6.5-2.6h.7c.9,0,1.6.4,1.6,1.3s-.6,1.8-1.9,1.8c-.5,0-.8,0-.8-.4h0ZM128.1,87.2l.5-2.5c0-.2.4-.2.6-.2.8,0,1.3.3,1.3,1.1s-.7,1.6-1.8,1.6h-.6Z"/>
  <path class="st3" d="M102.6,145.1c45-12.1,74.5-12.1,118.2-.4"/>
  <path class="st1" d="M219.5,142c0,1.5.6,2.4,1.4,2.8-.9,0-1.9.5-2.6,1.8"/>
  <path d="M124.6,146.7s.7,0,1.1,0,.7,0,1.1,0v-.3c-.2,0-.8,0-.8-.3s.5-1.4.6-1.8h2.5c.1.3.7,1.6.7,1.8s-.6.3-.8.3v.3c.4,0,.8,0,1.3,0s.8,0,1.3,0v-.3c-.8,0-.8-.3-1.1-1l-2.2-5.5h-.3s-2.4,5.8-2.4,5.8c-.3.6-.3.7-1,.8v.3h0ZM126.8,144l1.1-2.7,1.1,2.7h-2.1ZM132.3,144.6c0,1.2.8,2.2,2.1,2.2s1.2-.4,1.5-.8v.8c.9-.1.6-.1,1.6-.2v-.2c-.6,0-.8,0-.8-.6v-6.1h0c-.9.1-.6,0-1.5.3v.2c.6,0,.8,0,.8.5v1.7s-.6-.2-.9-.2c-1.4,0-2.6,1.1-2.6,2.5h0ZM133.1,144.4c0-.9.4-1.8,1.4-1.8s1.2.2,1.2.6v2.1c0,.6-.7,1-1.2,1-1,0-1.4-1.1-1.4-1.9h0ZM138.2,144.6c0,1.2.8,2.2,2.1,2.2s1.2-.4,1.5-.8v.8c.9-.1.6-.1,1.6-.2v-.2c-.6,0-.8,0-.8-.6v-6.1h0c-.9.1-.6,0-1.5.3v.2c.6,0,.8,0,.8.5v1.7s-.6-.2-.9-.2c-1.4,0-2.6,1.1-2.6,2.5h0ZM139.1,144.4c0-.9.4-1.8,1.4-1.8s1.2.2,1.2.6v2.1c0,.6-.7,1-1.2,1-1,0-1.4-1.1-1.4-1.9h0Z"/>
  <path d="M146.4,140.2c.5,0,.7,0,.7.5v5.6s0,.1,0,.1c0,0,.5.4,1.6.4,2.1,0,2.6-1.3,2.6-2.7s-.8-2-1.9-2-1.1.4-1.5.7v-3.2h0c-1,.2-.7,0-1.5.3v.2ZM147.9,145.8v-2.5c0-.2.8-.6,1-.6,1,0,1.5.8,1.5,1.8s-.4,1.9-1.4,1.9c-.3,0-1.1-.3-1.1-.7h0ZM152.2,145.7c0,.7.6,1.2,1.2,1.2s1.2-.6,1.4-.8c0,.2,0,.7.2.7s1.2-.2,1.3-.2v-.3c-.1,0-.2,0-.3,0-.3,0-.4-.1-.4-.5v-2c0-1-.3-1.6-1.4-1.6-.9,0-1.5.5-1.8,1.2l.3.2c.3-.5.5-.9,1.1-.9s1,.4,1,1.3l-1.3.4c-.7.2-1.3.5-1.3,1.3h0ZM153,145.5c0-.7,1.8-1.2,1.8-1.2v1.5c-.2.3-.7.6-1.1.6-.4,0-.7-.4-.7-.8h0ZM157.1,146c.3.7.5.8,1.3.8s1.9-.5,1.9-1.5c0-1.6-2.5-1-2.5-2.2s.4-.7.8-.7c.6,0,1,.4,1.1,1h.3s0-1.1,0-1.1c-.3-.1-.7-.2-1.1-.2-.8,0-1.7.4-1.7,1.4,0,1.5,2.4.9,2.4,2.2s-.5.8-1,.8c-1.2,0-1-.8-1.2-1.1h-.2c0-.1-.2.6-.2.6ZM161.2,144.6c0,1.3.8,2.2,2.1,2.2.5,0,1.4-.3,1.7-.9h-.1c-.4.1-.7.3-1.2.3-1.2,0-1.7-.9-1.7-2,0,0,.4,0,.9,0s.9,0,1.3,0l.8-.3c0-1.3-.7-1.9-1.6-1.9s-.8.2-1.2.4c-.8.5-1.1,1.2-1.1,2.1h0ZM162.1,143.9c0-.7.4-1.4,1.2-1.4s1,.5,1,1-.1.4-.4.5c-.1,0-.9,0-1.1,0-.6,0-.7,0-.7,0h0ZM165.9,146c.3.7.5.8,1.3.8s1.9-.5,1.9-1.5c0-1.6-2.5-1-2.5-2.2s.4-.7.8-.7c.6,0,1,.4,1.1,1h.3s0-1.1,0-1.1c-.3-.1-.7-.2-1.1-.2-.8,0-1.7.4-1.7,1.4,0,1.5,2.4.9,2.4,2.2s-.5.8-1,.8c-1.2,0-1-.8-1.2-1.1h-.2c0-.1-.2.6-.2.6Z"/>
  <path d="M172.6,144.7c0,1.3.9,2.2,2.2,2.2s1.4-.4,1.6-.9h-.1c-.4.1-.7.3-1.1.3-1.1,0-1.7-1-1.7-2s.4-1.6,1.3-1.6.8,0,.9.3l.2.4h.2s.2-.8.2-.8c-.2-.3-.9-.4-1.1-.4-1.4,0-2.6,1.1-2.6,2.5h0ZM176.9,140.2c.5,0,.8-.1.8.5v5c0,.7,0,.7-.7.7v.3c.4,0,.8,0,1.1,0s.8,0,1.1,0v-.3c-.7,0-.7,0-.7-.7v-2.3c0-.4.8-.7,1.1-.7.7,0,1,.5,1,1.2v1.8c0,.2,0,.8-.3.8v.2c.3,0,.6,0,.9,0s.6,0,.9,0v-.3c-.6,0-.7,0-.7-.7v-2c0-1-.5-1.6-1.5-1.6s-1.5.8-1.5.8v-3.3h0c-.5,0-1,.2-1.5.3v.2h0ZM182.9,142.7c.6,0,.7,0,.7.6v2c0,.9.3,1.5,1.3,1.5s1.3-.3,1.6-.9v.8h0c.9-.1.6,0,1.5-.1v-.3c-.6,0-.8,0-.8-.6v-3.5h0c-.9.1-.6,0-1.6.2v.2c.6,0,.8,0,.8.6v1.6c0,.5-.6,1.3-1.2,1.3s-.9-.5-.9-1.2v-2.8h0c-.9.1-.6,0-1.5.2v.2h0ZM188.7,146.7c.4,0,.8,0,1.2,0s.8,0,1.2,0v-.3c-.6,0-.7,0-.7-.7v-2.3c.2-.4.7-.7,1.2-.7.7,0,1,.6,1,.9v2c0,.2,0,.8-.4.8v.2c.3,0,.6,0,.9,0s.6,0,.9,0v-.3c-.6,0-.7,0-.7-.7v-2c0-1-.5-1.5-1.5-1.5s-1.1.3-1.5.8v-.8h0c-1,.2-.7.2-1.5.3v.2c.7,0,.7,0,.7.7v2.3c0,.7-.1.7-.8.7v.3h0ZM194.7,146.7s.7,0,1.3,0,.7,0,1.1,0v-.3c-.7,0-.8,0-.8-.7v-1.3h.1c0,0,2.2,2.3,2.2,2.3h1.1v-.4c-.3,0-.6-.3-.8-.5l-1.7-1.9,1.1-1c.5-.4.5-.4,1.1-.5v-.3h-1.6s0,.3,0,.3h.2s-1.7,1.7-1.7,1.7v-4.6h0c-.9.1-.6,0-1.5.3v.2c.5,0,.8-.1.8.5v5.1c0,.7-.1.6-.8.7v.3h0Z"/>
  <path class="st3" d="M249.8,145.1c22.4-6,22.4,13.4,1.3,7.8"/>
  <path class="st1" d="M252.4,155.7c0-1.5-.6-2.4-1.4-2.8.9,0,1.9-.5,2.6-1.8"/>
  <path d="M270.5,146.4c.5,0,.9,0,1.4,0s.9,0,1.4,0v-.3c-.9,0-.9-.1-.9-1.1v-4c0-1,0-1,.9-1.1v-.3c-.4,0-.9,0-1.3,0s-1,0-1.4,0v.3c.9,0,.9.1.9,1.1v4c0,1,0,1-.9,1.1v.3ZM274.1,146.4c.4,0,.8,0,1.2,0s.8,0,1.2,0v-.3c-.7,0-.9,0-.9-.7v-2.9h1.2v-.4c0,0-1.2,0-1.2,0,0-.1,0-.4,0-.7,0-.7,0-1.6.7-1.6s.7.3.9.3.2-.3.2-.5c0-.3-.5-.4-.7-.4-.8,0-1.4.6-1.7,1.2-.2.4-.2,1-.2,1.7h-.7s0,.4,0,.4h.7s0,2.9,0,2.9c0,.7-.1.6-.7.7v.3h0Z"/>
  <path d="M280.2,144.2c0,1.3.9,2.3,2.2,2.3s2.4-1.1,2.4-2.5-1-2.3-2.3-2.3-2.3,1.1-2.3,2.5h0ZM281.1,143.9c0-.8.3-1.8,1.3-1.8s1.5,1.4,1.5,2.2-.2,1.8-1.2,1.8-1.5-1.4-1.5-2.3h0ZM285.3,146.4c.4,0,.8,0,1.2,0s.8,0,1.2,0v-.3c-.6,0-.7,0-.7-.7v-2.3c.2-.4.7-.7,1.2-.7.7,0,1,.6,1,.9v2c0,.2,0,.8-.4.8v.2c.3,0,.6,0,.9,0s.6,0,.9,0v-.3c-.6,0-.7,0-.7-.7v-2c0-1-.5-1.5-1.5-1.5s-1.1.3-1.5.8v-.8h0c-1,.2-.7.2-1.5.3v.2c.7,0,.7,0,.7.7v2.3c0,.7-.1.7-.8.7v.3h0ZM291.3,144.3c0,1.3.8,2.2,2.1,2.2.5,0,1.4-.3,1.7-.9h-.1c-.4.1-.7.3-1.2.3-1.2,0-1.7-.9-1.7-2,0,0,.4,0,.9,0s.9,0,1.3,0l.8-.3c0-1.3-.7-1.9-1.6-1.9s-.8.2-1.2.4c-.8.5-1.1,1.2-1.1,2.1h0ZM292.2,143.6c0-.7.4-1.4,1.2-1.4s1,.5,1,1-.1.4-.4.5c-.1,0-.9,0-1.1,0-.6,0-.7,0-.7,0h0ZM296.1,145.7c.3.7.5.8,1.3.8s1.9-.5,1.9-1.5c0-1.6-2.5-1-2.5-2.2s.4-.7.8-.7c.6,0,1,.4,1.1,1h.3s0-1.1,0-1.1c-.3-.1-.7-.2-1.1-.2-.8,0-1.7.4-1.7,1.4,0,1.5,2.4.9,2.4,2.2s-.5.8-1,.8c-1.2,0-1-.8-1.2-1.1h-.2c0-.1-.2.6-.2.6Z"/>
  <path d="M302.7,146.4c.4,0,.8,0,1.2,0s.8,0,1.2,0v-.3c-.7,0-.9,0-.9-.7v-1.9c0-.3.4-.9.8-.9s.5.2.5.3h.1s.4-.7.4-.7c0-.2-.4-.4-.6-.4-.5,0-1.1.6-1.3,1v-1h0c-.8.2-.6.1-1.5.3v.2c.7,0,.7,0,.7.7v2.3c0,.7-.1.6-.8.7v.3h0ZM306.8,144.3c0,1.3.8,2.2,2.1,2.2.5,0,1.4-.3,1.7-.9h-.1c-.4.1-.7.3-1.2.3-1.2,0-1.7-.9-1.7-2,0,0,.4,0,.9,0s.9,0,1.3,0l.8-.3c0-1.3-.7-1.9-1.6-1.9s-.8.2-1.2.4c-.8.5-1.1,1.2-1.1,2.1h0ZM307.6,143.6c0-.7.4-1.4,1.2-1.4s1,.5,1,1-.1.4-.4.5c-.1,0-.9,0-1.1,0-.6,0-.7,0-.7,0h0ZM311.4,146.4s.7,0,1.1,0,.8,0,1.2,0v-.3c-.6,0-.7,0-.7-.7v-2.3c.2-.4.7-.7,1.2-.7.7,0,.9.6.9,1.1v1.9c0,.7-.1.6-.8.7v.3s.7,0,1.1,0,.8,0,1.2,0v-.3c-.7,0-.7,0-.7-.7v-2.3c.2-.4.7-.7,1.2-.7.7,0,.9.6.9,1.2v1.8c0,.2,0,.8-.3.8v.2c.3,0,.6,0,.9,0s.7,0,1,0v-.3c-.7,0-.7,0-.7-.7v-2.1c0-.9-.5-1.5-1.4-1.5s-1.2.4-1.6.9c-.2-.6-.7-.9-1.3-.9s-1.1.4-1.5.8v-.8h0c-.9.2-.6.1-1.5.3v.2c.7,0,.7,0,.7.7v2.3c0,.7-.1.6-.8.7v.3h0ZM320.3,145.3c0,.7.6,1.2,1.2,1.2s1.2-.6,1.4-.8c0,.2,0,.7.2.7s1.2-.2,1.3-.2v-.3c-.1,0-.2,0-.3,0-.3,0-.4-.1-.4-.5v-2c0-1-.3-1.6-1.4-1.6-.9,0-1.5.5-1.8,1.2l.3.2c.3-.5.5-.9,1.1-.9s1,.4,1,1.3l-1.3.4c-.7.2-1.3.5-1.3,1.3h0ZM321.1,145.1c0-.7,1.8-1.2,1.8-1.2v1.5c-.2.3-.7.6-1.1.6s-.7-.4-.7-.8h0ZM325.1,146.4c.4,0,.8,0,1.2,0s.8,0,1.2,0v-.3c-.7,0-.8,0-.8-.7v-3.5h0c0,0-1.5.3-1.5.3v.2c.7,0,.7,0,.7.7v2.3c0,.7-.1.6-.8.7v.3ZM325.7,140.6c0,.3.2.5.5.5s.5-.2.5-.5-.2-.6-.5-.6-.5.3-.5.6h0ZM328,146.4c.4,0,.8,0,1.2,0s.8,0,1.2,0v-.3c-.6,0-.7,0-.7-.7v-2.3c.2-.4.7-.7,1.2-.7.7,0,1,.6,1,.9v2c0,.2,0,.8-.4.8v.2c.3,0,.6,0,.9,0s.6,0,.9,0v-.3c-.6,0-.7,0-.7-.7v-2c0-1-.5-1.5-1.5-1.5s-1.1.3-1.5.8v-.8h0c-1,.2-.7.2-1.5.3v.2c.7,0,.7,0,.7.7v2.3c0,.7-.1.7-.8.7v.3h0ZM334.3,145.8c0,.3.2.6.6.6s.6-.3.6-.6-.3-.6-.6-.6-.6.3-.6.6h0ZM334.3,142.5c0,.3.2.6.6.6s.6-.3.6-.6-.3-.6-.6-.6-.6.3-.6.6h0Z"/>
  <path d="M270.5,157.2c0,.7.6,1.2,1.2,1.2s1.2-.6,1.4-.8c0,.2,0,.7.2.7s1.2-.2,1.3-.2v-.3c-.1,0-.2,0-.3,0-.3,0-.4-.1-.4-.5v-2c0-1-.3-1.6-1.4-1.6-.9,0-1.5.5-1.8,1.2l.3.2c.3-.5.5-.9,1.1-.9s1,.4,1,1.3l-1.3.4c-.7.2-1.3.5-1.3,1.3h0ZM271.4,157.1c0-.7,1.8-1.2,1.8-1.2v1.5c-.2.3-.7.6-1.1.6-.4,0-.7-.4-.7-.8h0ZM275.5,156.2c0,1.2.8,2.2,2.1,2.2s1.2-.4,1.5-.8v.8c.9-.1.6-.1,1.6-.2v-.2c-.6,0-.8,0-.8-.6v-6.1h0c-.9.1-.6,0-1.5.3v.2c.6,0,.8,0,.8.5v1.7s-.6-.2-.9-.2c-1.4,0-2.6,1.1-2.6,2.5h0ZM276.3,155.9c0-.9.4-1.8,1.4-1.8s1.2.2,1.2.6v2.1c0,.6-.7,1-1.2,1-1,0-1.4-1.1-1.4-1.9h0ZM281.4,156.2c0,1.2.8,2.2,2.1,2.2s1.2-.4,1.5-.8v.8c.9-.1.6-.1,1.6-.2v-.2c-.6,0-.8,0-.8-.6v-6.1h0c-.9.1-.6,0-1.5.3v.2c.6,0,.8,0,.8.5v1.7s-.6-.2-.9-.2c-1.4,0-2.6,1.1-2.6,2.5h0ZM282.3,155.9c0-.9.4-1.8,1.4-1.8s1.2.2,1.2.6v2.1c0,.6-.7,1-1.2,1-1,0-1.4-1.1-1.4-1.9h0Z"/>
  <path d="M289.7,156.2c0,1.3.9,2.3,2.2,2.3s2.4-1.1,2.4-2.5-1-2.3-2.3-2.3-2.3,1.1-2.3,2.5h0ZM290.6,155.8c0-.8.3-1.8,1.3-1.8s1.5,1.4,1.5,2.2-.2,1.8-1.2,1.8c-1.2,0-1.5-1.4-1.5-2.3h0ZM294.9,158.3c.4,0,.8,0,1.2,0s.8,0,1.2,0v-.3c-.6,0-.7,0-.7-.7v-2.3c.2-.4.7-.7,1.2-.7.7,0,1,.6,1,.9v2c0,.2,0,.8-.4.8v.2c.3,0,.6,0,.9,0s.6,0,.9,0v-.3c-.6,0-.7,0-.7-.7v-2c0-1-.5-1.5-1.5-1.5s-1.1.3-1.5.8v-.8h0c-1,.2-.7.2-1.5.3v.2c.7,0,.7,0,.7.7v2.3c0,.7-.1.7-.8.7v.3h0ZM300.9,156.2c0,1.3.8,2.2,2.1,2.2.5,0,1.4-.3,1.7-.9h-.1c-.4.1-.7.3-1.2.3-1.2,0-1.7-.9-1.7-2,0,0,.4,0,.9,0s.9,0,1.3,0l.8-.3c0-1.3-.7-1.9-1.6-1.9s-.8.2-1.2.4c-.8.5-1.1,1.2-1.1,2.1h0ZM301.8,155.5c0-.7.4-1.4,1.2-1.4s1,.5,1,1-.1.4-.4.5c-.1,0-.9,0-1.1,0-.6,0-.7,0-.7,0h0ZM305.6,157.6c.3.7.5.8,1.3.8s1.9-.5,1.9-1.5c0-1.6-2.5-1-2.5-2.2s.4-.7.8-.7c.6,0,1,.4,1.1,1h.3s0-1.1,0-1.1c-.3-.1-.7-.2-1.1-.2-.8,0-1.7.4-1.7,1.4,0,1.5,2.4.9,2.4,2.2s-.5.8-1,.8c-1.2,0-1-.8-1.2-1.1h-.2c0-.1-.2.6-.2.6Z"/>
  <path d="M312.3,156.3c0,1.3.9,2.2,2.2,2.2s1.4-.4,1.6-.9h-.1c-.4.1-.7.3-1.1.3-1.1,0-1.7-1-1.7-2s.4-1.6,1.3-1.6.8,0,.9.3l.2.4h.2s.2-.8.2-.8c-.2-.3-.9-.4-1.1-.4-1.4,0-2.6,1.1-2.6,2.5h0ZM316.6,151.7c.5,0,.8-.1.8.5v5c0,.7,0,.7-.7.7v.3c.4,0,.8,0,1.1,0s.8,0,1.1,0v-.3c-.7,0-.7,0-.7-.7v-2.3c0-.4.8-.7,1.1-.7.7,0,1,.5,1,1.2v1.8c0,.2,0,.8-.3.8v.2c.3,0,.6,0,.9,0s.6,0,.9,0v-.3c-.6,0-.7,0-.7-.7v-2c0-1-.5-1.6-1.5-1.6s-1.5.8-1.5.8v-3.3h0c-.5,0-1,.2-1.5.3v.2h0ZM322.5,154.3c.6,0,.7,0,.7.6v2c0,.9.3,1.5,1.3,1.5s1.3-.3,1.6-.9v.8h0c.9-.1.6,0,1.5-.1v-.3c-.6,0-.8,0-.8-.6v-3.5h0c-.9.1-.6,0-1.6.2v.2c.6,0,.8,0,.8.6v1.6c0,.5-.6,1.3-1.2,1.3s-.9-.5-.9-1.2v-2.8h0c-.9.1-.6,0-1.5.2v.2h0ZM328.4,158.3c.4,0,.8,0,1.2,0s.8,0,1.2,0v-.3c-.6,0-.7,0-.7-.7v-2.3c.2-.4.7-.7,1.2-.7.7,0,1,.6,1,.9v2c0,.2,0,.8-.4.8v.2c.3,0,.6,0,.9,0s.6,0,.9,0v-.3c-.6,0-.7,0-.7-.7v-2c0-1-.5-1.5-1.5-1.5s-1.1.3-1.5.8v-.8h0c-1,.2-.7.2-1.5.3v.2c.7,0,.7,0,.7.7v2.3c0,.7-.1.7-.8.7v.3h0ZM334.4,158.3s.7,0,1.3,0,.7,0,1.1,0v-.3c-.7,0-.8,0-.8-.7v-1.3h.1c0,0,2.2,2.3,2.2,2.3h1.1v-.4c-.3,0-.6-.3-.8-.5l-1.7-1.9,1.1-1c.5-.4.5-.4,1.1-.5v-.3h-1.6s0,.3,0,.3h.2s-1.7,1.7-1.7,1.7v-4.6h0c-.9.1-.6,0-1.5.3v.2c.5,0,.8-.1.8.5v5.1c0,.7-.1.6-.8.7v.3h0Z"/>
  <path class="st3" d="M225.8,138.7c-31.7-30.8-45.9-54.5-57.7-95.7"/>
  <path class="st1" d="M166.4,45.4c1.3-.8,1.7-1.8,1.7-2.6.5.7,1.4,1.4,2.9,1.3"/>
  <path d="M193,84.4c.6,0,.7.2.9.7l1.6,5.7h.4l1.9-5.2,1.9,5.2h.4l1.7-5.8c.2-.5.3-.6.9-.7v-.3s-.5,0-.9,0-.9,0-1.2,0v.3c.5,0,.8,0,.8.3s-1.3,4.8-1.3,4.8l-1.9-5.3h-.3l-1.9,5.3s-1.2-4.3-1.2-4.6.2-.4.7-.4v-.3s-.7,0-1.2,0-.9,0-1.2,0v.3ZM203,84.3c.5,0,.8-.1.8.5v5c0,.7,0,.7-.7.7v.3c.4,0,.8,0,1.1,0s.8,0,1.1,0v-.3c-.7,0-.7,0-.7-.7v-2.3c0-.4.8-.7,1.1-.7.7,0,1,.5,1,1.2v1.8c0,.2,0,.8-.3.8v.2c.3,0,.6,0,.9,0s.6,0,.9,0v-.3c-.6,0-.7,0-.7-.7v-2c0-1-.5-1.6-1.5-1.6s-1.5.8-1.5.8v-3.3h0c-.5,0-1,.2-1.5.3v.2h0ZM209,88.8c0,1.3.8,2.2,2.1,2.2.5,0,1.4-.3,1.7-.9h-.1c-.4.1-.7.3-1.2.3-1.2,0-1.7-.9-1.7-2,0,0,.4,0,.9,0s.9,0,1.3,0l.8-.3c0-1.3-.7-1.9-1.6-1.9s-.8.2-1.2.4c-.8.5-1.1,1.2-1.1,2.1h0ZM209.9,88.1c0-.7.4-1.4,1.2-1.4s1,.5,1,1-.1.4-.4.5c-.1,0-.9,0-1.1,0-.6,0-.7,0-.7,0h0ZM213.6,90.9c.4,0,.8,0,1.2,0s.8,0,1.2,0v-.3c-.6,0-.7,0-.7-.7v-2.3c.2-.4.7-.7,1.2-.7.7,0,1,.6,1,.9v2c0,.2,0,.8-.4.8v.2c.3,0,.6,0,.9,0s.6,0,.9,0v-.3c-.6,0-.7,0-.7-.7v-2c0-1-.5-1.5-1.5-1.5s-1.1.3-1.5.8v-.8h0c-1,.2-.7.2-1.5.3v.2c.7,0,.7,0,.7.7v2.3c0,.7-.1.7-.8.7v.3h0Z"/>
  <path d="M222.1,88.8c0,1.3.9,2.3,2.2,2.3s2.4-1.1,2.4-2.5-1-2.3-2.3-2.3-2.3,1.1-2.3,2.5h0ZM223,88.4c0-.8.3-1.8,1.3-1.8s1.5,1.4,1.5,2.2-.2,1.8-1.2,1.8c-1.2,0-1.5-1.4-1.5-2.3h0ZM227.2,90.9c.4,0,.8,0,1.2,0s.8,0,1.2,0v-.3c-.6,0-.7,0-.7-.7v-2.3c.2-.4.7-.7,1.2-.7.7,0,1,.6,1,.9v2c0,.2,0,.8-.4.8v.2c.3,0,.6,0,.9,0s.6,0,.9,0v-.3c-.6,0-.7,0-.7-.7v-2c0-1-.5-1.5-1.5-1.5s-1.1.3-1.5.8v-.8h0c-1,.2-.7.2-1.5.3v.2c.7,0,.7,0,.7.7v2.3c0,.7-.1.7-.8.7v.3h0ZM233.2,88.8c0,1.3.8,2.2,2.1,2.2.5,0,1.4-.3,1.7-.9h-.1c-.4.1-.7.3-1.2.3-1.2,0-1.7-.9-1.7-2,0,0,.4,0,.9,0s.9,0,1.3,0l.8-.3c0-1.3-.7-1.9-1.6-1.9s-.8.2-1.2.4c-.8.5-1.1,1.2-1.1,2.1h0ZM234.1,88.1c0-.7.4-1.4,1.2-1.4s1,.5,1,1-.1.4-.4.5c-.1,0-.9,0-1.1,0-.6,0-.7,0-.7,0h0ZM238,90.2c.3.7.5.8,1.3.8s1.9-.5,1.9-1.5c0-1.6-2.5-1-2.5-2.2s.4-.7.8-.7c.6,0,1,.4,1.1,1h.3s0-1.1,0-1.1c-.3-.1-.7-.2-1.1-.2-.8,0-1.7.4-1.7,1.4,0,1.5,2.4.9,2.4,2.2s-.5.8-1,.8c-1.2,0-1-.8-1.2-1.1h-.2c0-.1-.2.6-.2.6Z"/>
  <path d="M244.6,90.9c.4,0,.8,0,1.2,0s.8,0,1.2,0v-.3c-.6,0-.9,0-.9-.7v-2.9h1.5c.6,0,.8,0,.8.7v2.3c0,.7-.1.7-.8.7v.2c.4,0,.8,0,1.2,0s.8,0,1.2,0v-.2c-.6,0-.8,0-.8-.7v-3.5h0c-.5,0-1.1.2-1.6.2h-1.4c0-.1,0-.4,0-.7,0-.7,0-1.6.7-1.6s.5.2.7.2,0,0,0,0c0,0,.2-.3.2-.5s0-.1,0-.2c-.1-.1-.2-.1-.4-.1-.8,0-1.4.6-1.7,1.2-.2.4-.2.9-.2,1.4v.3h-.7s0,.4,0,.4h.7s0,2.9,0,2.9c0,.7-.1.6-.7.7v.3h0ZM248.2,84.6c0,.3.2.5.5.5s.5-.2.5-.5-.2-.6-.5-.6-.5.3-.5.6h0ZM250.7,90.9c.4,0,.8,0,1.2,0s.8,0,1.2,0v-.3c-.6,0-.7,0-.7-.7v-2.3c.2-.4.7-.7,1.2-.7.7,0,1,.6,1,.9v2c0,.2,0,.8-.4.8v.2c.3,0,.6,0,.9,0s.6,0,.9,0v-.3c-.6,0-.7,0-.7-.7v-2c0-1-.5-1.5-1.5-1.5s-1.1.3-1.5.8v-.8h0c-1,.2-.7.2-1.5.3v.2c.7,0,.7,0,.7.7v2.3c0,.7-.1.7-.8.7v.3h0ZM256.7,90.9c.4,0,.8,0,1.2,0s.8,0,1.2,0v-.3c-.7,0-.8,0-.8-.7v-3.5h0c0,0-1.5.3-1.5.3v.2c.7,0,.7,0,.7.7v2.3c0,.7-.1.6-.8.7v.3ZM257.3,85.2c0,.3.2.5.5.5s.5-.2.5-.5-.2-.6-.5-.6-.5.3-.5.6h0ZM259.7,90.2c.3.7.5.8,1.3.8s1.9-.5,1.9-1.5c0-1.6-2.5-1-2.5-2.2s.4-.7.8-.7c.6,0,1,.4,1.1,1h.3s0-1.1,0-1.1c-.3-.1-.7-.2-1.1-.2-.8,0-1.7.4-1.7,1.4,0,1.5,2.4.9,2.4,2.2s-.5.8-1,.8c-1.2,0-1-.8-1.2-1.1h-.2c0-.1-.2.6-.2.6ZM263.7,84.3c.5,0,.8-.1.8.5v5c0,.7,0,.7-.7.7v.3c.4,0,.8,0,1.1,0s.8,0,1.1,0v-.3c-.7,0-.7,0-.7-.7v-2.3c0-.4.8-.7,1.1-.7.7,0,1,.5,1,1.2v1.8c0,.2,0,.8-.3.8v.2c.3,0,.6,0,.9,0s.6,0,.9,0v-.3c-.6,0-.7,0-.7-.7v-2c0-1-.5-1.6-1.5-1.6s-1.5.8-1.5.8v-3.3h0c-.5,0-1,.2-1.5.3v.2h0ZM269.7,88.8c0,1.3.8,2.2,2.1,2.2.5,0,1.4-.3,1.7-.9h-.1c-.4.1-.7.3-1.2.3-1.2,0-1.7-.9-1.7-2,0,0,.4,0,.9,0s.9,0,1.3,0l.8-.3c0-1.3-.7-1.9-1.6-1.9s-.8.2-1.2.4c-.8.5-1.1,1.2-1.1,2.1h0ZM270.5,88.1c0-.7.4-1.4,1.2-1.4s1,.5,1,1-.1.4-.4.5c-.1,0-.9,0-1.1,0-.6,0-.7,0-.7,0h0ZM274.4,88.8c0,1.2.8,2.2,2.1,2.2s1.2-.4,1.5-.8v.8c.9-.1.6-.1,1.6-.2v-.2c-.6,0-.8,0-.8-.6v-6.1h0c-.9.1-.6,0-1.5.3v.2c.6,0,.8,0,.8.5v1.7s-.6-.2-.9-.2c-1.4,0-2.6,1.1-2.6,2.5h0ZM275.3,88.5c0-.9.4-1.8,1.4-1.8s1.2.2,1.2.6v2.1c0,.6-.7,1-1.2,1-1,0-1.4-1.1-1.4-1.9h0ZM280.6,90.4c0,.3.2.6.6.6s.6-.3.6-.6-.3-.6-.6-.6-.6.3-.6.6h0ZM280.6,87c0,.3.2.6.6.6s.6-.3.6-.6-.3-.6-.6-.6c-.3,0-.6.3-.6.6h0Z"/>
  <path d="M211.7,100.7c0,1.3.9,2.3,2.2,2.3s2.4-1.1,2.4-2.5-1-2.3-2.3-2.3-2.3,1.1-2.3,2.5h0ZM212.6,100.4c0-.8.3-1.8,1.3-1.8s1.5,1.4,1.5,2.2-.2,1.8-1.2,1.8c-1.2,0-1.5-1.4-1.5-2.3h0ZM217,98.8c.6,0,.7,0,.7.6v2c0,.9.3,1.5,1.3,1.5s1.3-.3,1.6-.9v.8h0c.9-.1.6,0,1.5-.1v-.3c-.6,0-.8,0-.8-.6v-3.5h0c-.9.1-.6,0-1.6.2v.2c.6,0,.8,0,.8.6v1.6c0,.5-.6,1.3-1.2,1.3s-.9-.5-.9-1.2v-2.8h0c-.9.1-.6,0-1.5.2v.2h0ZM222.9,98.6v.4h.7v2.8c0,.7.3,1.1,1,1.1s.8-.3,1.1-.6v-.2c-.3.1-.5.2-.7.2-.5,0-.6-.4-.6-.8v-2.6h1.2v-.4s-1.2,0-1.2,0v-1.5h0c-.5,0-.7.2-.7.8v.7h-.7ZM226.4,105.1v.3c.4,0,.8,0,1.2,0s.8,0,1.2,0v-.3c-.7,0-.9,0-.9-.7v-1.7c.2.1.6.2.8.2,2.1,0,2.6-1,2.6-2.8s-.8-1.9-1.9-1.9-1.1.3-1.6.8v-.8h0c-.9.2-.7.1-1.5.4v.2c.7,0,.8,0,.8.7v4.8c0,.7-.1.6-.8.7h0ZM228,102v-2.4c.2-.4.7-.7,1.2-.7,1,0,1.5.8,1.5,1.8s-.5,1.8-1.5,1.8-.8-.2-1.2-.5h0ZM232.4,98.8c.6,0,.7,0,.7.6v2c0,.9.3,1.5,1.3,1.5s1.3-.3,1.6-.9v.8h0c.9-.1.6,0,1.5-.1v-.3c-.6,0-.8,0-.8-.6v-3.5h0c-.9.1-.6,0-1.6.2v.2c.6,0,.8,0,.8.6v1.6c0,.5-.6,1.3-1.2,1.3s-.9-.5-.9-1.2v-2.8h0c-.9.1-.6,0-1.5.2v.2h0ZM238.3,98.6v.4h.7v2.8c0,.7.3,1.1,1,1.1s.8-.3,1.1-.6v-.2c-.3.1-.5.2-.7.2-.5,0-.6-.4-.6-.8v-2.6h1.2v-.4s-1.2,0-1.2,0v-1.5h0c-.5,0-.7.2-.7.8v.7h-.7Z"/>
  <path d="M244.5,101.1v1.5c.6.2,1.1.4,1.7.4,1.3,0,2.6-.8,2.6-2.2,0-2.4-3.5-1.2-3.5-3.1s.5-1.3,1.3-1.3c1.1,0,1.2.5,1.5,1.3h.3s0-1.4,0-1.4c-.5-.2-1-.3-1.5-.3-1.2,0-2.3.7-2.3,2,0,2.3,3.4,1.2,3.4,3.2s-.7,1.4-1.5,1.4c-1.6,0-1.4-1.1-1.7-1.4h-.3ZM249.6,98.8c.6,0,.7,0,.7.6v2c0,.9.3,1.5,1.3,1.5s1.3-.3,1.6-.9v.8h0c.9-.1.6,0,1.5-.1v-.3c-.6,0-.8,0-.8-.6v-3.5h0c-.9.1-.6,0-1.6.2v.2c.6,0,.8,0,.8.6v1.6c0,.5-.6,1.3-1.2,1.3s-.9-.5-.9-1.2v-2.8h0c-.9.1-.6,0-1.5.2v.2h0ZM255.5,102.8s.7,0,1.1,0,.8,0,1.2,0v-.3c-.6,0-.7,0-.7-.7v-2.3c.2-.4.7-.7,1.2-.7.7,0,.9.6.9,1.1v1.9c0,.7-.1.6-.8.7v.3s.7,0,1.1,0,.8,0,1.2,0v-.3c-.7,0-.7,0-.7-.7v-2.3c.2-.4.7-.7,1.2-.7.7,0,.9.6.9,1.2v1.8c0,.2,0,.8-.3.8v.2c.3,0,.6,0,.9,0s.7,0,1,0v-.3c-.7,0-.7,0-.7-.7v-2.1c0-.9-.5-1.5-1.4-1.5s-1.2.4-1.6.9c-.2-.6-.7-.9-1.3-.9s-1.1.4-1.5.8v-.8h0c-.9.2-.6.1-1.5.3v.2c.7,0,.7,0,.7.7v2.3c0,.7-.1.6-.8.7v.3h0Z"/>
</svg>