<?xml version="1.0" encoding="UTF-8"?>
<svg id="Layer_1" xmlns="http://www.w3.org/2000/svg" version="1.1" viewBox="0 0 273.3 207.9">
  <!-- Generator: Adobe Illustrator 29.4.0, SVG Export Plug-In . SVG Version: 2.1.0 Build 152)  -->
  <defs>
    <style>
      .st0 {
        stroke-width: 1.4px;
      }

      .st0, .st1, .st2, .st3 {
        fill: none;
      }

      .st0, .st1, .st3 {
        stroke: #000;
      }

      .st0, .st2, .st3 {
        stroke-miterlimit: 10;
      }

      .st1 {
        stroke-linecap: round;
        stroke-linejoin: round;
      }

      .st1, .st3 {
        stroke-width: .4px;
      }

      .st2 {
        stroke: #fff;
        stroke-width: .6px;
      }
    </style>
  </defs>
  <path class="st0" d="M132.7,21.3c0-11.4-9.2-20.6-20.6-20.6s-20.6,9.2-20.6,20.6,9.2,20.6,20.6,20.6,20.6-9.2,20.6-20.6h0Z"/>
  <path class="st2" d="M132.7,21.3c0-11.4-9.2-20.6-20.6-20.6s-20.6,9.2-20.6,20.6,9.2,20.6,20.6,20.6,20.6-9.2,20.6-20.6h0Z"/>
  <path d="M96.7,20.8c0,.5.2,1,.5,1,1,0,2.2-1.6,2.4-2l-.7,3.7c-.1.6-.3.5-.6.6v.2c.1,0,1.5-.1,1.6-.2v-.2c-.3,0-.4,0-.4-.2s1.2-6.4,1.2-6.4h0c0,0-.2,0-.2,0,0,0-.6-.2-.9-.2-1.4,0-2.9,1.5-2.9,3.8h0ZM97.5,20.4c0-1.7.9-3,1.7-3s.5,0,.8.2c0,.3-.3,1.2-.3,1.4-.6,1.1-1.5,2.1-1.9,2.1-.2,0-.3-.2-.3-.6h0Z"/>
  <path d="M101.5,21.7c0,.9.4,2.1,1.4,2.1s1.5-1.3,1.5-2.3-.4-2.1-1.4-2.1c-1.1,0-1.5,1.2-1.5,2.2h0ZM102.2,21.6c0-.6,0-1.8.8-1.8s.8,1.3.8,2,0,1.8-.8,1.8c-.8,0-.8-1.3-.8-2h0ZM105.2,24.3h.5l2-5.4h-.5l-2,5.4ZM108.5,23.2c0,.4.2.6.3.6.4,0,1.1-.8,1.6-1.4,0,.1-.3.7-.3,1.1s0,.3.2.3.6-.3,1.1-.7v-.2c-.2,0-.5.3-.6.3s0,0,0-.1c0-.4.4-1.8.6-2.6h0s-.3,0-.3,0c-.2,0-.3-.1-.5-.1-1.4,0-2,1.6-2,2.6h0ZM109,23c0-.8.5-2.2,1.2-2.2s.3,0,.5.1c0,.3-.2.8-.3,1-.1.2-.9,1.4-1.2,1.4-.1,0-.2-.1-.2-.3h0Z"/>
  <path d="M112,22.8c0,.6.3,1,.8,1s1.1-.4,1.4-.7h0c-.3,0-.7.3-1,.3s-.5-.3-.5-.8c0-1,.5-1.8,1-1.8s.5.2.5.3,0,.1,0,.2h.2c0-.2.2-.4.2-.5s-.3-.3-.6-.3c-1.2,0-1.9,1.1-1.9,2.3h0ZM115.2,22.8c0,.6.3,1,.8,1s1.1-.4,1.4-.7h0c-.3,0-.7.3-1,.3s-.5-.3-.5-.8c0-1,.5-1.8,1-1.8s.5.2.5.3,0,.1,0,.2h.2c0-.2.2-.4.2-.5s-.3-.3-.6-.3c-1.2,0-1.9,1.1-1.9,2.3h0ZM118.4,22.9c0,.7.4.9.8.9s.9-.2,1.5-.8h0c-.3.1-.7.4-1.1.4s-.5-.4-.5-.7,0-.2,0-.3c.6-.2,1.9-.5,1.9-1.3s-.2-.5-.6-.5c-1,0-1.9,1.2-1.9,2.4h0ZM119,22.2c0-.4.4-1.4.9-1.4s.3.1.3.4c0,.6-.8.9-1.3,1h0ZM121.4,25.5c.3,0,.8,0,1.1-.1,0,0,0-.2,0-.2-.2,0-.3-.1-.3-.3,0-.3.1-1,.2-1.3.1,0,.3.1.5.1,1.3,0,1.9-1.4,1.9-2.5s-.2-.8-.7-.8-.9.4-1.2.7c0-.2.1-.7.1-.7h0c-.2,0-.8.4-1.2.5v.2c.2,0,.4-.2.6-.2-.1.9-.6,4.3-1,4.3v.2ZM122.5,23.3s.3-1.5.3-1.6c.2-.4.6-.9.9-.9s.5.2.5.6-.4,2-1.2,2c-.2,0-.4,0-.5-.2h0Z"/>
  <path d="M125.6,21h.5s-.5,2.2-.5,2.4,0,.3.2.3c.3,0,1-.6,1.2-.8,0,0,0-.1,0-.1-.1.1-.5.4-.7.4s0,0,0-.2c0-.2.4-1.9.4-2.2h.8v-.3c0,0-.7,0-.7,0,0-.3.2-1,.3-1.1h0c0,0-.5.2-.6.3l-.2.9h-.5v.3Z"/>
  <line class="st3" x1="77.8" y1="21.3" x2="89.7" y2="21.3"/>
  <path class="st1" d="M87.8,18.9c.4,1.4,1.2,2.1,2.1,2.4-.9.3-1.7,1-2.1,2.4"/>
  <path d="M54.6,23.4c.3.7.5.8,1.3.8s1.9-.5,1.9-1.5c0-1.6-2.5-1-2.5-2.2s.4-.7.8-.7c.6,0,1,.4,1.1,1h.3s0-1.1,0-1.1c-.3-.1-.7-.2-1.1-.2-.8,0-1.7.4-1.7,1.4,0,1.5,2.4.9,2.4,2.2s-.5.8-1,.8c-1.2,0-1-.8-1.2-1.1h-.2c0-.1-.2.6-.2.6ZM58.6,19.9v.4h.7v2.8c0,.7.3,1.1,1,1.1s.8-.3,1.1-.6v-.2c-.3.1-.5.2-.7.2-.5,0-.6-.4-.6-.8v-2.6h1.2v-.4c0,0-1.2,0-1.2,0v-1.5h0c-.5,0-.7.2-.7.8v.7h-.7ZM62.2,23.1c0,.7.6,1.2,1.2,1.2s1.2-.6,1.4-.8c0,.2,0,.7.2.7s1.2-.2,1.3-.2v-.3c-.1,0-.2,0-.3,0-.3,0-.4-.1-.4-.5v-2c0-1-.3-1.6-1.4-1.6-.9,0-1.5.5-1.8,1.2l.3.2c.3-.5.5-.9,1.1-.9s1,.4,1,1.3l-1.3.4c-.7.2-1.3.5-1.3,1.3h0ZM63.1,22.9c0-.7,1.8-1.2,1.8-1.2v1.5c-.2.3-.7.6-1.1.6-.4,0-.7-.4-.7-.8h0ZM67,24.2c.4,0,.8,0,1.2,0s.8,0,1.2,0v-.3c-.7,0-.9,0-.9-.7v-1.9c0-.3.4-.9.8-.9s.5.2.5.3h.1s.4-.7.4-.7c0-.2-.4-.4-.6-.4-.5,0-1.1.6-1.3,1v-1h0c-.8.2-.6.1-1.5.3v.2c.7,0,.7,0,.7.7v2.3c0,.7-.1.6-.8.7v.3ZM71,19.9v.4h.7v2.8c0,.7.3,1.1,1,1.1s.8-.3,1.1-.6v-.2c-.3.1-.5.2-.7.2-.5,0-.6-.4-.6-.8v-2.6h1.2v-.4c0,0-1.2,0-1.2,0v-1.5h0c-.5,0-.7.2-.7.8v.7h-.7Z"/>
  <path class="st3" d="M215.1,106.3c0-9.9-8-18-18-18s-18,8-18,18,8,18,18,18,18-8,18-18h0Z"/>
  <path d="M184.4,106.5c0,.5.2,1,.5,1,1,0,2.2-1.6,2.4-2l-.7,3.7c-.1.6-.3.5-.6.6v.2c.1,0,1.5-.1,1.6-.2v-.2c-.3,0-.4,0-.4-.2s1.2-6.4,1.2-6.4h0c0,0-.2,0-.2,0,0,0-.6-.2-.9-.2-1.4,0-2.9,1.5-2.9,3.8h0ZM185.1,106.1c0-1.7.9-3,1.7-3s.5,0,.8.2c0,.3-.3,1.2-.3,1.4-.6,1.1-1.5,2.1-1.9,2.1-.2,0-.3-.2-.3-.6h0Z"/>
  <path d="M189,108c0,.9.6,1.5,1.4,1.5s.9-.3,1-.6v.5c.7-.1.5,0,1.1-.1v-.2c-.4,0-.6,0-.6-.5v-4.2h0c-.6,0-.4,0-1.1.2v.2c.4,0,.6,0,.6.4v1.2s-.4-.1-.6-.1c-.9,0-1.8.8-1.8,1.7h0ZM189.6,107.8c0-.6.3-1.2,1-1.2s.9.2.9.4v1.5c0,.4-.5.7-.8.7-.7,0-1-.7-1-1.3h0ZM193,107.9c0,.9.6,1.6,1.5,1.6s1.7-.8,1.7-1.7-.7-1.6-1.6-1.6-1.6.8-1.6,1.7h0ZM193.7,107.7c0-.6.2-1.2.9-1.2s1,.9,1,1.6-.2,1.3-.9,1.3-1.1-1-1.1-1.6h0ZM196.7,106.6c.4,0,.5,0,.5.4v1.4c0,.7.2,1.1.9,1.1s.9-.2,1.2-.6v.6h0c.6,0,.4,0,1.1,0v-.2c-.4,0-.5,0-.5-.4v-2.5h0c-.6,0-.4,0-1.1.2v.2c.4,0,.5,0,.5.4v1.2c0,.3-.4.9-.9.9s-.6-.4-.6-.8v-2h0c-.6,0-.4,0-1,.2v.2h0ZM200.7,104.8c.3,0,.5,0,.5.4v4s0,0,0,0c0,0,.4.3,1.1.3,1.4,0,1.8-.9,1.8-1.9s-.5-1.4-1.3-1.4-.8.3-1.1.5v-2.2h0c-.7.1-.5,0-1.1.2v.2h0ZM201.8,108.7v-1.7c0-.2.6-.4.7-.4.7,0,1.1.6,1.1,1.3s-.3,1.3-1,1.3c-.2,0-.8-.2-.8-.5h0ZM204.8,109.4s.5,0,.8,0,.5,0,.8,0v-.2c-.5,0-.5,0-.5-.5v-4.3h0c-.6,0-.4,0-1.1.2v.2c.4,0,.5,0,.5.4v3.5c0,.5,0,.5-.5.5v.2h0ZM207,108c0,.9.6,1.6,1.5,1.6.4,0,1-.2,1.2-.7h0c-.3.1-.5.2-.8.2-.8,0-1.2-.6-1.2-1.4,0,0,.3,0,.6,0s.6,0,.9,0l.6-.2c0-.9-.5-1.3-1.1-1.3s-.6.1-.8.3c-.5.3-.8.9-.8,1.5h0ZM207.6,107.5c0-.5.3-1,.8-1s.7.4.7.7,0,.3-.3.3c0,0-.6,0-.7,0-.4,0-.5,0-.5,0h0Z"/>
  <path class="st3" d="M128.4,191.3c0-9-7.3-16.3-16.3-16.3s-16.3,7.3-16.3,16.3,7.3,16.3,16.3,16.3,16.3-7.3,16.3-16.3h0Z"/>
  <path d="M101.2,191.5c0,.5.2,1,.5,1,1,0,2.2-1.6,2.4-2l-.7,3.7c-.1.6-.3.5-.6.6v.2c.1,0,1.5-.1,1.6-.2v-.2c-.3,0-.4,0-.4-.2s1.2-6.4,1.2-6.4h0c0,0-.2,0-.2,0,0,0-.6-.2-.9-.2-1.4,0-2.9,1.5-2.9,3.8h0ZM101.9,191.2c0-1.7.9-3,1.7-3s.5,0,.8.2c0,.3-.3,1.2-.3,1.4-.6,1.1-1.5,2.1-1.9,2.1-.2,0-.3-.2-.3-.6h0Z"/>
  <path d="M105.7,193c0,.9.6,1.5,1.5,1.5s1-.3,1.1-.6h0c-.3,0-.5.2-.8.2-.8,0-1.2-.7-1.2-1.4s.3-1.1.9-1.1.6,0,.6.2v.3c.1,0,.3,0,.3,0l.2-.6c-.1-.2-.6-.3-.7-.3-1,0-1.8.8-1.8,1.8h0ZM108.8,189.9c.4,0,.5,0,.5.4v3.5c0,.5,0,.5-.5.5v.2c.3,0,.5,0,.8,0s.5,0,.8,0v-.2c-.5,0-.5,0-.5-.5v-1.6c0-.3.6-.5.8-.5.5,0,.7.4.7.9v1.2c0,.2,0,.5-.2.6h0c.2.1.4.1.7.1s.4,0,.6,0v-.2c-.5,0-.5,0-.5-.5v-1.4c0-.7-.3-1.1-1.1-1.1s-1,.6-1,.6v-2.3h0c-.3,0-.7.1-1.1.2v.2h0ZM113,193c0,.9.6,1.6,1.5,1.6.4,0,1-.2,1.2-.7h0c-.3.1-.5.2-.8.2-.8,0-1.2-.6-1.2-1.4,0,0,.3,0,.6,0s.6,0,.9,0l.6-.2c0-.9-.5-1.3-1.1-1.3s-.6.1-.8.3c-.5.3-.8.8-.8,1.5h0ZM113.6,192.5c0-.5.3-1,.8-1s.7.4.7.7,0,.3-.3.3c0,0-.6,0-.7,0-.4,0-.5,0-.5,0h0ZM116.3,193c0,.9.6,1.5,1.5,1.5s1-.3,1.1-.6h0c-.3,0-.5.2-.8.2-.8,0-1.2-.7-1.2-1.4s.3-1.1.9-1.1.6,0,.6.2v.3c.1,0,.3,0,.3,0l.2-.6c-.1-.2-.6-.3-.7-.3-1,0-1.8.8-1.8,1.8h0ZM119.4,194.5s.5,0,.9,0,.5,0,.8,0v-.2c-.5,0-.5,0-.5-.5v-.9h.1s1.5,1.6,1.5,1.6h.8v-.3c-.2,0-.4-.2-.6-.4l-1.2-1.3.7-.7c.3-.3.4-.3.8-.4v-.2h-1.2s0,.2,0,.2h.2s-1.2,1.2-1.2,1.2v-3.2h0c-.6,0-.4,0-1.1.2v.2c.4,0,.5,0,.5.4v3.5c0,.5,0,.5-.6.5v.2Z"/>
  <path class="st3" d="M44.2,106.3c0-9.5-7.7-17.2-17.2-17.2s-17.2,7.7-17.2,17.2,7.7,17.2,17.2,17.2,17.2-7.7,17.2-17.2h0Z"/>
  <path d="M15.5,105.8c0,.5.2,1,.5,1,1,0,2.2-1.6,2.4-2l-.7,3.7c-.1.6-.3.5-.6.6v.2c.1,0,1.5-.1,1.6-.2v-.2c-.3,0-.4,0-.4-.2s1.2-6.4,1.2-6.4h0c0,0-.2,0-.2,0,0,0-.6-.2-.9-.2-1.4,0-2.9,1.5-2.9,3.8h0ZM16.2,105.5c0-1.7.9-3,1.7-3s.5,0,.8.2c0,.3-.3,1.2-.3,1.4-.6,1.1-1.5,2.1-1.9,2.1-.2,0-.3-.2-.3-.6h0Z"/>
  <path d="M20.1,108c0,.5.4.8.9.8s.8-.4,1-.6c0,.1,0,.5.2.5s.8-.2.9-.2v-.2c0,0-.1,0-.2,0-.2,0-.3-.1-.3-.4v-1.4c0-.7-.2-1.1-1-1.1-.6,0-1.1.3-1.3.9h.2c.2-.2.4-.5.7-.5s.7.3.7.9l-.9.3c-.5.2-.9.3-.9.9h0ZM20.7,107.9c0-.5,1.3-.9,1.3-.9v1c-.2.2-.5.4-.8.4-.3,0-.5-.3-.5-.6h0ZM23.5,107.3c0,.9.6,1.5,1.4,1.5s.9-.3,1-.6v.5c.7-.1.5,0,1.1-.1v-.2c-.4,0-.6,0-.6-.5v-4.2h0c-.6,0-.4,0-1.1.2v.2c.4,0,.6,0,.6.4v1.2s-.4-.1-.6-.1c-.9,0-1.8.8-1.8,1.7h0ZM24.1,107.1c0-.6.3-1.2,1-1.2s.9.2.9.4v1.5c0,.4-.5.7-.8.7-.7,0-1-.7-1-1.3h0ZM27.2,110.3v.3c.6,0,1-.4,1.2-.7.2-.3.2-1.1.2-1.4v-2.8h0c-.6.1-.4,0-1.1.2v.2c.5,0,.5,0,.5.5v1.9c0,.4,0,1.3-.2,1.6,0,.1-.6.3-.6.3h0ZM27.9,104.8c0,.2.2.4.4.4s.4-.2.4-.4-.2-.4-.4-.4-.4.2-.4.4h0ZM29.5,105.9c.4,0,.5,0,.5.4v1.4c0,.7.2,1.1.9,1.1s.9-.2,1.2-.6v.6h0c.6,0,.4,0,1.1,0v-.2c-.4,0-.5,0-.5-.4v-2.5h0c-.6,0-.4,0-1.1.2v.2c.4,0,.5,0,.5.4v1.2c0,.3-.4.9-.9.9s-.6-.4-.6-.8v-2h0c-.6,0-.4,0-1,.2v.2h0ZM33.7,108.3c.2.5.3.6.9.6s1.3-.3,1.3-1.1c0-1.1-1.7-.7-1.7-1.5s.3-.5.6-.5c.4,0,.7.3.8.7h.2s0-.8,0-.8c-.2,0-.5-.1-.7-.1-.6,0-1.2.3-1.2,1,0,1.1,1.7.7,1.7,1.5s-.3.6-.7.6c-.8,0-.7-.6-.8-.8h-.1c0,0-.1.4-.1.4ZM36.5,105.8v.3h.5v2c0,.5.2.8.7.8s.6-.2.7-.4h0c-.1,0-.3,0-.4,0-.3,0-.4-.3-.4-.6v-1.8h.8v-.3s-.8,0-.8,0v-1.1h0c-.4,0-.5.1-.5.6v.5h-.5Z"/>
  <path class="st3" d="M130.4,31.8c27.7,16.3,41.9,30.8,57,57.6"/>
  <path class="st1" d="M188.6,86.6c-1.1,1-1.2,2.1-1.1,3-.7-.6-1.7-1-3.1-.6"/>
  <path d="M185,39.9c.5,0,.9,0,1.4,0s.9,0,1.4,0v-.3c-.9,0-.9-.1-.9-1.1v-4c0-1,0-1,.9-1.1v-.3c-.4,0-.9,0-1.3,0s-1,0-1.4,0v.3c.9,0,.9.1.9,1.1v4c0,1,0,1-.9,1.1v.3ZM188.5,39.9c.4,0,.8,0,1.2,0s.8,0,1.2,0v-.3c-.6,0-.7,0-.7-.7v-2.3c.2-.4.7-.7,1.2-.7.7,0,1,.6,1,.9v2c0,.2,0,.8-.4.8v.2c.3,0,.6,0,.9,0s.6,0,.9,0v-.3c-.6,0-.7,0-.7-.7v-2c0-1-.5-1.5-1.5-1.5s-1.1.3-1.5.8v-.8h0c-1,.2-.7.2-1.5.3v.2c.7,0,.7,0,.7.7v2.3c0,.7-.1.7-.8.7v.3h0ZM194.4,39.9c.4,0,.8,0,1.2,0s.8,0,1.2,0v-.3c-.7,0-.8,0-.8-.7v-3.5h0c0,0-1.5.3-1.5.3v.2c.7,0,.7,0,.7.7v2.3c0,.7-.1.6-.8.7v.3ZM195,34.2c0,.3.2.5.5.5s.5-.2.5-.5-.2-.6-.5-.6-.5.3-.5.6h0ZM197.4,35.7v.4h.7v2.8c0,.7.3,1.1,1,1.1s.8-.3,1.1-.6v-.2c-.3.1-.5.2-.7.2-.5,0-.6-.4-.6-.8v-2.6h1.2v-.4s-1.2,0-1.2,0v-1.5h0c-.5,0-.7.2-.7.8v.7h-.7ZM201.3,39.4c0,.3.2.6.6.6s.6-.3.6-.6-.3-.6-.6-.6-.6.3-.6.6h0ZM201.3,36.1c0,.3.2.6.6.6s.6-.3.6-.6-.3-.6-.6-.6-.6.3-.6.6h0Z"/>
  <path d="M207.1,38.2v1.5c.6.2,1.1.4,1.7.4,1.3,0,2.6-.8,2.6-2.2,0-2.4-3.5-1.2-3.5-3.1s.5-1.3,1.3-1.3c1.1,0,1.2.5,1.5,1.3h.3s0-1.4,0-1.4c-.5-.2-1-.3-1.5-.3-1.2,0-2.3.7-2.3,2,0,2.3,3.4,1.2,3.4,3.2s-.7,1.4-1.5,1.4c-1.6,0-1.4-1.1-1.7-1.4h-.3ZM212.2,37.8c0,1.3.8,2.2,2.1,2.2.5,0,1.4-.3,1.7-.9h-.1c-.4.1-.7.3-1.2.3-1.2,0-1.7-.9-1.7-2,0,0,.4,0,.9,0s.9,0,1.3,0l.8-.3c0-1.3-.7-1.9-1.6-1.9s-.8.2-1.2.4c-.8.5-1.1,1.2-1.1,2.1h0ZM213.1,37.1c0-.7.4-1.4,1.2-1.4s1,.5,1,1-.1.4-.4.5c-.1,0-.9,0-1.1,0-.6,0-.7,0-.7,0h0ZM216.8,35.7v.4h.7v2.8c0,.7.3,1.1,1,1.1s.8-.3,1.1-.6v-.2c-.3.1-.5.2-.7.2-.5,0-.6-.4-.6-.8v-2.6h1.2v-.4s-1.2,0-1.2,0v-1.5h0c-.5,0-.7.2-.7.8v.7h-.7Z"/>
  <path d="M167.7,49.1c0,1.9,1.2,2.9,2.9,2.9s1.6-.2,2.2-.6l.4-1h-.2c-.8.7-1.4,1.1-2.3,1.1-1.5,0-2.2-1-2.2-2.6s1-3.5,3-3.5,1.7.4,1.7,1.4h.3s.2-1.5.2-1.5c0,0-1.1-.3-1.8-.3-2.3,0-4.2,1.7-4.2,4.1h0ZM174.4,46.8h.3c.4-1,.4-1.2,1.5-1.2h.8l-.9,5c-.2,1.1-.2,1-1.2,1.1v.2s2.8,0,2.8,0v-.2c-.6,0-.9,0-.9-.5s1-5.6,1-5.6h.7c1.1,0,1.2,0,1.2,1.2h.3c0-.3.1-1.2.2-1.4l-1.1-.3c-.8,0-1,0-1.8,0s-2,0-2.5,0c0,.3-.2,1.4-.3,1.7h0Z"/>
  <path d="M184.2,50.6h5.1v-.5h-5.1v.5ZM184.2,48.7h5.1v-.5h-5.1v.5ZM193.5,50.9c.3.9.5,1.1,1.6,1.1s2.6-1,2.6-2.3c0-2.1-2.7-1.1-2.7-3s.6-1.3,1.4-1.3,1.1.5,1.2,1.3h.3c0-.5,0-.9.1-1.4-.5-.2-.8-.3-1.3-.3-1.2,0-2.4.8-2.4,2.1,0,2.2,2.7,1.1,2.7,3s-.6,1.5-1.6,1.5-1.2-.5-1.4-1.4c0,0-.2,0-.2,0l-.2.7Z"/>
  <path d="M198.9,53.1v.2c.8-.3,1.7-1.4,1.7-2.1s-.3-.6-.5-.6-.4.2-.4.3,0,0,0,0c0,.1,0,.3,0,.4,0,.7-.7,1.5-.9,1.7h0ZM205.8,49.1c0,1.9,1.2,2.9,2.9,2.9s1.6-.2,2.2-.6l.4-1h-.2c-.8.7-1.4,1.1-2.3,1.1-1.5,0-2.2-1-2.2-2.6s1-3.5,3-3.5,1.7.4,1.7,1.4h.3s.2-1.5.2-1.5c0,0-1.1-.3-1.8-.3-2.3,0-4.2,1.7-4.2,4.1h0Z"/>
  <path d="M213.1,49.2c0,1.7.9,2.9,3.2,2.9s1.3-.2,2.1-.5v-.3c0-.2.2-1.4.2-1.4,0-.4.3-.5.7-.6v-.3c-.3,0-.7,0-1.2,0s-1,0-1.3,0v.3c.3,0,1,0,1,.5s-.2,1.3-.2,1.3c0,.4-.7.5-1.3.5-1.6,0-2.4-1-2.4-2.6s1-3.6,3-3.6,1.7.4,1.7,1.4h.3s.2-1.5.2-1.5c-.6-.2-1.2-.3-1.9-.3-2.3,0-4.2,1.7-4.2,4.1h0ZM223.6,50.6h5.1v-.5h-5.1v.5ZM223.6,48.7h5.1v-.5h-5.1v.5Z"/>
  <path d="M233.3,46.1v.2c.3,0,.9-.3,1.1-.3s.1.2.1.3v4.6c0,.8-.5.6-1.1.7v.3c.5,0,1,0,1.5,0s1,0,1.5,0v-.3c-.6,0-1.1,0-1.1-.7v-5.6h0c-1.2.4-.8.3-2,.7h0Z"/>
  <path class="st3" d="M192.5,88.8c-7.6-28.3,17-28.3,9.8-1.3"/>
  <path class="st1" d="M205,86.2c-1.5,0-2.4.6-2.8,1.4,0-.9-.5-1.9-1.8-2.6"/>
  <path d="M233.1,58.6c.9,0,.9.2.9,1v4.2c0,.6,0,.9-.7,1v.2h2.6c2.3,0,4.1-1.3,4.1-3.7s-1.7-3-3.6-3h-3.2v.3ZM234.9,64.2v-5.2c0-.3.5-.3,1-.3,1.9,0,3.1.7,3.1,2.9s-1.1,3.1-3.1,3.1c-.3,0-1,0-1-.5h0ZM240.8,62.9c0,1.3.9,2.3,2.2,2.3s2.4-1.1,2.4-2.5-1-2.3-2.3-2.3-2.3,1.1-2.3,2.5h0ZM241.7,62.6c0-.8.3-1.8,1.3-1.8s1.5,1.4,1.5,2.2-.2,1.8-1.2,1.8c-1.2,0-1.5-1.4-1.5-2.3h0ZM246.1,61c.6,0,.7,0,.7.6v2c0,.9.3,1.5,1.3,1.5s1.3-.3,1.6-.9v.8h0c.9-.1.6,0,1.5-.1v-.3c-.6,0-.8,0-.8-.6v-3.5h0c-.9.1-.6,0-1.6.2v.2c.6,0,.8,0,.8.6v1.6c0,.5-.6,1.3-1.2,1.3s-.9-.5-.9-1.2v-2.8h0c-.9.1-.6,0-1.5.2v.2h0ZM251.8,58.5c.5,0,.7,0,.7.5v5.6s0,.1,0,.1c0,0,.5.4,1.6.4,2.1,0,2.6-1.3,2.6-2.7s-.8-2-1.9-2-1.1.4-1.5.7v-3.2h0c-1,.2-.7,0-1.5.3v.2ZM253.4,64.1v-2.5c0-.2.8-.6,1-.6,1,0,1.5.8,1.5,1.8s-.4,1.9-1.4,1.9c-.3,0-1.1-.3-1.1-.7h0ZM257.6,65.1s.7,0,1.2,0,.8,0,1.2,0v-.3c-.7,0-.8,0-.8-.7v-6.1h0c-.9.1-.6,0-1.5.3v.2c.5,0,.8,0,.8.5v5.1c0,.7-.1.6-.8.7v.3h0ZM260.8,63c0,1.3.8,2.2,2.1,2.2.5,0,1.4-.3,1.7-.9h-.1c-.4.1-.7.3-1.2.3-1.2,0-1.7-.9-1.7-2,0,0,.4,0,.9,0s.9,0,1.3,0l.8-.3c0-1.3-.7-1.9-1.6-1.9s-.8.2-1.2.4c-.8.5-1.1,1.2-1.1,2.1h0ZM261.7,62.3c0-.7.4-1.4,1.2-1.4s1,.5,1,1-.1.4-.4.5c-.1,0-.9,0-1.1,0-.6,0-.7,0-.7,0h0Z"/>
  <path d="M225,74.2c0,1.9,1.2,2.9,2.9,2.9s1.6-.2,2.2-.6l.4-1h-.2c-.8.7-1.4,1.1-2.3,1.1-1.5,0-2.2-1-2.2-2.6s1-3.5,3-3.5,1.7.4,1.7,1.4h.3s.2-1.5.2-1.5c0,0-1.1-.3-1.8-.3-2.3,0-4.2,1.7-4.2,4.1h0ZM231.7,71.9h.3c.4-1,.4-1.2,1.5-1.2h.8l-.9,5c-.2,1.1-.2,1-1.2,1.1v.2s2.8,0,2.8,0v-.2c-.6,0-.9,0-.9-.5s1-5.6,1-5.6h.7c1.1,0,1.2,0,1.2,1.2h.3c0-.3.1-1.2.2-1.4l-1.1-.3c-.8,0-1,0-1.8,0s-2,0-2.5,0c0,.3-.2,1.4-.3,1.7h0Z"/>
  <path d="M240.3,75.9c0,.7.6,1.2,1.2,1.2s1.2-.6,1.4-.8c0,.2,0,.7.2.7s1.2-.2,1.3-.2v-.3c-.1,0-.2,0-.3,0-.3,0-.4-.1-.4-.5v-2c0-1-.3-1.6-1.4-1.6-.9,0-1.5.5-1.8,1.2l.3.2c.3-.5.5-.9,1.1-.9s1,.4,1,1.3l-1.3.4c-.7.2-1.3.5-1.3,1.3h0ZM241.2,75.8c0-.7,1.8-1.2,1.8-1.2v1.5c-.2.3-.7.6-1.1.6-.4,0-.7-.4-.7-.8h0ZM245.1,77c.4,0,.8,0,1.2,0s.8,0,1.2,0v-.3c-.6,0-.7,0-.7-.7v-2.3c.2-.4.7-.7,1.2-.7.7,0,1,.6,1,.9v2c0,.2,0,.8-.4.8v.2c.3,0,.6,0,.9,0s.6,0,.9,0v-.3c-.6,0-.7,0-.7-.7v-2c0-1-.5-1.5-1.5-1.5s-1.1.3-1.5.8v-.8h0c-1,.2-.7.2-1.5.3v.2c.7,0,.7,0,.7.7v2.3c0,.7-.1.7-.8.7v.3h0ZM251.1,74.9c0,1.2.8,2.2,2.1,2.2s1.2-.4,1.5-.8v.8c.9-.1.6-.1,1.6-.2v-.2c-.6,0-.8,0-.8-.6v-6.1h0c-.9.1-.6,0-1.5.3v.2c.6,0,.8,0,.8.5v1.7s-.6-.2-.9-.2c-1.4,0-2.6,1.1-2.6,2.5h0ZM252,74.6c0-.9.4-1.8,1.4-1.8s1.2.2,1.2.6v2.1c0,.6-.7,1-1.2,1-1,0-1.4-1.1-1.4-1.9h0Z"/>
  <path d="M259.7,74.2c0,1.9,1.2,2.9,2.9,2.9s1.6-.2,2.2-.6l.4-1h-.2c-.8.7-1.4,1.1-2.3,1.1-1.5,0-2.2-1-2.2-2.6s1-3.5,3-3.5,1.7.4,1.7,1.4h.3s.2-1.5.2-1.5c0,0-1.1-.3-1.8-.3-2.3,0-4.2,1.7-4.2,4.1h0ZM267,74.3c0,1.7.9,2.9,3.2,2.9s1.3-.2,2.1-.5v-.3c0-.2.2-1.4.2-1.4,0-.4.3-.5.7-.6v-.3c-.3,0-.7,0-1.2,0s-1,0-1.3,0v.3c.3,0,1,0,1,.5s-.2,1.3-.2,1.3c0,.4-.7.5-1.3.5-1.6,0-2.4-1-2.4-2.6s1-3.6,3-3.6,1.7.4,1.7,1.4h.3s.2-1.5.2-1.5c-.6-.2-1.2-.3-1.9-.3-2.3,0-4.2,1.7-4.2,4.1h0Z"/>
  <path class="st3" d="M188.1,122c-17.1,29.3-32.2,44.2-60.5,60.4"/>
  <path class="st1" d="M130.4,183.6c-1-1.1-2.1-1.2-3-1,.6-.7,1-1.7.6-3.1"/>
  <path d="M165.7,160.5c.5,0,.9,0,1.4,0s.9,0,1.4,0v-.3c-.9,0-.9-.1-.9-1.1v-4c0-1,0-1,.9-1.1v-.3c-.4,0-.9,0-1.3,0s-1,0-1.4,0v.3c.9,0,.9.1.9,1.1v4c0,1,0,1-.9,1.1v.3ZM169.3,160.5c.4,0,.8,0,1.2,0s.8,0,1.2,0v-.3c-.7,0-.9,0-.9-.7v-2.9h1.2v-.4c0,0-1.2,0-1.2,0,0-.1,0-.4,0-.7,0-.7,0-1.6.7-1.6s.7.3.9.3.2-.3.2-.5c0-.3-.5-.4-.7-.4-.8,0-1.4.6-1.7,1.2-.2.4-.2,1-.2,1.7h-.7s0,.4,0,.4h.7s0,2.9,0,2.9c0,.7-.1.6-.7.7v.3h0Z"/>
  <path d="M175.6,157.7c0,1.9,1.2,2.9,2.9,2.9s1.6-.2,2.2-.6l.4-1h-.2c-.8.7-1.4,1.1-2.3,1.1-1.5,0-2.2-1-2.2-2.6s1-3.5,3-3.5,1.7.4,1.7,1.4h.3s.2-1.5.2-1.5c0,0-1.1-.3-1.8-.3-2.3,0-4.2,1.7-4.2,4.1h0ZM182.9,157.8c0,1.7.9,2.9,3.2,2.9s1.3-.2,2.1-.5v-.3c0-.2.2-1.4.2-1.4,0-.4.3-.5.7-.6v-.3c-.3,0-.7,0-1.2,0s-1,0-1.3,0v.3c.3,0,1,0,1,.5s-.2,1.3-.2,1.3c0,.4-.7.5-1.3.5-1.6,0-2.4-1-2.4-2.6s1-3.6,3-3.6,1.7.4,1.7,1.4h.3s.2-1.5.2-1.5c-.6-.2-1.2-.3-1.9-.3-2.3,0-4.2,1.7-4.2,4.1h0Z"/>
  <path d="M193.2,159.8l5.4-2.5v-.2l-5.4-2.5v.6l4.4,2.1-4.4,2v.6ZM193.2,160.7v.5h5.4v-.5h-5.4ZM202.1,160.5s.7,0,1.2,0,.7,0,1.1,0v-.2c-.3,0-.8,0-.8-.5s.8-4.7.8-4.7l3.3,5.6h.4l1.1-5.7c.1-.7.2-.8,1-.9v-.2s-.7,0-1.1,0-.8,0-1.1,0v.2c.4,0,.8,0,.8.3,0,.4-.8,5-.8,5l-3.3-5.5c-.3,0-.6,0-.9,0s-.4,0-.6,0v.2c.6,0,.9.2.9.7s-.9,4.8-.9,4.8c-.1.6-.3.6-.9.6v.2Z"/>
  <path class="st3" d="M107.8,175.4c-14-50.5-14.3-83.1-1.5-132.4"/>
  <path class="st1" d="M103.5,44.2c1.5,0,2.4-.7,2.8-1.4,0,.9.5,1.9,1.8,2.6"/>
  <path d="M49.3,112.1c.5,0,.9,0,1.4,0s.9,0,1.4,0v-.3c-.9,0-.9-.1-.9-1.1v-4c0-1,0-1,.9-1.1v-.3c-.4,0-.9,0-1.3,0s-1,0-1.4,0v.3c.9,0,.9.1.9,1.1v4c0,1,0,1-.9,1.1v.3h0ZM52.9,112.1c.4,0,.8,0,1.2,0s.8,0,1.2,0v-.3c-.7,0-.9,0-.9-.7v-2.9h1.2v-.4c0,0-1.2,0-1.2,0,0-.1,0-.4,0-.7,0-.7,0-1.6.7-1.6s.7.3.9.3.2-.3.2-.5c0-.3-.5-.4-.7-.4-.8,0-1.4.6-1.7,1.2-.2.4-.2,1-.2,1.7h-.7s0,.4,0,.4h.7s0,2.9,0,2.9c0,.7-.1.6-.7.7v.3h0Z"/>
  <path d="M59.2,109.3c0,1.9,1.2,2.9,2.9,2.9s1.6-.2,2.2-.6l.4-1h-.2c-.8.7-1.4,1.1-2.3,1.1-1.5,0-2.2-1-2.2-2.6s1-3.5,3-3.5,1.7.4,1.7,1.4h.3s.2-1.5.2-1.5c0,0-1.1-.3-1.8-.3-2.3,0-4.2,1.7-4.2,4.1h0ZM66.5,109.4c0,1.7.9,2.9,3.2,2.9s1.3-.2,2.1-.5v-.3c0-.2.2-1.4.2-1.4,0-.4.3-.5.7-.6v-.3c-.3,0-.7,0-1.2,0s-1,0-1.3,0v.3c.3,0,1,0,1,.5s-.2,1.3-.2,1.3c0,.4-.7.5-1.3.5-1.6,0-2.4-1-2.4-2.6s1-3.6,3-3.6,1.7.4,1.7,1.4h.3s.2-1.5.2-1.5c-.6-.2-1.2-.3-1.9-.3-2.3,0-4.2,1.7-4.2,4.1h0Z"/>
  <path d="M76.9,110.8h5.1v-.5h-5.1v.5ZM76.9,108.9h5.1v-.5h-5.1v.5ZM85.7,112.1s.7,0,1.2,0,.7,0,1.1,0v-.2c-.3,0-.8,0-.8-.5s.8-4.7.8-4.7l3.3,5.6h.4l1.1-5.7c.1-.7.2-.8,1-.9v-.2s-.7,0-1.1,0-.8,0-1.1,0v.2c.4,0,.8,0,.8.3,0,.4-.8,5-.8,5l-3.3-5.5c-.3,0-.6,0-.9,0s-.4,0-.6,0v.2c.6,0,.9.2.9.7s-.9,4.8-.9,4.8c-.1.6-.3.6-.9.6v.2Z"/>
  <path class="st3" d="M97.8,183.1c-29.6-17-44.9-32.2-61.4-60.5"/>
  <path class="st1" d="M35.3,125.4c1.1-1,1.2-2.1,1-3,.7.6,1.7,1,3.1.6"/>
  <path d="M2.3,160.4c.5,0,.9,0,1.4,0s.9,0,1.4,0v-.3c-.9,0-.9-.1-.9-1.1v-4c0-1,0-1,.9-1.1v-.3c-.4,0-.9,0-1.3,0s-1,0-1.4,0v.3c.9,0,.9.1.9,1.1v4c0,1,0,1-.9,1.1v.3h0ZM5.9,160.4c.4,0,.8,0,1.2,0s.8,0,1.2,0v-.3c-.7,0-.9,0-.9-.7v-2.9h1.2v-.4c0,0-1.2,0-1.2,0,0-.1,0-.4,0-.7,0-.7,0-1.6.7-1.6s.7.3.9.3.2-.3.2-.5c0-.3-.5-.4-.7-.4-.8,0-1.4.6-1.7,1.2-.2.4-.2,1-.2,1.7h-.7s0,.4,0,.4h.7s0,2.9,0,2.9c0,.7-.1.6-.7.7v.3h0Z"/>
  <path d="M12.2,157.7c0,1.9,1.2,2.9,2.9,2.9s1.6-.2,2.2-.6l.4-1h-.2c-.8.7-1.4,1.1-2.3,1.1-1.5,0-2.2-1-2.2-2.6s1-3.5,3-3.5,1.7.4,1.7,1.4h.3s.2-1.5.2-1.5c0,0-1.1-.3-1.8-.3-2.3,0-4.2,1.7-4.2,4.1h0ZM19.6,157.7c0,1.7.9,2.9,3.2,2.9s1.3-.2,2.1-.5v-.3c0-.2.2-1.4.2-1.4,0-.4.3-.5.7-.6v-.3c-.3,0-.7,0-1.2,0s-1,0-1.3,0v.3c.3,0,1,0,1,.5s-.2,1.3-.2,1.3c0,.4-.7.5-1.3.5-1.6,0-2.4-1-2.4-2.6s1-3.6,3-3.6,1.7.4,1.7,1.4h.3s.2-1.5.2-1.5c-.6-.2-1.2-.3-1.9-.3-2.3,0-4.2,1.7-4.2,4.1h0Z"/>
  <path d="M29.8,160.6l5.4-2.5v-.2l-5.4-2.5v.6l4.4,2-4.4,2.1v.6ZM38.7,160.4s.7,0,1.2,0,.7,0,1.1,0v-.2c-.3,0-.8,0-.8-.5s.8-4.7.8-4.7l3.3,5.6h.4l1.1-5.7c.1-.7.2-.8,1-.9v-.2s-.7,0-1.1,0-.8,0-1.1,0v.2c.4,0,.8,0,.8.3,0,.4-.8,5-.8,5l-3.3-5.5c-.3,0-.6,0-.9,0s-.4,0-.6,0v.2c.6,0,.9.2.9.7s-.9,4.8-.9,4.8c-.1.6-.3.6-.9.6v.2Z"/>
  <path class="st3" d="M35.8,91.3c16-28.4,30.1-42.9,56.9-58.8"/>
  <path class="st1" d="M89.8,31.4c1.1,1,2.1,1.2,3,1-.6.7-1,1.7-.6,3.1"/>
  <path d="M0,59.4s.7,0,1.1,0,.7,0,1.1,0v-.3c-.2,0-.8,0-.8-.3s.5-1.4.6-1.8h2.5c.1.3.7,1.6.7,1.8s-.6.3-.8.3v.3c.4,0,.8,0,1.3,0s.8,0,1.3,0v-.3c-.8,0-.8-.3-1.1-1l-2.2-5.6h-.3c0,0-2.4,5.8-2.4,5.8-.3.6-.3.7-1,.8v.3h0ZM2.2,56.6l1.1-2.7,1.1,2.7h-2.1ZM7.6,57.3c0,1.2.8,2.2,2.1,2.2s1.2-.4,1.5-.8v.8c.9-.1.6-.1,1.6-.2v-.2c-.6,0-.8,0-.8-.6v-6.1h0c-.9.1-.6,0-1.5.3v.2c.6,0,.8,0,.8.5v1.7s-.6-.2-.9-.2c-1.4,0-2.6,1.1-2.6,2.5h0ZM8.5,57c0-.9.4-1.8,1.4-1.8s1.2.2,1.2.6v2.1c0,.6-.7,1-1.2,1-1,0-1.4-1.1-1.4-1.9h0ZM12.9,61.6l.2.4c.6-.1,1.2-.5,1.5-1.1.2-.4.3-1.5.3-2.1v-4h0c-.9.2-.6.1-1.5.3v.2c.7,0,.8,0,.8.7v2.7c0,.6,0,1.8-.3,2.3-.1.2-.8.5-.8.5h0ZM13.8,53.7c0,.3.2.5.5.5s.5-.3.5-.5-.2-.5-.5-.5-.5.3-.5.5h0ZM16.1,55.4c.6,0,.7,0,.7.6v2c0,.9.3,1.5,1.3,1.5s1.3-.3,1.6-.9v.8h0c.9-.1.6,0,1.5-.1v-.3c-.6,0-.8,0-.8-.6v-3.5h0c-.9.1-.6,0-1.6.2v.2c.6,0,.8,0,.8.6v1.6c0,.5-.6,1.3-1.2,1.3s-.9-.5-.9-1.2v-2.8h0c-.9.1-.6,0-1.5.2v.2h0ZM22.1,58.7c.3.7.5.8,1.3.8s1.9-.5,1.9-1.5c0-1.6-2.5-1-2.5-2.2s.4-.7.8-.7c.6,0,1,.4,1.1,1h.3s0-1.1,0-1.1c-.3-.1-.7-.2-1.1-.2-.8,0-1.7.4-1.7,1.4,0,1.5,2.4.9,2.4,2.2s-.5.8-1,.8c-1.2,0-1-.8-1.2-1.1h-.2c0-.1-.2.6-.2.6ZM26.1,55.1v.4h.7v2.8c0,.7.3,1.1,1,1.1s.8-.3,1.1-.6v-.2c-.3.1-.5.2-.7.2-.5,0-.6-.4-.6-.8v-2.6h1.2v-.4c0,0-1.2,0-1.2,0v-1.5h0c-.5,0-.7.2-.7.8v.7h-.7Z"/>
  <path d="M32.4,56.6c0,1.9,1.2,2.9,2.9,2.9s1.6-.2,2.2-.6l.4-1h-.2c-.8.7-1.4,1.1-2.3,1.1-1.5,0-2.2-1-2.2-2.6s1-3.5,3-3.5,1.7.4,1.7,1.4h.3s.2-1.5.2-1.5c0,0-1.1-.3-1.8-.3-2.3,0-4.2,1.7-4.2,4.1h0ZM39.1,54.3h.3c.4-1,.4-1.2,1.5-1.2h.8l-.9,5c-.2,1.1-.2,1-1.2,1.1v.2c0,0,2.8,0,2.8,0v-.2c-.6,0-.9,0-.9-.5s1-5.6,1-5.6h.7c1.1,0,1.2,0,1.2,1.2h.3c0-.3.1-1.2.2-1.4l-1.1-.3c-.8,0-1,0-1.8,0s-2,0-2.5,0c0,.3-.2,1.4-.3,1.7h0Z"/>
</svg>