<?xml version="1.0" encoding="UTF-8"?>
<svg id="Layer_1" xmlns="http://www.w3.org/2000/svg" version="1.1" viewBox="0 0 276.7 174.9">
  <!-- Generator: Adobe Illustrator 29.4.0, SVG Export Plug-In . SVG Version: 2.1.0 Build 152)  -->
  <defs>
    <style>
      .st0 {
        stroke-width: 1.4px;
      }

      .st0, .st1, .st2, .st3 {
        fill: none;
      }

      .st0, .st1, .st3 {
        stroke: #000;
      }

      .st0, .st2, .st3 {
        stroke-miterlimit: 10;
      }

      .st1 {
        stroke-linecap: round;
        stroke-linejoin: round;
      }

      .st1, .st3 {
        stroke-width: .4px;
      }

      .st2 {
        stroke: #fff;
        stroke-width: .6px;
      }
    </style>
  </defs>
  <path class="st0" d="M119.3,21.3c0-11.4-9.2-20.6-20.6-20.6s-20.6,9.2-20.6,20.6,9.2,20.6,20.6,20.6,20.6-9.2,20.6-20.6h0Z"/>
  <path class="st2" d="M119.3,21.3c0-11.4-9.2-20.6-20.6-20.6s-20.6,9.2-20.6,20.6,9.2,20.6,20.6,20.6,20.6-9.2,20.6-20.6h0Z"/>
  <path d="M83.4,20.8c0,.5.2,1,.5,1,1,0,2.2-1.6,2.4-2l-.7,3.7c-.1.6-.3.5-.6.6v.2c.1,0,1.5-.1,1.6-.2v-.2c-.3,0-.4,0-.4-.2s1.2-6.4,1.2-6.4h0c0,0-.2,0-.2,0,0,0-.6-.2-.9-.2-1.4,0-2.9,1.5-2.9,3.8h0ZM84.1,20.4c0-1.7.9-3,1.7-3s.5,0,.8.2c0,.3-.3,1.2-.3,1.4-.6,1.1-1.5,2.1-1.9,2.1-.2,0-.3-.2-.3-.6h0Z"/>
  <path d="M88.2,21.7c0,.9.4,2.1,1.4,2.1s1.5-1.3,1.5-2.3-.4-2.1-1.4-2.1c-1.1,0-1.5,1.2-1.5,2.2h0ZM88.8,21.6c0-.6,0-1.8.8-1.8s.8,1.3.8,2,0,1.8-.8,1.8c-.8,0-.8-1.3-.8-2h0ZM91.9,24.3h.5l2-5.4h-.5l-2,5.4ZM95.1,23.2c0,.4.2.6.3.6.4,0,1.1-.8,1.6-1.4,0,.1-.3.7-.3,1.1s0,.3.2.3.6-.3,1.1-.7v-.2c-.2,0-.5.3-.6.3s0,0,0-.1c0-.4.4-1.8.6-2.6h0s-.3,0-.3,0c-.2,0-.3-.1-.5-.1-1.4,0-2,1.6-2,2.6h0ZM95.6,23c0-.8.5-2.2,1.2-2.2s.3,0,.5.1c0,.3-.2.8-.3,1-.1.2-.9,1.4-1.2,1.4-.1,0-.2-.1-.2-.3h0Z"/>
  <path d="M98.6,22.8c0,.6.3,1,.8,1s1.1-.4,1.4-.7h0c-.3,0-.7.3-1,.3s-.5-.3-.5-.8c0-1,.5-1.8,1-1.8s.5.2.5.3,0,.1,0,.2h.2c0-.2.2-.4.2-.5s-.3-.3-.6-.3c-1.2,0-1.9,1.1-1.9,2.3h0ZM101.8,22.8c0,.6.3,1,.8,1s1.1-.4,1.4-.7h0c-.3,0-.7.3-1,.3s-.5-.3-.5-.8c0-1,.5-1.8,1-1.8s.5.2.5.3,0,.1,0,.2h.2c0-.2.2-.4.2-.5s-.3-.3-.6-.3c-1.2,0-1.9,1.1-1.9,2.3h0ZM105,22.9c0,.7.4.9.8.9s.9-.2,1.5-.8h0c-.3.1-.7.4-1.1.4s-.5-.4-.5-.7,0-.2,0-.3c.6-.2,1.9-.5,1.9-1.3s-.2-.5-.6-.5c-1,0-1.9,1.2-1.9,2.4h0ZM105.6,22.2c0-.4.4-1.4.9-1.4s.3.1.3.4c0,.6-.8.9-1.3,1h0ZM108,25.5c.3,0,.8,0,1.1-.1,0,0,0-.2,0-.2-.2,0-.3-.1-.3-.3,0-.3.1-1,.2-1.3.1,0,.3.1.5.1,1.3,0,1.9-1.4,1.9-2.5s-.2-.8-.7-.8-.9.4-1.2.7c0-.2.1-.7.1-.7h0c-.2,0-.8.4-1.2.5v.2c.2,0,.4-.2.6-.2-.1.9-.6,4.3-1,4.3v.2ZM109.2,23.3s.3-1.5.3-1.6c.2-.4.6-.9.9-.9s.5.2.5.6-.4,2-1.2,2c-.2,0-.4,0-.5-.2h0Z"/>
  <path d="M112.2,21h.5s-.5,2.2-.5,2.4,0,.3.2.3c.3,0,1-.6,1.2-.8,0,0,0-.1,0-.1-.1.1-.5.4-.7.4s0,0,0-.2c0-.2.4-1.9.4-2.2h.8v-.3c0,0-.7,0-.7,0,0-.3.2-1,.3-1.1h0c0,0-.5.2-.6.3l-.2.9h-.5v.3Z"/>
  <line class="st3" x1="64.5" y1="21.3" x2="76.3" y2="21.3"/>
  <path class="st1" d="M74.4,18.9c.4,1.4,1.2,2.1,2.1,2.4-.9.3-1.7,1-2.1,2.4"/>
  <path d="M41.2,23.4c.3.7.5.8,1.3.8s1.9-.5,1.9-1.5c0-1.6-2.5-1-2.5-2.2s.4-.7.8-.7c.6,0,1,.4,1.1,1h.3s0-1.1,0-1.1c-.3-.1-.7-.2-1.1-.2-.8,0-1.7.4-1.7,1.4,0,1.5,2.4.9,2.4,2.2s-.5.8-1,.8c-1.2,0-1-.8-1.2-1.1h-.2c0-.1-.2.6-.2.6ZM45.2,19.9v.4h.7v2.8c0,.7.3,1.1,1,1.1s.8-.3,1.1-.6v-.2c-.3.1-.5.2-.7.2-.5,0-.6-.4-.6-.8v-2.6h1.2v-.4c0,0-1.2,0-1.2,0v-1.5h0c-.5,0-.7.2-.7.8v.7h-.7ZM48.8,23.1c0,.7.6,1.2,1.2,1.2s1.2-.6,1.4-.8c0,.2,0,.7.2.7s1.2-.2,1.3-.2v-.3c-.1,0-.2,0-.3,0-.3,0-.4-.1-.4-.5v-2c0-1-.3-1.6-1.4-1.6-.9,0-1.5.5-1.8,1.2l.3.2c.3-.5.5-.9,1.1-.9s1,.4,1,1.3l-1.3.4c-.7.2-1.3.5-1.3,1.3h0ZM49.7,22.9c0-.7,1.8-1.2,1.8-1.2v1.5c-.2.3-.7.6-1.1.6-.4,0-.7-.4-.7-.8h0ZM53.7,24.2c.4,0,.8,0,1.2,0s.8,0,1.2,0v-.3c-.7,0-.9,0-.9-.7v-1.9c0-.3.4-.9.8-.9s.5.2.5.3h.1s.4-.7.4-.7c0-.2-.4-.4-.6-.4-.5,0-1.1.6-1.3,1v-1h0c-.8.2-.6.1-1.5.3v.2c.7,0,.7,0,.7.7v2.3c0,.7-.1.6-.8.7v.3ZM57.7,19.9v.4h.7v2.8c0,.7.3,1.1,1,1.1s.8-.3,1.1-.6v-.2c-.3.1-.5.2-.7.2-.5,0-.6-.4-.6-.8v-2.6h1.2v-.4c0,0-1.2,0-1.2,0v-1.5h0c-.5,0-.7.2-.7.8v.7h-.7Z"/>
  <path class="st3" d="M198.3,148.8c0-14.3-11.6-25.9-25.9-25.9s-25.9,11.6-25.9,25.9,11.6,25.9,25.9,25.9,25.9-11.6,25.9-25.9h0Z"/>
  <path d="M151.3,148.8c0,.5.2,1,.5,1,1,0,2.2-1.6,2.4-2l-.7,3.7c-.1.6-.3.5-.6.6v.2c.1,0,1.5-.1,1.6-.2v-.2c-.3,0-.4,0-.4-.2s1.2-6.4,1.2-6.4h0c0,0-.2,0-.2,0,0,0-.6-.2-.9-.2-1.4,0-2.9,1.5-2.9,3.8h0ZM152,148.5c0-1.7.9-3,1.7-3s.5,0,.8.2c0,.3-.3,1.2-.3,1.4-.6,1.1-1.5,2.1-1.9,2.1-.2,0-.3-.2-.3-.6h0Z"/>
  <path d="M155.9,150.3c0,.9.6,1.5,1.5,1.5s1-.3,1.1-.6h0c-.3,0-.5.2-.8.2-.8,0-1.2-.7-1.2-1.4s.3-1.1.9-1.1.6,0,.6.2v.3c.1,0,.3,0,.3,0l.2-.6c-.1-.2-.6-.3-.7-.3-1,0-1.8.8-1.8,1.8h0ZM159,150.3c0,.9.6,1.6,1.5,1.6s1.7-.8,1.7-1.7-.7-1.6-1.6-1.6-1.6.8-1.6,1.7h0ZM159.6,150c0-.6.2-1.2.9-1.2s1,.9,1,1.6-.2,1.3-.9,1.3-1.1-1-1.1-1.6h0ZM162.6,148.9c.4,0,.5,0,.5.4v1.4c0,.7.2,1.1.9,1.1s.9-.2,1.2-.6v.6h0c.6,0,.4,0,1.1,0v-.2c-.4,0-.5,0-.5-.4v-2.5h0c-.6,0-.4,0-1.1.2v.2c.4,0,.5,0,.5.4v1.2c0,.3-.4.9-.9.9s-.6-.4-.6-.8v-2h0c-.6,0-.4,0-1,.2v.2h0ZM166.7,151.8c.3,0,.5,0,.8,0s.5,0,.8,0v-.2c-.5,0-.5,0-.5-.5v-1.6c.1-.3.5-.5.8-.5.5,0,.7.4.7.7v1.4c0,.2,0,.5-.3.6h0c.2.1.4.1.6.1s.4,0,.7,0v-.2c-.5,0-.5,0-.5-.5v-1.4c0-.7-.3-1.1-1-1.1s-.8.2-1.1.6v-.5h0c-.7.2-.5.1-1.1.2v.2c.5,0,.5,0,.5.5v1.6c0,.5,0,.5-.5.5v.2h0ZM170.9,148.8v.3h.5v2c0,.5.2.8.7.8s.6-.2.7-.4h0c-.1,0-.3,0-.4,0-.3,0-.4-.3-.4-.6v-1.8h.8v-.3s-.8,0-.8,0v-1.1h0c-.4,0-.5.1-.5.6v.5h-.5ZM173.2,152.3v.3h3.5v-.3h-3.5ZM177,151.8c.3,0,.5,0,.8,0s.6,0,.8,0v-.2c-.5,0-.5,0-.5-.5v-2.5h0s-1.1.2-1.1.2v.2c.5,0,.5,0,.5.5v1.6c0,.5,0,.5-.5.5v.2h0ZM177.4,147.8c0,.2.2.4.4.4s.4-.2.4-.4-.2-.4-.4-.4-.4.2-.4.4h0ZM179,148.8v.3h.5v2c0,.5.2.8.7.8s.6-.2.7-.4h0c-.1,0-.3,0-.4,0-.3,0-.4-.3-.4-.6v-1.8h.8v-.3s-.8,0-.8,0v-1.1h0c-.4,0-.5.1-.5.6v.5h-.5ZM181.6,150.3c0,.9.6,1.6,1.5,1.6.4,0,1-.2,1.2-.7h0c-.3.1-.5.2-.8.2-.8,0-1.2-.6-1.2-1.4,0,0,.3,0,.6,0s.6,0,.9,0l.6-.2c0-.9-.5-1.3-1.1-1.3s-.6.1-.8.3c-.5.3-.8.8-.8,1.5h0ZM182.2,149.8c0-.5.3-1,.8-1s.7.4.7.7,0,.3-.3.3c0,0-.6,0-.7,0-.4,0-.5,0-.5,0h0ZM184.8,151.8s.5,0,.8,0,.5,0,.8,0v-.2c-.5,0-.5,0-.5-.5v-1.6c.1-.3.5-.5.8-.5.5,0,.6.4.6.8v1.3c0,.5,0,.5-.5.5v.2s.5,0,.8,0,.5,0,.8,0v-.2c-.5,0-.5,0-.5-.5v-1.6c.1-.3.5-.5.8-.5.5,0,.6.4.6.8v1.2c0,.2,0,.6-.2.6h0c.2.1.4.1.6.1s.5,0,.7,0v-.2c-.5,0-.5,0-.5-.5v-1.5c0-.6-.3-1-1-1s-.8.3-1.1.6c-.2-.4-.5-.6-.9-.6s-.8.3-1.1.6v-.5h0c-.6.1-.4,0-1.1.2v.2c.5,0,.5,0,.5.5v1.6c0,.5,0,.5-.5.5v.2h0ZM191,151.3c.2.5.3.6.9.6s1.3-.3,1.3-1.1c0-1.1-1.7-.7-1.7-1.5s.3-.5.6-.5c.4,0,.7.3.8.7h.2s0-.8,0-.8c-.2,0-.5-.1-.7-.1-.6,0-1.2.3-1.2,1,0,1.1,1.7.7,1.7,1.5s-.3.6-.7.6c-.8,0-.7-.6-.8-.8h-.1c0,0-.1.4-.1.4Z"/>
  <path class="st3" d="M50,148.8c0-13.8-11.2-24.9-24.9-24.9S.2,135.1.2,148.8s11.2,24.9,24.9,24.9,24.9-11.2,24.9-24.9h0Z"/>
  <path d="M5.2,148.3c0,.5.2,1,.5,1,1,0,2.2-1.6,2.4-2l-.7,3.7c-.1.6-.3.5-.6.6v.2c.1,0,1.5-.1,1.6-.2v-.2c-.3,0-.4,0-.4-.2s1.2-6.4,1.2-6.4h0c0,0-.2,0-.2,0,0,0-.6-.2-.9-.2-1.4,0-2.9,1.5-2.9,3.8h0ZM6,148c0-1.7.9-3,1.7-3s.5,0,.8.2c0,.3-.3,1.2-.3,1.4-.6,1.1-1.5,2.1-1.9,2.1-.2,0-.3-.2-.3-.6h0Z"/>
  <path d="M9.7,151.3c.3,0,.5,0,.8,0s.5,0,.8,0v-.2c-.5,0-.5,0-.5-.5v-1.6c.1-.3.5-.5.8-.5.5,0,.7.4.7.7v1.4c0,.2,0,.5-.3.6h0c.2.1.4.1.6.1s.4,0,.7,0v-.2c-.5,0-.5,0-.5-.5v-1.4c0-.7-.3-1.1-1-1.1s-.8.2-1.1.6v-.5h0c-.7.2-.5.1-1.1.2v.2c.5,0,.5,0,.5.5v1.6c0,.5,0,.5-.5.5v.2h0ZM13.9,149.8c0,.9.6,1.6,1.5,1.6.4,0,1-.2,1.2-.7h0c-.3.1-.5.2-.8.2-.8,0-1.2-.6-1.2-1.4,0,0,.3,0,.6,0s.6,0,.9,0l.6-.2c0-.9-.5-1.3-1.1-1.3s-.6.1-.8.3c-.5.3-.8.8-.8,1.5h0ZM14.5,149.3c0-.5.3-1,.8-1s.7.4.7.7,0,.3-.3.3c0,0-.6,0-.7,0-.4,0-.5,0-.5,0h0ZM17,151.3c.3,0,.4,0,.5,0s.2,0,.5,0v-.2c-.1,0-.2,0-.2,0,0-.1.7-1.1.7-1.1,0,0,.7.9.7,1.1s0,0-.2,0v.2c.4,0,.5,0,.6,0s.3,0,.7,0v-.2c-.3,0-.4,0-.6-.3l-.9-1.2.8-1c.2-.2.3-.2.6-.2h0c-.3-.1-.4-.1-.5-.1s-.2,0-.5,0h0c.1.1.2.2.2.2,0,0-.6.9-.6.9,0,0-.6-.7-.6-.9s0,0,.3,0v-.2c-.4,0-.6,0-.7,0s-.3,0-.7,0v.2c.3,0,.5,0,.7.3l.7,1.1-.8,1c-.2.3-.3.3-.6.3v.2h0ZM20.7,148.3v.3h.5v2c0,.5.2.8.7.8s.6-.2.7-.4h0c-.1,0-.3,0-.4,0-.3,0-.4-.3-.4-.6v-1.8h.8v-.3s-.8,0-.8,0v-1.1h0c-.4,0-.5.1-.5.6v.5h-.5ZM23,151.8v.3h3.5v-.3h-3.5ZM26.8,152.1c0,.7.8,1,1.4,1,1.1,0,1.8-.5,1.8-1.4s-.4-.8-.9-.8-.6,0-.9,0-.5,0-.5-.3.3-.3.3-.3c1,0,1.5-.4,1.5-1.2s-.1-.5-.1-.5h.5s.2-.4.2-.4h-1c-.2-.1-.5-.2-.7-.2-.7,0-1.4.5-1.4,1.2s.3.8.8.9c0,0-.5.3-.7.6,0,.5.5.5.5.5,0,0-.8.4-.8.9h0ZM27.4,152c0-.6.6-.7,1-.7s1.1,0,1.1.6-.6.9-1.1.9c-.5,0-1-.3-1-.8h0ZM27.5,149.1c0-.4.2-.8.6-.8s.7.5.7,1-.2.8-.6.8c-.5,0-.7-.5-.7-.9h0ZM30.5,151.3c.3,0,.6,0,.9,0s.6,0,.9,0v-.2c-.5,0-.6,0-.6-.5v-1.3c0-.2.3-.6.6-.6s.4.1.4.2h0s.3-.5.3-.5c0-.1-.3-.3-.4-.3-.4,0-.8.4-.9.7v-.7h0c-.6.1-.4,0-1.1.2v.2c.5,0,.5,0,.5.5v1.6c0,.5,0,.5-.5.5v.2h0ZM33.3,149.8c0,.9.6,1.6,1.5,1.6s1.7-.8,1.7-1.7-.7-1.6-1.6-1.6c-1,0-1.6.8-1.6,1.7h0ZM34,149.5c0-.6.2-1.2.9-1.2s1,.9,1,1.6-.2,1.3-.9,1.3c-.8,0-1.1-1-1.1-1.6h0ZM37,148.5c.4,0,.5,0,.5.4v1.4c0,.7.2,1.1.9,1.1s.9-.2,1.2-.6v.6h0c.6,0,.4,0,1.1,0v-.2c-.4,0-.5,0-.5-.4v-2.5h0c-.6,0-.4,0-1.1.2v.2c.4,0,.5,0,.5.4v1.2c0,.3-.4.9-.9.9s-.6-.4-.6-.8v-2h0c-.6,0-.4,0-1,.2v.2h0ZM41.2,152.9v.2c.3,0,.6,0,.9,0s.6,0,.9,0v-.2c-.5,0-.6,0-.6-.5v-1.2c.2.1.4.2.6.2,1.4,0,1.8-.7,1.8-2s-.6-1.3-1.3-1.3-.8.2-1.1.6v-.6h0c-.7.2-.5.1-1.1.3v.2c.5,0,.5,0,.5.5v3.4c0,.5,0,.5-.5.5h0ZM42.3,150.7v-1.7c.1-.3.5-.5.8-.5.7,0,1,.6,1,1.2s-.3,1.3-1,1.3c-.3,0-.6-.1-.8-.3h0Z"/>
  <path class="st3" d="M113.7,36.2c28.5,27.8,41.2,49.1,51.6,86.2"/>
  <path class="st1" d="M167.1,119.9c-1.3.8-1.7,1.7-1.7,2.6-.5-.7-1.4-1.4-2.9-1.3"/>
  <path d="M174.8,59.1c.5,0,.9,0,1.4,0s.9,0,1.4,0v-.3c-.9,0-.9-.1-.9-1.1v-4c0-1,0-1,.9-1.1v-.3c-.4,0-.9,0-1.3,0s-1,0-1.4,0v.3c.9,0,.9.1.9,1.1v4c0,1,0,1-.9,1.1v.3ZM178.3,59.1c.4,0,.8,0,1.2,0s.8,0,1.2,0v-.3c-.6,0-.7,0-.7-.7v-2.3c.2-.4.7-.7,1.2-.7.7,0,1,.6,1,.9v2c0,.2,0,.8-.4.8v.2c.3,0,.6,0,.9,0s.6,0,.9,0v-.3c-.6,0-.7,0-.7-.7v-2c0-1-.5-1.5-1.5-1.5s-1.1.3-1.5.8v-.8h0c-1,.2-.7.2-1.5.3v.2c.7,0,.7,0,.7.7v2.3c0,.7-.1.7-.8.7v.3h0ZM184.2,59.1c.4,0,.8,0,1.2,0s.8,0,1.2,0v-.3c-.7,0-.8,0-.8-.7v-3.5h0c0,0-1.5.3-1.5.3v.2c.7,0,.7,0,.7.7v2.3c0,.7-.1.6-.8.7v.3ZM184.8,53.4c0,.3.2.5.5.5s.5-.2.5-.5-.2-.6-.5-.6-.5.3-.5.6h0ZM187.2,54.8v.4h.7v2.8c0,.7.3,1.1,1,1.1s.8-.3,1.1-.6v-.2c-.3.1-.5.2-.7.2-.5,0-.6-.4-.6-.8v-2.6h1.2v-.4s-1.2,0-1.2,0v-1.5h0c-.5,0-.7.2-.7.8v.7h-.7ZM191.1,58.6c0,.3.2.6.6.6s.6-.3.6-.6-.3-.6-.6-.6-.6.3-.6.6h0ZM191.1,55.2c0,.3.2.6.6.6s.6-.3.6-.6-.3-.6-.6-.6c-.3,0-.6.3-.6.6h0Z"/>
  <path d="M196.8,57.4v1.5c.6.2,1.1.4,1.7.4,1.3,0,2.6-.8,2.6-2.2,0-2.4-3.5-1.2-3.5-3.1s.5-1.3,1.3-1.3c1.1,0,1.2.5,1.5,1.3h.3s0-1.4,0-1.4c-.5-.2-1-.3-1.5-.3-1.2,0-2.3.7-2.3,2,0,2.3,3.4,1.2,3.4,3.2s-.7,1.4-1.5,1.4c-1.6,0-1.4-1.1-1.7-1.4h-.3ZM202,57c0,1.3.8,2.2,2.1,2.2.5,0,1.4-.3,1.7-.9h-.1c-.4.1-.7.3-1.2.3-1.2,0-1.7-.9-1.7-2,0,0,.4,0,.9,0s.9,0,1.3,0l.8-.3c0-1.3-.7-1.9-1.6-1.9s-.8.2-1.2.4c-.8.5-1.1,1.2-1.1,2.1h0ZM202.9,56.3c0-.7.4-1.4,1.2-1.4s1,.5,1,1-.1.4-.4.5c-.1,0-.9,0-1.1,0-.6,0-.7,0-.7,0h0ZM206.6,54.8v.4h.7v2.8c0,.7.3,1.1,1,1.1s.8-.3,1.1-.6v-.2c-.3.1-.5.2-.7.2-.5,0-.6-.4-.6-.8v-2.6h1.2v-.4s-1.2,0-1.2,0v-1.5h0c-.5,0-.7.2-.7.8v.7h-.7Z"/>
  <path d="M150.5,68.3c0,1.7.9,2.9,3.2,2.9s1.3-.2,2.1-.5v-.3c0-.2.2-1.4.2-1.4,0-.4.3-.5.7-.6v-.3c-.3,0-.7,0-1.2,0s-1,0-1.3,0v.3c.3,0,1,0,1,.5s-.2,1.3-.2,1.3c0,.4-.7.5-1.3.5-1.6,0-2.4-1-2.4-2.6s1-3.6,3-3.6,1.7.4,1.7,1.4h.3s.2-1.5.2-1.5c-.6-.2-1.2-.3-1.9-.3-2.3,0-4.2,1.7-4.2,4.1h0ZM161,69.8h5.1v-.5h-5.1v.5ZM161,67.8h5.1v-.5h-5.1v.5Z"/>
  <path d="M170.2,67.8c0,1.3.4,3.4,2.1,3.4s2.1-2.1,2.1-3.4-.3-3.4-2-3.4-2.2,2-2.2,3.4h0ZM171.1,67.8c0-.8,0-3,1.2-3s1.3,2.2,1.3,3,0,3.1-1.2,3.1c-1.3,0-1.3-2.2-1.3-3.1h0ZM175.3,72.3v.2c.8-.3,1.7-1.4,1.7-2.1s-.3-.6-.5-.6-.4.2-.4.3,0,0,0,0c0,.1,0,.3,0,.4,0,.7-.7,1.5-.9,1.7h0Z"/>
  <path d="M181.9,71h2.6v-.2c-.5,0-.8,0-.8-.4s.8-4.9.8-4.9c.1-.8.3-.8,1-.9v-.2s-2.5,0-2.5,0v.2c.6,0,.7,0,.7.4s-.8,4.7-.8,4.7c-.2.9-.1,1-1,1.1v.2ZM189.7,69.8h5.1v-.5h-5.1v.5ZM189.7,67.8h5.1v-.5h-5.1v.5Z"/>
  <path d="M198.9,67.8c0,1.3.4,3.4,2.1,3.4s2.1-2.1,2.1-3.4-.3-3.4-2-3.4-2.2,2-2.2,3.4h0ZM199.8,67.8c0-.8,0-3,1.2-3s1.3,2.2,1.3,3,0,3.1-1.2,3.1c-1.3,0-1.3-2.2-1.3-3.1h0ZM204.1,72.3v.2c.8-.3,1.7-1.4,1.7-2.1s-.3-.6-.5-.6-.4.2-.4.3,0,0,0,0c0,.1,0,.3,0,.4,0,.7-.7,1.5-.9,1.7h0Z"/>
  <path d="M210.6,65.9h.3c.4-1,.4-1.2,1.5-1.2h.8l-.9,5c-.2,1.1-.2,1-1.2,1.1v.2s2.8,0,2.8,0v-.2c-.6,0-.9,0-.9-.5s1-5.6,1-5.6h.7c1.1,0,1.2,0,1.2,1.2h.3c0-.3.1-1.2.2-1.4l-1.1-.3c-.8,0-1,0-1.8,0s-2,0-2.5,0c0,.3-.2,1.4-.3,1.7h0ZM220.5,69.8h5.1v-.5h-5.1v.5ZM220.5,67.8h5.1v-.5h-5.1v.5Z"/>
  <path d="M229.7,67.8c0,1.3.4,3.4,2.1,3.4s2.1-2.1,2.1-3.4-.3-3.4-2-3.4-2.2,2-2.2,3.4h0ZM230.6,67.8c0-.8,0-3,1.2-3s1.3,2.2,1.3,3,0,3.1-1.2,3.1c-1.3,0-1.3-2.2-1.3-3.1h0Z"/>
  <path class="st3" d="M197.6,142.1c40.6-10.9,40.6,24.4,1.3,13.8"/>
  <path class="st1" d="M200.1,158.7c0-1.5-.6-2.4-1.4-2.8.9,0,1.9-.5,2.6-1.8"/>
  <path d="M231.8,146.1c.5,0,.9,0,1.4,0s.9,0,1.4,0v-.3c-.9,0-.9-.1-.9-1.1v-4c0-1,0-1,.9-1.1v-.3c-.4,0-.9,0-1.3,0s-1,0-1.4,0v.3c.9,0,.9.1.9,1.1v4c0,1,0,1-.9,1.1v.3ZM235.3,146.1c.4,0,.8,0,1.2,0s.8,0,1.2,0v-.3c-.6,0-.7,0-.7-.7v-2.3c.2-.4.7-.7,1.2-.7.7,0,1,.6,1,.9v2c0,.2,0,.8-.4.8v.2c.3,0,.6,0,.9,0s.6,0,.9,0v-.3c-.6,0-.7,0-.7-.7v-2c0-1-.5-1.5-1.5-1.5s-1.1.3-1.5.8v-.8h0c-1,.2-.7.2-1.5.3v.2c.7,0,.7,0,.7.7v2.3c0,.7-.1.7-.8.7v.3h0ZM241.3,144.1c0,1.3.9,2.2,2.2,2.2s1.4-.4,1.6-.9h-.1c-.4.1-.7.3-1.1.3-1.1,0-1.7-1-1.7-2s.4-1.6,1.3-1.6.8,0,.9.3l.2.4h.2s.2-.8.2-.8c-.2-.3-.9-.4-1.1-.4-1.4,0-2.6,1.1-2.6,2.5h0ZM245.8,146.1c.4,0,.8,0,1.2,0s.8,0,1.2,0v-.3c-.7,0-.9,0-.9-.7v-1.9c0-.3.4-.9.8-.9s.5.2.5.3h.1s.4-.7.4-.7c0-.2-.4-.4-.6-.4-.5,0-1.1.6-1.3,1v-1h0c-.8.2-.6.1-1.5.3v.2c.7,0,.7,0,.7.7v2.3c0,.7-.1.6-.8.7v.3h0ZM249.9,144c0,1.3.8,2.2,2.1,2.2.5,0,1.4-.3,1.7-.9h-.1c-.4.1-.7.3-1.2.3-1.2,0-1.7-.9-1.7-2,0,0,.4,0,.9,0s.9,0,1.3,0l.8-.3c0-1.3-.7-1.9-1.6-1.9s-.8.2-1.2.4c-.8.5-1.1,1.2-1.1,2.1h0ZM250.8,143.3c0-.7.4-1.4,1.2-1.4s1,.5,1,1-.1.4-.4.5c-.1,0-.9,0-1.1,0-.6,0-.7,0-.7,0h0ZM254.5,146.1s.7,0,1.1,0,.8,0,1.2,0v-.3c-.6,0-.7,0-.7-.7v-2.3c.2-.4.7-.7,1.2-.7.7,0,.9.6.9,1.1v1.9c0,.7-.1.6-.8.7v.3s.7,0,1.1,0,.8,0,1.2,0v-.3c-.7,0-.7,0-.7-.7v-2.3c.2-.4.7-.7,1.2-.7.7,0,.9.6.9,1.2v1.8c0,.2,0,.8-.3.8v.2c.3,0,.6,0,.9,0s.7,0,1,0v-.3c-.7,0-.7,0-.7-.7v-2.1c0-.9-.5-1.5-1.4-1.5s-1.2.4-1.6.9c-.2-.6-.7-.9-1.3-.9s-1.1.4-1.5.8v-.8h0c-.9.2-.6.1-1.5.3v.2c.7,0,.7,0,.7.7v2.3c0,.7-.1.6-.8.7v.3h0ZM263.4,144c0,1.3.8,2.2,2.1,2.2.5,0,1.4-.3,1.7-.9h-.1c-.4.1-.7.3-1.2.3-1.2,0-1.7-.9-1.7-2,0,0,.4,0,.9,0s.9,0,1.3,0l.8-.3c0-1.3-.7-1.9-1.6-1.9s-.8.2-1.2.4c-.8.5-1.1,1.2-1.1,2.1h0ZM264.3,143.3c0-.7.4-1.4,1.2-1.4s1,.5,1,1-.1.4-.4.5c-.1,0-.9,0-1.1,0-.6,0-.7,0-.7,0h0ZM268,146.1c.4,0,.8,0,1.2,0s.8,0,1.2,0v-.3c-.6,0-.7,0-.7-.7v-2.3c.2-.4.7-.7,1.2-.7.7,0,1,.6,1,.9v2c0,.2,0,.8-.4.8v.2c.3,0,.6,0,.9,0s.6,0,.9,0v-.3c-.6,0-.7,0-.7-.7v-2c0-1-.5-1.5-1.5-1.5s-1.1.3-1.5.8v-.8h0c-1,.2-.7.2-1.5.3v.2c.7,0,.7,0,.7.7v2.3c0,.7-.1.7-.8.7v.3h0Z"/>
  <path d="M273.8,141.9v.4h.7v2.8c0,.7.3,1.1,1,1.1s.8-.3,1.1-.6v-.2c-.3.1-.5.2-.7.2-.5,0-.6-.4-.6-.8v-2.6h1.2v-.4s-1.2,0-1.2,0v-1.5h0c-.5,0-.7.2-.7.8v.7h-.7Z"/>
  <path d="M238.8,158.1h2.6v-.2c-.5,0-.8,0-.8-.4s.8-4.9.8-4.9c.1-.8.3-.8,1-.9v-.2s-2.5,0-2.5,0v.2c.6,0,.7,0,.7.4s-.8,4.7-.8,4.7c-.2.9-.1,1-1,1.1v.2Z"/>
  <path d="M245.3,157c0,.7.6,1.2,1.2,1.2s1.2-.6,1.4-.8c0,.2,0,.7.2.7s1.2-.2,1.3-.2v-.3c-.1,0-.2,0-.3,0-.3,0-.4-.1-.4-.5v-2c0-1-.3-1.6-1.4-1.6-.9,0-1.5.5-1.8,1.2l.3.2c.3-.5.5-.9,1.1-.9s1,.4,1,1.3l-1.3.4c-.7.2-1.3.5-1.3,1.3h0ZM246.1,156.8c0-.7,1.8-1.2,1.8-1.2v1.5c-.2.3-.7.6-1.1.6-.4,0-.7-.4-.7-.8h0ZM250,158.1c.4,0,.8,0,1.2,0s.8,0,1.2,0v-.3c-.6,0-.7,0-.7-.7v-2.3c.2-.4.7-.7,1.2-.7.7,0,1,.6,1,.9v2c0,.2,0,.8-.4.8v.2c.3,0,.6,0,.9,0s.6,0,.9,0v-.3c-.6,0-.7,0-.7-.7v-2c0-1-.5-1.5-1.5-1.5s-1.1.3-1.5.8v-.8h0c-1,.2-.7.2-1.5.3v.2c.7,0,.7,0,.7.7v2.3c0,.7-.1.7-.8.7v.3h0ZM256.1,156c0,1.2.8,2.2,2.1,2.2s1.2-.4,1.5-.8v.8c.9-.1.6-.1,1.6-.2v-.2c-.6,0-.8,0-.8-.6v-6.1h0c-.9.1-.6,0-1.5.3v.2c.6,0,.8,0,.8.5v1.7s-.6-.2-.9-.2c-1.4,0-2.6,1.1-2.6,2.5h0ZM257,155.7c0-.9.4-1.8,1.4-1.8s1.2.2,1.2.6v2.1c0,.6-.7,1-1.2,1-1,0-1.4-1.1-1.4-1.9h0Z"/>
  <path d="M264.2,153h.3c.4-1,.4-1.2,1.5-1.2h.8l-.9,5c-.2,1.1-.2,1-1.2,1.1v.2s2.8,0,2.8,0v-.2c-.6,0-.9,0-.9-.5s1-5.6,1-5.6h.7c1.1,0,1.2,0,1.2,1.2h.3c0-.3.1-1.2.2-1.4l-1.1-.3c-.8,0-1,0-1.8,0s-2,0-2.5,0c0,.3-.2,1.4-.3,1.7h0Z"/>
  <path class="st3" d="M147.2,155.6c-37,9.8-60.9,9.8-96.5.1"/>
  <path class="st1" d="M51.9,158.5c0-1.5-.6-2.4-1.4-2.9.9,0,1.9-.5,2.6-1.8"/>
  <path d="M82.8,173.6c.5,0,.9,0,1.4,0s.9,0,1.4,0v-.3c-.9,0-.9-.1-.9-1.1v-4c0-1,0-1,.9-1.1v-.3c-.4,0-.9,0-1.3,0s-1,0-1.4,0v.3c.9,0,.9.1.9,1.1v4c0,1,0,1-.9,1.1v.3h0ZM86.4,173.6c.4,0,.8,0,1.2,0s.8,0,1.2,0v-.3c-.7,0-.9,0-.9-.7v-2.9h1.2v-.4c0,0-1.2,0-1.2,0,0-.1,0-.4,0-.7,0-.7,0-1.6.7-1.6s.7.3.9.3.2-.3.2-.5c0-.3-.5-.4-.7-.4-.8,0-1.4.6-1.7,1.2-.2.4-.2,1-.2,1.7h-.7s0,.4,0,.4h.7s0,2.9,0,2.9c0,.7-.1.6-.7.7v.3h0Z"/>
  <path d="M92.3,173.6h2.6v-.2c-.5,0-.8,0-.8-.4s.8-4.9.8-4.9c.1-.8.3-.8,1-.9v-.2s-2.5,0-2.5,0v.2c.6,0,.7,0,.7.4s-.8,4.7-.8,4.7c-.2.9-.1,1-1,1.1v.2ZM100.1,172.3h5.1v-.5h-5.1v.5ZM100.1,170.3h5.1v-.5h-5.1v.5Z"/>
  <path d="M109.3,172.6c.3.9.5,1.1,1.6,1.1s2.6-1,2.6-2.3c0-2.1-2.7-1.1-2.7-3s.6-1.3,1.4-1.3,1.1.5,1.2,1.3h.3c0-.5,0-.9.1-1.4-.5-.2-.8-.3-1.3-.3-1.2,0-2.4.8-2.4,2.1,0,2.2,2.7,1.1,2.7,3s-.6,1.5-1.6,1.5-1.2-.5-1.4-1.4c0,0-.2,0-.2,0l-.2.7Z"/>
  <path class="st3" d="M49.4,142.3c37-10,60.8-10.1,96.5-.6"/>
  <path class="st1" d="M144.7,138.9c0,1.5.6,2.4,1.4,2.8-.9,0-1.9.5-2.6,1.8"/>
  <path d="M75.8,107.2c.5,0,.9,0,1.4,0s.9,0,1.4,0v-.3c-.9,0-.9-.1-.9-1.1v-4c0-1,0-1,.9-1.1v-.3c-.4,0-.9,0-1.3,0s-1,0-1.4,0v.3c.9,0,.9.1.9,1.1v4c0,1,0,1-.9,1.1v.3h0ZM79.3,107.2c.4,0,.8,0,1.2,0s.8,0,1.2,0v-.3c-.6,0-.7,0-.7-.7v-2.3c.2-.4.7-.7,1.2-.7.7,0,1,.6,1,.9v2c0,.2,0,.8-.4.8v.2c.3,0,.6,0,.9,0s.6,0,.9,0v-.3c-.6,0-.7,0-.7-.7v-2c0-1-.5-1.5-1.5-1.5s-1.1.3-1.5.8v-.8h0c-1,.2-.7.2-1.5.3v.2c.7,0,.7,0,.7.7v2.3c0,.7-.1.7-.8.7v.3h0ZM85.3,105.1c0,1.3.9,2.2,2.2,2.2s1.4-.4,1.6-.9h-.1c-.4.1-.7.3-1.1.3-1.1,0-1.7-1-1.7-2s.4-1.6,1.3-1.6.8,0,.9.3l.2.4h.2s.2-.8.2-.8c-.2-.3-.9-.4-1.1-.4-1.4,0-2.6,1.1-2.6,2.5h0ZM89.8,107.2c.4,0,.8,0,1.2,0s.8,0,1.2,0v-.3c-.7,0-.9,0-.9-.7v-1.9c0-.3.4-.9.8-.9s.5.2.5.3h.1s.4-.7.4-.7c0-.2-.4-.4-.6-.4-.5,0-1.1.6-1.3,1v-1h0c-.8.2-.6.1-1.5.3v.2c.7,0,.7,0,.7.7v2.3c0,.7-.1.6-.8.7v.3h0ZM93.9,105.1c0,1.3.8,2.2,2.1,2.2.5,0,1.4-.3,1.7-.9h-.1c-.4.1-.7.3-1.2.3-1.2,0-1.7-.9-1.7-2,0,0,.4,0,.9,0s.9,0,1.3,0l.8-.3c0-1.3-.7-1.9-1.6-1.9s-.8.2-1.2.4c-.8.5-1.1,1.2-1.1,2.1h0ZM94.7,104.4c0-.7.4-1.4,1.2-1.4s1,.5,1,1-.1.4-.4.5c-.1,0-.9,0-1.1,0-.6,0-.7,0-.7,0h0ZM98.5,107.2s.7,0,1.1,0,.8,0,1.2,0v-.3c-.6,0-.7,0-.7-.7v-2.3c.2-.4.7-.7,1.2-.7.7,0,.9.6.9,1.1v1.9c0,.7-.1.6-.8.7v.3s.7,0,1.1,0,.8,0,1.2,0v-.3c-.7,0-.7,0-.7-.7v-2.3c.2-.4.7-.7,1.2-.7.7,0,.9.6.9,1.2v1.8c0,.2,0,.8-.3.8v.2c.3,0,.6,0,.9,0s.7,0,1,0v-.3c-.7,0-.7,0-.7-.7v-2.1c0-.9-.5-1.5-1.4-1.5s-1.2.4-1.6.9c-.2-.6-.7-.9-1.3-.9s-1.1.4-1.5.8v-.8h0c-.9.2-.6.1-1.5.3v.2c.7,0,.7,0,.7.7v2.3c0,.7-.1.6-.8.7v.3h0ZM107.3,105.1c0,1.3.8,2.2,2.1,2.2.5,0,1.4-.3,1.7-.9h-.1c-.4.1-.7.3-1.2.3-1.2,0-1.7-.9-1.7-2,0,0,.4,0,.9,0s.9,0,1.3,0l.8-.3c0-1.3-.7-1.9-1.6-1.9s-.8.2-1.2.4c-.8.5-1.1,1.2-1.1,2.1h0ZM108.2,104.4c0-.7.4-1.4,1.2-1.4s1,.5,1,1-.1.4-.4.5c-.1,0-.9,0-1.1,0-.6,0-.7,0-.7,0h0ZM111.9,107.2c.4,0,.8,0,1.2,0s.8,0,1.2,0v-.3c-.6,0-.7,0-.7-.7v-2.3c.2-.4.7-.7,1.2-.7.7,0,1,.6,1,.9v2c0,.2,0,.8-.4.8v.2c.3,0,.6,0,.9,0s.6,0,.9,0v-.3c-.6,0-.7,0-.7-.7v-2c0-1-.5-1.5-1.5-1.5s-1.1.3-1.5.8v-.8h0c-1,.2-.7.2-1.5.3v.2c.7,0,.7,0,.7.7v2.3c0,.7-.1.7-.8.7v.3h0Z"/>
  <path d="M117.8,102.9v.4h.7v2.8c0,.7.3,1.1,1,1.1s.8-.3,1.1-.6v-.2c-.3.1-.5.2-.7.2-.5,0-.6-.4-.6-.8v-2.6h1.2v-.4s-1.2,0-1.2,0v-1.5h0c-.5,0-.7.2-.7.8v.7h-.7Z"/>
  <path d="M95.4,116.4c0,1.7.9,2.9,3.2,2.9s1.3-.2,2.1-.5v-.3c0-.2.2-1.4.2-1.4,0-.4.3-.5.7-.6v-.3c-.3,0-.7,0-1.2,0s-1,0-1.3,0v.3c.3,0,1,0,1,.5s-.2,1.3-.2,1.3c0,.4-.7.5-1.3.5-1.6,0-2.4-1-2.4-2.6s1-3.6,3-3.6,1.7.4,1.7,1.4h.3s.2-1.5.2-1.5c-.6-.2-1.2-.3-1.9-.3-2.3,0-4.2,1.7-4.2,4.1h0Z"/>
  <path d="M75.4,130c0,.7.6,1.2,1.2,1.2s1.2-.6,1.4-.8c0,.2,0,.7.2.7s1.2-.2,1.3-.2v-.3c-.1,0-.2,0-.3,0-.3,0-.4-.1-.4-.5v-2c0-1-.3-1.6-1.4-1.6-.9,0-1.5.5-1.8,1.2l.3.2c.3-.5.5-.9,1.1-.9s1,.4,1,1.3l-1.3.4c-.7.2-1.3.5-1.3,1.3h0ZM76.2,129.9c0-.7,1.8-1.2,1.8-1.2v1.5c-.2.3-.7.6-1.1.6-.4,0-.7-.4-.7-.8h0ZM80.1,131.1c.4,0,.8,0,1.2,0s.8,0,1.2,0v-.3c-.6,0-.7,0-.7-.7v-2.3c.2-.4.7-.7,1.2-.7.7,0,1,.6,1,.9v2c0,.2,0,.8-.4.8v.2c.3,0,.6,0,.9,0s.6,0,.9,0v-.3c-.6,0-.7,0-.7-.7v-2c0-1-.5-1.5-1.5-1.5s-1.1.3-1.5.8v-.8h0c-1,.2-.7.2-1.5.3v.2c.7,0,.7,0,.7.7v2.3c0,.7-.1.7-.8.7v.3h0ZM86.2,129c0,1.2.8,2.2,2.1,2.2s1.2-.4,1.5-.8v.8c.9-.1.6-.1,1.6-.2v-.2c-.6,0-.8,0-.8-.6v-6.1h0c-.9.1-.6,0-1.5.3v.2c.6,0,.8,0,.8.5v1.7s-.6-.2-.9-.2c-1.4,0-2.6,1.1-2.6,2.5h0ZM87,128.7c0-.9.4-1.8,1.4-1.8s1.2.2,1.2.6v2.1c0,.6-.7,1-1.2,1-1,0-1.4-1.1-1.4-1.9h0Z"/>
  <path d="M94.5,131.1c.4,0,.8,0,1.2,0s.8,0,1.2,0v-.3c-.7,0-.9,0-.9-.7v-1.9c0-.3.4-.9.8-.9s.5.2.5.3h.1s.4-.7.4-.7c0-.2-.4-.4-.6-.4-.5,0-1.1.6-1.3,1v-1h0c-.8.2-.6.1-1.5.3v.2c.7,0,.7,0,.7.7v2.3c0,.7-.1.6-.8.7v.3h0ZM98.6,129c0,1.3.8,2.2,2.1,2.2.5,0,1.4-.3,1.7-.9h-.1c-.4.1-.7.3-1.2.3-1.2,0-1.7-.9-1.7-2,0,0,.4,0,.9,0s.9,0,1.3,0l.8-.3c0-1.3-.7-1.9-1.6-1.9s-.8.2-1.2.4c-.8.5-1.1,1.2-1.1,2.1h0ZM99.5,128.3c0-.7.4-1.4,1.2-1.4s1,.5,1,1-.1.4-.4.5c-.1,0-.9,0-1.1,0-.6,0-.7,0-.7,0h0ZM103.4,130.4c.3.7.5.8,1.3.8s1.9-.5,1.9-1.5c0-1.6-2.5-1-2.5-2.2s.4-.7.8-.7c.6,0,1,.4,1.1,1h.3s0-1.1,0-1.1c-.3-.1-.7-.2-1.1-.2-.8,0-1.7.4-1.7,1.4,0,1.5,2.4.9,2.4,2.2s-.5.8-1,.8c-1.2,0-1-.8-1.2-1.1h-.2c0-.1-.2.6-.2.6ZM107.5,129c0,1.3.8,2.2,2.1,2.2.5,0,1.4-.3,1.7-.9h-.1c-.4.1-.7.3-1.2.3-1.2,0-1.7-.9-1.7-2,0,0,.4,0,.9,0s.9,0,1.3,0l.8-.3c0-1.3-.7-1.9-1.6-1.9s-.8.2-1.2.4c-.8.5-1.1,1.2-1.1,2.1h0ZM108.3,128.3c0-.7.4-1.4,1.2-1.4s1,.5,1,1-.1.4-.4.5c-.1,0-.9,0-1.1,0-.6,0-.7,0-.7,0h0ZM112.1,126.8v.4h.7v2.8c0,.7.3,1.1,1,1.1s.8-.3,1.1-.6v-.2c-.3.1-.5.2-.7.2-.5,0-.6-.4-.6-.8v-2.6h1.2v-.4s-1.2,0-1.2,0v-1.5h0c-.5,0-.7.2-.7.8v.7h-.7Z"/>
  <path d="M118,131.1h2.6v-.2c-.5,0-.8,0-.8-.4s.8-4.9.8-4.9c.1-.8.3-.8,1-.9v-.2s-2.5,0-2.5,0v.2c.6,0,.7,0,.7.4s-.8,4.7-.8,4.7c-.2.9-.1,1-1,1.1v.2Z"/>
  <path class="st3" d="M31.6,124.6c10.8-38.6,23.6-60.4,51.3-87.4"/>
  <path class="st1" d="M79.9,36.7c1.3.8,2.4.7,3.2.3-.4.8-.5,1.9.2,3.2"/>
  <path d="M10.3,72.7c.5,0,.9,0,1.4,0s.9,0,1.4,0v-.3c-.9,0-.9-.1-.9-1.1v-4c0-1,0-1,.9-1.1v-.3c-.4,0-.9,0-1.3,0s-1,0-1.4,0v.3c.9,0,.9.1.9,1.1v4c0,1,0,1-.9,1.1v.3h0ZM13.9,72.7c.4,0,.8,0,1.2,0s.8,0,1.2,0v-.3c-.7,0-.9,0-.9-.7v-2.9h1.2v-.4c0,0-1.2,0-1.2,0,0-.1,0-.4,0-.7,0-.7,0-1.6.7-1.6s.7.3.9.3.2-.3.2-.5c0-.3-.5-.4-.7-.4-.8,0-1.4.6-1.7,1.2-.2.4-.2,1-.2,1.7h-.7s0,.4,0,.4h.7s0,2.9,0,2.9c0,.7-.1.6-.7.7v.3h0Z"/>
  <path d="M20.4,70c0,1.7.9,2.9,3.2,2.9s1.3-.2,2.1-.5v-.3c0-.2.2-1.4.2-1.4,0-.4.3-.5.7-.6v-.3c-.3,0-.7,0-1.2,0s-1,0-1.3,0v.3c.3,0,1,0,1,.5s-.2,1.3-.2,1.3c0,.4-.7.5-1.3.5-1.6,0-2.4-1-2.4-2.6s1-3.6,3-3.6,1.7.4,1.7,1.4h.3s.2-1.5.2-1.5c-.6-.2-1.2-.3-1.9-.3-2.3,0-4.2,1.7-4.2,4.1h0ZM30.9,71.5h5.1v-.5h-5.1v.5ZM30.9,69.5h5.1v-.5h-5.1v.5Z"/>
  <path d="M39.6,72.7s.7,0,1.2,0,.7,0,1.1,0v-.2c-.3,0-.8,0-.8-.5s.8-4.7.8-4.7l3.3,5.6h.4l1.1-5.7c.1-.7.2-.8,1-.9v-.2s-.7,0-1.1,0-.8,0-1.1,0v.2c.4,0,.8,0,.8.3,0,.4-.8,5-.8,5l-3.3-5.5c-.3,0-.6,0-.9,0s-.4,0-.6,0v.2c.6,0,.9.2.9.7s-.9,4.8-.9,4.8c-.1.6-.3.6-.9.6v.2Z"/>
</svg>