<?xml version="1.0" encoding="UTF-8"?>
<svg id="Layer_1" xmlns="http://www.w3.org/2000/svg" version="1.1" viewBox="0 0 330.5 212.4">
  <!-- Generator: Adobe Illustrator 29.4.0, SVG Export Plug-In . SVG Version: 2.1.0 Build 152)  -->
  <defs>
    <style>
      .st0 {
        stroke-width: 1.4px;
      }

      .st0, .st1, .st2, .st3 {
        fill: none;
      }

      .st0, .st1, .st3 {
        stroke: #000;
      }

      .st0, .st2, .st3 {
        stroke-miterlimit: 10;
      }

      .st1 {
        stroke-linecap: round;
        stroke-linejoin: round;
      }

      .st1, .st3 {
        stroke-width: .4px;
      }

      .st2 {
        stroke: #fff;
        stroke-width: .6px;
      }
    </style>
  </defs>
  <path class="st0" d="M160.1,21.3c0-11.4-9.2-20.6-20.6-20.6s-20.6,9.2-20.6,20.6,9.2,20.6,20.6,20.6,20.6-9.2,20.6-20.6h0Z"/>
  <path class="st2" d="M160.1,21.3c0-11.4-9.2-20.6-20.6-20.6s-20.6,9.2-20.6,20.6,9.2,20.6,20.6,20.6,20.6-9.2,20.6-20.6h0Z"/>
  <path d="M124.2,20.8c0,.5.2,1,.5,1,1,0,2.2-1.6,2.4-2l-.7,3.7c-.1.6-.3.5-.6.6v.2c.1,0,1.5-.1,1.6-.2v-.2c-.3,0-.4,0-.4-.2s1.2-6.4,1.2-6.4h0c0,0-.2,0-.2,0,0,0-.6-.2-.9-.2-1.4,0-2.9,1.5-2.9,3.8h0ZM124.9,20.4c0-1.7.9-3,1.7-3s.5,0,.8.2c0,.3-.3,1.2-.3,1.4-.6,1.1-1.5,2.1-1.9,2.1-.2,0-.3-.2-.3-.6h0Z"/>
  <path d="M128.9,21.7c0,.9.4,2.1,1.4,2.1s1.5-1.3,1.5-2.3-.4-2.1-1.4-2.1c-1.1,0-1.5,1.2-1.5,2.2h0ZM129.6,21.6c0-.6,0-1.8.8-1.8s.8,1.3.8,2,0,1.8-.8,1.8c-.8,0-.8-1.3-.8-2h0ZM132.7,24.3h.5l2-5.4h-.5l-2,5.4ZM135.9,23.2c0,.4.2.6.3.6.4,0,1.1-.8,1.6-1.4,0,.1-.3.7-.3,1.1s0,.3.2.3.6-.3,1.1-.7v-.2c-.2,0-.5.3-.6.3s0,0,0-.1c0-.4.4-1.8.6-2.6h0s-.3,0-.3,0c-.2,0-.3-.1-.5-.1-1.4,0-2,1.6-2,2.6h0ZM136.4,23c0-.8.5-2.2,1.2-2.2s.3,0,.5.1c0,.3-.2.8-.3,1-.1.2-.9,1.4-1.2,1.4s-.2-.1-.2-.3h0Z"/>
  <path d="M139.4,22.8c0,.6.3,1,.8,1s1.1-.4,1.4-.7h0c-.3,0-.7.3-1,.3s-.5-.3-.5-.8c0-1,.5-1.8,1-1.8s.5.2.5.3,0,.1,0,.2h.2c0-.2.2-.4.2-.5s-.3-.3-.6-.3c-1.2,0-1.9,1.1-1.9,2.3h0ZM142.6,22.8c0,.6.3,1,.8,1s1.1-.4,1.4-.7h0c-.3,0-.7.3-1,.3s-.5-.3-.5-.8c0-1,.5-1.8,1-1.8s.5.2.5.3,0,.1,0,.2h.2c0-.2.2-.4.2-.5s-.3-.3-.6-.3c-1.2,0-1.9,1.1-1.9,2.3h0ZM145.8,22.9c0,.7.4.9.8.9s.9-.2,1.5-.8h0c-.3.1-.7.4-1.1.4s-.5-.4-.5-.7,0-.2,0-.3c.6-.2,1.9-.5,1.9-1.3s-.2-.5-.6-.5c-1,0-1.9,1.2-1.9,2.4h0ZM146.4,22.2c0-.4.4-1.4.9-1.4s.3.1.3.4c0,.6-.8.9-1.3,1h0ZM148.8,25.5c.3,0,.8,0,1.1-.1,0,0,0-.2,0-.2-.2,0-.3-.1-.3-.3,0-.3.1-1,.2-1.3.1,0,.3.1.5.1,1.3,0,1.9-1.4,1.9-2.5s-.2-.8-.7-.8-.9.4-1.2.7c0-.2.1-.7.1-.7h0c-.2,0-.8.4-1.2.5v.2c.2,0,.4-.2.6-.2-.1.9-.6,4.3-1,4.3v.2ZM149.9,23.3s.3-1.5.3-1.6c.2-.4.6-.9.9-.9s.5.2.5.6-.4,2-1.2,2c-.2,0-.4,0-.5-.2h0Z"/>
  <path d="M153,21h.5s-.5,2.2-.5,2.4,0,.3.2.3c.3,0,1-.6,1.2-.8,0,0,0-.1,0-.1-.1.1-.5.4-.7.4s0,0,0-.2c0-.2.4-1.9.4-2.2h.8v-.3c0,0-.7,0-.7,0,0-.3.2-1,.3-1.1h0c0,0-.5.2-.6.3l-.2.9h-.5v.3Z"/>
  <line class="st3" x1="105.3" y1="21.3" x2="117.1" y2="21.3"/>
  <path class="st1" d="M115.2,18.9c.4,1.4,1.2,2.1,2.1,2.4-.9.3-1.7,1-2.1,2.4"/>
  <path d="M82,23.4c.3.7.5.8,1.3.8s1.9-.5,1.9-1.5c0-1.6-2.5-1-2.5-2.2s.4-.7.8-.7c.6,0,1,.4,1.1,1h.3s0-1.1,0-1.1c-.3-.1-.7-.2-1.1-.2-.8,0-1.7.4-1.7,1.4,0,1.5,2.4.9,2.4,2.2s-.5.8-1,.8c-1.2,0-1-.8-1.2-1.1h-.2c0-.1-.2.6-.2.6ZM86,19.9v.4h.7v2.8c0,.7.3,1.1,1,1.1s.8-.3,1.1-.6v-.2c-.3.1-.5.2-.7.2-.5,0-.6-.4-.6-.8v-2.6h1.2v-.4c0,0-1.2,0-1.2,0v-1.5h0c-.5,0-.7.2-.7.8v.7h-.7ZM89.6,23.1c0,.7.6,1.2,1.2,1.2s1.2-.6,1.4-.8c0,.2,0,.7.2.7s1.2-.2,1.3-.2v-.3c-.1,0-.2,0-.3,0-.3,0-.4-.1-.4-.5v-2c0-1-.3-1.6-1.4-1.6-.9,0-1.5.5-1.8,1.2l.3.2c.3-.5.5-.9,1.1-.9s1,.4,1,1.3l-1.3.4c-.7.2-1.3.5-1.3,1.3h0ZM90.5,22.9c0-.7,1.8-1.2,1.8-1.2v1.5c-.2.3-.7.6-1.1.6s-.7-.4-.7-.8h0ZM94.5,24.2c.4,0,.8,0,1.2,0s.8,0,1.2,0v-.3c-.7,0-.9,0-.9-.7v-1.9c0-.3.4-.9.8-.9s.5.2.5.3h.1s.4-.7.4-.7c0-.2-.4-.4-.6-.4-.5,0-1.1.6-1.3,1v-1h0c-.8.2-.6.1-1.5.3v.2c.7,0,.7,0,.7.7v2.3c0,.7-.1.6-.8.7v.3ZM98.5,19.9v.4h.7v2.8c0,.7.3,1.1,1,1.1s.8-.3,1.1-.6v-.2c-.3.1-.5.2-.7.2-.5,0-.6-.4-.6-.8v-2.6h1.2v-.4c0,0-1.2,0-1.2,0v-1.5h0c-.5,0-.7.2-.7.8v.7h-.7Z"/>
  <path class="st3" d="M249.6,106.3c0-13.8-11.2-25-25-25s-25,11.2-25,25,11.2,25,25,25,25-11.2,25-25h0Z"/>
  <path d="M204.6,105.8c0,.5.2,1,.5,1,1,0,2.2-1.6,2.4-2l-.7,3.7c-.1.6-.3.5-.6.6v.2c.1,0,1.5-.1,1.6-.2v-.2c-.3,0-.4,0-.4-.2s1.2-6.4,1.2-6.4h0c0,0-.2,0-.2,0,0,0-.6-.2-.9-.2-1.4,0-2.9,1.5-2.9,3.8h0ZM205.4,105.5c0-1.7.9-3,1.7-3s.5,0,.8.2c0,.3-.3,1.2-.3,1.4-.6,1.1-1.5,2.1-1.9,2.1s-.3-.2-.3-.6h0Z"/>
  <path d="M209.2,104.3c.6,0,.6.1.6.7v3c0,.4,0,.6-.5.7v.2h1.8c1.6,0,2.9-.9,2.9-2.6s-1.2-2.1-2.5-2.1h-2.3v.2h0ZM210.4,108.2v-3.6c0-.2.3-.2.7-.2,1.3,0,2.2.5,2.2,2s-.8,2.1-2.2,2.1c-.2,0-.7,0-.7-.4h0ZM214.6,107.3c0,.9.6,1.6,1.5,1.6.4,0,1-.2,1.2-.7h0c-.3.1-.5.2-.8.2-.8,0-1.2-.6-1.2-1.4,0,0,.3,0,.6,0s.6,0,.9,0l.6-.2c0-.9-.5-1.3-1.1-1.3s-.6.1-.8.3c-.5.3-.8.8-.8,1.5h0ZM215.2,106.8c0-.5.3-1,.8-1s.7.4.7.7,0,.3-.3.3c0,0-.6,0-.7,0-.4,0-.5,0-.5,0h0ZM217.9,107.3c0,.9.6,1.5,1.5,1.5s1-.3,1.1-.6h0c-.3,0-.5.2-.8.2-.8,0-1.2-.7-1.2-1.4s.3-1.1.9-1.1.6,0,.6.2v.3c.1,0,.3,0,.3,0l.2-.6c-.1-.2-.6-.3-.7-.3-1,0-1.8.8-1.8,1.8h0ZM221,107.3c0,.9.6,1.6,1.5,1.6s1.7-.8,1.7-1.7-.7-1.6-1.6-1.6c-1,0-1.6.8-1.6,1.7h0ZM221.7,107.1c0-.6.2-1.2.9-1.2s1,.9,1,1.6-.2,1.3-.9,1.3-1.1-1-1.1-1.6h0ZM224.7,108.8s.5,0,.8,0,.5,0,.8,0v-.2c-.5,0-.5,0-.5-.5v-1.6c.1-.3.5-.5.8-.5.5,0,.6.4.6.8v1.3c0,.5,0,.5-.5.5v.2s.5,0,.8,0,.5,0,.8,0v-.2c-.5,0-.5,0-.5-.5v-1.6c.1-.3.5-.5.8-.5.5,0,.6.4.6.8v1.2c0,.2,0,.6-.2.6h0c.2.1.4.1.6.1s.5,0,.7,0v-.2c-.5,0-.5,0-.5-.5v-1.5c0-.6-.3-1-1-1s-.8.3-1.1.6c-.2-.4-.5-.6-.9-.6s-.8.3-1.1.6v-.5h0c-.6.1-.4,0-1.1.2v.2c.5,0,.5,0,.5.5v1.6c0,.5,0,.5-.5.5v.2h0ZM230.8,110.4v.2c.3,0,.6,0,.9,0s.6,0,.9,0v-.2c-.5,0-.6,0-.6-.5v-1.2c.2.1.4.2.6.2,1.5,0,1.8-.7,1.8-2s-.6-1.3-1.3-1.3-.8.2-1.1.6v-.6h0c-.7.2-.5.1-1.1.3v.2c.5,0,.5,0,.5.5v3.4c0,.5,0,.5-.5.5h0ZM231.9,108.2v-1.7c.1-.3.5-.5.8-.5.7,0,1,.6,1,1.2s-.3,1.3-1,1.3c-.3,0-.6-.1-.8-.3h0ZM235,107.3c0,.9.6,1.6,1.5,1.6s1.7-.8,1.7-1.7-.7-1.6-1.6-1.6c-1,0-1.6.8-1.6,1.7h0ZM235.6,107.1c0-.6.2-1.2.9-1.2s1,.9,1,1.6-.2,1.3-.9,1.3-1.1-1-1.1-1.6h0ZM238.7,108.3c.2.5.3.6.9.6s1.3-.3,1.3-1.1c0-1.1-1.7-.7-1.7-1.5s.3-.5.6-.5c.4,0,.7.3.8.7h.2s0-.8,0-.8c-.2,0-.5-.1-.7-.1-.6,0-1.2.3-1.2,1,0,1.1,1.7.7,1.7,1.5s-.3.6-.7.6c-.8,0-.7-.6-.8-.8h-.1c0,0-.1.4-.1.4ZM241.6,107.3c0,.9.6,1.6,1.5,1.6.4,0,1-.2,1.2-.7h0c-.3.1-.5.2-.8.2-.8,0-1.2-.6-1.2-1.4,0,0,.3,0,.6,0s.6,0,.9,0l.6-.2c0-.9-.5-1.3-1.1-1.3s-.6.1-.8.3c-.5.3-.8.8-.8,1.5h0ZM242.2,106.8c0-.5.3-1,.8-1s.7.4.7.7,0,.3-.3.3c0,0-.6,0-.7,0-.4,0-.5,0-.5,0h0Z"/>
  <path class="st3" d="M160.4,191.3c0-11.5-9.3-20.8-20.8-20.8s-20.8,9.3-20.8,20.8,9.3,20.8,20.8,20.8,20.8-9.3,20.8-20.8h0Z"/>
  <path d="M123.7,191.5c0,.5.2,1,.5,1,1,0,2.2-1.6,2.4-2l-.7,3.7c-.1.6-.3.5-.6.6v.2c.1,0,1.5-.1,1.6-.2v-.2c-.3,0-.4,0-.4-.2s1.2-6.4,1.2-6.4h0c0,0-.2,0-.2,0,0,0-.6-.2-.9-.2-1.4,0-2.9,1.5-2.9,3.8h0ZM124.4,191.2c0-1.7.9-3,1.7-3s.5,0,.8.2c0,.3-.3,1.2-.3,1.4-.6,1.1-1.5,2.1-1.9,2.1s-.3-.2-.3-.6h0Z"/>
  <path d="M128.2,193c0,.9.6,1.5,1.5,1.5s1-.3,1.1-.6h0c-.3,0-.5.2-.8.2-.8,0-1.2-.7-1.2-1.4s.3-1.1.9-1.1.6,0,.6.2v.3c.1,0,.3,0,.3,0l.2-.6c-.1-.2-.6-.3-.7-.3-1,0-1.8.8-1.8,1.8h0ZM131.4,193.7c0,.5.4.8.9.8s.8-.4,1-.6c0,.1,0,.5.2.5s.8-.2.9-.2v-.2c0,0-.1,0-.2,0-.2,0-.3-.1-.3-.4v-1.4c0-.7-.2-1.1-1-1.1-.6,0-1.1.3-1.3.9h.2c.2-.2.4-.5.7-.5s.7.3.7.9l-.9.3c-.5.2-.9.3-.9.9h0ZM132,193.6c0-.5,1.3-.9,1.3-.9v1c-.2.2-.5.4-.8.4s-.5-.3-.5-.6h0ZM134.8,194.5s.5,0,.8,0,.5,0,.8,0v-.2c-.5,0-.5,0-.5-.5v-4.3h0c-.6,0-.4,0-1.1.2v.2c.4,0,.5,0,.5.4v3.5c0,.5,0,.5-.5.5v.2h0ZM137.1,193c0,.9.6,1.5,1.5,1.5s1-.3,1.1-.6h0c-.3,0-.5.2-.8.2-.8,0-1.2-.7-1.2-1.4s.3-1.1.9-1.1.6,0,.6.2v.3c.1,0,.3,0,.3,0l.2-.6c-.1-.2-.6-.3-.7-.3-1,0-1.8.8-1.8,1.8h0ZM140.2,191.7c.4,0,.5,0,.5.4v1.4c0,.7.2,1.1.9,1.1s.9-.2,1.2-.6v.6h0c.6,0,.4,0,1.1,0v-.2c-.4,0-.5,0-.5-.4v-2.5h0c-.6,0-.4,0-1.1.2v.2c.4,0,.5,0,.5.4v1.2c0,.3-.4.9-.9.9s-.6-.4-.6-.8v-2h0c-.6,0-.4,0-1,.2v.2h0ZM144.4,194.5s.5,0,.8,0,.5,0,.8,0v-.2c-.5,0-.5,0-.5-.5v-4.3h0c-.6,0-.4,0-1.1.2v.2c.4,0,.5,0,.5.4v3.5c0,.5,0,.5-.5.5v.2h0ZM146.6,193.7c0,.5.4.8.9.8s.8-.4,1-.6c0,.1,0,.5.2.5s.8-.2.9-.2v-.2c0,0-.1,0-.2,0-.2,0-.3-.1-.3-.4v-1.4c0-.7-.2-1.1-1-1.1-.6,0-1.1.3-1.3.9h.2c.2-.2.4-.5.7-.5s.7.3.7.9l-.9.3c-.5.2-.9.3-.9.9h0ZM147.2,193.6c0-.5,1.3-.9,1.3-.9v1c-.2.2-.5.4-.8.4s-.5-.3-.5-.6h0ZM150,191.5v.3h.5v2c0,.5.2.8.7.8s.6-.2.7-.4h0c-.1,0-.3,0-.4,0-.3,0-.4-.3-.4-.6v-1.8h.8v-.3s-.8,0-.8,0v-1.1h0c-.4,0-.5.1-.5.6v.5h-.5ZM152.5,193c0,.9.6,1.6,1.5,1.6.4,0,1-.2,1.2-.7h0c-.3.1-.5.2-.8.2-.8,0-1.2-.6-1.2-1.4,0,0,.3,0,.6,0s.6,0,.9,0l.6-.2c0-.9-.5-1.3-1.1-1.3s-.6.1-.8.3c-.5.3-.8.8-.8,1.5h0ZM153.1,192.5c0-.5.3-1,.8-1s.7.4.7.7,0,.3-.3.3c0,0-.6,0-.7,0-.4,0-.5,0-.5,0h0Z"/>
  <path class="st3" d="M72.6,106.3c0-10-8.1-18.1-18.1-18.1s-18.1,8.1-18.1,18.1,8.1,18.1,18.1,18.1,18.1-8.1,18.1-18.1h0Z"/>
  <path d="M41.8,105.8c0,.5.2,1,.5,1,1,0,2.2-1.6,2.4-2l-.7,3.7c-.1.6-.3.5-.6.6v.2c.1,0,1.5-.1,1.6-.2v-.2c-.3,0-.4,0-.4-.2s1.2-6.4,1.2-6.4h0c0,0-.2,0-.2,0,0,0-.6-.2-.9-.2-1.4,0-2.9,1.5-2.9,3.8h0ZM42.6,105.5c0-1.7.9-3,1.7-3s.5,0,.8.2c0,.3-.3,1.2-.3,1.4-.6,1.1-1.5,2.1-1.9,2.1s-.3-.2-.3-.6h0Z"/>
  <path d="M46.4,107.3c0,.9.6,1.6,1.5,1.6s1.7-.8,1.7-1.7-.7-1.6-1.6-1.6c-1,0-1.6.8-1.6,1.7h0ZM47,107.1c0-.6.2-1.2.9-1.2s1,.9,1,1.6-.2,1.3-.9,1.3-1.1-1-1.1-1.6h0ZM50,106c.4,0,.5,0,.5.4v1.4c0,.7.2,1.1.9,1.1s.9-.2,1.2-.6v.6h0c.6,0,.4,0,1.1,0v-.2c-.4,0-.5,0-.5-.4v-2.5h0c-.6,0-.4,0-1.1.2v.2c.4,0,.5,0,.5.4v1.2c0,.3-.4.9-.9.9s-.6-.4-.6-.8v-2h0c-.6,0-.4,0-1,.2v.2h0ZM54.2,105.8v.3h.5v2c0,.5.2.8.7.8s.6-.2.7-.4h0c-.1,0-.3,0-.4,0-.3,0-.4-.3-.4-.6v-1.8h.8v-.3s-.8,0-.8,0v-1.1h0c-.4,0-.5.1-.5.6v.5h-.5ZM56.7,110.4v.2c.3,0,.6,0,.9,0s.6,0,.9,0v-.2c-.5,0-.6,0-.6-.5v-1.2c.2.1.4.2.6.2,1.4,0,1.8-.7,1.8-2s-.6-1.3-1.3-1.3-.8.2-1.1.6v-.6h0c-.7.2-.5.1-1.1.3v.2c.5,0,.5,0,.5.5v3.4c0,.5,0,.5-.5.5h0ZM57.8,108.2v-1.7c.1-.3.5-.5.8-.5.7,0,1,.6,1,1.2s-.3,1.3-1,1.3c-.3,0-.6-.1-.8-.3h0ZM60.8,106c.4,0,.5,0,.5.4v1.4c0,.7.2,1.1.9,1.1s.9-.2,1.2-.6v.6h0c.6,0,.4,0,1.1,0v-.2c-.4,0-.5,0-.5-.4v-2.5h0c-.6,0-.4,0-1.1.2v.2c.4,0,.5,0,.5.4v1.2c0,.3-.4.9-.9.9s-.6-.4-.6-.8v-2h0c-.6,0-.4,0-1,.2v.2h0ZM65,105.8v.3h.5v2c0,.5.2.8.7.8s.6-.2.7-.4h0c-.1,0-.3,0-.4,0-.3,0-.4-.3-.4-.6v-1.8h.8v-.3s-.8,0-.8,0v-1.1h0c-.4,0-.5.1-.5.6v.5h-.5Z"/>
  <path class="st3" d="M157.8,31.8c25.8,14.4,39.1,27.3,53.5,51.5"/>
  <path class="st1" d="M212.4,80.5c-1,1.1-1.2,2.1-1,3-.7-.6-1.7-1-3.1-.6"/>
  <path d="M242.5,50.4c.5,0,.9,0,1.4,0s.9,0,1.4,0v-.3c-1,0-1,0-1-1.1v-4.8c0-.2.3-.2.8-.2.9,0,1.6.4,1.6,1.5s-.7,1.6-1.6,1.6-.4,0-.4.1c0,.2.4.2.5.2,1.2,0,2.4-.7,2.4-2.1s-1.1-1.7-2.2-1.7h-3v.3c.9,0,.9.2.9,1.1v4c0,1,0,1-.9,1.1v.3h0ZM248.5,46.4c.6,0,.7,0,.7.6v2c0,.9.3,1.5,1.3,1.5s1.3-.3,1.6-.9v.8h0c.9-.1.6,0,1.5-.1v-.3c-.6,0-.8,0-.8-.6v-3.5h0c-.9.1-.6,0-1.6.2v.2c.6,0,.8,0,.8.6v1.6c0,.5-.6,1.3-1.2,1.3s-.9-.5-.9-1.2v-2.8h0c-.9.1-.6,0-1.5.2v.2h0ZM254.5,49.7c.3.7.5.8,1.3.8s1.9-.5,1.9-1.5c0-1.6-2.5-1-2.5-2.2s.4-.7.8-.7c.6,0,1,.4,1.1,1h.3s0-1.1,0-1.1c-.3-.1-.7-.2-1.1-.2-.8,0-1.7.4-1.7,1.4,0,1.5,2.4.9,2.4,2.2s-.5.8-1,.8c-1.2,0-1-.8-1.2-1.1h-.2c0-.1-.2.6-.2.6ZM258.4,43.8c.5,0,.8-.1.8.5v5c0,.7,0,.7-.7.7v.3c.4,0,.8,0,1.1,0s.8,0,1.1,0v-.3c-.7,0-.7,0-.7-.7v-2.3c0-.4.8-.7,1.1-.7.7,0,1,.5,1,1.2v1.8c0,.2,0,.8-.3.8v.2c.3,0,.6,0,.9,0s.6,0,.9,0v-.3c-.6,0-.7,0-.7-.7v-2c0-1-.5-1.6-1.5-1.6s-1.5.8-1.5.8v-3.3h0c-.5,0-1,.2-1.5.3v.2h0Z"/>
  <path d="M267,48.3h1.1l-.4,2.1h.5l.4-2.1h1.3l-.4,2.1h.5l.4-2.1h1v-.5s-.9,0-.9,0l.3-1.4h1.1v-.6s-1.1,0-1.1,0l.3-1.9h-.5l-.3,1.9h-1.3l.3-1.9h-.5l-.3,1.9h-1.2v.6s1.1,0,1.1,0l-.3,1.4h-1.1v.5ZM268.7,47.8l.3-1.4h1.2l-.3,1.4h-1.3Z"/>
  <path d="M242.6,60.6v1.5c.6.2,1.1.4,1.7.4,1.3,0,2.6-.8,2.6-2.2,0-2.4-3.5-1.2-3.5-3.1s.5-1.3,1.3-1.3c1.1,0,1.2.5,1.5,1.3h.3s0-1.4,0-1.4c-.5-.2-1-.3-1.5-.3-1.2,0-2.3.7-2.3,2,0,2.3,3.4,1.2,3.4,3.2s-.7,1.4-1.5,1.4c-1.6,0-1.4-1.1-1.7-1.4h-.3Z"/>
  <path d="M247.5,58.1v.4h.7v2.8c0,.7.3,1.1,1,1.1s.8-.3,1.1-.6v-.2c-.3.1-.5.2-.7.2-.5,0-.6-.4-.6-.8v-2.6h1.2v-.4s-1.2,0-1.2,0v-1.5h0c-.5,0-.7.2-.7.8v.7h-.7ZM251.1,61.3c0,.7.6,1.2,1.2,1.2s1.2-.6,1.4-.8c0,.2,0,.7.2.7s1.2-.2,1.3-.2v-.3c-.1,0-.2,0-.3,0-.3,0-.4-.1-.4-.5v-2c0-1-.3-1.6-1.4-1.6-.9,0-1.5.5-1.8,1.2l.3.2c.3-.5.5-.9,1.1-.9s1,.4,1,1.3l-1.3.4c-.7.2-1.3.5-1.3,1.3h0ZM252,61.1c0-.7,1.8-1.2,1.8-1.2v1.5c-.2.3-.7.6-1.1.6s-.7-.4-.7-.8h0ZM256,62.3c.4,0,.8,0,1.2,0s.8,0,1.2,0v-.3c-.7,0-.9,0-.9-.7v-1.9c0-.3.4-.9.8-.9s.5.2.5.3h.1s.4-.7.4-.7c0-.2-.4-.4-.6-.4-.5,0-1.1.6-1.3,1v-1h0c-.8.2-.6.1-1.5.3v.2c.7,0,.7,0,.7.7v2.3c0,.7-.1.6-.8.7v.3h0ZM260,58.1v.4h.7v2.8c0,.7.3,1.1,1,1.1s.8-.3,1.1-.6v-.2c-.3.1-.5.2-.7.2-.5,0-.6-.4-.6-.8v-2.6h1.2v-.4s-1.2,0-1.2,0v-1.5h0c-.5,0-.7.2-.7.8v.7h-.7Z"/>
  <path d="M266.2,60.2c0,1.2.8,2.2,2.1,2.2s1.2-.4,1.5-.8v.8c.9-.1.6-.1,1.6-.2v-.2c-.6,0-.8,0-.8-.6v-6.1h0c-.9.1-.6,0-1.5.3v.2c.6,0,.8,0,.8.5v1.7s-.6-.2-.9-.2c-1.4,0-2.6,1.1-2.6,2.5h0ZM267,60c0-.9.4-1.8,1.4-1.8s1.2.2,1.2.6v2.1c0,.6-.7,1-1.2,1-1,0-1.4-1.1-1.4-1.9h0ZM272,60.2c0,1.3.8,2.2,2.1,2.2.5,0,1.4-.3,1.7-.9h-.1c-.4.1-.7.3-1.2.3-1.2,0-1.7-.9-1.7-2,0,0,.4,0,.9,0s.9,0,1.3,0l.8-.3c0-1.3-.7-1.9-1.6-1.9s-.8.2-1.2.4c-.8.5-1.1,1.2-1.1,2.1h0ZM272.9,59.5c0-.7.4-1.4,1.2-1.4s1,.5,1,1-.1.4-.4.5c-.1,0-.9,0-1.1,0-.6,0-.7,0-.7,0h0ZM276.8,60.3c0,1.3.9,2.2,2.2,2.2s1.4-.4,1.6-.9h-.1c-.4.1-.7.3-1.1.3-1.1,0-1.7-1-1.7-2s.4-1.6,1.3-1.6.8,0,.9.3l.2.4h.2s.2-.8.2-.8c-.2-.3-.9-.4-1.1-.4-1.4,0-2.6,1.1-2.6,2.5h0ZM281.2,60.2c0,1.3.9,2.3,2.2,2.3s2.4-1.1,2.4-2.5-1-2.3-2.3-2.3-2.3,1.1-2.3,2.5h0ZM282.1,59.9c0-.8.3-1.8,1.3-1.8s1.5,1.4,1.5,2.2-.2,1.8-1.2,1.8c-1.2,0-1.5-1.4-1.5-2.3h0ZM286.4,62.3s.7,0,1.1,0,.8,0,1.2,0v-.3c-.6,0-.7,0-.7-.7v-2.3c.2-.4.7-.7,1.2-.7.7,0,.9.6.9,1.1v1.9c0,.7-.1.6-.8.7v.3s.7,0,1.1,0,.8,0,1.2,0v-.3c-.7,0-.7,0-.7-.7v-2.3c.2-.4.7-.7,1.2-.7.7,0,.9.6.9,1.2v1.8c0,.2,0,.8-.3.8v.2c.3,0,.6,0,.9,0s.7,0,1,0v-.3c-.7,0-.7,0-.7-.7v-2.1c0-.9-.5-1.5-1.4-1.5s-1.2.4-1.6.9c-.2-.6-.7-.9-1.3-.9s-1.1.4-1.5.8v-.8h0c-.9.2-.6.1-1.5.3v.2c.7,0,.7,0,.7.7v2.3c0,.7-.1.6-.8.7v.3h0ZM295.2,64.6v.3c.4,0,.8,0,1.2,0s.8,0,1.2,0v-.3c-.7,0-.9,0-.9-.7v-1.7c.2.1.6.2.8.2,2.1,0,2.6-1,2.6-2.8s-.8-1.9-1.9-1.9-1.1.3-1.6.8v-.8h0c-.9.2-.7.1-1.5.4v.2c.7,0,.8,0,.8.7v4.8c0,.7-.1.6-.8.7h0ZM296.8,61.5v-2.4c.2-.4.7-.7,1.2-.7,1,0,1.5.8,1.5,1.8s-.5,1.8-1.5,1.8c-.5,0-.8-.2-1.2-.5h0ZM301.2,60.2c0,1.3.9,2.3,2.2,2.3s2.4-1.1,2.4-2.5-1-2.3-2.3-2.3-2.3,1.1-2.3,2.5h0ZM302.1,59.9c0-.8.3-1.8,1.3-1.8s1.5,1.4,1.5,2.2-.2,1.8-1.2,1.8c-1.2,0-1.5-1.4-1.5-2.3h0ZM306.5,61.6c.3.7.5.8,1.3.8s1.9-.5,1.9-1.5c0-1.6-2.5-1-2.5-2.2s.4-.7.8-.7c.6,0,1,.4,1.1,1h.3s0-1.1,0-1.1c-.3-.1-.7-.2-1.1-.2-.8,0-1.7.4-1.7,1.4,0,1.5,2.4.9,2.4,2.2s-.5.8-1,.8c-1.2,0-1-.8-1.2-1.1h-.2c0-.1-.2.6-.2.6ZM310.6,62.3c.4,0,.8,0,1.2,0s.8,0,1.2,0v-.3c-.7,0-.8,0-.8-.7v-3.5h0c0,0-1.5.3-1.5.3v.2c.7,0,.7,0,.7.7v2.3c0,.7-.1.6-.8.7v.3ZM311.2,56.6c0,.3.2.5.5.5s.5-.2.5-.5-.2-.6-.5-.6c-.3,0-.5.3-.5.6h0ZM313.5,58.1v.4h.7v2.8c0,.7.3,1.1,1,1.1s.8-.3,1.1-.6v-.2c-.3.1-.5.2-.7.2-.5,0-.6-.4-.6-.8v-2.6h1.2v-.4s-1.2,0-1.2,0v-1.5h0c-.5,0-.7.2-.7.8v.7h-.7ZM317.1,62.3c.4,0,.8,0,1.2,0s.8,0,1.2,0v-.3c-.7,0-.8,0-.8-.7v-3.5h0c0,0-1.5.3-1.5.3v.2c.7,0,.7,0,.7.7v2.3c0,.7-.1.6-.8.7v.3ZM317.7,56.6c0,.3.2.5.5.5s.5-.2.5-.5-.2-.6-.5-.6c-.3,0-.5.3-.5.6h0ZM320.1,60.2c0,1.3.9,2.3,2.2,2.3s2.4-1.1,2.4-2.5-1-2.3-2.3-2.3-2.3,1.1-2.3,2.5h0ZM321,59.9c0-.8.3-1.8,1.3-1.8s1.5,1.4,1.5,2.2-.2,1.8-1.2,1.8c-1.2,0-1.5-1.4-1.5-2.3h0ZM325.3,62.3c.4,0,.8,0,1.2,0s.8,0,1.2,0v-.3c-.6,0-.7,0-.7-.7v-2.3c.2-.4.7-.7,1.2-.7.7,0,1,.6,1,.9v2c0,.2,0,.8-.4.8v.2c.3,0,.6,0,.9,0s.6,0,.9,0v-.3c-.6,0-.7,0-.7-.7v-2c0-1-.5-1.5-1.5-1.5s-1.1.3-1.5.8v-.8h0c-1,.2-.7.2-1.5.3v.2c.7,0,.7,0,.7.7v2.3c0,.7-.1.7-.8.7v.3h0Z"/>
  <path class="st3" d="M218.1,82c-10.5-39.3,23.5-39.3,13.4-1.3"/>
  <path class="st1" d="M234.3,79.5c-1.5,0-2.4.6-2.8,1.4,0-.9-.5-1.9-1.8-2.6"/>
  <path d="M185.7,23.3c0,2.2,1.7,3.4,3.7,3.4s1.5-.1,2.1-.4c.1-.3.3-.7.4-1h-.2c-.5.7-1.2,1-2.1,1-1.9,0-2.9-1.4-2.9-3.2s1-3,2.7-3,1.7.3,1.8.8v.7c.1,0,.4,0,.4,0v-1.5c-.7-.2-1.3-.3-2-.3-2.1,0-3.9,1.3-3.9,3.6h0ZM192.6,20c.5,0,.8-.1.8.5v5c0,.7,0,.7-.7.7v.3c.4,0,.8,0,1.1,0s.8,0,1.1,0v-.3c-.7,0-.7,0-.7-.7v-2.3c0-.4.8-.7,1.1-.7.7,0,1,.5,1,1.2v1.8c0,.2,0,.8-.3.8v.2c.3,0,.6,0,.9,0s.6,0,.9,0v-.3c-.6,0-.7,0-.7-.7v-2c0-1-.5-1.6-1.5-1.6s-1.5.8-1.5.8v-3.3h0c-.5,0-1,.2-1.5.3v.2h0ZM198.6,24.5c0,1.3.8,2.2,2.1,2.2.5,0,1.4-.3,1.7-.9h-.1c-.4.1-.7.3-1.2.3-1.2,0-1.7-.9-1.7-2,0,0,.4,0,.9,0s.9,0,1.3,0l.8-.3c0-1.3-.7-1.9-1.6-1.9s-.8.2-1.2.4c-.8.5-1.1,1.2-1.1,2.1h0ZM199.5,23.8c0-.7.4-1.4,1.2-1.4s1,.5,1,1-.1.4-.4.5c-.1,0-.9,0-1.1,0-.6,0-.7,0-.7,0h0ZM203.3,24.5c0,1.3.9,2.2,2.2,2.2s1.4-.4,1.6-.9h-.1c-.4.1-.7.3-1.1.3-1.1,0-1.7-1-1.7-2s.4-1.6,1.3-1.6.8,0,.9.3l.2.4h.2s.2-.8.2-.8c-.2-.3-.9-.4-1.1-.4-1.4,0-2.6,1.1-2.6,2.5h0ZM207.8,26.6s.7,0,1.3,0,.7,0,1.1,0v-.3c-.7,0-.8,0-.8-.7v-1.3h.1c0,0,2.2,2.3,2.2,2.3h1.1v-.4c-.3,0-.6-.3-.8-.5l-1.7-1.9,1.1-1c.5-.4.5-.4,1.1-.5v-.3h-1.6s0,.3,0,.3h.2s-1.7,1.7-1.7,1.7v-4.6h0c-.9.1-.6,0-1.5.3v.2c.5,0,.8-.1.8.5v5.1c0,.7-.1.6-.8.7v.3h0Z"/>
  <path d="M215.7,26.6c.3,0,.7,0,1.1,0s.9,0,1.1,0v-.2c-.2,0-.8,0-.8-.4s1.2-4.8,1.2-4.8l1.4,5.5h.2l3.4-5.7-.5,4.6c0,.7-.4.8-1,.8v.2c.3,0,.8,0,1.2,0s1,0,1.3,0v-.2c-.5,0-.8-.1-.8-.5s.5-4.9.5-4.9c0-.7.4-.7,1-.8v-.2c-.2,0-.5,0-.8,0s-.5,0-.8,0l-3.3,5.5-1.4-5.5c-.3,0-.5,0-.8,0s-.5,0-.8,0v.2c.4,0,.8,0,.8.5s-1.3,5.1-1.3,5.1c-.1.4-.3.6-.9.6v.2Z"/>
  <path d="M225.3,27.8v.2c.8-.3,1.7-1.4,1.7-2.1s-.3-.6-.5-.6-.4.2-.4.3.1.1.1.5c0,.7-.7,1.5-.9,1.7h0Z"/>
  <path d="M230.4,28.8v.3c.4,0,.8,0,1.2,0s.8,0,1.2,0v-.3c-.7,0-.9,0-.9-.7v-1.7c.2.1.6.2.8.2,2.1,0,2.6-1,2.6-2.8s-.8-1.9-1.9-1.9-1.1.3-1.6.8v-.8h0c-.9.2-.7.1-1.5.4v.2c.7,0,.8,0,.8.7v4.8c0,.7-.1.6-.8.7h0ZM232,25.7v-2.4c.2-.4.7-.7,1.2-.7,1,0,1.5.8,1.5,1.8s-.5,1.8-1.5,1.8c-.5,0-.8-.2-1.2-.5h0ZM236.3,22.6c.6,0,.7,0,.7.6v2c0,.9.3,1.5,1.3,1.5s1.3-.3,1.6-.9v.8h0c.9-.1.6,0,1.5-.1v-.3c-.6,0-.8,0-.8-.6v-3.5h0c-.9.1-.6,0-1.6.2v.2c.6,0,.8,0,.8.6v1.6c0,.5-.6,1.3-1.2,1.3s-.9-.5-.9-1.2v-2.8h0c-.9.1-.6,0-1.5.2v.2h0ZM242.4,25.9c.3.7.5.8,1.3.8s1.9-.5,1.9-1.5c0-1.6-2.5-1-2.5-2.2s.4-.7.8-.7c.6,0,1,.4,1.1,1h.3s0-1.1,0-1.1c-.3-.1-.7-.2-1.1-.2-.8,0-1.7.4-1.7,1.4,0,1.5,2.4.9,2.4,2.2s-.5.8-1,.8c-1.2,0-1-.8-1.2-1.1h-.2c0-.1-.2.6-.2.6ZM246.3,20c.5,0,.8-.1.8.5v5c0,.7,0,.7-.7.7v.3c.4,0,.8,0,1.1,0s.8,0,1.1,0v-.3c-.7,0-.7,0-.7-.7v-2.3c0-.4.8-.7,1.1-.7.7,0,1,.5,1,1.2v1.8c0,.2,0,.8-.3.8v.2c.3,0,.6,0,.9,0s.6,0,.9,0v-.3c-.6,0-.7,0-.7-.7v-2c0-1-.5-1.6-1.5-1.6s-1.5.8-1.5.8v-3.3h0c-.5,0-1,.2-1.5.3v.2h0Z"/>
  <path d="M254.5,26.6c.3,0,.7,0,1.1,0s.9,0,1.1,0v-.2c-.2,0-.8,0-.8-.4s1.2-4.8,1.2-4.8l1.4,5.5h.2l3.4-5.7-.5,4.6c0,.7-.4.8-1,.8v.2c.3,0,.8,0,1.2,0s1,0,1.3,0v-.2c-.5,0-.8-.1-.8-.5s.5-4.9.5-4.9c0-.7.4-.7,1-.8v-.2c-.2,0-.5,0-.8,0s-.5,0-.8,0l-3.3,5.5-1.4-5.5c-.3,0-.5,0-.8,0s-.5,0-.8,0v.2c.4,0,.8,0,.8.5s-1.3,5.1-1.3,5.1c-.1.4-.3.6-.9.6v.2Z"/>
  <path class="st3" d="M212,128.1c-15.1,25.4-28.5,38.3-53,52"/>
  <path class="st1" d="M161.8,181.3c-1-1.1-2.1-1.2-3-1.1.6-.7,1-1.7.6-3.1"/>
  <path d="M192.7,162.8c.9,0,.9.2.9,1v4.2c0,.6,0,.9-.7,1v.2h2.6c2.3,0,4.1-1.3,4.1-3.7s-1.7-3-3.6-3h-3.2v.3ZM194.5,168.4v-5.2c0-.3.5-.3,1-.3,1.9,0,3.1.7,3.1,2.9s-1.1,3.1-3.1,3.1c-.3,0-1,0-1-.5h0ZM200.5,167.2c0,1.3.8,2.2,2.1,2.2.5,0,1.4-.3,1.7-.9h-.1c-.4.1-.7.3-1.2.3-1.2,0-1.7-.9-1.7-2,0,0,.4,0,.9,0s.9,0,1.3,0l.8-.3c0-1.3-.7-1.9-1.6-1.9s-.8.2-1.2.4c-.8.5-1.1,1.2-1.1,2.1h0ZM201.3,166.5c0-.7.4-1.4,1.2-1.4s1,.5,1,1-.1.4-.4.5c-.1,0-.9,0-1.1,0-.6,0-.7,0-.7,0h0ZM205.2,167.2c0,1.3.9,2.2,2.2,2.2s1.4-.4,1.6-.9h-.1c-.4.1-.7.3-1.1.3-1.1,0-1.7-1-1.7-2s.4-1.6,1.3-1.6.8,0,.9.3l.2.4h.2s.2-.8.2-.8c-.2-.3-.9-.4-1.1-.4-1.4,0-2.6,1.1-2.6,2.5h0ZM209.6,167.2c0,1.3.9,2.3,2.2,2.3s2.4-1.1,2.4-2.5-1-2.3-2.3-2.3-2.3,1.1-2.3,2.5h0ZM210.6,166.8c0-.8.3-1.8,1.3-1.8s1.5,1.4,1.5,2.2-.2,1.8-1.2,1.8c-1.2,0-1.5-1.4-1.5-2.3h0ZM214.8,169.3s.7,0,1.1,0,.8,0,1.2,0v-.3c-.6,0-.7,0-.7-.7v-2.3c.2-.4.7-.7,1.2-.7.7,0,.9.6.9,1.1v1.9c0,.7-.1.6-.8.7v.3s.7,0,1.1,0,.8,0,1.2,0v-.3c-.7,0-.7,0-.7-.7v-2.3c.2-.4.7-.7,1.2-.7.7,0,.9.6.9,1.2v1.8c0,.2,0,.8-.3.8v.2c.3,0,.6,0,.9,0s.7,0,1,0v-.3c-.7,0-.7,0-.7-.7v-2.1c0-.9-.5-1.5-1.4-1.5s-1.2.4-1.6.9c-.2-.6-.7-.9-1.3-.9s-1.1.4-1.5.8v-.8h0c-.9.2-.6.1-1.5.3v.2c.7,0,.7,0,.7.7v2.3c0,.7-.1.6-.8.7v.3h0ZM223.7,171.5v.3c.4,0,.8,0,1.2,0s.8,0,1.2,0v-.3c-.7,0-.9,0-.9-.7v-1.7c.2.1.6.2.8.2,2.1,0,2.6-1,2.6-2.8s-.8-1.9-1.9-1.9-1.1.3-1.6.8v-.8h0c-.9.2-.7.1-1.5.4v.2c.7,0,.8,0,.8.7v4.8c0,.7-.1.6-.8.7h0ZM225.2,168.4v-2.4c.2-.4.7-.7,1.2-.7,1,0,1.5.8,1.5,1.8s-.5,1.8-1.5,1.8-.8-.2-1.2-.5h0ZM229.6,167.2c0,1.3.9,2.3,2.2,2.3s2.4-1.1,2.4-2.5-1-2.3-2.3-2.3-2.3,1.1-2.3,2.5h0ZM230.5,166.8c0-.8.3-1.8,1.3-1.8s1.5,1.4,1.5,2.2-.2,1.8-1.2,1.8c-1.2,0-1.5-1.4-1.5-2.3h0ZM234.9,168.6c.3.7.5.8,1.3.8s1.9-.5,1.9-1.5c0-1.6-2.5-1-2.5-2.2s.4-.7.8-.7c.6,0,1,.4,1.1,1h.3s0-1.1,0-1.1c-.3-.1-.7-.2-1.1-.2-.8,0-1.7.4-1.7,1.4,0,1.5,2.4.9,2.4,2.2s-.5.8-1,.8c-1.2,0-1-.8-1.2-1.1h-.2c0-.1-.2.6-.2.6ZM239,169.3c.4,0,.8,0,1.2,0s.8,0,1.2,0v-.3c-.7,0-.8,0-.8-.7v-3.5h0c0,0-1.5.3-1.5.3v.2c.7,0,.7,0,.7.7v2.3c0,.7-.1.6-.8.7v.3ZM239.6,163.6c0,.3.2.5.5.5s.5-.2.5-.5-.2-.6-.5-.6-.5.3-.5.6h0ZM241.9,165v.4h.7v2.8c0,.7.3,1.1,1,1.1s.8-.3,1.1-.6v-.2c-.3.1-.5.2-.7.2-.5,0-.6-.4-.6-.8v-2.6h1.2v-.4s-1.2,0-1.2,0v-1.5h0c-.5,0-.7.2-.7.8v.7h-.7ZM245.5,169.3c.4,0,.8,0,1.2,0s.8,0,1.2,0v-.3c-.7,0-.8,0-.8-.7v-3.5h0c0,0-1.5.3-1.5.3v.2c.7,0,.7,0,.7.7v2.3c0,.7-.1.6-.8.7v.3ZM246.1,163.6c0,.3.2.5.5.5s.5-.2.5-.5-.2-.6-.5-.6-.5.3-.5.6h0ZM248.5,167.2c0,1.3.9,2.3,2.2,2.3s2.4-1.1,2.4-2.5-1-2.3-2.3-2.3-2.3,1.1-2.3,2.5h0ZM249.4,166.8c0-.8.3-1.8,1.3-1.8s1.5,1.4,1.5,2.2-.2,1.8-1.2,1.8c-1.2,0-1.5-1.4-1.5-2.3h0ZM253.7,169.3c.4,0,.8,0,1.2,0s.8,0,1.2,0v-.3c-.6,0-.7,0-.7-.7v-2.3c.2-.4.7-.7,1.2-.7.7,0,1,.6,1,.9v2c0,.2,0,.8-.4.8v.2c.3,0,.6,0,.9,0s.6,0,.9,0v-.3c-.6,0-.7,0-.7-.7v-2c0-1-.5-1.5-1.5-1.5s-1.1.3-1.5.8v-.8h0c-1,.2-.7.2-1.5.3v.2c.7,0,.7,0,.7.7v2.3c0,.7-.1.7-.8.7v.3h0Z"/>
  <path d="M262.2,167.2c0,1.3.9,2.2,2.2,2.2s1.4-.4,1.6-.9h-.1c-.4.1-.7.3-1.1.3-1.1,0-1.7-1-1.7-2s.4-1.6,1.3-1.6.8,0,.9.3l.2.4h.2s.2-.8.2-.8c-.2-.3-.9-.4-1.1-.4-1.4,0-2.6,1.1-2.6,2.5h0ZM266.7,167.2c0,1.3.9,2.3,2.2,2.3s2.4-1.1,2.4-2.5-1-2.3-2.3-2.3-2.3,1.1-2.3,2.5h0ZM267.6,166.8c0-.8.3-1.8,1.3-1.8s1.5,1.4,1.5,2.2-.2,1.8-1.2,1.8c-1.2,0-1.5-1.4-1.5-2.3h0ZM271.9,169.3s.7,0,1.1,0,.8,0,1.2,0v-.3c-.6,0-.7,0-.7-.7v-2.3c.2-.4.7-.7,1.2-.7.7,0,.9.6.9,1.1v1.9c0,.7-.1.6-.8.7v.3s.7,0,1.1,0,.8,0,1.2,0v-.3c-.7,0-.7,0-.7-.7v-2.3c.2-.4.7-.7,1.2-.7.7,0,.9.6.9,1.2v1.8c0,.2,0,.8-.3.8v.2c.3,0,.6,0,.9,0s.7,0,1,0v-.3c-.7,0-.7,0-.7-.7v-2.1c0-.9-.5-1.5-1.4-1.5s-1.2.4-1.6.9c-.2-.6-.7-.9-1.3-.9s-1.1.4-1.5.8v-.8h0c-.9.2-.6.1-1.5.3v.2c.7,0,.7,0,.7.7v2.3c0,.7-.1.6-.8.7v.3h0ZM280.7,171.5v.3c.4,0,.8,0,1.2,0s.8,0,1.2,0v-.3c-.7,0-.9,0-.9-.7v-1.7c.2.1.6.2.8.2,2.1,0,2.6-1,2.6-2.8s-.8-1.9-1.9-1.9-1.1.3-1.6.8v-.8h0c-.9.2-.7.1-1.5.4v.2c.7,0,.8,0,.8.7v4.8c0,.7-.1.6-.8.7h0ZM282.3,168.4v-2.4c.2-.4.7-.7,1.2-.7,1,0,1.5.8,1.5,1.8s-.5,1.8-1.5,1.8-.8-.2-1.2-.5h0ZM286.7,169.3s.7,0,1.2,0,.8,0,1.2,0v-.3c-.7,0-.8,0-.8-.7v-6.1h0c-.9.1-.6,0-1.5.3v.2c.5,0,.8,0,.8.5v5.1c0,.7-.1.6-.8.7v.3h0ZM289.9,167.2c0,1.3.8,2.2,2.1,2.2.5,0,1.4-.3,1.7-.9h-.1c-.4.1-.7.3-1.2.3-1.2,0-1.7-.9-1.7-2,0,0,.4,0,.9,0s.9,0,1.3,0l.8-.3c0-1.3-.7-1.9-1.6-1.9s-.8.2-1.2.4c-.8.5-1.1,1.2-1.1,2.1h0ZM290.7,166.5c0-.7.4-1.4,1.2-1.4s1,.5,1,1-.1.4-.4.5c-.1,0-.9,0-1.1,0-.6,0-.7,0-.7,0h0ZM294.5,165v.4h.7v2.8c0,.7.3,1.1,1,1.1s.8-.3,1.1-.6v-.2c-.3.1-.5.2-.7.2-.5,0-.6-.4-.6-.8v-2.6h1.2v-.4s-1.2,0-1.2,0v-1.5h0c-.5,0-.7.2-.7.8v.7h-.7ZM298.1,167.2c0,1.3.8,2.2,2.1,2.2.5,0,1.4-.3,1.7-.9h-.1c-.4.1-.7.3-1.2.3-1.2,0-1.7-.9-1.7-2,0,0,.4,0,.9,0s.9,0,1.3,0l.8-.3c0-1.3-.7-1.9-1.6-1.9s-.8.2-1.2.4c-.8.5-1.1,1.2-1.1,2.1h0ZM299,166.5c0-.7.4-1.4,1.2-1.4s1,.5,1,1-.1.4-.4.5c-.1,0-.9,0-1.1,0-.6,0-.7,0-.7,0h0Z"/>
  <path class="st3" d="M119.2,196.8c-32.8,8.8-32.8-19.7-1.3-11.2"/>
  <path class="st1" d="M116.7,182.7c0,1.5.6,2.4,1.4,2.8-.9,0-1.9.5-2.6,1.8"/>
  <path d="M52.1,191.4c0,2.2,1.7,3.4,3.7,3.4s1.5-.1,2.1-.4c.1-.3.3-.7.4-1h-.2c-.5.7-1.2,1-2.1,1-1.9,0-2.9-1.4-2.9-3.2s1-3,2.7-3,1.7.3,1.8.8v.7c.1,0,.4,0,.4,0v-1.5c-.7-.2-1.3-.3-2-.3-2.1,0-3.9,1.3-3.9,3.6h0ZM59.1,192.6c0,1.3.9,2.3,2.2,2.3s2.4-1.1,2.4-2.5-1-2.3-2.3-2.3-2.3,1.1-2.3,2.5h0ZM60,192.2c0-.8.3-1.8,1.3-1.8s1.5,1.4,1.5,2.2-.2,1.8-1.2,1.8c-1.2,0-1.5-1.4-1.5-2.3h0ZM64.3,190.7c.6,0,.7,0,.7.6v2c0,.9.3,1.5,1.3,1.5s1.3-.3,1.6-.9v.8h0c.9-.1.6,0,1.5-.1v-.3c-.6,0-.8,0-.8-.6v-3.5h0c-.9.1-.6,0-1.6.2v.2c.6,0,.8,0,.8.6v1.6c0,.5-.6,1.3-1.2,1.3s-.9-.5-.9-1.2v-2.8h0c-.9.1-.6,0-1.5.2v.2h0ZM70.2,194.7c.4,0,.8,0,1.2,0s.8,0,1.2,0v-.3c-.6,0-.7,0-.7-.7v-2.3c.2-.4.7-.7,1.2-.7.7,0,1,.6,1,.9v2c0,.2,0,.8-.4.8v.2c.3,0,.6,0,.9,0s.6,0,.9,0v-.3c-.6,0-.7,0-.7-.7v-2c0-1-.5-1.5-1.5-1.5s-1.1.3-1.5.8v-.8h0c-1,.2-.7.2-1.5.3v.2c.7,0,.7,0,.7.7v2.3c0,.7-.1.7-.8.7v.3h0Z"/>
  <path d="M76,190.4v.4h.7v2.8c0,.7.3,1.1,1,1.1s.8-.3,1.1-.6v-.2c-.3.1-.5.2-.7.2-.5,0-.6-.4-.6-.8v-2.6h1.2v-.4c0,0-1.2,0-1.2,0v-1.5h0c-.5,0-.7.2-.7.8v.7h-.7Z"/>
  <path d="M81.8,194.7c.3,0,.7,0,1.1,0s.9,0,1.1,0v-.2c-.2,0-.8,0-.8-.4s1.2-4.8,1.2-4.8l1.4,5.5h.2l3.4-5.7-.5,4.6c0,.7-.4.8-1,.8v.2c.3,0,.8,0,1.2,0s1,0,1.3,0v-.2c-.5,0-.8-.1-.8-.5s.5-4.9.5-4.9c0-.7.4-.7,1-.8v-.2c-.2,0-.5,0-.8,0s-.5,0-.8,0l-3.3,5.5-1.4-5.5c-.3,0-.5,0-.8,0s-.5,0-.8,0v.2c.4,0,.8,0,.8.5s-1.3,5.1-1.3,5.1c-.1.4-.3.6-.9.6v.2Z"/>
  <path class="st3" d="M121.3,180.8c-27.7-16.3-41.9-30.7-57-57.5"/>
  <path class="st1" d="M63.2,126.2c1.1-1,1.2-2.1,1.1-3,.7.6,1.7,1,3.1.6"/>
  <path d="M0,163.3c0,2.2,1.7,3.4,3.7,3.4s1.5-.1,2.1-.4c.1-.3.3-.7.4-1h-.2c-.5.7-1.2,1-2.1,1-1.9,0-2.9-1.4-2.9-3.2s1-3,2.7-3,1.7.3,1.8.8v.7c.1,0,.4,0,.4,0v-1.5c-.7-.2-1.3-.3-2-.3-2.1,0-3.9,1.3-3.9,3.6h0ZM7,164.4c0,1.3.9,2.3,2.2,2.3s2.4-1.1,2.4-2.5-1-2.3-2.3-2.3-2.3,1.1-2.3,2.5h0ZM7.9,164.1c0-.8.3-1.8,1.3-1.8s1.5,1.4,1.5,2.2-.2,1.8-1.2,1.8c-1.2,0-1.5-1.4-1.5-2.3h0ZM12.2,162.5c.6,0,.7,0,.7.6v2c0,.9.3,1.5,1.3,1.5s1.3-.3,1.6-.9v.8h0c.9-.1.6,0,1.5-.1v-.3c-.6,0-.8,0-.8-.6v-3.5h0c-.9.1-.6,0-1.6.2v.2c.6,0,.8,0,.8.6v1.6c0,.5-.6,1.3-1.2,1.3s-.9-.5-.9-1.2v-2.8h0c-.9.1-.6,0-1.5.2v.2h0ZM18.1,166.5c.4,0,.8,0,1.2,0s.8,0,1.2,0v-.3c-.6,0-.7,0-.7-.7v-2.3c.2-.4.7-.7,1.2-.7.7,0,1,.6,1,.9v2c0,.2,0,.8-.4.8v.2c.3,0,.6,0,.9,0s.6,0,.9,0v-.3c-.6,0-.7,0-.7-.7v-2c0-1-.5-1.5-1.5-1.5s-1.1.3-1.5.8v-.8h0c-1,.2-.7.2-1.5.3v.2c.7,0,.7,0,.7.7v2.3c0,.7-.1.7-.8.7v.3h0ZM24,162.3v.4h.7v2.8c0,.7.3,1.1,1,1.1s.8-.3,1.1-.6v-.2c-.3.1-.5.2-.7.2-.5,0-.6-.4-.6-.8v-2.6h1.2v-.4c0,0-1.2,0-1.2,0v-1.5h0c-.5,0-.7.2-.7.8v.7h-.7ZM27.6,166.5c.4,0,.8,0,1.2,0s.8,0,1.2,0v-.3c-.7,0-.8,0-.8-.7v-3.5h0c0,0-1.5.3-1.5.3v.2c.7,0,.7,0,.7.7v2.3c0,.7-.1.6-.8.7v.3h0ZM28.2,160.8c0,.3.2.5.5.5s.5-.2.5-.5-.2-.6-.5-.6-.5.3-.5.6h0ZM30.5,166.5c.4,0,.8,0,1.2,0s.8,0,1.2,0v-.3c-.6,0-.7,0-.7-.7v-2.3c.2-.4.7-.7,1.2-.7.7,0,1,.6,1,.9v2c0,.2,0,.8-.4.8v.2c.3,0,.6,0,.9,0s.6,0,.9,0v-.3c-.6,0-.7,0-.7-.7v-2c0-1-.5-1.5-1.5-1.5s-1.1.3-1.5.8v-.8h0c-1,.2-.7.2-1.5.3v.2c.7,0,.7,0,.7.7v2.3c0,.7-.1.7-.8.7v.3h0ZM36.5,167.8c0,1,1.1,1.4,2,1.4,1.6,0,2.5-.8,2.5-2.1s-.6-1.2-1.3-1.2-.8,0-1.3,0-.7,0-.7-.4.5-.5.5-.5c1.4,0,2.1-.5,2.1-1.6s-.2-.7-.2-.7h.7s.3-.5.3-.5h-1.4c-.3-.1-.7-.2-1.1-.2-1,0-2,.7-2,1.7s.4,1.2,1.1,1.3c0,0-.8.5-1,.8,0,.6.8.7.8.7,0,0-1.1.5-1.1,1.2h0ZM37.3,167.6c0-.9.8-1,1.5-1s1.5,0,1.5.9-.9,1.3-1.6,1.3-1.4-.4-1.4-1.1h0ZM37.5,163.5c0-.6.3-1.2.9-1.2s1,.7,1,1.4-.3,1.1-.9,1.1-1-.7-1-1.3h0Z"/>
  <path d="M44.3,164.5c0,1.3.9,2.2,2.2,2.2s1.4-.4,1.6-.9h-.1c-.4.1-.7.3-1.1.3-1.1,0-1.7-1-1.7-2s.4-1.6,1.3-1.6.8,0,.9.3l.2.4h.2s.2-.8.2-.8c-.2-.3-.9-.4-1.1-.4-1.4,0-2.6,1.1-2.6,2.5h0ZM48.7,164.4c0,1.3.9,2.3,2.2,2.3s2.4-1.1,2.4-2.5-1-2.3-2.3-2.3-2.3,1.1-2.3,2.5h0ZM49.6,164.1c0-.8.3-1.8,1.3-1.8s1.5,1.4,1.5,2.2-.2,1.8-1.2,1.8c-1.2,0-1.5-1.4-1.5-2.3h0ZM53.9,166.5s.7,0,1.1,0,.8,0,1.2,0v-.3c-.6,0-.7,0-.7-.7v-2.3c.2-.4.7-.7,1.2-.7.7,0,.9.6.9,1.1v1.9c0,.7-.1.6-.8.7v.3s.7,0,1.1,0,.8,0,1.2,0v-.3c-.7,0-.7,0-.7-.7v-2.3c.2-.4.7-.7,1.2-.7.7,0,.9.6.9,1.2v1.8c0,.2,0,.8-.3.8v.2c.3,0,.6,0,.9,0s.7,0,1,0v-.3c-.7,0-.7,0-.7-.7v-2.1c0-.9-.5-1.5-1.4-1.5s-1.2.4-1.6.9c-.2-.6-.7-.9-1.3-.9s-1.1.4-1.5.8v-.8h0c-.9.2-.6.1-1.5.3v.2c.7,0,.7,0,.7.7v2.3c0,.7-.1.6-.8.7v.3h0ZM62.7,168.8v.3c.4,0,.8,0,1.2,0s.8,0,1.2,0v-.3c-.7,0-.9,0-.9-.7v-1.7c.2.1.6.2.8.2,2.1,0,2.6-1,2.6-2.8s-.8-1.9-1.9-1.9-1.1.3-1.6.8v-.8h0c-.9.2-.7.1-1.5.4v.2c.7,0,.8,0,.8.7v4.8c0,.7-.1.6-.8.7h0ZM64.3,165.7v-2.4c.2-.4.7-.7,1.2-.7,1,0,1.5.8,1.5,1.8s-.5,1.8-1.5,1.8-.8-.2-1.2-.5h0ZM68.7,166.5s.7,0,1.2,0,.8,0,1.2,0v-.3c-.7,0-.8,0-.8-.7v-6.1h0c-.9.1-.6,0-1.5.3v.2c.5,0,.8,0,.8.5v5.1c0,.7-.1.6-.8.7v.3h0ZM71.9,164.5c0,1.3.8,2.2,2.1,2.2.5,0,1.4-.3,1.7-.9h-.1c-.4.1-.7.3-1.2.3-1.2,0-1.7-.9-1.7-2,0,0,.4,0,.9,0s.9,0,1.3,0l.8-.3c0-1.3-.7-1.9-1.6-1.9s-.8.2-1.2.4c-.8.5-1.1,1.2-1.1,2.1h0ZM72.8,163.7c0-.7.4-1.4,1.2-1.4s1,.5,1,1-.1.4-.4.5c-.1,0-.9,0-1.1,0-.6,0-.7,0-.7,0h0ZM76.5,162.3v.4h.7v2.8c0,.7.3,1.1,1,1.1s.8-.3,1.1-.6v-.2c-.3.1-.5.2-.7.2-.5,0-.6-.4-.6-.8v-2.6h1.2v-.4c0,0-1.2,0-1.2,0v-1.5h0c-.5,0-.7.2-.7.8v.7h-.7ZM80.1,164.5c0,1.3.8,2.2,2.1,2.2.5,0,1.4-.3,1.7-.9h-.1c-.4.1-.7.3-1.2.3-1.2,0-1.7-.9-1.7-2,0,0,.4,0,.9,0s.9,0,1.3,0l.8-.3c0-1.3-.7-1.9-1.6-1.9s-.8.2-1.2.4c-.8.5-1.1,1.2-1.1,2.1h0ZM81,163.7c0-.7.4-1.4,1.2-1.4s1,.5,1,1-.1.4-.4.5c-.1,0-.9,0-1.1,0-.6,0-.7,0-.7,0h0Z"/>
  <path class="st3" d="M63.7,90.5c15.8-28,30-42.4,56.4-58"/>
  <path class="st1" d="M117.3,31.4c1.1,1,2.1,1.2,3,1-.6.7-1,1.7-.6,3.1"/>
  <path d="M42,47.4c0,1.9,1.4,3.5,3.3,3.5s3.6-1.6,3.6-3.7-1.4-3.3-3.4-3.3c-2.1,0-3.6,1.5-3.6,3.6h0ZM43,47.1c0-1.5.7-2.9,2.4-2.9s2.6,1.7,2.6,3.3-.6,3-2.3,3c-1.9,0-2.6-1.8-2.6-3.4h0ZM49.7,46.7c.6,0,.7,0,.7.6v2c0,.9.3,1.5,1.3,1.5s1.3-.3,1.6-.9v.8h0c.9-.1.6,0,1.5-.1v-.3c-.6,0-.8,0-.8-.6v-3.5h0c-.9.1-.6,0-1.6.2v.2c.6,0,.8,0,.8.6v1.6c0,.5-.6,1.3-1.2,1.3s-.9-.5-.9-1.2v-2.8h0c-.9.1-.6,0-1.5.2v.2h0ZM55.6,46.5v.4h.7v2.8c0,.7.3,1.1,1,1.1s.8-.3,1.1-.6v-.2c-.3.1-.5.2-.7.2-.5,0-.6-.4-.6-.8v-2.6h1.2v-.4c0,0-1.2,0-1.2,0v-1.5h0c-.5,0-.7.2-.7.8v.7h-.7ZM59.2,53v.3c.4,0,.8,0,1.2,0s.8,0,1.2,0v-.3c-.7,0-.9,0-.9-.7v-1.7c.2.1.6.2.8.2,2.1,0,2.6-1,2.6-2.8s-.8-1.9-1.9-1.9-1.1.3-1.6.8v-.8h0c-.9.2-.7.1-1.5.4v.2c.7,0,.8,0,.8.7v4.8c0,.7-.1.6-.8.7h0ZM60.7,49.8v-2.4c.2-.4.7-.7,1.2-.7,1,0,1.5.8,1.5,1.8s-.5,1.8-1.5,1.8-.8-.2-1.2-.5h0ZM65.1,46.7c.6,0,.7,0,.7.6v2c0,.9.3,1.5,1.3,1.5s1.3-.3,1.6-.9v.8h0c.9-.1.6,0,1.5-.1v-.3c-.6,0-.8,0-.8-.6v-3.5h0c-.9.1-.6,0-1.6.2v.2c.6,0,.8,0,.8.6v1.6c0,.5-.6,1.3-1.2,1.3s-.9-.5-.9-1.2v-2.8h0c-.9.1-.6,0-1.5.2v.2h0ZM71,46.5v.4h.7v2.8c0,.7.3,1.1,1,1.1s.8-.3,1.1-.6v-.2c-.3.1-.5.2-.7.2-.5,0-.6-.4-.6-.8v-2.6h1.2v-.4c0,0-1.2,0-1.2,0v-1.5h0c-.5,0-.7.2-.7.8v.7h-.7Z"/>
  <path d="M77.4,48c0,1,.7,2.3,1.6,2.7-.2.1-.6.3-.6.5s0,.2.3.3c.1-.2.4-.5.7-.5.7,0,2.2,1.5,3.5,1.5s.7-.2.8-.8c0,0-.2,0-.2,0-.1.1-.3.2-.5.2-.6,0-2.5-.9-2.5-1.2,2.1-.2,3.5-2,3.5-4.1s-1.1-2.8-2.8-2.8c-2.3,0-3.9,1.9-3.9,4.1h0ZM78.3,48c0-1.7.9-3.8,2.8-3.8s2.1,1.1,2.1,2.5-1.2,3.7-3,3.7c-1.2,0-1.9-1-1.9-2.5h0Z"/>
</svg>