<?xml version="1.0" encoding="UTF-8"?>
<svg id="Layer_1" xmlns="http://www.w3.org/2000/svg" version="1.1" viewBox="0 0 544.1 359.8">
  <!-- Generator: Adobe Illustrator 29.4.0, SVG Export Plug-In . SVG Version: 2.1.0 Build 152)  -->
  <defs>
    <style>
      .st0 {
        font-family: ACaslonPro-Italic, 'Adobe Caslon Pro';
        font-style: italic;
      }

      .st0, .st1, .st2, .st3 {
        isolation: isolate;
      }

      .st0, .st1, .st3 {
        font-size: 12px;
      }

      .st4 {
        fill: #010101;
      }

      .st1 {
        font-family: ACaslonPro-Regular, 'Adobe Caslon Pro';
      }

      .st5 {
        stroke-width: .5px;
      }

      .st5, .st6, .st7, .st8, .st9, .st10, .st11, .st12, .st13, .st14, .st15, .st16 {
        fill: none;
      }

      .st5, .st6, .st7, .st8, .st17, .st18, .st19, .st20, .st12, .st13, .st14, .st15 {
        stroke: #000;
      }

      .st6 {
        stroke-width: 1.4px;
      }

      .st6, .st9, .st10, .st17, .st18, .st19, .st20, .st11, .st12, .st13, .st14, .st15, .st16, .st21 {
        stroke-miterlimit: 10;
      }

      .st7, .st8 {
        stroke-linecap: round;
        stroke-linejoin: round;
      }

      .st7, .st19, .st12 {
        stroke-width: .4px;
      }

      .st8, .st17, .st15 {
        stroke-width: .2px;
      }

      .st22, .st17, .st18, .st19, .st20, .st21 {
        fill: #fff;
      }

      .st9 {
        stroke-width: .6px;
      }

      .st9, .st10 {
        stroke: #fff;
      }

      .st10 {
        stroke-width: .3px;
      }

      .st18 {
        stroke-width: .3px;
      }

      .st20 {
        stroke-width: .6px;
      }

      .st11 {
        stroke: #010101;
        stroke-dasharray: 2.6 2.6;
        stroke-width: .3px;
      }

      .st13 {
        stroke-width: .5px;
      }

      .st14 {
        stroke-width: .7px;
      }

      .st3 {
        font-family: ACaslonPro-Semibold, 'Adobe Caslon Pro';
        font-weight: 600;
      }

      .st16, .st21 {
        stroke: #00a651;
        stroke-width: 1px;
      }
    </style>
  </defs>
  <text class="st1" transform="translate(43.8 10.1)"><tspan x="0" y="0">Strategic arithmetic action represented as parametric slices of the wholistic arithmetic structure</tspan></text>
  <g>
    <path class="st11" d="M260,169.6c46.2,5.7,97.2-2.4,114-18.2,16.8-15.8-7-33.3-53.2-39s-97.2,2.4-114,18.2c-16.8,15.8,7,33.3,53.2,39Z"/>
    <path class="st11" d="M260,169.6c15.4,1.9,41.5-9.3,58.3-25.1,16.8-15.8,18-30.1,2.6-32.1-15.4-1.9-41.5,9.3-58.3,25.1-16.8,15.8-18,30.2-2.6,32.1Z"/>
    <path class="st11" d="M280.3,150.5c46.2,5.7,88.2,6.1,93.8.9,5.6-5.3-27.3-14.2-73.5-19.9s-88.2-6.1-93.8-.9,27.3,14.2,73.5,19.9Z"/>
    <path class="st16" d="M267.8,218c34.4,4.3,72.5-1.8,85-13.6,12.5-11.8-5.2-24.8-39.6-29.1s-72.5,1.8-85,13.6c-12.5,11.8,5.2,24.8,39.6,29.1Z"/>
    <path class="st16" d="M261.7,195.8c43.5,5.4,91.7-2.3,107.5-17.1s-6.6-31.4-50.1-36.8c-43.5-5.4-91.7,2.3-107.5,17.1-15.8,14.9,6.6,31.4,50.1,36.8Z"/>
    <path class="st16" d="M260,169.6c46.2,5.7,97.2-2.4,114-18.2,16.8-15.8-7-33.3-53.2-39s-97.2,2.4-114,18.2c-16.8,15.8,7,33.3,53.2,39Z"/>
    <path class="st16" d="M261.7,140.1c43.5,5.4,91.7-2.3,107.5-17.1s-6.6-31.4-50.1-36.8-91.7,2.3-107.5,17.1c-15.8,14.9,6.6,31.4,50.1,36.8Z"/>
    <path class="st21" d="M267.8,106.5c34.4,4.3,72.5-1.8,85-13.6,12.5-11.8-5.2-24.8-39.6-29.1-34.4-4.3-72.5,1.8-85,13.6-12.5,11.8,5.2,24.8,39.6,29.1Z"/>
    <circle class="st4" cx="284.6" cy="62.7" r=".9"/>
    <g>
      <polygon class="st22" points="300.3 74.2 291.7 72.4 294.3 71.8 302.9 73.6 300.3 74.2"/>
      <path class="st20" d="M320.7,78.1c3.3-.9,2.7-2.2-1.3-3.1-4-.8-9.8-.8-13.1,0-3.4.8-2.9,2.2,1.1,3.1,4,.9,10,.9,13.3,0h0Z"/>
      <polygon class="st22" points="248.6 86.5 234.1 83 238.3 82 252.9 85.5 248.6 86.5"/>
      <polygon class="st22" points="293.3 74.5 260.3 67.3 264 66.5 297 73.6 293.3 74.5"/>
      <polygon class="st22" points="341.6 84.9 324 81.1 328.9 79.8 346.5 83.5 341.6 84.9"/>
      <polygon class="st22" points="314.1 103.3 275.2 93.8 280.8 92.3 319.6 101.7 314.1 103.3"/>
      <polygon class="st22" points="342.6 96.6 314.2 90.1 319.4 88.7 347.7 95.1 342.6 96.6"/>
      <polygon class="st22" points="258.1 77.6 240.4 73.5 245.7 72.3 263.4 76.3 258.1 77.6"/>
      <path class="st22" d="M316.3,89.5c-13.7,3.8-38.2,3.8-53.7,0-14.9-3.6-15.1-9.2-1.2-12.5,13.3-3.2,35.5-3.2,50.3,0,15.4,3.3,17.8,8.9,4.6,12.5Z"/>
      <path class="st6" d="M320.5,78.1c3.3-.8,2.7-2.2-1.2-3-3.9-.8-9.6-.8-12.9,0-3.3.8-2.9,2.2,1,3,3.9.9,9.8.9,13.1,0h0Z"/>
      <path class="st9" d="M320.5,78.1c3.3-.8,2.7-2.2-1.2-3-3.9-.8-9.6-.8-12.9,0-3.3.8-2.9,2.2,1,3,3.9.9,9.8.9,13.1,0h0Z"/>
      <path d="M308.3,75.4c-.2,0-.2,0-.1.1.3,0,1.2,0,1.4,0l-1.3.2c-.2,0-.2,0-.4,0h0c0,0,.6.1.6.1h0c-.1,0-.1,0,0,0,0,0,2.3-.4,2.3-.4h0s0,0,0,0c0,0-.1,0-.2,0-.5-.1-1.4,0-2.1,0h0ZM308.7,75.4c.5-.1,1.2-.2,1.5,0,0,0,.1,0,.2,0-.1,0-.5,0-.5,0-.5,0-1.1,0-1.2,0,0,0,0,0,0,0h0Z"/>
      <path d="M309.7,75.8c-.3,0-.5.2-.1.3.4,0,.9,0,1.2,0,.2,0,.5-.2.1-.3-.4,0-.9,0-1.2,0h0ZM310,75.9c.2,0,.5-.1.8,0,.3,0,0,.2-.3.2-.2,0-.6.1-.8,0-.3,0,0-.2.3-.2h0ZM310.2,76.3h.2s2.3-.2,2.3-.2h-.2s-2.3.2-2.3.2ZM311.7,76.4c-.1,0-.1,0,0,0,.1,0,.6,0,.9,0,0,0-.3,0-.4,0,0,0,0,0,0,0,0,0,.3,0,.6,0h0c0,0-.2,0-.3,0,0,0,0,0,0,0,.1,0,.7-.1.9-.1h0s-.1,0-.1,0c0,0,0,0-.1,0-.5-.1-1.1,0-1.4,0h0ZM311.9,76.5c.2,0,.8-.1,1,0,0,0,0,0,.1,0,0,0-.3,0-.4,0-.1,0-.7,0-.8,0,0,0,0,0,0,0h0Z"/>
      <path d="M313,76.7c-.2,0-.2,0,0,.1.2,0,.5,0,.7,0h0c-.2,0-.4,0-.5,0-.1,0-.1,0,0,0,.3,0,.7,0,.9,0,.2,0,.1,0,0,0,0,0,0,0,0,0h0c0,0,.2,0,.2,0,0,0,0,0-.1,0-.4,0-1,0-1.3,0h0ZM314.1,76.9c-.2,0-.2,0,0,.1.2,0,.5,0,.7,0h0c-.2,0-.4,0-.5,0-.1,0-.1,0,0,0,.3,0,.7,0,.9,0,.2,0,.1,0,0,0,0,0,0,0,0,0h0c0,0,.2,0,.2,0,0,0,0,0-.1,0-.4,0-1,0-1.3,0h0ZM315.2,77.1c-.2,0-.1,0,0,.1.1,0,.3,0,.7,0h0c-.2,0-.4,0-.5,0-.1,0,0,0,0,0,0,0,0,0,.1,0,.3,0,.8.1,1,0,0,0,0,0,0,0-.4,0-1,0-1.3,0h0ZM315.6,77.1c.1,0,.5,0,.7,0,0,0,0,0,0,0-.2,0-.5,0-.7,0h0ZM315.4,77.6c.1,0,.3,0,.4,0,0,0,0,0,0,0,0,0,0,0,0,0,0,0,.3,0,.4,0,0,0,0,0,.1,0,.5,0,1,0,1.4,0,.1,0,.2,0,0-.1-.2,0-.4,0-.6,0,0,0,.3,0,.3,0h0c-.1,0-.4,0-.6,0h0c0,0,.2,0,.3,0-.3,0-1.4.3-1.6.2h0ZM316.5,77.5s.5,0,.6,0c.2,0,.5,0,.6,0,0,0,.1,0,0,0-.2,0-.7.1-1,0,0,0-.1,0-.1,0h0Z"/>
      <path d="M318.2,77.5h.2s-.8.2-.9.2c0,0,0,0,0,0,.1,0,.5,0,.7,0,0,0,0,0,0,0,0,0-.3,0-.4,0,0,0,0,0,0,0,0,0,.7-.1.8-.1h.3c0,0,.1,0,.1,0h-.3c0,0,.3-.1.4-.1h0c0,0-.2,0-.3,0h-.3c0,0-.2,0-.2,0h-.1Z"/>
      <line class="st12" x1="301.8" y1="74.1" x2="305.8" y2="74.9"/>
      <path class="st7" d="M305.9,74.6c-.3.1-.2.2,0,.3-.4,0-.8,0-1.4,0"/>
      <path d="M293.5,72.6c0,0,0,0,.2.2.3,0,.8.1,1.1,0,.5-.1-.5-.2-.2-.3.1,0,.3,0,.5,0,.2,0,.2,0,0,.1h0s.3,0,.3,0c0,0-.2,0-.3,0-.3,0-.7,0-.9,0-.4.1.5.2.2.3-.2,0-.4,0-.6,0-.4,0,0-.1,0-.2h0s-.3,0-.3,0ZM295.8,72.6h-.1s.2,0,.2,0l-.8.2c-.2,0-.2.1,0,.2.1,0,.4,0,.5,0h0c0,0-.2,0-.2,0-.2,0,0,0,0,0l.8-.2h.4c0,0,.1,0,.1,0h-.4c0,0,.4-.2.4-.2h0c-.2,0-.3,0-.5,0h-.2c0,0-.2,0-.2,0ZM296.1,73.1c-.2,0-.2.1,0,.2.2,0,.6,0,.7,0,0,0-.2,0-.1,0,0,0,.5,0,.5,0h0s0,0,0,0c0,0-.1,0,0,0h.6c.3-.2.4-.3,0-.4-.3,0-.6,0-.9,0h0c.2,0,.4,0,.6,0,.2,0,.2,0,0,.2h-.6c-.3,0-.6-.1-.8,0h0ZM296.5,73.1c.2,0,1,0,1,0h-.4c-.2.1-.4,0-.5,0-.1,0-.1,0,0-.1h0ZM297.4,73.5c.1,0,.3,0,.4,0s.3,0,.4,0h0c-.2,0-.3,0,0-.1h.5c.1-.2.4-.2.5-.1,0,0,.1,0,0,0h0s.3,0,.3,0c0,0,0,0,0,0-.2,0-.5,0-.7,0h.3c0,0,0,0,0,0-.4,0-.2,0-.6,0h0c.2,0,.3,0,0,.1l-.7.2c-.2,0-.2,0-.5,0h0ZM300,73.5h-.1s.2,0,.2,0l-.8.2c-.2,0-.2.1,0,.2.1,0,.4,0,.5,0h0c0,0-.2,0-.3,0-.2,0,0,0,0,0l.8-.2h.4c0,0,.1,0,.1,0h-.4c0,0,.4-.2.4-.2h0c-.2,0-.3,0-.5,0h-.2c0,0-.2,0-.2,0Z"/>
      <path class="st19" d="M332.4,86.7c2.3-.6,1.8-1.7-1-2.3-2.8-.6-7-.6-9.3,0-2.3.6-1.9,1.6.9,2.3,2.9.6,7.1.6,9.4,0h0Z"/>
      <path d="M325.6,85.2c-.2,0-.2,0-.1.1.4,0,1.3,0,1.5,0l-1.3.2c-.2,0-.3,0-.4,0h0c0,0,.6.1.6.1h0c-.1,0-.2,0-.1,0,0,0,2.3-.4,2.3-.4h0s0,0,0,0c0,0-.2,0-.2,0-.5-.1-1.5-.1-2.2,0h0ZM326,85.2c.5-.1,1.2-.2,1.5-.1,0,0,.2,0,.2,0-.1,0-.5,0-.5,0-.5,0-1.1,0-1.3,0,0,0,0,0,0,0h0Z"/>
      <path d="M327.7,85.5h0c0,0,.2,0,.2,0,0,0,0,0,0,0l-.8.2c-.1,0-.3,0-.4,0h0c.1,0,.2,0,.4,0,.1,0,.2,0,.4,0h0c-.1,0-.3,0-.1-.1l.7-.2c.1,0,.2,0,.3,0h0c-.2,0-.5,0-.7,0h0Z"/>
      <path class="st19" d="M306.3,93.9c2.5-.7,2.1-1.8-.8-2.5-2.9-.7-7.2-.7-9.7,0-2.5.7-2.2,1.8.6,2.5,2.9.7,7.3.7,9.8,0h0Z"/>
      <path d="M299.5,92.3c-.2,0-.2,0-.1.1.4,0,1.3,0,1.5,0l-1.4.3c-.2,0-.3,0-.4,0h0c0,0,.6.1.7.1h0c-.1,0-.2,0-.1,0,0,0,2.5-.5,2.5-.5h0s0,0,0,0c0,0-.2,0-.2,0-.5-.1-1.5-.1-2.3,0h0ZM299.9,92.3c.5-.1,1.3-.2,1.6-.1,0,0,.2,0,.2,0-.1,0-.5,0-.6,0-.5,0-1.2,0-1.4,0,0,0,0,0,.1,0h0Z"/>
      <path d="M300.4,93h0c.1,0,.3,0,.4.1h0s0,0,0,0c.2,0,.4,0,.5,0h0c-.2,0-.3,0-.5-.1h-.2c0,0,.7,0,.7,0,.3,0,.5,0,.7,0,.2,0,.1-.2-.1-.2-.1,0-.3,0-.5,0h-.3s0,0,0,0c.2,0,.3,0,.5,0,.2,0,.2,0,0,.1-.2,0-.5,0-.8,0h-.8s0,0,0,0Z"/>
      <path class="st19" d="M265.9,91.2c2.6-.7,2.4-1.7-.3-2.4-2.7-.6-7-.6-9.5,0-2.6.7-2.5,1.7.2,2.4,2.7.7,7.1.7,9.7,0h0Z"/>
      <path d="M259.5,89.6c-.2,0-.3,0-.2.1.4,0,1.3,0,1.5,0l-1.5.3c-.3,0-.3,0-.4,0h0c0,0,.6.1.6.1h0c-.1,0-.1,0,0,0,0,0,2.5-.4,2.5-.4h0s0,0,0,0c0,0-.1,0-.2,0-.5-.1-1.5-.1-2.2,0h0ZM259.9,89.7c.6-.1,1.3-.2,1.6-.1,0,0,.1,0,.2,0-.1,0-.5,0-.6,0-.5,0-1.2,0-1.3,0,0,0,0,0,.1,0h0Z"/>
      <path d="M260.5,90.2c-.1,0-.2,0,0,.1.4,0,.8,0,1.1,0,.2,0,.1-.1,0-.2.2,0,.4,0,.6,0,.2,0,.1-.1,0-.2-.1,0-.3,0-.4,0h-.3s0,0,0,0c.2,0,.3,0,.4,0,.1,0,.2,0,0,.1-.2,0-.5,0-.7,0h0c0,0,.1,0,.1,0,.2,0,.2.1,0,.1-.2,0-.4,0-.5,0-.2,0-.2,0-.2-.1h0Z"/>
      <path class="st19" d="M254.7,81.7c2.5-.6,2.4-1.6-.1-2.2-2.5-.6-6.6-.6-9.1,0-2.5.6-2.5,1.6,0,2.2,2.6.6,6.7.6,9.2,0h0Z"/>
      <path d="M248.7,80.3c-.2,0-.3,0-.2.1.3,0,1.2,0,1.4,0l-1.4.2c-.2,0-.3,0-.4,0h0c0,0,.5.1.6.1h0c-.1,0-.1,0,0,0,0,0,2.4-.4,2.4-.4h0s0,0,0,0c0,0-.1,0-.2,0-.5-.1-1.4-.1-2.1,0h0ZM249.1,80.4c.5-.1,1.2-.2,1.5,0,0,0,.1,0,.2,0-.1,0-.5,0-.5,0-.5,0-1.1,0-1.3,0,0,0,0,0,.1,0h0Z"/>
      <path d="M249.7,80.8h0s.6.2.6.2h-.1c-.1,0-.2,0-.3,0h0s0,0,0,0l.7.2h0c-.1,0-.2,0,0,0h.1c0,0,.1,0,.2,0h.2c0,0-.1,0-.2,0l.7-.2c0,0,.1,0,.2,0h-.3s-1.5,0-1.5,0ZM250,80.8h1s0,0,0,0h-.6c0,.1-.5,0-.5,0Z"/>
      <path class="st19" d="M281,75.3c2.3-.6,2.1-1.5-.4-2-2.5-.6-6.5-.6-8.8,0-2.3.6-2.2,1.5.3,2,2.6.6,6.5.6,8.9,0h0Z"/>
      <path d="M275,74c-.2,0-.2,0-.1.1.3,0,1.2,0,1.4,0l-1.3.2c-.2,0-.2,0-.4,0h0c0,0,.5.1.6.1h0c-.1,0-.1,0,0,0,0,0,2.3-.4,2.3-.4h0s0,0,0,0c0,0-.1,0-.2,0-.5-.1-1.4,0-2.1,0h0ZM275.4,74.1c.5-.1,1.2-.2,1.5,0,0,0,.1,0,.2,0-.1,0-.5,0-.5,0-.5,0-1.1,0-1.2,0,0,0,0,0,0,0h0Z"/>
      <path d="M275.9,74.5c0,0-.2,0,0,.1.4,0,.7,0,1.1,0,.2,0,.2-.1,0-.2,0,0-.2,0-.3,0h.3c.1,0,.2,0,.3,0,0,0,.2,0,.2,0h0s.2,0,.2,0c-.1,0-.3,0-.4,0,0,0-.2,0-.3,0-.2,0-.5,0-.7.1h0c0,0,.2,0,.3,0,.2,0,.2,0,0,.1-.2,0-.4,0-.5,0-.2,0-.2,0-.2-.1h0Z"/>
      <path class="st12" d="M318.2,78.6c4.4,1.9,6.1,3.1,7.5,5.2"/>
      <path class="st7" d="M326.7,83.5c-.6,0-.9.2-.9.2-.2,0-.6-.2-1.3-.2"/>
      <path d="M325.9,81s.3,0,.5.1c.2,0,.3,0,.5.1h0c-.3,0-.3-.1,0-.2l1.4-.4c0,0,.2,0,.4,0,.3,0,.4.2.2.2-.2,0-.4,0-.7,0-.2,0-.4,0-.5,0,0,0,0,.1,0,.1,0,0,0,.2,0,.2,0,0,0,0,.2.1h.3s0,0,0,0c0,0,0,0-.1,0v-.4c.5,0,.9,0,1.2,0,.3,0,0-.2-.3-.3-.1,0-1.1-.2-1.1-.2h0c.3,0,.3.1,0,.2l-1.2.3c-.3,0-.3,0-.6,0h0ZM328.9,81.4c-.4.1-.4.2.1.3.2,0,.6,0,.9,0h0c-.2,0-.4,0-.6,0-.4,0-.3-.2,0-.3,0,0,.1,0,.3,0,.1,0,.3,0,.5,0h.4c.4,0,.3-.2,0-.2-.1,0-.3,0-.5,0-.4,0-.7,0-1,0h0ZM329.4,81.4c.2,0,.6,0,.8,0,.2,0,.2.1,0,.2,0,0-.2,0-.3,0,0,0-.3,0-.4,0-.2,0-.2,0-.2,0h0ZM330.3,81.8c-.2,0-.1.1,0,.2.2,0,.6,0,.7,0,0,0-.2,0-.1,0,0,0,.5,0,.5,0h0s0,0,0,0c0,0-.1,0,0,0l.6-.2c.3,0,.3-.1,0-.2-.3,0-.7,0-1,0h0c.2,0,.5,0,.7,0,.2,0,.2.1,0,.2h-.6c-.3-.1-.6-.1-.9,0h0ZM330.7,81.9c.2,0,1,0,1,0h-.4c-.2.1-.4.1-.6,0-.1,0-.1,0,0-.1h0ZM332.4,82.2c-.4,0-.3.2.1.3.3,0,.6,0,.8,0h-.2c.4.1.3.1.6.2h0c-.2,0-.3,0,0-.1l1.7-.5h0c-.4,0-.3,0-.7-.1h0c.2,0,.3,0,.1.1h-.5c0,.1-.1,0-.3,0-.5-.1-1.3-.1-1.7,0h0ZM332.8,82.2c.3,0,.7-.1,1,0,.2,0,.4.1.3.1l-.6.2c-.2,0-.5,0-.7,0-.4,0-.2-.2,0-.3h0Z"/>
      <path d="M334.8,83l.8.2h0c-.2,0-.3,0-.2,0,0,0,1,0,1,0l.8.2s-.4.2-.5.2c-.1,0-.2,0-.4,0h0s.9.2.9.2h0c-.2,0-.2,0-.1-.1.5-.2,1.4-.5,1.4-.5h-.1s-2.8.2-2.8.2c-.3,0-.4,0-.7,0h0ZM336.6,82.9h1.4c0,0-.6.2-.6.2l-.7-.2ZM337.1,83.6h0c.3,0,1,0,1.2,0,0,0,0,0,0,0,0,0-.2,0-.3,0,0,0,0,0,0,0,0,0,0,0,0,0-.2,0-.7,0-.8,0h0Z"/>
      <path d="M339,83.9l.9.2c.6.1,1.2.1,1.6,0,.2,0,0-.2-.1-.2.4,0,.9,0,1.1,0,.3,0,0-.2-.3-.2l-1-.2h0c.2,0,.3,0,.2.1-.2,0-1.2.2-1.8.3-.2,0-.3,0-.5,0h0ZM339.8,83.9c0,0,.9-.2.9-.2h.3c.3.1.5.2.2.3-.3,0-.7,0-1.2,0-.2,0-.3,0-.2,0h0ZM340.8,83.7l.9-.2c0,0,.2,0,.3,0,.3,0,.4.1.2.2-.3,0-.7,0-1.1,0h-.2Z"/>
      <path class="st12" d="M323.8,86.9c-5.2,2.1-9.2,3.2-16.9,4.7"/>
      <path class="st7" d="M308.4,91.6c-.6-.1-1.1-.1-1.5,0,.2,0,.3-.2,0-.4"/>
      <path d="M318.7,89.5c.3,0,.3,0,0,.2l-1.3.4c-.2,0-.3,0-.6,0h0s1,.2,1,.2c.8.2,1.9.2,2.6,0,.7-.2.3-.4-.4-.6l-1.2-.3h0ZM317.6,90.1l1.6-.4c0,0,.3,0,.4,0,.7.2,1,.3.3.5-.6.2-1.4.2-2.1,0-.1,0-.3,0-.2-.1h0ZM320.2,90.5c-.4.1-.4.3.1.4.2,0,.6,0,.9,0h0c-.2,0-.4,0-.6,0-.4-.1-.3-.2,0-.3,0,0,.1,0,.3,0,.2,0,.3,0,.5.1h.4c.4,0,.3-.2,0-.2-.2,0-.4,0-.5,0-.4,0-.8,0-1,0h0ZM320.8,90.5c.2,0,.6,0,.9,0,.2,0,.2.1,0,.2,0,0-.2,0-.3,0,0,0-.3,0-.4,0-.2,0-.3,0-.3,0h0ZM322.6,90.7h-.1s.3,0,.3,0l-.9.2c-.2,0-.2.1,0,.2.2,0,.4,0,.6,0h0c0,0-.2,0-.3,0-.2,0-.1,0,0-.1l.8-.2h.4c0,.1.1,0,.1,0h-.5c0-.1.5-.2.5-.2h0c-.3,0-.4,0-.6,0h-.2c0,0-.3,0-.3,0ZM323.3,91.2c-.4.1-.4.3.1.4.2,0,.6,0,.9,0h0c-.2,0-.4,0-.6,0-.4-.1-.3-.2,0-.3,0,0,.1,0,.3,0,.2,0,.3,0,.5.1h.4c.4,0,.3-.2,0-.2-.2,0-.4,0-.6,0-.4,0-.8,0-1,0h0ZM323.8,91.2c.2,0,.6,0,.9,0,.2,0,.2.1,0,.2,0,0-.2,0-.3,0,0,0-.3,0-.4,0-.2,0-.3,0-.3,0h0ZM324.4,91.8c.2,0,.3,0,.5.1.2,0,.3,0,.5.1h0c-.2,0-.4,0-.1-.2l.6-.2c.1,0,.4,0,.6,0,0,0,.1,0,0,0h0s.4,0,.4,0c0,0,0,0,0,0-.2,0-.6,0-.8,0h.3c0,0,0,0,0,0-.4,0-.3,0-.7,0h0c.2,0,.3,0,0,.1l-.7.2c-.2,0-.2,0-.5,0h0ZM325.9,92.2s.3,0,.4,0c.2,0,.3,0,.4.1h0c-.2,0-.3,0,0-.1l.7-.2c.2,0,.5,0,.7,0,.3,0,.2.1,0,.2l-.6.2c-.2,0-.2,0-.5,0h0s.3,0,.4.1.3,0,.4.1h0c-.2,0-.3,0,0-.1l.7-.2c.2,0,.5,0,.7,0,.3,0,.2.1,0,.2l-.5.2c0,0-.2,0-.4,0h0c.1,0,.2,0,.3,0,.1,0,.3,0,.4,0h0c-.2,0-.3,0,0-.1l.7-.2c.3,0,.3-.2,0-.2-.3,0-.6,0-.9,0,0,0,0-.1-.2-.2-.3,0-.5,0-.8,0h.2c0,0,0,0,0,0-.4,0-.3,0-.7,0h0c.2,0,.3,0,0,.1l-.7.2c-.2,0-.2,0-.5,0h0ZM329.2,92.9c.2,0,.3,0,.4.1.1,0,.3,0,.4.1h0c-.2,0-.3,0,0-.2l1.1-.3h0s-.7-.1-.7-.1h0c.2,0,.3,0,0,.1l-.7.2c-.2,0-.2,0-.5,0h0ZM331.2,92.5c0,0,0,0,0,0s.3,0,.4,0c0,0,0,0,0,0-.1,0-.3,0-.4,0h0ZM330.4,93.2c.1,0,.3,0,.4.1s.3,0,.4.1h0c-.2,0-.3,0,0-.2l.7-.2c.2,0,.5,0,.7,0,.3,0,.2.1,0,.2l-.6.2c0,0-.2,0-.4,0h0c.1,0,.2,0,.4,0,.1,0,.2,0,.4,0h0c-.2,0-.3,0,0-.1l.6-.2c.3,0,.3-.2,0-.3-.2,0-.5,0-.8,0h.2c0,0,0,0,0,0-.5,0-.3,0-.7,0h0c.2,0,.3,0,0,.1l-.7.2c-.2,0-.3,0-.5,0h0ZM333.3,93.5c-.4.1-.4.3.1.4.2,0,.6,0,.9,0h0c-.2,0-.4,0-.6,0-.5-.1-.4-.2,0-.3,0,0,.2,0,.3,0,.2,0,.3,0,.5.1h.4c.4,0,.3-.2,0-.3-.2,0-.4,0-.6,0-.4,0-.8,0-1.1,0h0ZM333.8,93.5c.2,0,.6,0,.9,0,.2,0,.2.1,0,.2,0,0-.2,0-.3,0,0,0-.4,0-.4,0-.2,0-.3,0-.3,0h0Z"/>
      <path d="M336.1,94.1c-.4.1-.3.3.2.4.5.1,1.3.1,1.7,0,.4-.1.3-.3-.2-.4-.5-.1-1.2-.1-1.7,0h0ZM336.5,94.2c.2,0,.7-.1,1,0,.4,0,.2.3-.1.3-.2,0-.7.1-1,0-.4-.1-.2-.3.1-.3h0ZM337.4,94.8c.1,0,.3,0,.5.1.2,0,.3,0,.4.1h0c-.2,0-.3,0,0-.2l.7-.2c.2,0,.5,0,.7,0,.3,0,.2.1.1.2l-.6.2c0,0-.2,0-.4,0h0c.1,0,.2,0,.4,0,.1,0,.2,0,.4,0h0c-.2,0-.3,0,0-.2l.6-.2c.3,0,.3-.2-.1-.3-.3,0-.5,0-.8,0h.2c0,0,0,0,0,0-.5,0-.3,0-.7,0h0c.2,0,.3,0,0,.1l-.7.2c-.2,0-.3,0-.5,0h0ZM340.4,95.1c-.4.1-.4.3.1.4.2,0,.6,0,.9,0h0c-.2,0-.4,0-.6,0-.5-.1-.4-.2,0-.3,0,0,.2,0,.4,0,.2,0,.3,0,.5.1h.4c.4,0,.3-.2,0-.3-.2,0-.4,0-.6,0-.4,0-.8,0-1.1,0h0ZM340.9,95.1c.2,0,.6,0,.9,0,.2,0,.2.1,0,.2,0,0-.2,0-.3,0,0,0-.4,0-.4,0-.2,0-.3,0-.3,0h0ZM341.8,95.7c0,0,0,.1.3.2.4,0,.9.1,1.2,0,.5-.1-.7-.3-.3-.4.1,0,.4,0,.5,0,.2,0,.3.1.1.2h.1s.3,0,.3,0c0,0-.2,0-.4-.1-.3,0-.8-.1-1.1,0-.5.1.6.3.3.4-.2,0-.4,0-.6,0-.5-.1-.1-.2-.1-.2h0s-.3,0-.3,0Z"/>
      <path class="st12" d="M294.1,92.5c-10.8-.2-16.9-.6-26.2-1.7"/>
      <path class="st7" d="M268.3,91.1c.1-.2-.1-.3-.5-.4.4,0,.9,0,1.4-.2"/>
      <path d="M279.3,92.9c-.7.2-.5.4.2.6.2,0,.6.1.9.1.2,0,.3,0,.5,0h0c-.4,0-.8,0-1.1-.1-.7-.2-.6-.4,0-.5.5-.1,1.3-.2,2,0,.3,0,.5.2.4.2h-.2c0,0,.1,0,.1,0h.5c-.2-.2-.4-.3-.6-.3-.8-.2-1.8-.2-2.6,0h0ZM281.4,93.6c-.4.1-.4.3,0,.4.5.1,1.2.1,1.7,0,.4-.1.4-.3,0-.4-.5-.1-1.2-.1-1.6,0h0ZM281.9,93.6c.3,0,.7-.1,1,0,.4,0,0,.2-.2.3-.3,0-.7.1-1.1,0-.4-.1-.1-.3.2-.3h0ZM282.6,94.2s.3,0,.4.1.3,0,.4.1h0c-.2,0-.3,0,0-.1l.8-.2c.2,0,.5,0,.7,0,.2,0,.1.1,0,.2l-.6.2c-.2,0-.3,0-.5,0h0s.3,0,.4.1c.2,0,.3,0,.4.1h0c-.2,0-.3,0,0-.2l.8-.2c.2,0,.5,0,.7,0,.3,0,.1.1,0,.2l-.6.2c0,0-.3,0-.4,0h0c.1,0,.2,0,.3,0,.1,0,.2,0,.4,0h0c-.2,0-.3,0,0-.2l.7-.2c.3,0,.3-.2,0-.2-.3,0-.6,0-.9,0,.1,0,0-.1-.2-.2-.3,0-.5,0-.8,0h.2c0,0,0,0,0,0-.4,0-.3,0-.7,0h0c.2,0,.3,0,0,.1l-.7.2c-.2,0-.3,0-.5,0h0ZM285.1,95.2h0c.2,0,.3,0,.5.1s.3,0,.4.1h0c-.2,0-.3,0,0-.2h.6c0-.1.1,0,.2,0,.8.2,1.3.1,1.9,0,.3,0,.3-.2,0-.3-.2,0-.5,0-.8,0h.3c0,0,0,0,0,0-.4,0-.3,0-.7,0h0c.2,0,.3,0,0,.1l-1.6.4c-.2,0-.3,0-.5,0h0ZM286.7,95.1l.8-.2c.2,0,.5,0,.6,0,.4,0,.3.2,0,.3-.3,0-.8.1-1.1,0-.2,0-.3,0-.3-.1h0ZM289.3,95.2c.2,0,.3,0,0,.1l-.6.2c-.3,0-.4.2,0,.3.3,0,.6,0,.9,0h-.3c0,0,0,0,0,0,.4,0,.3,0,.6.1h0c-.2,0-.3,0,0-.1l1.1-.3h0c-.4,0-.3,0-.7-.1h0c.2,0,.3,0,0,.1h-.5c-.2.2-.6.2-.9.1-.3,0-.2-.1,0-.2l.9-.3h0c-.4,0-.3,0-.6-.1h0ZM291.6,95.7h-.1s.3.1.3.1l-.9.3c-.2,0-.3.1,0,.2.2,0,.4,0,.6,0h0c0,0-.2,0-.3,0-.2,0,0,0,0-.1l.9-.2h.4c0,.1.1,0,.1,0h-.5c0-.1.5-.2.5-.2h0c-.3,0-.4,0-.6,0h-.2c0,0-.3,0-.3,0ZM292.2,96.2c-.4.1-.4.3,0,.4.2,0,.6,0,.9,0h0c-.2,0-.4,0-.6,0-.4-.1-.3-.2,0-.3,0,0,.1,0,.3,0,.2,0,.3,0,.5.1h.4c.4,0,.3-.2,0-.3-.2,0-.4,0-.6,0-.4,0-.8,0-1.1,0h0ZM292.7,96.2c.2,0,.6,0,.9,0,.2,0,.2.1,0,.2,0,0-.2,0-.3,0,0,0-.3,0-.4,0-.2,0-.3,0-.3,0h0Z"/>
      <path d="M294.1,97c.1,0,.3,0,.4.1s.3,0,.4.1h0c-.2,0-.3,0,0-.2l.7-.2c.2,0,.5,0,.7,0,.3,0,.2.1,0,.2l-.7.2c0,0-.3,0-.4,0h0c.1,0,.2,0,.4.1.1,0,.2,0,.3,0h0c-.2,0-.2,0,0-.2l.7-.2c.3,0,.3-.2,0-.3-.2,0-.5,0-.8,0h.3c0,0,0,0,0,0-.5,0-.3,0-.7,0h0c.2,0,.3,0,0,.1l-.7.2c-.2,0-.3,0-.5,0h0ZM297.1,97.4c-.4.1-.4.3,0,.4.2,0,.6.1.9,0h0c-.2,0-.4,0-.6,0-.4-.1-.3-.2,0-.3,0,0,.1,0,.3,0,.2,0,.3,0,.5.1h.4c.4,0,.3-.2,0-.3-.2,0-.4,0-.6,0-.4,0-.8,0-1.1,0h0ZM297.6,97.4c.2,0,.6,0,.9,0,.2,0,.2.1,0,.2,0,0-.2,0-.3,0,0,0-.3,0-.4,0-.2,0-.3,0-.3,0h0ZM298.8,97.8c-.4.1-.4.3,0,.4.2,0,.6.1.9,0h0c-.2,0-.4,0-.6,0-.4-.1-.3-.2,0-.3,0,0,.1,0,.3,0,.2,0,.3,0,.5.1h.4c.4,0,.3-.2,0-.3-.2,0-.4,0-.6,0-.4,0-.8,0-1.1,0h0ZM299.4,97.8c.2,0,.6,0,.9,0,.2,0,.2.1,0,.2,0,0-.2,0-.3,0,0,0-.3,0-.4,0-.2,0-.3,0-.3,0h0ZM300.6,98.3c-.4.1-.4.3,0,.4.3,0,.6,0,.8,0h-.3c.4.1.3.1.7.2h0c-.2,0-.3-.1,0-.2l2-.6h0c-.4,0-.3,0-.7-.1h0c.2,0,.3.1.1.1l-.5.2s-.2,0-.3,0c-.5-.1-1.3-.1-1.8,0h0ZM301.1,98.3c.3,0,.7-.1,1.1,0,.2,0,.4.1.3.2l-.7.2c-.2,0-.6,0-.8,0-.4,0-.2-.2,0-.3h0ZM302.9,98.8c-.4.1-.4.3,0,.4.2,0,.6.1.9,0h0c-.2,0-.4,0-.6,0-.4-.1-.3-.2,0-.3,0,0,.1,0,.3,0,.2,0,.3,0,.5.1h.4c.4,0,.3-.2,0-.3-.2,0-.4,0-.6,0-.4,0-.8,0-1.1,0h0ZM303.4,98.8c.2,0,.6,0,.9,0,.2,0,.2.1,0,.2,0,0-.2,0-.3,0,0,0-.3,0-.4,0-.2,0-.3,0-.3,0h0ZM304.7,99.2c-.4.1-.4.3,0,.4.3,0,.6,0,.8,0h-.3c.4.1.3.1.7.2h0c-.2,0-.3-.1,0-.2l2-.6h0c-.4,0-.3,0-.7-.1h0c.2,0,.3.1.1.1l-.5.2s-.2,0-.3-.1c-.5-.1-1.4-.1-1.8,0h0ZM305.1,99.3c.3,0,.7-.1,1.1,0,.2,0,.4.1.3.2l-.7.2c-.2,0-.6,0-.8,0-.4,0-.2-.2,0-.3h0Z"/>
      <path d="M307.9,100c-.4.1-.4.3.1.4.5.1,1.3.1,1.7,0,.4-.1.4-.3-.1-.4-.5-.1-1.3-.1-1.7,0h0ZM308.3,100.1c.3,0,.7-.1,1.1,0,.4.1.1.3-.2.3-.3,0-.7.1-1.1,0-.4-.1-.1-.3.2-.4h0ZM309.2,100.7c.1,0,.3,0,.5.1.1,0,.3,0,.4.1h0c-.2,0-.3,0,0-.2l.7-.2c.2,0,.5,0,.7,0,.3,0,.2.1,0,.2l-.7.2c0,0-.3,0-.4,0h0c.1,0,.2,0,.4.1s.2,0,.4,0h0c-.2,0-.3,0,0-.2l.7-.2c.3,0,.3-.2,0-.3-.2,0-.5,0-.9,0h.2c-.5-.1-.3-.1-.7-.2h0c.2,0,.3,0,0,.2l-.7.2c-.2,0-.3,0-.5,0h0ZM312.2,101c-.4.1-.4.3,0,.4.2,0,.7.1,1,0h0c-.2,0-.4,0-.6,0-.5-.1-.3-.2,0-.3,0,0,.2,0,.4,0,.2,0,.3,0,.5.1h.4c.4,0,.3-.2,0-.3-.2,0-.4,0-.6,0-.5,0-.8,0-1.1,0h0ZM312.7,101.1c.2,0,.6,0,.9,0,.2,0,.2.1,0,.2,0,0-.2,0-.3,0,0,0-.4,0-.4,0-.2,0-.3,0-.3,0h0ZM313.6,101.6c0,0,0,.1.2.2.4,0,.9.1,1.2,0,.5-.2-.6-.3-.3-.4.2,0,.4,0,.6,0,.2,0,.3.1.1.2h.1s.3,0,.3,0c0,0-.2,0-.3-.1-.3,0-.8-.1-1.1,0-.5.1.6.3.2.4-.2,0-.4,0-.6,0-.5-.1-.1-.2,0-.2h0s-.3,0-.3,0Z"/>
      <path class="st12" d="M257.9,88.4c-4.6-2.3-6.2-3.8-7.2-6.1"/>
      <path class="st7" d="M249.8,82.6c.6,0,.9-.2,1-.3.2,0,.5.2,1.2.2"/>
      <path d="M237.6,82.8c-.7.2-.6.4,0,.6.2,0,.5.1.8.1.2,0,.3,0,.5,0h0c-.4,0-.7,0-1,0-.6-.1-.5-.3.1-.5.5-.1,1.3-.2,1.9,0,.2,0,.5.2.3.2h-.2c0,0,0,0,0,0h.5c-.2-.2-.3-.2-.6-.3-.7-.2-1.7-.2-2.4,0h0ZM240.9,83.1c.2,0,.3,0,0,.1l-1.7.4c-.2,0-.3,0-.5,0h0c.1,0,.3,0,.4.1.1,0,.2,0,.4,0h0c-.2,0-.2,0,0-.1l.8-.2c.1,0,.5,0,.6,0,.2,0,.2.1,0,.2h-.6c0,.2-.3.2-.4.2h0c.1,0,.2,0,.3,0,.1,0,.2,0,.3,0h0c-.2,0-.2,0,0-.1l.7-.2c.3,0,.4-.2,0-.2-.4,0-.8,0-.8,0l1.1-.3h0c-.2,0-.4,0-.6-.1h0ZM241.4,83.9c-.4.1-.5.2,0,.3.2,0,.6,0,.9,0h0c-.2,0-.4,0-.5,0-.4,0-.2-.2.1-.3,0,0,.1,0,.3,0,.1,0,.3,0,.4,0h.4c.4,0,.4-.2,0-.2-.1,0-.3,0-.5,0-.4,0-.8,0-1,0h0ZM241.9,83.9c.2,0,.6,0,.9,0,.2,0,.1.1,0,.2,0,0-.2,0-.3,0,0,0-.3,0-.4,0-.2,0-.2,0-.2,0h0ZM242.9,84.3c-.4.1-.4.2,0,.3.2,0,.6,0,.8,0h0c-.2,0-.4,0-.5,0-.4,0-.2-.2.1-.3.3,0,.7,0,1,0,0,0,.2,0,.2,0h0s0,0,0,0h.4c0,0-.1-.1-.2-.2-.4-.1-1.2-.1-1.7,0h0ZM243.7,84.8s.3,0,.4,0c.1,0,.2,0,.4,0h0c-.2,0-.3,0,0-.1h.4c0-.1,0,0,0,0v.4s.4,0,.4,0h0c-.1,0-.1,0-.1-.1v-.3s.7,0,.7,0c.3,0,.3,0,.6,0h0s-.5-.2-.5-.2h0s0,0,0,0h-1.1s1.5-.4,1.5-.4h0c-.4,0-.3,0-.6-.1h0c.2,0,.3,0,0,.1l-1.7.4c-.2,0-.3,0-.5,0h0Z"/>
      <path d="M246.4,85.4l.9.2c.6.1,1.2.1,1.6,0,.3,0,.2-.2,0-.2.4,0,.8,0,1.1,0,.4,0,.1-.2-.2-.2l-.9-.2h0c.2,0,.3,0,.1.1-.2,0-1.3.2-1.9.3-.2,0-.3,0-.5,0h0ZM247.2,85.5c0,0,1-.2,1-.2h.2c.3.1.4.2,0,.3-.3,0-.8,0-1.2,0-.2,0-.3,0-.1,0h0ZM248.3,85.3l1-.2c0,0,.2,0,.3,0,.3,0,.3.1,0,.2-.3,0-.7,0-1.1,0h-.2Z"/>
      <path class="st12" d="M253.8,79.3c5.6-1.9,9.6-2.9,17-4.1"/>
      <path class="st7" d="M269.5,75.1c.5,0,1,.1,1.4,0-.2,0-.3.2,0,.3"/>
      <path d="M244.8,73.6c.1,0,.2,0,.4,0,.1,0,.2,0,.4,0h0c-.2,0-.3,0,0-.1l1.4-.3-.9.5h0s2.6-.2,2.6-.2l-1.4.3c-.2,0-.2,0-.5,0h0c.1,0,.3,0,.4.1.1,0,.3,0,.4.1h0c-.3,0-.3,0,0-.1l1.4-.3c.2,0,.3,0,.5,0h0c0,0-.2,0-.3,0,0,0-.2,0-.3,0l-2.4.2.9-.6c0,0-.2,0-.3,0,0,0-.2,0-.3,0h0c.2,0,.3,0,0,.2l-1.4.3c-.2,0-.3,0-.5,0h0ZM248.3,74.1c-.4,0-.4.2,0,.3.4.1,1.1,0,1.5,0,.4,0,.4-.2,0-.3-.4,0-1.1,0-1.5,0h0ZM248.7,74.2c.2,0,.6-.1.9,0,.3,0,0,.2-.2.3-.2,0-.6.1-1,0-.4,0,0-.2.2-.3h0ZM250.5,74.3c.1,0,.2,0,0,0l-.7.4h.1s1.6-.1,1.6-.1c.2,0,.3,0,.5,0h0c0,0-.2,0-.3,0,0,0-.2,0-.3,0h0c0,0,.2,0,.1,0-.1,0-1.3.1-1.3.1,0,0,.5-.3.6-.3,0,0,.2,0,.2,0h0s-.2,0-.4-.1c-.1,0-.2,0-.3,0h0Z"/>
      <path d="M251.6,74.9c-.4,0-.4.2,0,.3.2,0,.5,0,.8,0h0c-.2,0-.4,0-.5,0-.4,0-.2-.2,0-.3,0,0,.1,0,.3,0,.1,0,.3,0,.4,0h.3c.4,0,.3-.1,0-.2-.1,0-.3,0-.5,0-.4,0-.7,0-1,0h0ZM252.1,74.9c.2,0,.6,0,.8,0,.1,0,.1.1,0,.1,0,0-.2,0-.3,0,0,0-.3,0-.3,0-.2,0-.2,0-.2,0h0Z"/>
      <path d="M253.9,75.4c-.4,0-.4.2,0,.3.4.1,1.1,0,1.5,0,.4,0,.4-.2,0-.3-.4-.1-1.1,0-1.5,0h0ZM254.3,75.4c.2,0,.6-.1,1,0,.4,0,0,.2-.2.3-.2,0-.6.1-1,0-.4,0,0-.2.2-.3h0ZM254.9,75.9c.1,0,.2,0,.4,0,.1,0,.2,0,.4,0h0c-.2,0-.2,0,0-.1l.7-.2c.2,0,.5,0,.6,0,.2,0,.1.1,0,.1h-.6c0,.2-.2.2-.4.2h0c.1,0,.2,0,.3,0,0,0,.2,0,.3,0h0c-.2,0-.2,0,0-.1h.6c.3-.2.3-.3,0-.4-.2,0-.5,0-.7,0h.2c0,0,0,0,0,0-.4,0-.3,0-.6,0h0c.2,0,.2,0,0,.1l-.7.2c-.2,0-.2,0-.5,0h0ZM257.5,76.2c-.4,0-.4.2,0,.3.2,0,.6,0,.8,0h0c-.2,0-.4,0-.5,0-.4,0-.3-.2,0-.3,0,0,.1,0,.3,0,.1,0,.3,0,.4,0h.3c.4,0,.3-.1,0-.2-.1,0-.3,0-.5,0-.4,0-.7,0-1,0h0ZM257.9,76.2c.2,0,.6,0,.8,0,.2,0,.2.1,0,.1,0,0-.2,0-.3,0,0,0-.3,0-.3,0-.2,0-.2,0-.2,0h0ZM258.5,76.7c-.1,0-.1,0,.2.2.3,0,.8.1,1.1,0,.5-.1-.5-.3-.1-.3.1,0,.3,0,.5,0,.2,0,.2,0,0,.2h0s.3,0,.3,0c0,0-.2,0-.3,0-.3,0-.7,0-1,0-.5.1.5.2,0,.3-.2,0-.4,0-.6,0-.4,0,0-.1,0-.2h0s-.3,0-.3,0Z"/>
      <path class="st12" d="M282.7,74.4c8.7.1,13.7.4,21.3,1.2"/>
      <path class="st7" d="M303.6,75.3c0,.1.2.2.5.3-.4,0-.9,0-1.2.1"/>
      <path d="M262.8,67.3s.2,0,.3,0c.1,0,.2,0,.3,0h0c0,0-.2,0-.1,0,0,0,.6,0,.7,0l.8.2s-.3.2-.3.2c0,0-.3,0-.3,0h0c.1,0,.3,0,.4.1.1,0,.3,0,.4,0h0c-.2,0-.2,0,0-.2l.9-.5h-.1s-2.4.2-2.4.2c-.3,0-.3,0-.5,0h0ZM264.2,67.2h1.1c0-.1-.5.1-.5.1h-.7ZM265.7,67.6c-.4,0-.4.2,0,.3.3,0,.5,0,.7,0h-.2c.3.1.2,0,.6.1h0c-.2,0-.2,0,0-.1l1.8-.4h0c-.3,0-.2,0-.6,0h0c.2,0,.2,0,0,.1h-.5c0,.1-.1,0-.2,0-.4,0-1.1-.1-1.5,0h0ZM266.1,67.7c.3,0,.6,0,1,0,.2,0,.3,0,.2.1h-.6c-.2.2-.5.2-.7.1-.3,0-.1-.2.1-.2h0ZM267.5,68c-.4,0-.4.2,0,.3.3,0,.5,0,.7,0h-.2c.3.1.2,0,.6.1h0c-.2,0-.2,0,0-.1l1.8-.4h0c-.3,0-.2,0-.6,0h0c.2,0,.2,0,0,.1h-.5c0,.1-.1,0-.2,0-.4,0-1.1-.1-1.5,0h0ZM267.9,68.1c.3,0,.6,0,1,0,.2,0,.3,0,.2.1h-.6c-.2.2-.5.2-.7.1-.3,0-.1-.2.1-.2h0Z"/>
      <path d="M269.9,68.7c-.2,0-.2.1,0,.2.2,0,.6,0,.7,0,0,0-.2,0-.1,0,0,0,.4,0,.5,0h0s0,0,0,0c0,0,0,0,0,0h.6c.3-.2.4-.3,0-.3-.3,0-.6,0-.9,0h0c.2,0,.4,0,.6,0,.2,0,.2,0,0,.2h-.5c-.3,0-.6-.1-.8,0h0ZM270.2,68.7c.2,0,.9,0,.9,0h-.4c-.1.1-.4,0-.5,0-.1,0-.1,0,0-.1h0ZM271.7,68.9c-.4,0-.4.2,0,.3.3,0,.5,0,.7,0h-.2c.3.1.2,0,.6.1h0c-.2,0-.2,0,0-.1l1.8-.4h0c-.3,0-.2,0-.6,0h0c.2,0,.2,0,0,.1h-.5c0,.1-.1,0-.2,0-.4,0-1.1-.1-1.5,0h0ZM272.1,69c.3,0,.6,0,1,0,.2,0,.3.1.2.1h-.6c-.2.2-.5.2-.7.1-.3,0-.1-.2.1-.2h0ZM272.1,69.6h0c.2,0,.5,0,.8,0,.2,0,.5,0,.7-.1l1.2-.3h0c-.3,0-.2,0-.6,0h0c.2,0,.3,0,0,.1l-.8.2c-.2,0-.5.1-.8.1-.1,0-.4,0-.4,0h0ZM274.7,69.1c0,0,0,0,0,0,0,0,.2,0,.3,0,0,0,0,0,0,0,0,0-.2,0-.3,0h0ZM275,69.4c.2,0,.2,0,0,0h-.6c-.3.2-.4.3,0,.3.2,0,.5,0,.8,0h-.2c0,0,0,0,0,0,.3,0,.2,0,.5,0h0c-.2,0-.3,0,0-.1l1-.2h0c-.3,0-.2,0-.6,0h0c.2,0,.3,0,0,.1h-.5c-.1.1-.6.2-.8.1-.2,0-.1,0,0-.1l.8-.2h0c-.3,0-.2,0-.6,0h0ZM275.9,70c0,0,0,0,.2.1.3,0,.8,0,1.1,0,.5-.1-.5-.2-.2-.3.1,0,.3,0,.5,0,.2,0,.2,0,0,.1h0s.3,0,.3,0c0,0-.2,0-.3,0-.3,0-.7,0-.9,0-.4.1.5.2.1.3-.2,0-.4,0-.5,0-.4,0,0-.1,0-.2h0s-.3,0-.3,0ZM278.2,70h-.1s.2,0,.2,0l-.8.2c-.2,0-.2,0,0,.1.1,0,.3,0,.5,0h0c0,0-.2,0-.2,0-.2,0,0,0,0,0l.8-.2h.4c0,0,.1,0,.1,0h-.4c0,0,.4-.2.4-.2h0c-.2,0-.3,0-.5,0h-.2c0,0-.2,0-.2,0ZM278.7,70.4c-.4,0-.4.2,0,.3.2,0,.5,0,.8,0h0c-.2,0-.4,0-.5,0-.4,0-.3-.2,0-.3,0,0,.1,0,.3,0,.1,0,.3,0,.4,0h.3c.4,0,.3-.1,0-.2-.1,0-.3,0-.5,0-.4,0-.7,0-1,0h0ZM279.2,70.4c.2,0,.5,0,.8,0,.1,0,.2.1,0,.1,0,0-.2,0-.3,0,0,0-.3,0-.3,0-.2,0-.2,0-.2,0h0ZM280.2,70.8c-.4,0-.4.2,0,.3.3,0,.5,0,.7,0h-.2c.4.1.2,0,.6.1h0c-.2,0-.2,0,0-.1l1.8-.4h0c-.3,0-.2,0-.6,0h0c.2,0,.2,0,0,.1h-.5c0,.1-.1,0-.2,0-.4,0-1.2-.1-1.6,0h0ZM280.6,70.8c.3,0,.6,0,1,0,.2,0,.3.1.2.1h-.6c-.2.2-.5.2-.7.1-.3,0-.1-.2.1-.2h0Z"/>
      <path d="M282.7,71.4c-.2,0-.2.1,0,.2.2,0,.6,0,.7,0,0,0-.2,0-.1,0,0,0,.5,0,.5,0h0s0,0,0,0c0,0,0,0,0,0h.6c.3-.2.4-.3,0-.3-.3,0-.6,0-.9,0h0c.2,0,.4,0,.6,0,.2,0,.2,0,0,.2h-.5c-.3,0-.6-.1-.8,0h0ZM283,71.5c.2,0,.9,0,.9,0h-.4c-.1.1-.4,0-.5,0-.1,0-.1,0,0-.1h0ZM284.6,71.7c-.4,0-.4.2,0,.3.3,0,.5,0,.7,0h-.2c.4.1.3,0,.6.1h0c-.2,0-.2,0,0-.1l1.8-.4h0c-.4,0-.2,0-.6,0h0c.2,0,.2,0,.1.1h-.5c0,.1-.1,0-.2,0-.4,0-1.2-.1-1.6,0h0ZM284.9,71.7c.3,0,.6,0,1,0,.2,0,.3.1.2.1h-.6c-.2.2-.5.2-.7.1-.3,0-.2-.2,0-.2h0ZM286.5,72.1c-.4,0-.4.2,0,.3.3,0,.5,0,.7,0h-.2c.4.1.3,0,.6.2h0c-.2,0-.2,0,0-.1l1.8-.4h0c-.4,0-.2,0-.6,0h0c.2,0,.2,0,.1.1h-.5c0,.1-.1,0-.2,0-.4,0-1.2-.1-1.6,0h0ZM286.8,72.1c.3,0,.6,0,1,0,.2,0,.3.1.2.1h-.6c-.2.2-.5.2-.7.1-.3,0-.2-.2,0-.2h0ZM288.4,72.5c-.4,0-.4.2,0,.3.2,0,.6,0,.8,0h0c-.2,0-.4,0-.5,0-.4,0-.3-.2,0-.3,0,0,.1,0,.3,0,.1,0,.3,0,.4,0h.3c.4,0,.3-.1,0-.2-.1,0-.3,0-.5,0-.4,0-.7,0-1,0h0ZM288.9,72.5c.2,0,.5,0,.8,0,.2,0,.2.1,0,.1,0,0-.2,0-.3,0,0,0-.3,0-.4,0-.2,0-.2,0-.2,0h0ZM289.3,73c.1,0,.3,0,.4,0,.1,0,.3,0,.4,0h0c-.2,0-.2,0,0-.1l.7-.2c.2,0,.4,0,.6,0,.2,0,.2.1,0,.1h-.6c0,.2-.2.2-.4.2h0c.1,0,.2,0,.3,0,.1,0,.2,0,.3,0h0c-.2,0-.2,0,0-.1h.6c.3-.2.3-.3,0-.4-.2,0-.5,0-.7,0h.2c0,0,0,0,0,0-.4,0-.3,0-.6,0h0c.2,0,.3,0,0,.1l-.7.2c-.2,0-.2,0-.5,0h0ZM291.9,73.3c-.4,0-.4.2,0,.3.3,0,.5,0,.7,0h-.2c.4.1.3,0,.6.2h0c-.2,0-.2,0,0-.1l1.8-.4h0c-.4,0-.2,0-.6,0h0c.2,0,.2,0,.1.1h-.5c0,.1-.1,0-.2,0-.4,0-1.2-.1-1.6,0h0ZM292.2,73.3c.3,0,.6,0,1,0,.2,0,.3.1.2.1h-.6c-.2.2-.5.2-.7.1-.3,0-.2-.2,0-.2h0ZM293.4,73.8c0,0,0,0,.2.2.3,0,.8.1,1.1,0,.5-.1-.5-.2-.2-.3.1,0,.3,0,.5,0,.2,0,.2,0,0,.1h0s.3,0,.3,0c0,0-.2,0-.3,0-.3,0-.7,0-1,0-.4.1.5.2.2.3-.2,0-.4,0-.6,0-.4,0,0-.1,0-.2h0s-.3,0-.3,0Z"/>
    </g>
    <g>
      <path class="st13" d="M284.8,58.8c-.1-5.6-3.2-16.6-26.7-10.5-17.1,4.4-31.8,12-43,17-18,8-48,1-48,1"/>
      <path d="M284.6,61.8c.6-1.4,1.6-3.1,2.7-4.1l-2.4.7-2.3-1c.9,1.2,1.7,3,2.1,4.4Z"/>
    </g>
    <g>
      <path class="st13" d="M289,161.2c-8.6-1.9-34.5-6.5-59.9,0-17.1,4.4-32,17.7-41,26-12.5,11.5-22.3,22.7-22.3,22.7"/>
      <path d="M292,161.9c-1.3-.8-2.8-2.1-3.6-3.3l.3,2.5-1.4,2.1c1.3-.7,3.2-1.2,4.7-1.4Z"/>
    </g>
    <path class="st5" d="M380.5,71.4c11.2.4-2.3,14.1,8.4,15.8-10.8,1.7,2.7,15.5-8.4,15.9"/>
    <path class="st5" d="M380.5,106.3c11.2.4-2.3,14.1,8.4,15.8-10.8,1.7,2.7,15.5-8.4,15.9"/>
    <path class="st5" d="M380.5,142c11.2.4-2.3,14.1,8.4,15.8-10.8,1.7,2.7,15.5-8.4,15.9"/>
    <path class="st5" d="M380.5,176.7c11.2.4-2.3,14.1,8.4,15.8-10.8,1.7,2.7,15.5-8.4,15.9"/>
    <text class="st1" transform="translate(392 89.4)"><tspan x="0" y="0">Addition strategies</tspan></text>
    <text class="st1" transform="translate(392 162.1)"><tspan x="0" y="0">Multiplication strategies</tspan></text>
    <text class="st1" transform="translate(392 127.2)"><tspan x="0" y="0">Subtraction strategies</tspan></text>
    <text class="st1" transform="translate(392 195.2)"><tspan x="0" y="0">Division strategies</tspan></text>
    <g>
      <g>
        <rect class="st22" x="49.9" y="96" width="13.6" height="4.7"/>
        <path class="st18" d="M92.8,98.9c0-6-4.9-10.8-10.8-10.8s-10.8,4.9-10.8,10.8,4.9,10.8,10.8,10.8c6,0,10.8-4.9,10.8-10.8h0Z"/>
        <rect class="st22" x="39" y="178.8" width="22.9" height="6.7"/>
        <rect class="st22" x="4.8" y="100.8" width="53.6" height="6.6"/>
        <rect class="st22" x="104.5" y="98.4" width="25.1" height="8.8"/>
        <rect class="st22" x="103.9" y="179.2" width="53.6" height="8.8"/>
        <rect class="st22" x="123.2" y="137.9" width="38.5" height="8.8"/>
        <rect class="st22" x="11.1" y="138.9" width="29" height="8.8"/>
        <circle class="st22" cx="81.7" cy="142.8" r="41.2"/>
        <path class="st14" d="M92.6,98.9c0-5.9-4.8-10.6-10.6-10.6s-10.6,4.8-10.6,10.6,4.8,10.6,10.6,10.6c5.9,0,10.6-4.8,10.6-10.6h0Z"/>
        <path class="st10" d="M92.6,98.9c0-5.9-4.8-10.6-10.6-10.6s-10.6,4.8-10.6,10.6,4.8,10.6,10.6,10.6c5.9,0,10.6-4.8,10.6-10.6h0Z"/>
        <path d="M73.9,98.5c0,.3,0,.5.2.5.5,0,1.1-.8,1.2-1.1l-.4,1.9c0,.3-.1.3-.3.3h0c0,0,.8,0,.9,0h0c-.2-.1-.2-.1-.2-.2s.6-3.3.6-3.3h0s0,0,0,0c0,0-.3-.1-.5-.1-.7,0-1.5.8-1.5,2h0ZM74.3,98.3c0-.9.5-1.6.9-1.6s.2,0,.4.1c0,.2-.1.6-.2.7-.3.5-.8,1.1-1,1.1s-.1-.1-.1-.3h0Z"/>
        <path d="M76.4,99c0,.5.2,1.1.7,1.1s.8-.7.8-1.2-.2-1.1-.7-1.1c-.6,0-.8.6-.8,1.2h0ZM76.8,98.9c0-.3,0-.9.4-.9s.4.7.4,1,0,.9-.4.9c-.4,0-.4-.7-.4-1h0ZM78.3,100.3h.2l1.1-2.8h-.2l-1.1,2.8ZM80,99.8c0,.2,0,.3.2.3.2,0,.6-.4.8-.7,0,0-.1.4-.1.6s0,.2.1.2.3-.1.5-.3h0c0,0-.2,0-.3,0s0,0,0,0c0-.2.2-1,.3-1.3h0s-.2,0-.2,0c-.1,0-.2,0-.3,0-.7,0-1,.8-1,1.4h0ZM80.3,99.7c0-.4.3-1.1.6-1.1s.2,0,.3,0c0,.2,0,.4-.1.5,0,.1-.5.7-.6.7,0,0,0,0,0-.2h0Z"/>
        <path d="M81.8,99.6c0,.3.2.5.4.5s.5-.2.7-.4h0c-.1,0-.4.2-.5.2s-.3-.1-.3-.4c0-.5.3-.9.5-.9s.3,0,.3.2,0,0,0,0h.1c0,0,0-.2,0-.3s-.2-.2-.3-.2c-.6,0-1,.6-1,1.2h0ZM83.5,99.6c0,.3.2.5.4.5s.5-.2.7-.4h0c-.1,0-.4.2-.5.2s-.3-.1-.3-.4c0-.5.3-.9.5-.9s.3,0,.3.2,0,0,0,0h.1c0,0,0-.2,0-.3s-.2-.2-.3-.2c-.6,0-1,.6-1,1.2h0ZM85.1,99.6c0,.4.2.5.4.5s.4,0,.8-.4h0c-.1,0-.4.2-.6.2s-.3-.2-.3-.4,0-.1,0-.2c.3,0,1-.3,1-.7s-.1-.3-.3-.3c-.5,0-1,.6-1,1.2h0ZM85.5,99.2c0-.2.2-.7.5-.7s.2,0,.2.2c0,.3-.4.5-.7.5h0ZM86.7,101c.2,0,.4,0,.6,0,0,0,0,0,0,0,0,0-.1,0-.1-.2,0-.2,0-.5.1-.7,0,0,.2,0,.2,0,.7,0,1-.7,1-1.3s-.1-.4-.4-.4-.5.2-.6.4c0-.1,0-.4,0-.4h0c-.1,0-.4.2-.6.3h0c0,0,.2,0,.3,0,0,.5-.3,2.2-.5,2.2h0ZM87.3,99.8s.2-.8.2-.8c0-.2.3-.5.5-.5s.2,0,.2.3-.2,1-.6,1c-.1,0-.2,0-.3,0h0Z"/>
        <path d="M88.9,98.6h.3s-.2,1.1-.2,1.3,0,.2.1.2c.2,0,.5-.3.6-.4,0,0,0,0,0,0,0,0-.3.2-.4.2s0,0,0,0c0,0,.2-1,.2-1.1h.4c0-.1-.4-.1-.4-.1,0-.1.1-.5.1-.6h0c0,0-.2.1-.3.1v.4h-.4Z"/>
        <line class="st15" x1="64.2" y1="98.8" x2="70.3" y2="98.8"/>
        <path class="st8" d="M69.3,97.5c.2.7.6,1.1,1.1,1.2-.4.1-.9.5-1.1,1.2"/>
        <path d="M52.1,99.9c.2.4.3.4.7.4s1-.3,1-.8c0-.8-1.3-.5-1.3-1.1s.2-.4.4-.4c.3,0,.5.2.6.5h.1s0-.6,0-.6c-.2,0-.4-.1-.6-.1-.4,0-.9.2-.9.7,0,.8,1.2.5,1.2,1.1s-.2.4-.5.4c-.6,0-.5-.4-.6-.6h0c0,0,0,.3,0,.3ZM54.2,98.1v.2h.4v1.5c0,.4.2.6.5.6s.4-.1.6-.3h0c0,0-.2,0-.3,0-.2,0-.3-.2-.3-.4v-1.3h.6v-.2s-.6,0-.6,0v-.8h0c-.3,0-.4,0-.4.4v.4h-.4ZM56.1,99.7c0,.4.3.6.6.6s.6-.3.7-.4c0,.1,0,.4.1.4s.6-.1.7-.1h0c0-.1,0-.1-.1-.1-.1,0-.2,0-.2-.3v-1.1c0-.5-.2-.8-.7-.8-.5,0-.8.2-.9.6h.2c.2-.1.3-.4.6-.4s.5.2.5.7l-.7.2c-.4.1-.7.2-.7.7h0ZM56.5,99.6c0-.4.9-.6.9-.6v.8c-.1.1-.4.3-.6.3-.2,0-.4-.2-.4-.4h0ZM58.6,100.3c.2,0,.4,0,.6,0s.4,0,.6,0h0c-.4-.2-.5,0-.5-.5v-1c0-.2.2-.5.4-.5s.3.1.3.2h0s.2-.4.2-.4c0-.1-.2-.2-.3-.2-.3,0-.6.3-.7.5v-.5h0c-.4,0-.3,0-.8.2h0c.3.2.4,0,.4.5v1.2c0,.4,0,.3-.4.4h0ZM60.6,98.1v.2h.4v1.5c0,.4.2.6.5.6s.4-.1.6-.3h0c0,0-.2,0-.3,0-.2,0-.3-.2-.3-.4v-1.3h.6v-.2s-.6,0-.6,0v-.8h0c-.3,0-.4,0-.4.4v.4h-.4Z"/>
        <path class="st17" d="M127.4,120.8c0-4.1-3.3-7.3-7.3-7.3s-7.3,3.3-7.3,7.3,3.3,7.3,7.3,7.3,7.3-3.3,7.3-7.3h0Z"/>
        <path d="M118,120.9c0,.3,0,.5.2.5.5,0,1.1-.8,1.2-1.1l-.4,1.9c0,.3-.1.3-.3.3h0c0,0,.8,0,.9,0h0c-.2-.1-.2-.1-.2-.2s.6-3.3.6-3.3h0s0,0,0,0c0,0-.3-.1-.5-.1-.7,0-1.5.8-1.5,2h0ZM118.3,120.7c0-.9.5-1.6.9-1.6s.2,0,.4.1c0,.2-.1.6-.2.7-.3.5-.8,1.1-1,1.1s-.1-.1-.1-.3h0Z"/>
        <path d="M120.6,120.4h0c0,.1.2,0,.3,0s.2,0,.2.1v1.4c0,.2-.2.2-.4.2h0c.2,0,.4,0,.5,0s.3,0,.5,0h0c-.2-.1-.3,0-.3-.3v-1.3c0-.2,0-.4,0-.6h0c-.3,0-.5.2-.8.2h0Z"/>
        <path class="st17" d="M127.4,164.8c0-4.1-3.3-7.3-7.3-7.3s-7.3,3.3-7.3,7.3,3.3,7.3,7.3,7.3,7.3-3.3,7.3-7.3h0Z"/>
        <path d="M118,164.9c0,.3,0,.5.2.5.5,0,1.1-.8,1.2-1.1l-.4,1.9c0,.3-.1.3-.3.3h0c0,0,.8,0,.9,0h0c-.2-.1-.2-.1-.2-.2s.6-3.3.6-3.3h0s0,0,0,0c0,0-.3-.1-.5-.1-.7,0-1.5.8-1.5,2h0ZM118.3,164.7c0-.9.5-1.6.9-1.6s.2,0,.4.1c0,.2-.1.6-.2.7-.3.5-.8,1.1-1,1.1s-.1-.1-.1-.3h0Z"/>
        <path d="M120.5,166.4h.1c.2,0,.4,0,.5,0h.1s0,0,0,0c.2,0,.4-.1.6-.2v-.2c-.2,0-.4,0-.6,0h-.4l.5-.6c.2-.2.4-.4.4-.7s-.3-.6-.7-.6-.4,0-.5.2v.4c-.1,0,0,0,0,0,.1-.2.2-.3.4-.3s.4.1.4.4-.3.5-.5.8l-.6.6h0c0,0,0,0,0,0Z"/>
        <path class="st17" d="M89.2,186.8c0-4.1-3.3-7.3-7.3-7.3s-7.3,3.3-7.3,7.3,3.3,7.3,7.3,7.3c4.1,0,7.3-3.3,7.3-7.3h0Z"/>
        <path d="M79.8,186.9c0,.3,0,.5.2.5.5,0,1.1-.8,1.2-1.1l-.4,1.9c0,.3-.1.3-.3.3h0c0,0,.8,0,.9,0h0c-.2-.1-.2-.1-.2-.2s.6-3.3.6-3.3h0s0,0,0,0c0,0-.3-.1-.5-.1-.7,0-1.5.8-1.5,2h0ZM80.2,186.7c0-.9.5-1.6.9-1.6s.2,0,.4.1c0,.2-.1.6-.2.7-.3.5-.8,1.1-1,1.1,0,0-.1-.1-.1-.3h0Z"/>
        <path d="M82.4,188c0,.3,0,.4.4.4.6,0,.9-.3.9-.8s-.3-.5-.5-.5c.2,0,.4-.2.4-.5s-.3-.4-.5-.4-.3,0-.5.2v.4c-.1,0,0,0,0,0,0-.2.2-.3.4-.3s.3,0,.3.3-.3.4-.6.4h0c0,.1.1.1.2.1.2,0,.4.2.4.5s-.2.5-.4.5-.4,0-.5-.3h0Z"/>
        <path class="st17" d="M51.1,164.8c0-4.1-3.3-7.3-7.3-7.3s-7.3,3.3-7.3,7.3,3.3,7.3,7.3,7.3,7.3-3.3,7.3-7.3h0Z"/>
        <path d="M41.7,164.9c0,.3,0,.5.2.5.5,0,1.1-.8,1.2-1.1l-.4,1.9c0,.3-.1.3-.3.3h0c0,0,.8,0,.9,0h0c-.2-.1-.2-.1-.2-.2s.6-3.3.6-3.3h0s0,0,0,0c0,0-.3-.1-.5-.1-.7,0-1.5.8-1.5,2h0ZM42.1,164.7c0-.9.5-1.6.9-1.6s.2,0,.4.1c0,.2-.1.6-.2.7-.3.5-.8,1.1-1,1.1s-.1-.1-.1-.3h0Z"/>
        <path d="M44.1,165.7h0c0,0,.9,0,.9,0v.2c0,.2,0,.3-.3.3h-.1c0,0,1,0,1,0h0c-.2,0-.3,0-.3-.3v-.2c.1,0,.2,0,.3,0v-.3c-.1,0-.2,0-.3,0v-1.1c0-.1,0-.2,0-.3h-.4c0,0-1,1.5-1,1.5ZM44.4,165.6l.7-1h0v1s-.7,0-.7,0Z"/>
        <path class="st17" d="M51.1,120.8c0-4.1-3.3-7.3-7.3-7.3s-7.3,3.3-7.3,7.3,3.3,7.3,7.3,7.3,7.3-3.3,7.3-7.3h0Z"/>
        <path d="M41.7,120.9c0,.3,0,.5.2.5.5,0,1.1-.8,1.2-1.1l-.4,1.9c0,.3-.1.3-.3.3h0c0,0,.8,0,.9,0h0c-.2-.1-.2-.1-.2-.2s.6-3.3.6-3.3h0s0,0,0,0c0,0-.3-.1-.5-.1-.7,0-1.5.8-1.5,2h0ZM42.1,120.7c0-.9.5-1.6.9-1.6s.2,0,.4.1c0,.2-.1.6-.2.7-.3.5-.8,1.1-1,1.1s-.1-.1-.1-.3h0Z"/>
        <path d="M44.2,122c.1.2,0,.4.4.4.6,0,.9-.2.9-.9s-.3-.6-.7-.6-.2,0-.4,0v-.5c.2,0,.3,0,.5,0s.2,0,.4,0h0c0,0,0-.3,0-.3-.2,0-.4,0-.6,0s-.3,0-.4,0c0,.4,0,.7,0,1.1h0c.1,0,.2,0,.4,0,.3,0,.5.2.5.5s-.1.5-.4.5-.4,0-.5-.3h0Z"/>
        <path class="st15" d="M92.2,102.5c9.5,3.7,14.6,6.8,21.6,13"/>
        <path class="st8" d="M113.9,113.9c-.3.7-.2,1.2,0,1.6-.4-.2-1-.2-1.6.2"/>
        <path d="M105.9,105.6s.4,0,.7,0,.5,0,.7,0h0c-.5-.2-.5-.2-.5-.7v-2.5c0-.1.2-.1.4-.1.4,0,.8.2.8.7s-.2.5-.5.7c-.2,0-.6,0-.6.2s.4.3.5.5c.1.2.5.8.7,1,.2.2.3.3.6.3h.4c0,0,0-.2,0-.2-.1,0-.1,0-.3-.2l-1-1.4c.4-.1.8-.4.8-.9s-.8-.8-1.1-.8-1.5,0-1.5,0h0c.5.2.5.2.5.7v2.1c0,.5,0,.5-.5.6h0q0,.1,0,.1ZM109.4,104.5c0,.7.4,1.2,1.1,1.2.3,0,.7-.2.9-.5h0c-.2,0-.4.2-.6.2-.6,0-.9-.5-.9-1,0,0,.2,0,.5,0s.5,0,.7,0h.4c0-.8-.4-1.1-.8-1.1s-.4,0-.6.2c-.4.3-.6.6-.6,1.1h0ZM109.8,104.1c0-.4.2-.7.6-.7s.5.3.5.5,0,.2-.2.2c0,0-.5,0-.6,0-.3,0-.4,0-.4,0h0ZM111.8,105c0,.4.3.6.6.6s.6-.3.7-.4c0,.1,0,.4.1.4s.6-.1.6-.1h0c0-.1,0-.1-.1-.1-.1,0-.2,0-.2-.3v-1.1c0-.5-.2-.8-.7-.8-.5,0-.8.2-.9.6h.2c.2-.1.3-.4.6-.4s.5.2.5.7l-.7.2c-.4.1-.7.2-.7.7h0ZM112.3,104.9c0-.4.9-.6.9-.6v.8c-.1.1-.4.3-.6.3-.2,0-.4-.2-.4-.4h0ZM114.4,104.5c0,.6.4,1.1,1.1,1.1s.6-.2.8-.4v.4c.5,0,.3,0,.8-.1h0c-.3-.1-.4-.2-.4-.5v-3.1h0c-.5,0-.3,0-.8.1h0c.3.1.4.2.4.4v.9s-.3-.1-.5-.1c-.7,0-1.4.6-1.4,1.3h0ZM114.8,104.3c0-.5.2-.9.7-.9s.6.1.6.3v1.1c0,.3-.3.5-.6.5-.5,0-.7-.6-.7-1h0Z"/>
        <path d="M118.6,105.6h1.1c-.3-.1-.4-.2-.4-.2,0-.2.6-1.1.6-1.1h1.2s.1.9.1,1c0,.2,0,.2-.4.2h0c0,.1,1.2.1,1.2.1h0c-.3-.2-.4-.2-.4-.5-.2-1.2-.5-3.1-.5-3.1h-.2s-1.7,2.9-1.7,2.9c-.2.3-.3.5-.6.5h0ZM120.1,104l.8-1.4.2,1.4h-1ZM122.5,106.2h0c.4,0,.8-.6.8-1s-.1-.3-.3-.3-.2,0-.2.2,0,0,0,0c0,0,0,.1,0,.2,0,.4-.3.8-.4.9h0Z"/>
        <path d="M124.6,105.6h1.3c.9,0,1.4-.5,1.4-1.1s-.4-.7-.8-.8c.4-.1.9-.4.9-.9s-.5-.7-.9-.7h-1.4c.3.1.4.1.4.4s-.3,1.8-.4,2.6c0,.3-.1.4-.4.4h0ZM125.4,105.2c0-.1.2-1.4.2-1.4h.4c.5,0,.8.2.8.7s-.3.9-1,.9c-.3,0-.4,0-.4-.2h0ZM125.7,103.6l.2-1.3c0,0,.2,0,.3,0,.4,0,.7.2.7.6s-.3.8-.9.8h-.3Z"/>
        <path class="st15" d="M121.3,128.1c2,11.3,2,18.1.1,28.7"/>
        <path class="st8" d="M122.8,156c-.8,0-1.2.4-1.4.8,0-.5-.3-.9-1-1.3"/>
        <path d="M124.8,141.1c.5,0,.5,0,.5.5v2.2c0,.3,0,.5-.4.5h0c0,.1,1.4.1,1.4.1,1.2,0,2.1-.7,2.1-1.9s-.9-1.6-1.9-1.6h-1.7c0,.1,0,.1,0,.1ZM125.7,144v-2.7c0-.2.2-.2.5-.2,1,0,1.6.3,1.6,1.5s-.6,1.6-1.6,1.6c-.2,0-.5,0-.5-.3h0ZM128.8,143.4c0,.7.4,1.2,1.1,1.2.3,0,.7-.2.9-.5h0c-.2,0-.4.2-.6.2-.6,0-.9-.5-.9-1,0,0,.2,0,.5,0s.5,0,.7,0h.4c0-.8-.4-1.1-.8-1.1s-.4,0-.6.2c-.4.3-.6.6-.6,1.1h0ZM129.3,143c0-.4.2-.7.6-.7s.5.3.5.5,0,.2-.2.2c0,0-.5,0-.6,0-.3,0-.4,0-.4,0h0ZM131.2,142.3v.2h.4v1.5c0,.4.1.6.5.6s.4-.1.6-.3h0c0,0-.2,0-.3,0-.2,0-.3-.2-.3-.4v-1.3h.6v-.2s-.6,0-.6,0v-.8h0c-.3,0-.4,0-.4.4v.4h-.4ZM133.1,143.4c0,.7.4,1.2,1.1,1.2.3,0,.7-.2.9-.5h0c-.2,0-.4.2-.6.2-.6,0-.9-.5-.9-1,0,0,.2,0,.5,0s.5,0,.7,0h.4c0-.8-.4-1.1-.8-1.1s-.4,0-.6.2c-.4.3-.6.6-.6,1.1h0ZM133.5,143c0-.4.2-.7.6-.7s.5.3.5.5,0,.2-.2.2c0,0-.5,0-.6,0-.3,0-.4,0-.4,0h0ZM135.5,144.5c.2,0,.4,0,.6,0s.4,0,.6,0h0c-.4-.2-.5,0-.5-.5v-1c0-.2.2-.5.4-.5s.3.1.3.2h0s.2-.4.2-.4c0-.1-.2-.2-.3-.2-.3,0-.6.3-.7.5v-.5h0c-.4,0-.3,0-.8.2h0c.3.2.4,0,.4.5v1.2c0,.4,0,.3-.4.4h0ZM137.6,144.5s.4,0,.6,0,.4,0,.6,0h0c-.3-.2-.4-.1-.4-.5v-1.2c0-.2.4-.4.6-.4.3,0,.5.3.5.6v1c0,.4,0,.3-.4.4h0c0,.1.4.1.6.1s.4,0,.6,0h0c-.3-.2-.4-.1-.4-.5v-1.2c.1-.2.4-.4.6-.4.4,0,.5.3.5.6v.9c0,.1,0,.4-.2.4h0c.1.1.3,0,.4,0s.4,0,.5,0h0c-.3-.2-.4-.1-.4-.5v-1.1c0-.4-.3-.8-.7-.8s-.6.2-.8.4c-.1-.3-.3-.4-.7-.4s-.6.2-.8.4v-.4h0c-.5.1-.3,0-.8.2h0c.3.2.4,0,.4.5v1.2c0,.4,0,.3-.4.4h0ZM142.1,144.5c.2,0,.4,0,.6,0s.4,0,.6,0h0c-.3-.2-.4-.1-.4-.5v-1.8h0s-.8.2-.8.2h0c.3.2.4,0,.4.5v1.2c0,.4,0,.3-.4.4h0q0,.1,0,.1ZM142.4,141.5c0,.2.1.3.3.3s.3-.1.3-.3-.1-.3-.3-.3c-.2,0-.3.1-.3.3h0ZM143.6,144.5c.2,0,.4,0,.6,0s.4,0,.6,0h0c-.3-.2-.4-.1-.4-.5v-1.2c0-.2.4-.4.6-.4.4,0,.5.3.5.5v1.1c0,.1,0,.4-.2.4h0c.2,0,.3,0,.5,0s.3,0,.5,0h0c-.3-.2-.4-.2-.4-.5v-1.1c0-.5-.3-.8-.8-.8s-.6.2-.8.4v-.4h0c-.5.1-.4,0-.8.2h0c.3.2.4.1.4.5v1.2c0,.4,0,.4-.4.4h0ZM146.7,143.4c0,.7.4,1.2,1.1,1.2.3,0,.7-.2.9-.5h0c-.2,0-.4.2-.6.2-.6,0-.9-.5-.9-1,0,0,.2,0,.5,0s.5,0,.7,0h.4c0-.8-.4-1.1-.8-1.1s-.4,0-.6.2c-.4.3-.6.6-.6,1.1h0ZM147.2,143c0-.4.2-.7.6-.7s.5.3.5.5,0,.2-.2.2c0,0-.5,0-.6,0-.3,0-.4,0-.4,0h0Z"/>
        <path d="M150.5,143.4c0,.7.5,1.2,1.1,1.2s1.2-.6,1.2-1.3-.5-1.2-1.2-1.2-1.2.6-1.2,1.3h0ZM150.9,143.2c0-.4.2-.9.7-.9s.8.7.8,1.2-.1,1-.6,1c-.6,0-.8-.7-.8-1.2h0ZM153.1,144.5c.2,0,.4,0,.6,0s.4,0,.6,0h0c-.3-.2-.4-.1-.4-.5v-1.2c0-.2.4-.4.6-.4.4,0,.5.3.5.5v1.1c0,.1,0,.4-.2.4h0c.2,0,.3,0,.5,0s.3,0,.5,0h0c-.3-.2-.4-.2-.4-.5v-1.1c0-.5-.3-.8-.8-.8s-.6.2-.8.4v-.4h0c-.5.1-.4,0-.8.2h0c.3.2.4.1.4.5v1.2c0,.4,0,.4-.4.4h0ZM156.2,143.4c0,.7.4,1.2,1.1,1.2.3,0,.7-.2.9-.5h0c-.2,0-.4.2-.6.2-.6,0-.9-.5-.9-1,0,0,.2,0,.5,0s.5,0,.7,0h.4c0-.8-.4-1.1-.8-1.1s-.4,0-.6.2c-.4.3-.6.6-.6,1.1h0ZM156.7,143c0-.4.2-.7.6-.7s.5.3.5.5,0,.2-.2.2c0,0-.5,0-.6,0-.3,0-.4,0-.4,0h0ZM158.7,144.1c.2.4.3.4.7.4s1-.3,1-.8c0-.8-1.3-.5-1.3-1.1s.2-.4.4-.4c.3,0,.5.2.6.5h.1s0-.6,0-.6c-.2,0-.4-.1-.6-.1-.4,0-.9.2-.9.7,0,.8,1.2.5,1.2,1.1s-.2.4-.5.4c-.6,0-.5-.4-.6-.6h0c0,0,0,.3,0,.3Z"/>
        <path class="st15" d="M114.3,169.6c-8.8,7.4-14.6,10.8-24.8,14.4"/>
        <path class="st8" d="M90.9,184.8c-.4-.6-1-.8-1.4-.8.4-.3.7-.8.6-1.5"/>
        <path d="M104.4,182c0,1.1.9,1.8,1.9,1.8s.8,0,1.1-.2c0-.2.1-.4.2-.5h0c-.3.3-.6.5-1.1.5-1,0-1.5-.7-1.5-1.7s.5-1.5,1.4-1.5.9.1.9.4v.3c0,0,.2,0,.2,0v-.8c-.3-.1-.7-.2-1.1-.2-1.1,0-2,.7-2,1.8h0ZM108,182.6c0,.7.5,1.2,1.1,1.2s1.2-.6,1.2-1.3-.5-1.2-1.2-1.2c-.7,0-1.2.6-1.2,1.3h0ZM108.5,182.5c0-.4.2-.9.7-.9s.8.7.8,1.2-.1,1-.6,1c-.6,0-.8-.7-.8-1.2h0ZM110.7,183.7s.4,0,.6,0,.4,0,.6,0h0c-.3-.2-.4-.1-.4-.5v-1.2c0-.2.4-.4.6-.4.3,0,.5.3.5.6v1c0,.4,0,.3-.4.4h0c0,.1.4.1.6.1s.4,0,.6,0h0c-.3-.2-.4-.1-.4-.5v-1.2c.1-.2.4-.4.6-.4.4,0,.5.3.5.6v.9c0,.1,0,.4-.2.4h0c.1.1.3,0,.4,0s.4,0,.5,0h0c-.3-.2-.4-.1-.4-.5v-1.1c0-.4-.3-.8-.7-.8s-.6.2-.8.4c-.1-.3-.3-.4-.7-.4s-.6.2-.8.4v-.4h0c-.5.1-.3,0-.8.2h0c.3.2.4,0,.4.5v1.2c0,.4,0,.3-.4.4h0ZM115.2,184.9h0c.2.1.4.1.6.1s.4,0,.6,0h0c-.4-.2-.4-.1-.4-.5v-.9c.1,0,.3.1.4.1,1.1,0,1.4-.5,1.4-1.4s-.4-1-1-1-.6.2-.8.4v-.4h0c-.5.1-.3,0-.8.2h0c.4.1.4.1.4.5v2.5c0,.4,0,.3-.4.4h0ZM116.1,183.3v-1.3c0-.2.4-.4.6-.4.5,0,.8.4.8.9s-.3,1-.8,1c-.2,0-.4,0-.6-.3h0ZM118.3,181.7c.3,0,.4,0,.4.3v1c0,.5.1.8.7.8s.7-.2.9-.5v.4h0c.5,0,.3,0,.8,0h0c-.3-.2-.4,0-.4-.4v-1.8h0c-.5,0-.3,0-.8.1h0c.3.2.4,0,.4.5v.9c0,.3-.3.7-.6.7s-.5-.3-.5-.6v-1.5h0c-.5,0-.3,0-.8.1h0c0,.1,0,.1,0,.1ZM121.4,181.5v.2h.4v1.5c0,.4.1.6.5.6s.4-.1.6-.3h0c0,0-.2,0-.3,0-.2,0-.3-.2-.3-.4v-1.3h.6v-.2s-.6,0-.6,0v-.8h0c-.3,0-.4,0-.4.4v.4h-.4ZM123.2,182.7c0,.7.4,1.2,1.1,1.2.3,0,.7-.2.9-.5h0c-.2,0-.4.2-.6.2-.6,0-.9-.5-.9-1,0,0,.2,0,.5,0s.5,0,.7,0h.4c0-.8-.4-1.1-.8-1.1s-.4,0-.6.2c-.4.3-.6.6-.6,1.1h0ZM123.7,182.3c0-.4.2-.7.6-.7s.5.3.5.5,0,.2-.2.2c0,0-.5,0-.6,0-.3,0-.4,0-.4,0h0Z"/>
        <path d="M126.9,183.7c.2,0,.4,0,.6,0s.4,0,.6,0h0c-.3-.2-.4-.1-.4-.5v-1.2c0-.2.4-.4.6-.4.4,0,.5.3.5.5v1.1c0,.1,0,.4-.2.4h0c.2,0,.3,0,.5,0s.3,0,.5,0h0c-.3-.2-.4-.2-.4-.5v-1.1c0-.5-.3-.8-.8-.8s-.6.2-.8.4v-.4h0c-.5.1-.4,0-.8.2h0c.3.2.4.1.4.5v1.2c0,.4,0,.4-.4.4h0ZM130,182.7c0,.7.4,1.2,1.1,1.2.3,0,.7-.2.9-.5h0c-.2,0-.4.2-.6.2-.6,0-.9-.5-.9-1,0,0,.2,0,.5,0s.5,0,.7,0h.4c0-.8-.4-1.1-.8-1.1s-.4,0-.6.2c-.4.3-.6.6-.6,1.1h0ZM130.5,182.3c0-.4.2-.7.6-.7s.5.3.5.5,0,.2-.2.2c0,0-.5,0-.6,0-.3,0-.4,0-.4,0h0ZM132.5,182.7c0,.7.4,1.2,1.1,1.2.3,0,.7-.2.9-.5h0c-.2,0-.4.2-.6.2-.6,0-.9-.5-.9-1,0,0,.2,0,.5,0s.5,0,.7,0h.4c0-.8-.4-1.1-.8-1.1s-.4,0-.6.2c-.4.3-.6.6-.6,1.1h0ZM132.9,182.3c0-.4.2-.7.6-.7s.5.3.5.5,0,.2-.2.2c0,0-.5,0-.6,0-.3,0-.4,0-.4,0h0ZM134.9,182.7c0,.6.4,1.1,1.1,1.1s.6-.2.8-.4v.4c.5,0,.3,0,.8-.1h0c-.3-.1-.4-.2-.4-.5v-3.1h0c-.5,0-.3,0-.8.1h0c.3.1.4.2.4.4v.9s-.3-.1-.5-.1c-.7,0-1.4.6-1.4,1.3h0ZM135.4,182.5c0-.5.2-.9.7-.9s.6.1.6.3v1.1c0,.3-.3.5-.6.5-.5,0-.7-.6-.7-1h0ZM138,182.7c0,.7.4,1.2,1.1,1.2.3,0,.7-.2.9-.5h0c-.2,0-.4.2-.6.2-.6,0-.9-.5-.9-1,0,0,.2,0,.5,0s.5,0,.7,0h.4c0-.8-.4-1.1-.8-1.1s-.4,0-.6.2c-.4.3-.6.6-.6,1.1h0ZM138.4,182.3c0-.4.2-.7.6-.7s.5.3.5.5,0,.2-.2.2c0,0-.5,0-.6,0-.3,0-.4,0-.4,0h0ZM140.4,182.7c0,.6.4,1.1,1.1,1.1s.6-.2.8-.4v.4c.5,0,.3,0,.8-.1h0c-.3-.1-.4-.2-.4-.5v-3.1h0c-.5,0-.3,0-.8.1h0c.3.1.4.2.4.4v.9s-.3-.1-.5-.1c-.7,0-1.4.6-1.4,1.3h0ZM140.9,182.5c0-.5.2-.9.7-.9s.6.1.6.3v1.1c0,.3-.3.5-.6.5-.5,0-.7-.6-.7-1h0Z"/>
        <path d="M144.8,182.6c0,.7.5,1.2,1.1,1.2s1.2-.6,1.2-1.3-.5-1.2-1.2-1.2c-.7,0-1.2.6-1.2,1.3h0ZM145.2,182.5c0-.4.2-.9.7-.9s.8.7.8,1.2-.1,1-.6,1c-.6,0-.8-.7-.8-1.2h0ZM147.4,183.7c.2,0,.4,0,.6,0s.4,0,.6,0h0c-.3-.2-.4-.1-.4-.5v-1.2c0-.2.4-.4.6-.4.4,0,.5.3.5.5v1.1c0,.1,0,.4-.2.4h0c.2,0,.3,0,.5,0s.3,0,.5,0h0c-.3-.2-.4-.2-.4-.5v-1.1c0-.5-.3-.8-.8-.8s-.6.2-.8.4v-.4h0c-.5.1-.4,0-.8.2h0c.3.2.4.1.4.5v1.2c0,.4,0,.4-.4.4h0ZM150.5,182.7c0,.7.4,1.2,1.1,1.2.3,0,.7-.2.9-.5h0c-.2,0-.4.2-.6.2-.6,0-.9-.5-.9-1,0,0,.2,0,.5,0s.5,0,.7,0h.4c0-.8-.4-1.1-.8-1.1s-.4,0-.6.2c-.4.3-.6.6-.6,1.1h0ZM151,182.3c0-.4.2-.7.6-.7s.5.3.5.5,0,.2-.2.2c0,0-.5,0-.6,0-.3,0-.4,0-.4,0h0ZM153,183.4c.2.4.3.4.7.4s1-.3,1-.8c0-.8-1.3-.5-1.3-1.1s.2-.4.4-.4c.3,0,.5.2.6.5h.1s0-.6,0-.6c-.2,0-.4-.1-.6-.1-.4,0-.9.2-.9.7,0,.8,1.2.5,1.2,1.1s-.2.4-.5.4c-.6,0-.5-.4-.6-.6h0c0,0,0,.3,0,.3Z"/>
        <path class="st15" d="M74.9,184.3c-10.8-3.9-16.6-7.3-24.9-14.2"/>
        <path class="st8" d="M50,171.6c.3-.7.2-1.2,0-1.6.4.2,1,.2,1.6-.3"/>
        <path d="M41,182c0,1.1.9,1.8,1.9,1.8s.8,0,1.1-.2c0-.2.2-.4.2-.5h0c-.3.3-.6.5-1.1.5-1,0-1.5-.7-1.5-1.7s.5-1.5,1.4-1.5.9.1.9.4v.3c0,0,.2,0,.2,0v-.8c-.3-.1-.7-.2-1.1-.2-1.1,0-2,.7-2,1.8h0ZM44.6,180.3c.3,0,.4,0,.4.3v2.6c0,.4,0,.4-.4.4h0c.2.1.4.1.6.1s.4,0,.6,0h0c-.3-.2-.4-.1-.4-.5v-1.2c0-.2.4-.4.6-.4.4,0,.5.3.5.6v.9c0,.1,0,.4-.2.4h0c.2,0,.3,0,.5,0s.3,0,.5,0h0c-.3-.2-.4-.2-.4-.5v-1c0-.5-.3-.8-.8-.8s-.8.4-.8.4v-1.7h0c-.3,0-.5,0-.8.1h0ZM47.7,182.7c0,.7.4,1.2,1.1,1.2.3,0,.7-.2.9-.5h0c-.2,0-.4.2-.6.2-.6,0-.9-.5-.9-1,0,0,.2,0,.5,0s.5,0,.7,0h.4c0-.8-.4-1.1-.8-1.1s-.4,0-.6.2c-.4.3-.6.6-.6,1.1h0ZM48.1,182.3c0-.4.2-.7.6-.7s.5.3.5.5,0,.2-.2.2c0,0-.5,0-.6,0-.3,0-.4,0-.4,0h0ZM50.1,182.7c0,.7.5,1.1,1.1,1.1s.7-.2.8-.4h0c-.2,0-.3.1-.6.1-.6,0-.9-.5-.9-1.1s.2-.8.7-.8.4,0,.5.2v.2c0,0,.2,0,.2,0v-.4c0-.2-.3-.2-.4-.2-.7,0-1.3.6-1.3,1.3h0ZM52.5,183.7s.4,0,.7,0,.4,0,.6,0h0c-.3-.2-.4-.1-.4-.5v-.7h0s1.1,1.2,1.1,1.2h.6v-.2c-.2,0-.3-.2-.4-.3l-.9-1,.6-.5c.2-.2.3-.2.6-.3h0c0-.1-.9-.1-.9-.1v.2s.1,0,.1,0l-.9.9v-2.4h0c-.5,0-.3,0-.8.1h0c.3.1.4,0,.4.4v2.6c0,.4,0,.3-.4.4h0c0,.1,0,.1,0,.1Z"/>
        <path d="M56.6,183.7h1.3c.9,0,1.4-.5,1.4-1.1s-.4-.7-.8-.8c.4-.1.9-.4.9-.9s-.5-.7-.9-.7h-1.4c.3.2.4.2.4.4s-.3,1.8-.4,2.6c0,.3-.1.4-.4.4h0ZM57.5,183.3c0-.1.2-1.4.2-1.4h.4c.5,0,.8.2.8.7s-.3.9-1,.9c-.3,0-.4,0-.4-.2h0ZM57.8,181.8l.2-1.3c0,0,.2,0,.3,0,.4,0,.7.2.7.6s-.3.8-.9.8h-.3Z"/>
        <path class="st15" d="M42.5,157.5c-2-11.3-2-18.1-.1-28.7"/>
        <path class="st8" d="M41,129.5c.8,0,1.2-.4,1.4-.8,0,.5.3.9,1,1.3"/>
        <path d="M15.1,144.5c.2,0,.4,0,.6,0s.4,0,.6,0h0c-.4-.1-.5-.2-.5-.5v-2.2c0,0,1.3,2.7,1.3,2.7h.1l1.4-2.9v2.3c0,.4,0,.4-.4.4h0c.2.1.4.1.7.1s.5,0,.7,0h0c-.5-.2-.5-.2-.5-.6v-2.3c0-.4,0-.4.4-.4h0c-.2-.1-.3-.1-.5-.1s-.3,0-.5,0l-1.3,2.8-1.3-2.8c-.2,0-.3,0-.5,0s-.3,0-.5,0h0c.4.2.5.2.5.7v2.2c0,.3-.2.4-.5.4h0c0,.1,0,.1,0,.1ZM19.8,143.4c0,.7.5,1.2,1.1,1.2s1.2-.6,1.2-1.3-.5-1.2-1.2-1.2-1.2.6-1.2,1.3h0ZM20.3,143.2c0-.4.2-.9.7-.9s.8.7.8,1.2-.1,1-.6,1c-.6,0-.8-.7-.8-1.2h0ZM22.4,142.3c.3,0,.3,0,.4.3l.8,2h.2l.8-1.9c.1-.3.1-.3.4-.3h0c-.2-.1-.3-.1-.5-.1s-.3,0-.5,0h0c0,.1.3.1.3.3,0,.2-.6,1.6-.6,1.6,0,0-.6-1.4-.6-1.6,0-.1.2,0,.3-.1h0c0-.1-.4-.1-.6-.1s-.3,0-.5,0c0,0,0,.1,0,.1Z"/>
        <path d="M25.3,143.4c0,.7.4,1.2,1.1,1.2.3,0,.7-.2.9-.5h0c-.2,0-.4.2-.6.2-.6,0-.9-.5-.9-1,0,0,.2,0,.5,0s.5,0,.7,0h.4c0-.8-.4-1.1-.8-1.1s-.4,0-.6.2c-.4.3-.6.6-.6,1.1h0ZM25.7,143c0-.4.2-.7.6-.7s.5.3.5.5,0,.2-.2.2c0,0-.5,0-.6,0-.3,0-.4,0-.4,0h0Z"/>
        <path d="M29,143.4c0,.7.5,1.2,1.1,1.2s1.2-.6,1.2-1.3-.5-1.2-1.2-1.2-1.2.6-1.2,1.3h0ZM29.5,143.2c0-.4.2-.9.7-.9s.8.7.8,1.2-.1,1-.6,1c-.6,0-.8-.7-.8-1.2h0ZM31.7,144.5c.2,0,.4,0,.6,0s.4,0,.6,0h0c-.3-.2-.4-.1-.4-.5v-1.2c0-.2.4-.4.6-.4.4,0,.5.3.5.5v1.1c0,.1,0,.4-.2.4h0c.2,0,.3,0,.5,0s.3,0,.5,0h0c-.3-.2-.4-.2-.4-.5v-1.1c0-.5-.3-.8-.8-.8s-.6.2-.8.4v-.4h0c-.5.1-.4,0-.8.2h0c.3.2.4.1.4.5v1.2c0,.4,0,.4-.4.4,0,0,0,.1,0,.1ZM34.8,143.4c0,.7.4,1.2,1.1,1.2.3,0,.7-.2.9-.5h0c-.2,0-.4.2-.6.2-.6,0-.9-.5-.9-1,0,0,.2,0,.5,0s.5,0,.7,0h.4c0-.8-.4-1.1-.8-1.1s-.4,0-.6.2c-.4.3-.6.6-.6,1.1h0ZM35.2,143c0-.4.2-.7.6-.7s.5.3.5.5,0,.2-.2.2c0,0-.5,0-.6,0-.3,0-.4,0-.4,0h0ZM37.2,144.1c.2.4.3.4.7.4s1-.3,1-.8c0-.8-1.3-.5-1.3-1.1s.2-.4.4-.4c.3,0,.5.2.6.5h.1s0-.6,0-.6c-.2,0-.4-.1-.6-.1-.4,0-.9.2-.9.7,0,.8,1.2.5,1.2,1.1s-.2.4-.5.4c-.6,0-.5-.4-.6-.6h0c0,0,0,.3,0,.3Z"/>
        <path class="st15" d="M49.5,116c7.6-6.7,12.7-9.8,21.5-13.2"/>
        <path class="st8" d="M69.6,102c.5.6,1,.8,1.4.8-.4.3-.6.8-.5,1.5"/>
        <path d="M6.7,104.9s.4,0,.6,0,.4,0,.6,0h0c-.1-.1-.4-.1-.4-.3s.2-.7.3-.9h1.3c0,.2.3.8.3,1s-.3.1-.4.1h0c.2.1.4.1.7.1s.4,0,.7,0h0c-.4-.2-.4-.3-.6-.7l-1.1-2.9h-.1s-1.2,3-1.2,3c-.1.3-.2.4-.5.4h0ZM7.8,103.5l.6-1.4.6,1.4h-1.1ZM10.6,103.9c0,.6.4,1.1,1.1,1.1s.6-.2.8-.4v.4c.5,0,.3,0,.8-.1h0c-.3-.1-.4-.2-.4-.5v-3.1h0c-.5,0-.3,0-.8.1h0c.3.1.4.2.4.4v.9s-.3-.1-.5-.1c-.7,0-1.4.6-1.4,1.3h0ZM11.1,103.7c0-.5.2-.9.7-.9s.6.1.6.3v1.1c0,.3-.3.5-.6.5-.5,0-.7-.6-.7-1h0ZM13.7,103.9c0,.6.4,1.1,1.1,1.1s.6-.2.8-.4v.4c.5,0,.3,0,.8-.1h0c-.3-.1-.4-.2-.4-.5v-3.1h0c-.5,0-.3,0-.8.1h0c.3.1.4.2.4.4v.9s-.3-.1-.5-.1c-.7,0-1.4.6-1.4,1.3h0ZM14.1,103.7c0-.5.2-.9.7-.9s.6.1.6.3v1.1c0,.3-.3.5-.6.5-.5,0-.7-.6-.7-1h0Z"/>
        <path d="M18.1,104.4c0,.4.3.6.6.6s.6-.3.7-.4c0,.1,0,.4.1.4s.6-.1.7-.1h0c0-.1,0-.1-.1-.1-.1,0-.2,0-.2-.3v-1.1c0-.5-.2-.8-.7-.8-.5,0-.8.2-.9.6h.2c.2-.1.3-.4.6-.4s.5.2.5.7l-.7.2c-.4.1-.7.2-.7.7h0ZM18.5,104.3c0-.4.9-.6.9-.6v.8c-.1.1-.4.3-.6.3s-.4-.2-.4-.4h0ZM20.6,103.9c0,.6.4,1.1,1.1,1.1s.6-.2.8-.4v.4c.5,0,.3,0,.8-.1h0c-.3-.1-.4-.2-.4-.5v-3.1h0c-.5,0-.3,0-.8.1h0c.3.1.4.2.4.4v.9s-.3-.1-.5-.1c-.7,0-1.4.6-1.4,1.3h0ZM21.1,103.7c0-.5.2-.9.7-.9s.6.1.6.3v1.1c0,.3-.3.5-.6.5-.5,0-.7-.6-.7-1h0ZM23.3,106.1v.2c.4,0,.7-.3.9-.6.1-.2.1-.8.1-1.1v-2.1h0c-.4,0-.3,0-.8.2h0c.4.1.4,0,.4.5v1.4c0,.3,0,.9-.2,1.2,0,.1-.4.2-.4.2h0ZM23.8,102c0,.1.1.3.3.3s.3-.1.3-.3-.1-.3-.3-.3-.3.1-.3.3h0ZM25,102.9c.3,0,.4,0,.4.3v1c0,.5.1.8.7.8s.7-.2.9-.5v.4h0c.5,0,.3,0,.8,0h0c-.3-.2-.4,0-.4-.4v-1.8h0c-.5,0-.3,0-.8.1h0c.3.1.4,0,.4.5v.9c0,.3-.3.6-.6.6s-.5-.3-.5-.6v-1.5h0c-.5,0-.3,0-.8.1h0c0,.1,0,.1,0,.1ZM28.1,104.6c.2.4.3.4.7.4s1-.3,1-.8c0-.8-1.3-.5-1.3-1.1s.2-.4.4-.4c.3,0,.5.2.6.5h.1s0-.6,0-.6c-.2,0-.4-.1-.6-.1-.4,0-.9.2-.9.7,0,.8,1.2.5,1.2,1.1s-.2.4-.5.4c-.6,0-.5-.4-.6-.6h0c0,0,0,.3,0,.3ZM30.2,102.7v.2h.4v1.5c0,.4.2.6.5.6s.4-.1.6-.3h0c0,0-.2,0-.3,0-.2,0-.3-.2-.3-.4v-1.3h.6v-.2s-.6,0-.6,0v-.8h0c-.3,0-.4,0-.4.4v.4h-.4ZM32.1,103.9c0,.7.4,1.2,1.1,1.2.3,0,.7-.2.9-.5h0c-.2,0-.4.2-.6.2-.6,0-.9-.5-.9-1,0,0,.2,0,.5,0s.5,0,.7,0h.4c0-.8-.4-1.1-.8-1.1s-.4,0-.6.2c-.4.3-.6.6-.6,1.1h0ZM32.5,103.5c0-.4.2-.7.6-.7s.5.3.5.5,0,.2-.2.2c0,0-.5,0-.6,0-.3,0-.4,0-.4,0h0ZM34.5,103.9c0,.6.4,1.1,1.1,1.1s.6-.2.8-.4v.4c.5,0,.3,0,.8-.1h0c-.3-.1-.4-.2-.4-.5v-3.1h0c-.5,0-.3,0-.8.1h0c.3.1.4.2.4.4v.9s-.3-.1-.5-.1c-.7,0-1.4.6-1.4,1.3h0ZM35,103.7c0-.5.2-.9.7-.9s.6.1.6.3v1.1c0,.3-.3.5-.6.5-.5,0-.7-.6-.7-1h0Z"/>
        <path d="M38.9,104.4c0,.4.3.6.6.6s.6-.3.7-.4c0,.1,0,.4.1.4s.6-.1.7-.1h0c0-.1,0-.1-.1-.1-.1,0-.2,0-.2-.3v-1.1c0-.5-.2-.8-.7-.8-.5,0-.8.2-.9.6h.2c.2-.1.3-.4.6-.4s.5.2.5.7l-.7.2c-.4.1-.7.2-.7.7h0ZM39.3,104.3c0-.4.9-.6.9-.6v.8c-.1.1-.4.3-.6.3s-.4-.2-.4-.4h0ZM41.5,103.9c0,.6.4,1.1,1.1,1.1s.6-.2.8-.4v.4c.5,0,.3,0,.8-.1h0c-.3-.1-.4-.2-.4-.5v-3.1h0c-.5,0-.3,0-.8.1h0c.3.1.4.2.4.4v.9s-.3-.1-.5-.1c-.7,0-1.4.6-1.4,1.3h0ZM41.9,103.7c0-.5.2-.9.7-.9s.6.1.6.3v1.1c0,.3-.3.5-.6.5-.5,0-.7-.6-.7-1h0ZM44.5,103.9c0,.6.4,1.1,1.1,1.1s.6-.2.8-.4v.4c.5,0,.3,0,.8-.1h0c-.3-.1-.4-.2-.4-.5v-3.1h0c-.5,0-.3,0-.8.1h0c.3.1.4.2.4.4v.9s-.3-.1-.5-.1c-.7,0-1.4.6-1.4,1.3h0ZM45,103.7c0-.5.2-.9.7-.9s.6.1.6.3v1.1c0,.3-.3.5-.6.5-.5,0-.7-.6-.7-1h0ZM47.6,103.9c0,.7.4,1.2,1.1,1.2.3,0,.7-.2.9-.5h0c-.2,0-.4.2-.6.2-.6,0-.9-.5-.9-1,0,0,.2,0,.5,0s.5,0,.7,0h.4c0-.8-.4-1.1-.8-1.1s-.4,0-.6.2c-.4.3-.6.6-.6,1.1h0ZM48,103.5c0-.4.2-.7.6-.7s.5.3.5.5,0,.2-.2.2c0,0-.5,0-.6,0-.3,0-.4,0-.4,0h0ZM49.9,104.9c.2,0,.4,0,.6,0s.4,0,.6,0h0c-.3-.2-.4-.1-.4-.5v-1.2c0-.2.4-.4.6-.4.4,0,.5.3.5.5v1.1c0,.1,0,.4-.2.4h0c.2,0,.3,0,.5,0s.3,0,.5,0h0c-.3-.2-.4-.2-.4-.5v-1.1c0-.5-.3-.8-.8-.8s-.6.2-.8.4v-.4h0c-.5.1-.4,0-.8.2h0c.3.1.4.1.4.5v1.2c0,.4,0,.4-.4.4,0,0,0,.1,0,.1ZM53.1,103.9c0,.6.4,1.1,1.1,1.1s.6-.2.8-.4v.4c.5,0,.3,0,.8-.1h0c-.3-.1-.4-.2-.4-.5v-3.1h0c-.5,0-.3,0-.8.1h0c.3.1.4.2.4.4v.9s-.3-.1-.5-.1c-.7,0-1.4.6-1.4,1.3h0ZM53.5,103.7c0-.5.2-.9.7-.9s.6.1.6.3v1.1c0,.3-.3.5-.6.5-.5,0-.7-.6-.7-1h0ZM56.1,104.6c.2.4.3.4.7.4s1-.3,1-.8c0-.8-1.3-.5-1.3-1.1s.2-.4.4-.4c.3,0,.5.2.6.5h.1s0-.6,0-.6c-.2,0-.4-.1-.6-.1-.4,0-.9.2-.9.7,0,.8,1.2.5,1.2,1.1s-.2.4-.5.4c-.6,0-.5-.4-.6-.6h0c0,0,0,.3,0,.3Z"/>
      </g>
      <text class="st1" transform="translate(16.7 67.6)"><tspan x="0" y="0">Rearranging to Make Bases</tspan></text>
      <rect class="st13" x=".2" y="51.9" width="166" height="149"/>
    </g>
    <g>
      <g class="st2">
        <text class="st1" transform="translate(6.7 233.2)"><tspan x="0" y="0">Later automata embed</tspan></text>
        <text class="st1" transform="translate(6.7 247.6)"><tspan x="0" y="0">earlier automata as structures,</tspan></text>
        <text class="st1" transform="translate(6.7 262)"><tspan x="0" y="0">reflecting learning as a change</tspan></text>
        <text class="st1" transform="translate(6.7 276.4)"><tspan x="0" y="0">in being. For example,</tspan></text>
        <text class="st1" transform="translate(6.7 290.8)"><tspan x="0" y="0">Push-Down Stack automata</tspan></text>
        <text class="st1" transform="translate(6.7 305.2)"><tspan x="0" y="0">recollect Finite-State Automata</tspan></text>
        <text class="st1" transform="translate(6.7 319.6)"><tspan x="0" y="0">for Counting </tspan></text>
        <text class="st0" transform="translate(73.2 319.6)"><tspan x="0" y="0">as </tspan></text>
        <text class="st1" transform="translate(84.9 319.6)"><tspan x="0" y="0">their</tspan></text>
        <text class="st0" transform="translate(107.7 319.6)"><tspan x="0" y="0"> </tspan></text>
        <text class="st3" transform="translate(110.4 319.6)"><tspan x="0" y="0">stacks.</tspan></text>
      </g>
      <rect class="st13" x=".2" y="210.6" width="166" height="149"/>
    </g>
    <g>
      <g class="st2">
        <text class="st1" transform="translate(189.9 293.6)"><tspan x="0" y="0">Hermeneutic meaning is developed through </tspan></text>
        <text class="st3" transform="translate(405 293.6)"><tspan x="0" y="0">excluding </tspan></text>
        <text class="st1" transform="translate(189.9 308)"><tspan x="0" y="0">incompatibilities (errors) that define the outside of the idealized </tspan></text>
        <text class="st1" transform="translate(189.9 322.4)"><tspan x="0" y="0">spherical structure and through connecting strategies through reflection</tspan></text>
        <text class="st1" transform="translate(189.9 336.8)"><tspan x="0" y="0">(syntactically represented as Gdelian diagonalization.</tspan></text>
      </g>
      <rect class="st13" x="184.9" y="275.9" width="359" height="80"/>
    </g>
    <circle class="st4" cx="293" cy="161.9" r=".9"/>
  </g>
</svg>