<?xml version="1.0" encoding="UTF-8"?><svg id="Layer_2" xmlns="http://www.w3.org/2000/svg" viewBox="0 0 427.63 270.63"><defs><style>.cls-1{fill:#15a14d;stroke-width:.68px;}.cls-1,.cls-2,.cls-3,.cls-4,.cls-5,.cls-6,.cls-7,.cls-8,.cls-9,.cls-10,.cls-11,.cls-12,.cls-13,.cls-14,.cls-15{stroke:#231f20;stroke-miterlimit:10;}.cls-2{stroke-dasharray:1.98 1.98;}.cls-2,.cls-3,.cls-7,.cls-8,.cls-11,.cls-12,.cls-13,.cls-14,.cls-15{fill:none;}.cls-2,.cls-7,.cls-13{stroke-width:.57px;}.cls-3{stroke-dasharray:2.4 2.4;}.cls-3,.cls-6,.cls-12,.cls-14{stroke-width:.59px;}.cls-4{fill:#b2aaca;stroke-width:.62px;}.cls-16,.cls-17,.cls-18{font-family:ACaslonPro-Regular, 'Adobe Caslon Pro';}.cls-16,.cls-19{letter-spacing:0em;}.cls-20,.cls-21,.cls-22,.cls-23,.cls-24,.cls-25,.cls-26,.cls-27{font-family:ACaslonPro-Bold, 'Adobe Caslon Pro';font-weight:700;}.cls-28,.cls-18,.cls-24,.cls-29{fill:#231f20;}.cls-5{fill:#e5208c;stroke-width:.62px;}.cls-6,.cls-30{fill:#de1f33;}.cls-7{stroke-dasharray:2.21 2.21;}.cls-8{stroke-dasharray:2.3 2.3;}.cls-8,.cls-11,.cls-15{stroke-width:.58px;}.cls-9{fill:#f0aea9;stroke-width:.58px;}.cls-21{letter-spacing:-.03em;}.cls-22,.cls-31{letter-spacing:-.03em;}.cls-23{letter-spacing:-.03em;}.cls-18,.cls-24,.cls-29{font-size:12px;}.cls-10{fill:#66a5d9;stroke-width:.65px;}.cls-32{letter-spacing:0em;}.cls-33{fill:#fff;}.cls-34{letter-spacing:0em;}.cls-14{stroke-dasharray:2.76 2.76;}.cls-15{stroke-dasharray:2.76 2.76;}.cls-25,.cls-35{letter-spacing:0em;}.cls-26{letter-spacing:0em;}.cls-27,.cls-36{letter-spacing:.02em;}.cls-37{letter-spacing:0em;}.cls-38{letter-spacing:0em;}.cls-39{letter-spacing:-.01em;}.cls-40{letter-spacing:-.01em;}.cls-41{letter-spacing:.01em;}.cls-42{letter-spacing:.01em;}.cls-43{letter-spacing:0em;}</style></defs><g id="Layer_1-2"><rect class="cls-4" x=".34" y="19.13" width="426" height="15.25"/><rect class="cls-10" x=".34" y="66.27" width="212" height="16.15"/><rect class="cls-9" x="212.34" y="66.29" width="214" height="16.12"/><text class="cls-29" transform="translate(67.85 59.21)"><tspan class="cls-20" x="0" y="0">Kn</tspan><tspan class="cls-25" x="15.66" y="0">o</tspan><tspan class="cls-20" x="22.02" y="0">wn </tspan><tspan class="cls-22" x="39.38" y="0">P</tspan><tspan class="cls-20" x="46.68" y="0">a</tspan><tspan class="cls-27" x="52.15" y="0">r</tspan><tspan class="cls-20" x="56.84" y="0">t:</tspan><tspan class="cls-17" x="64.29" y="0" xml:space="preserve"> 29</tspan></text><text class="cls-24" transform="translate(284.99 59.21)"><tspan x="0" y="0">Unkn</tspan><tspan class="cls-35" x="28.61" y="0">o</tspan><tspan x="34.97" y="0">wn </tspan><tspan class="cls-31" x="52.33" y="0">P</tspan><tspan x="59.63" y="0">a</tspan><tspan class="cls-36" x="65.1" y="0">r</tspan><tspan x="69.79" y="0">t</tspan></text><rect class="cls-1" x=".34" y="154.46" width="152.96" height="16.15"/><text class="cls-29" transform="translate(7.93 145.85)"><tspan class="cls-20" x="0" y="0">Rounded Kn</tspan><tspan class="cls-26" x="64.85" y="0">o</tspan><tspan class="cls-20" x="71.21" y="0">wn </tspan><tspan class="cls-23" x="88.57" y="0">P</tspan><tspan class="cls-20" x="95.87" y="0">a</tspan><tspan class="cls-27" x="101.34" y="0">r</tspan><tspan class="cls-20" x="106.03" y="0">t</tspan><tspan class="cls-21" x="110.12" y="0">:</tspan><tspan class="cls-20" x="113.12" y="0"> </tspan><tspan class="cls-17" x="115.52" y="0">20</tspan></text><rect class="cls-6" x="212.71" y="154.7" width="190.8" height="16.12"/><text class="cls-29" transform="translate(235.99 145.85)"><tspan class="cls-20" x="0" y="0">Rounded unkn</tspan><tspan class="cls-25" x="75.6" y="0">o</tspan><tspan class="cls-20" x="81.96" y="0">wn pa</tspan><tspan class="cls-27" x="111.26" y="0">r</tspan><tspan class="cls-20" x="115.95" y="0">t:</tspan><tspan class="cls-17" x="123.41" y="0" xml:space="preserve"> 60 </tspan></text><rect class="cls-30" x="154.35" y="154.63" width="57.47" height="16.13"/><polyline class="cls-12" points="211.82 169.59 211.82 170.77 210.65 170.77"/><line class="cls-3" x1="208.25" y1="170.77" x2="156.73" y2="170.77"/><polyline class="cls-12" points="155.53 170.77 154.35 170.77 154.35 169.59"/><line class="cls-14" x1="154.35" y1="166.83" x2="154.35" y2="157.19"/><polyline class="cls-12" points="154.35 155.81 154.35 154.63 155.53 154.63"/><line class="cls-3" x1="157.92" y1="154.63" x2="209.45" y2="154.63"/><polyline class="cls-12" points="210.65 154.63 211.82 154.63 211.82 155.81"/><line class="cls-14" x1="211.82" y1="158.56" x2="211.82" y2="168.21"/><text class="cls-29" transform="translate(154.96 10.13)"><tspan class="cls-20" x="0" y="0">Kn</tspan><tspan class="cls-25" x="15.66" y="0">o</tspan><tspan class="cls-20" x="22.02" y="0">wn whole:</tspan><tspan class="cls-17" x="72.84" y="0" xml:space="preserve"> 84</tspan></text><text class="cls-18" transform="translate(155.19 199.27)"><tspan x="0" y="0">Rounding the kn</tspan><tspan class="cls-37" x="82.29" y="0">o</tspan><tspan class="cls-32" x="88.21" y="0">wn pa</tspan><tspan class="cls-42" x="117.17" y="0">r</tspan><tspan x="121.41" y="0">t d</tspan><tspan class="cls-38" x="134.54" y="0">o</tspan><tspan x="140.46" y="0">wn </tspan><tspan class="cls-40" x="158.12" y="0">b</tspan><tspan x="164.03" y="0">y 9 </tspan><tspan x="0" y="14.4">makes the unkn</tspan><tspan class="cls-37" x="76.43" y="14.4">o</tspan><tspan x="82.34" y="14.4">wn pa</tspan><tspan class="cls-41" x="111.3" y="14.4">r</tspan><tspan class="cls-19" x="115.55" y="14.4">t too big </tspan><tspan class="cls-40" x="159.37" y="14.4">b</tspan><tspan x="165.27" y="14.4">y 9</tspan></text><rect class="cls-5" x=".34" y="116.9" width="402.39" height="15.25"/><text class="cls-29" transform="translate(155.19 110.9)"><tspan class="cls-20" x="0" y="0">Rounded Kn</tspan><tspan class="cls-26" x="64.85" y="0">o</tspan><tspan class="cls-20" x="71.21" y="0">wn whole:</tspan><tspan class="cls-16" x="122.03" y="0" xml:space="preserve"> 80</tspan></text><rect class="cls-33" x="404.17" y="154.64" width="22.17" height="16.13"/><polyline class="cls-13" points="426.34 169.63 426.34 170.78 425.19 170.78"/><line class="cls-7" x1="422.99" y1="170.78" x2="406.42" y2="170.78"/><polyline class="cls-13" points="405.32 170.78 404.17 170.78 404.17 169.63"/><line class="cls-2" x1="404.17" y1="167.65" x2="404.17" y2="156.78"/><polyline class="cls-13" points="404.17 155.79 404.17 154.64 405.32 154.64"/><line class="cls-7" x1="407.53" y1="154.64" x2="424.09" y2="154.64"/><polyline class="cls-13" points="425.19 154.64 426.34 154.64 426.34 155.79"/><line class="cls-2" x1="426.34" y1="157.77" x2="426.34" y2="168.64"/><text class="cls-18" transform="translate(218.18 242.27)"><tspan x="0" y="0">Rounding the kn</tspan><tspan class="cls-38" x="82.29" y="0">o</tspan><tspan x="88.21" y="0">wn whole d</tspan><tspan class="cls-38" x="144.03" y="0">o</tspan><tspan x="149.95" y="0">wn </tspan><tspan class="cls-39" x="167.61" y="0">b</tspan><tspan class="cls-34" x="173.52" y="0">y 4</tspan><tspan x="0" y="14.4">makes the unkn</tspan><tspan class="cls-38" x="76.43" y="14.4">o</tspan><tspan x="82.34" y="14.4">wn pa</tspan><tspan class="cls-42" x="111.3" y="14.4">r</tspan><tspan x="115.55" y="14.4">t too sma</tspan><tspan class="cls-43" x="160.32" y="14.4">l</tspan><tspan x="163.45" y="14.4">l </tspan><tspan class="cls-39" x="169.57" y="14.4">b</tspan><tspan x="175.47" y="14.4">y 4</tspan></text><line class="cls-12" x1="182.69" y1="188.97" x2="182.69" y2="182.7"/><path class="cls-28" d="M182.69,179.16c.62,1.67,1.67,3.74,2.79,5.02l-2.79-1.01-2.79,1.01c1.12-1.28,2.17-3.35,2.79-5.02Z"/><line class="cls-12" x1="415.15" y1="226.34" x2="415.15" y2="183.2"/><path class="cls-28" d="M415.15,179.66c.62,1.67,1.67,3.74,2.79,5.02l-2.79-1.01-2.79,1.01c1.12-1.28,2.17-3.35,2.79-5.02Z"/><rect class="cls-33" x="403.32" y="116.8" width="23.02" height="16.13"/><polyline class="cls-11" points="426.34 131.76 426.34 132.93 425.17 132.93"/><line class="cls-8" x1="422.87" y1="132.93" x2="405.64" y2="132.93"/><polyline class="cls-11" points="404.49 132.93 403.32 132.93 403.32 131.76"/><line class="cls-15" x1="403.32" y1="129.01" x2="403.32" y2="119.35"/><polyline class="cls-11" points="403.32 117.97 403.32 116.8 404.49 116.8"/><line class="cls-8" x1="406.79" y1="116.8" x2="424.02" y2="116.8"/><polyline class="cls-11" points="425.17 116.8 426.34 116.8 426.34 117.97"/><line class="cls-15" x1="426.34" y1="120.73" x2="426.34" y2="130.38"/><rect class="cls-12" x="208.34" y="227.34" width="219" height="43"/><rect class="cls-12" x="145.34" y="188.34" width="212" height="32"/></g></svg>