<?xml version="1.0" encoding="UTF-8"?><svg id="Layer_2" xmlns="http://www.w3.org/2000/svg" viewBox="0 0 790 536.43"><defs><style>.cls-1,.cls-2,.cls-3,.cls-4,.cls-5,.cls-6{stroke:#231f20;stroke-miterlimit:10;}.cls-1,.cls-2,.cls-3,.cls-4,.cls-5,.cls-6,.cls-7,.cls-8,.cls-9,.cls-10{fill:none;}.cls-11,.cls-12{fill:#231f20;}.cls-12,.cls-13,.cls-14{font-family:ACaslonPro-Regular, 'Adobe Caslon Pro';font-size:12px;}.cls-13{fill:#ed1c24;}.cls-15{letter-spacing:0em;}.cls-2{stroke-width:.68px;}.cls-3{stroke-width:1.22px;}.cls-4{stroke-width:.34px;}.cls-5{stroke-width:.42px;}.cls-6{stroke-width:.5px;}.cls-16{letter-spacing:0em;}.cls-14{fill:#2e3192;}.cls-7{stroke-width:.83px;}.cls-7,.cls-9{stroke:#262262;}.cls-17{letter-spacing:-.09em;}.cls-18{letter-spacing:-.07em;}.cls-19{letter-spacing:-.06em;}.cls-20{letter-spacing:-.02em;}.cls-21{letter-spacing:-.01em;}.cls-22{letter-spacing:-.03em;}.cls-23{letter-spacing:0em;}.cls-24{letter-spacing:0em;}.cls-25{letter-spacing:0em;}.cls-26{letter-spacing:-.01em;}.cls-27{letter-spacing:-.01em;}.cls-28{letter-spacing:.01em;}.cls-29{letter-spacing:.01em;}.cls-30{letter-spacing:.03em;}.cls-31{letter-spacing:0em;}.cls-8{stroke-width:1.26px;}.cls-8,.cls-10{stroke:#ed1c24;}.cls-32{letter-spacing:.01em;}.cls-10{stroke-width:1.43px;}.cls-33{letter-spacing:0em;}</style></defs><g id="Layer_1-2"><line class="cls-3" x1="7.34" y1="463.65" x2="782.66" y2="463.65"/><path class="cls-11" d="M0,463.65c3.46,1.28,7.74,3.47,10.4,5.79l-2.09-5.79,2.09-5.79c-2.66,2.32-6.95,4.51-10.4,5.79Z"/><path class="cls-11" d="M790,463.65c-3.46,1.28-7.74,3.47-10.4,5.79l2.09-5.79-2.09-5.79c2.66,2.32,6.95,4.51,10.4,5.79Z"/><line class="cls-2" x1="15.37" y1="458.86" x2="15.37" y2="467.67"/><text class="cls-12" transform="translate(13.18 477.28)"><tspan x="0" y="0">0</tspan></text><text class="cls-12" transform="translate(543.12 474.86)"><tspan x="0" y="0">64</tspan></text><path class="cls-4" d="M702.04,463.66c0-21.57-17.46-39.03-39.03-39.03h.36c-20.89,0-37.92,16.37-38.98,36.99"/><path class="cls-11" d="M624.34,463.66c-.31-.98-.86-2.2-1.46-2.97l1.58.66,1.64-.5c-.68.71-1.35,1.87-1.76,2.81Z"/><text class="cls-12" transform="translate(655.54 421.26)"><tspan x="0" y="0">-10</tspan></text><path class="cls-4" d="M778.73,463.66c0-21.57-17.17-39.03-38.38-39.03h.35c-20.54,0-37.28,16.37-38.33,36.99"/><path class="cls-11" d="M702.32,463.66c-.31-.98-.86-2.2-1.47-2.97l1.58.66,1.64-.5c-.68.71-1.35,1.87-1.75,2.81Z"/><text class="cls-12" transform="translate(732.15 421.26)"><tspan x="0" y="0">-10</tspan></text><path class="cls-4" d="M285,463.66c0-9.29-2.06-16.81-4.6-16.81h.04c-2.35,0-4.29,6.44-4.57,14.76"/><path class="cls-11" d="M275.83,463.66c-.33-.97-.91-2.18-1.53-2.94l1.59.63,1.63-.54c-.67.72-1.31,1.9-1.69,2.85Z"/><text class="cls-12" transform="translate(265.48 443.17)"><tspan x="0" y="0">-1</tspan></text><text class="cls-12" transform="translate(275.45 443.17)"><tspan x="0" y="0">-1</tspan></text><text class="cls-12" transform="translate(284.85 443.17)"><tspan x="0" y="0">-1</tspan></text><text class="cls-12" transform="translate(294.62 443.17)"><tspan x="0" y="0">-1</tspan></text><text class="cls-12" transform="translate(304.78 443.17)"><tspan x="0" y="0">-1</tspan></text><text class="cls-12" transform="translate(619.73 474.86)"><tspan x="0" y="0">74</tspan></text><text class="cls-12" transform="translate(698.75 474.86)"><tspan x="0" y="0">84</tspan></text><path class="cls-10" d="M265.25,396.75c6.09-80.88,229.28,16.87,256.8-61.11,27.47,78.36,251.9-19.69,258.95,61.11"/><text class="cls-12" transform="translate(774 474.86)"><tspan x="0" y="0">94</tspan></text><path class="cls-4" d="M275.79,463.66c0-9.29-2.23-16.81-4.99-16.81h.05c-2.55,0-4.65,6.44-4.95,14.76"/><path class="cls-11" d="M265.86,463.66c-.33-.97-.9-2.18-1.52-2.94l1.59.63,1.63-.53c-.67.72-1.31,1.9-1.7,2.85Z"/><path class="cls-4" d="M304.89,463.66c0-9.29-2.23-16.81-4.99-16.81h.05c-2.55,0-4.65,6.44-4.95,14.76"/><path class="cls-11" d="M294.96,463.66c-.33-.97-.9-2.18-1.52-2.94l1.59.63,1.63-.53c-.67.72-1.31,1.9-1.7,2.85Z"/><path class="cls-4" d="M294.92,463.66c0-9.29-2.23-16.81-4.99-16.81h.05c-2.55,0-4.65,6.44-4.95,14.76"/><path class="cls-11" d="M284.99,463.66c-.33-.97-.9-2.18-1.52-2.94l1.59.63,1.63-.53c-.67.72-1.31,1.9-1.7,2.85Z"/><path class="cls-4" d="M314.82,463.66c0-9.29-2.23-16.81-4.99-16.81h.05c-2.55,0-4.65,6.44-4.95,14.76"/><path class="cls-11" d="M304.9,463.66c-.33-.97-.9-2.18-1.52-2.94l1.59.63,1.63-.53c-.67.72-1.31,1.9-1.7,2.85Z"/><text class="cls-13" transform="translate(490.22 325.48)"><tspan x="0" y="0">Kn</tspan><tspan class="cls-25" x="14.93" y="0">o</tspan><tspan x="20.84" y="0">wn pa</tspan><tspan class="cls-28" x="49.8" y="0">r</tspan><tspan class="cls-16" x="54.05" y="0">t</tspan></text><path class="cls-7" d="M16.59,396.75c2.92-80.88,109.99,16.87,123.19-61.11,13.18,78.36,120.83-19.69,124.22,61.11"/><text class="cls-14" transform="translate(108.53 325.48)"><tspan x="0" y="0">Unkn</tspan><tspan class="cls-24" x="27.67" y="0">o</tspan><tspan x="33.59" y="0">wn pa</tspan><tspan class="cls-29" x="62.54" y="0">r</tspan><tspan x="66.79" y="0">t</tspan></text><path class="cls-4" d="M547.71,463.66c0-21.57-17.46-39.03-39.03-39.03h.36c-20.89,0-37.92,16.37-38.98,36.99"/><path class="cls-11" d="M470,463.66c-.31-.98-.86-2.2-1.46-2.97l1.58.66,1.64-.5c-.68.71-1.35,1.87-1.76,2.81Z"/><text class="cls-12" transform="translate(501.21 421.26)"><tspan x="0" y="0">-10</tspan></text><path class="cls-4" d="M624.39,463.66c0-21.57-17.17-39.03-38.38-39.03h.35c-20.54,0-37.28,16.37-38.33,36.99"/><path class="cls-11" d="M547.99,463.66c-.31-.98-.86-2.2-1.47-2.97l1.58.66,1.64-.5c-.68.71-1.35,1.87-1.75,2.81Z"/><text class="cls-12" transform="translate(577.82 421.26)"><tspan x="0" y="0">-10</tspan></text><text class="cls-12" transform="translate(465.3 474.86)"><tspan x="0" y="0">54</tspan></text><path class="cls-4" d="M392.8,463.66c0-21.57-17.46-39.03-39.03-39.03h.36c-20.89,0-37.92,16.37-38.98,36.99"/><path class="cls-11" d="M315.09,463.66c-.31-.98-.86-2.2-1.46-2.97l1.58.66,1.64-.5c-.68.71-1.35,1.87-1.76,2.81Z"/><text class="cls-12" transform="translate(346.3 421.94)"><tspan x="0" y="0">-10</tspan></text><path class="cls-4" d="M469.49,463.66c0-21.57-17.17-39.03-38.38-39.03h.35c-20.54,0-37.28,16.37-38.33,36.99"/><path class="cls-11" d="M393.08,463.66c-.31-.98-.86-2.2-1.47-2.97l1.58.66,1.64-.5c-.68.71-1.35,1.87-1.75,2.81Z"/><text class="cls-12" transform="translate(422.91 421.94)"><tspan x="0" y="0">-10</tspan></text><text class="cls-12" transform="translate(389.02 474.86)"><tspan x="0" y="0">44</tspan></text><text class="cls-12" transform="translate(310.37 478.25)"><tspan x="0" y="0">34</tspan></text><text class="cls-12" transform="translate(300.08 488.2)"><tspan x="0" y="0">33</tspan></text><text class="cls-12" transform="translate(289.79 498.16)"><tspan x="0" y="0">32</tspan></text><text class="cls-12" transform="translate(279.5 508.12)"><tspan x="0" y="0">31</tspan></text><text class="cls-12" transform="translate(269.21 518.07)"><tspan x="0" y="0">30</tspan></text><text class="cls-12" transform="translate(258.92 528.03)"><tspan x="0" y="0">29</tspan></text><line class="cls-5" x1="265.58" y1="463.82" x2="265.58" y2="504.04"/><line class="cls-5" x1="276.05" y1="462.99" x2="276.05" y2="496.91"/><line class="cls-5" x1="285.5" y1="463.41" x2="285.5" y2="490.21"/><line class="cls-5" x1="295.12" y1="463.63" x2="295.12" y2="482.67"/><line class="cls-5" x1="305.17" y1="463.63" x2="305.17" y2="474.3"/><line class="cls-1" x1="6.41" y1="170.44" x2="781.96" y2="170.44"/><path class="cls-11" d="M.37,170.44c2.84,1.05,6.36,2.85,8.55,4.76l-1.72-4.76,1.72-4.75c-2.18,1.9-5.71,3.7-8.55,4.75Z"/><path class="cls-11" d="M788,170.44c-2.84,1.05-6.36,2.85-8.55,4.76l1.72-4.76-1.72-4.75c2.18,1.9,5.71,3.7,8.55,4.75Z"/><line class="cls-1" x1="11.5" y1="163.92" x2="11.5" y2="176.92"/><text class="cls-12" transform="translate(8.5 188.92)"><tspan x="0" y="0">0</tspan></text><text class="cls-12" transform="translate(409 182.72)"><tspan x="0" y="0">65</tspan></text><path class="cls-6" d="M529.42,166.71c-1.57-30.43-26.69-54.58-57.52-54.58h.53c-31.83,0-57.59,25.76-57.59,57.59"/><path class="cls-11" d="M529.49,169.72c.48-1.44,1.33-3.22,2.25-4.34l-2.35.93-2.4-.79c.98,1.06,1.94,2.8,2.51,4.2Z"/><text class="cls-12" transform="translate(463.89 106.49)"><tspan x="0" y="0">+10</tspan></text><path class="cls-6" d="M642.57,166.7c-1.54-30.43-26.25-54.58-56.55-54.58h.52c-31.3,0-56.63,25.76-56.63,57.59"/><path class="cls-11" d="M642.65,169.72c.46-1.44,1.27-3.25,2.16-4.39l-2.33.98-2.42-.74c1.01,1.04,1.99,2.76,2.59,4.15Z"/><text class="cls-12" transform="translate(576.93 106.49)"><tspan x="0" y="0">+10</tspan></text><path class="cls-6" d="M670.85,167.07c-.41-12.28-3.27-21.78-6.74-21.78h.06c-3.75,0-6.79,11.09-6.79,24.8"/><path class="cls-11" d="M670.9,170.09c.49-1.43,1.34-3.22,2.26-4.34l-2.35.93-2.4-.79c.98,1.07,1.93,2.8,2.49,4.21Z"/><text class="cls-12" transform="translate(642.11 141.64)"><tspan x="0" y="0">+1</tspan></text><text class="cls-12" transform="translate(656.81 141.64)"><tspan x="0" y="0">+1</tspan></text><text class="cls-12" transform="translate(670.68 141.64)"><tspan x="0" y="0">+1</tspan></text><text class="cls-12" transform="translate(685.11 141.64)"><tspan x="0" y="0">+1</tspan></text><text class="cls-12" transform="translate(700.1 141.64)"><tspan x="0" y="0">+1</tspan></text><text class="cls-12" transform="translate(712.83 141.64)"><tspan x="0" y="0">+1</tspan></text><text class="cls-12" transform="translate(727.54 141.64)"><tspan x="0" y="0">+1</tspan></text><text class="cls-12" transform="translate(524.04 182.72)"><tspan x="0" y="0">75</tspan></text><text class="cls-12" transform="translate(637.64 182.72)"><tspan x="0" y="0">85</tspan></text><text class="cls-12" transform="translate(651.09 182.55)"><tspan x="0" y="0">86</tspan></text><text class="cls-12" transform="translate(665.41 182.55)"><tspan x="0" y="0">87</tspan></text><text class="cls-12" transform="translate(679.73 182.55)"><tspan x="0" y="0">88</tspan></text><text class="cls-12" transform="translate(694.06 182.55)"><tspan x="0" y="0">89</tspan></text><text class="cls-12" transform="translate(708.38 182.55)"><tspan x="0" y="0">90</tspan></text><text class="cls-12" transform="translate(722.71 182.55)"><tspan x="0" y="0">91</tspan></text><text class="cls-12" transform="translate(737.03 182.55)"><tspan x="0" y="0">92</tspan></text><text class="cls-12" transform="translate(751.35 182.55)"><tspan x="0" y="0">93</tspan></text><path class="cls-8" d="M12,120.92c4.74-80.88,178.27,16.87,199.66-61.11,21.36,78.36,195.85-19.69,201.34,61.11"/><text class="cls-12" transform="translate(765.68 182.55)"><tspan x="0" y="0">94</tspan></text><path class="cls-6" d="M657.26,167.07c-.44-12.28-3.54-21.78-7.3-21.78h.07c-4.07,0-7.36,11.09-7.36,24.8"/><path class="cls-11" d="M657.32,170.09c.48-1.43,1.33-3.22,2.25-4.34l-2.35.93-2.4-.79c.98,1.06,1.94,2.8,2.5,4.2Z"/><path class="cls-6" d="M700.2,167.07c-.44-12.28-3.54-21.78-7.3-21.78h.07c-4.07,0-7.36,11.09-7.36,24.8"/><path class="cls-11" d="M700.25,170.09c.48-1.43,1.33-3.22,2.25-4.34l-2.35.93-2.4-.79c.98,1.06,1.94,2.8,2.5,4.2Z"/><path class="cls-6" d="M685.48,167.07c-.44-12.28-3.54-21.78-7.3-21.78h.07c-4.07,0-7.36,11.09-7.36,24.8"/><path class="cls-11" d="M685.54,170.09c.48-1.43,1.33-3.22,2.25-4.34l-2.35.93-2.4-.79c.98,1.06,1.94,2.8,2.5,4.2Z"/><path class="cls-6" d="M728.44,167.07c-.41-12.28-3.27-21.78-6.74-21.78h.06c-3.75,0-6.79,11.09-6.79,24.8"/><path class="cls-11" d="M728.49,170.09c.49-1.43,1.34-3.22,2.26-4.34l-2.35.93-2.4-.79c.98,1.07,1.93,2.8,2.49,4.21Z"/><path class="cls-6" d="M714.86,167.07c-.44-12.28-3.54-21.78-7.3-21.78h.07c-4.07,0-7.36,11.09-7.36,24.8"/><path class="cls-11" d="M714.91,170.09c.48-1.43,1.33-3.22,2.25-4.34l-2.35.93-2.4-.79c.98,1.06,1.94,2.8,2.5,4.2Z"/><path class="cls-6" d="M757.79,167.07c-.44-12.28-3.54-21.78-7.3-21.78h.07c-4.07,0-7.36,11.09-7.36,24.8"/><path class="cls-11" d="M757.84,170.09c.48-1.43,1.33-3.22,2.25-4.34l-2.35.93-2.4-.79c.98,1.06,1.94,2.8,2.5,4.2Z"/><path class="cls-6" d="M743.08,167.07c-.44-12.28-3.54-21.78-7.3-21.78h.07c-4.07,0-7.36,11.09-7.36,24.8"/><path class="cls-11" d="M743.13,170.09c.48-1.43,1.33-3.22,2.25-4.34l-2.35.93-2.4-.79c.98,1.06,1.94,2.8,2.5,4.2Z"/><path class="cls-6" d="M772.46,167.07c-.44-12.28-3.54-21.78-7.3-21.78h.07c-4.07,0-7.36,11.09-7.36,24.8"/><path class="cls-11" d="M772.52,170.09c.48-1.43,1.33-3.22,2.25-4.34l-2.35.93-2.4-.79c.98,1.06,1.94,2.8,2.5,4.2Z"/><text class="cls-12" transform="translate(741.82 141.64)"><tspan x="0" y="0">+1</tspan></text><text class="cls-12" transform="translate(757.35 141.64)"><tspan x="0" y="0">+1</tspan></text><text class="cls-13" transform="translate(184.5 45.93)"><tspan x="0" y="0">Kn</tspan><tspan class="cls-25" x="14.93" y="0">o</tspan><tspan x="20.84" y="0">wn pa</tspan><tspan class="cls-28" x="49.8" y="0">r</tspan><tspan class="cls-16" x="54.05" y="0">t</tspan></text><path class="cls-9" d="M412.87,120.92c4.26-80.88,160.23,16.87,179.46-61.11,19.2,78.36,176.03-19.69,180.96,61.11"/><text class="cls-14" transform="translate(554.81 45.93)"><tspan x="0" y="0">Unkn</tspan><tspan class="cls-24" x="27.67" y="0">o</tspan><tspan x="33.59" y="0">wn pa</tspan><tspan class="cls-29" x="62.54" y="0">r</tspan><tspan x="66.79" y="0">t</tspan></text><text class="cls-12" transform="translate(27.56 10.13)"><tspan x="0" y="0">Rit</tspan><tspan class="cls-22" x="15.4" y="0">a</tspan><tspan class="cls-19" x="20.16" y="0">’</tspan><tspan x="21.72" y="0">s</tspan><tspan class="cls-21" x="25.99" y="0"> </tspan><tspan class="cls-17" x="28.86" y="0">W</tspan><tspan class="cls-24" x="40.38" y="0">a</tspan><tspan class="cls-30" x="45.44" y="0">y</tspan><tspan class="cls-22" x="51.04" y="0">:</tspan><tspan x="53.72" y="0" xml:space="preserve"> Counting On </tspan><tspan class="cls-26" x="125.72" y="0">b</tspan><tspan class="cls-15" x="131.63" y="0">y Bases and then Ones (</tspan><tspan class="cls-20" x="247.93" y="0">C</tspan><tspan x="256.64" y="0">OBO)</tspan></text><text class="cls-12" transform="translate(27.73 301.88)"><tspan x="0" y="0">Alte</tspan><tspan class="cls-31" x="20.93" y="0">r</tspan><tspan x="25.08" y="0">nati</tspan><tspan class="cls-23" x="43.62" y="0">v</tspan><tspan x="48.74" y="0">e</tspan><tspan class="cls-32" x="53.85" y="0">l</tspan><tspan class="cls-17" x="57.07" y="0">y</tspan><tspan class="cls-18" x="61.28" y="0">,</tspan><tspan class="cls-16" x="63.49" y="0" xml:space="preserve"> Rita could ha</tspan><tspan class="cls-23" x="131.05" y="0">v</tspan><tspan x="136.17" y="0">e Counted B</tspan><tspan class="cls-24" x="197.88" y="0">a</tspan><tspan class="cls-33" x="202.94" y="0">c</tspan><tspan x="207.99" y="0">k </tspan><tspan class="cls-27" x="216.99" y="0">b</tspan><tspan x="222.9" y="0">y Bases and Ones (CBBO)</tspan></text></g></svg>